<?xml version="1.0" encoding="UTF-8" standalone="no"?>
<!DOCTYPE svg PUBLIC "-//W3C//DTD SVG 1.1//EN"
 "http://www.w3.org/Graphics/SVG/1.1/DTD/svg11.dtd">
<!-- Generated by graphviz version 2.38.0 (20140413.2041)
 -->
<!-- Title: G Pages: 1 -->
<svg width="555pt" height="548pt"
 viewBox="0.00 0.00 555.10 548.00" xmlns="http://www.w3.org/2000/svg" xmlns:xlink="http://www.w3.org/1999/xlink">
<g id="graph0" class="graph" transform="scale(1 1) rotate(0) translate(4 544)">
<title>G</title>
<polygon fill="white" stroke="none" points="-4,4 -4,-544 551.096,-544 551.096,4 -4,4"/>
<!-- v0 -->
<g id="node1" class="node"><title>v0</title>
<ellipse fill="red" stroke="black" cx="198" cy="-522" rx="27" ry="18"/>
<text text-anchor="middle" x="198" y="-518.3" font-family="Times,serif" font-size="14.00">v0</text>
</g>
<!-- v7 -->
<g id="node2" class="node"><title>v7</title>
<ellipse fill="red" stroke="black" cx="310" cy="-162" rx="27" ry="18"/>
<text text-anchor="middle" x="310" y="-158.3" font-family="Times,serif" font-size="14.00">v7</text>
</g>
<!-- v0&#45;&#45;v7 -->
<g id="edge5" class="edge"><title>v0&#45;&#45;v7</title>
<path fill="none" stroke="black" d="M189.131,-504.936C175.764,-479.178 152,-426.682 152,-379 152,-379 152,-379 152,-305 152,-233.451 242.736,-188.796 286.687,-171.363"/>
</g>
<!-- v1 -->
<g id="node3" class="node"><title>v1</title>
<ellipse fill="red" stroke="black" cx="355" cy="-450" rx="27" ry="18"/>
<text text-anchor="middle" x="355" y="-446.3" font-family="Times,serif" font-size="14.00">v1</text>
</g>
<!-- v0&#45;&#45;v1 -->
<g id="edge1" class="edge"><title>v0&#45;&#45;v1</title>
<path fill="none" stroke="black" d="M219.83,-511.267C249.741,-497.931 303.157,-474.115 333.103,-460.763"/>
</g>
<!-- v5 -->
<g id="node6" class="node"><title>v5</title>
<ellipse fill="red" stroke="black" cx="245" cy="-234" rx="27" ry="18"/>
<text text-anchor="middle" x="245" y="-230.3" font-family="Times,serif" font-size="14.00">v5</text>
</g>
<!-- v0&#45;&#45;v5 -->
<g id="edge3" class="edge"><title>v0&#45;&#45;v5</title>
<path fill="none" stroke="black" d="M178.025,-509.727C163.934,-500.532 146.17,-486.118 138,-468 131.423,-453.414 134.06,-447.507 138,-432 156.783,-358.064 209.526,-281.865 233.217,-250.208"/>
</g>
<!-- v2 -->
<g id="node7" class="node"><title>v2</title>
<ellipse fill="red" stroke="black" cx="300" cy="-378" rx="27" ry="18"/>
<text text-anchor="middle" x="300" y="-374.3" font-family="Times,serif" font-size="14.00">v2</text>
</g>
<!-- v0&#45;&#45;v2 -->
<g id="edge2" class="edge"><title>v0&#45;&#45;v2</title>
<path fill="none" stroke="black" d="M209.11,-505.533C228.731,-478.218 269.293,-421.749 288.904,-394.448"/>
</g>
<!-- v6 -->
<g id="node8" class="node"><title>v6</title>
<ellipse fill="none" stroke="black" cx="482" cy="-162" rx="27" ry="18"/>
<text text-anchor="middle" x="482" y="-158.3" font-family="Times,serif" font-size="14.00">v6</text>
</g>
<!-- v0&#45;&#45;v6 -->
<g id="edge4" class="edge"><title>v0&#45;&#45;v6</title>
<path fill="none" stroke="black" d="M225.026,-519.723C265.02,-516.579 340.652,-505.691 391,-468 477.082,-403.559 485.477,-358.546 500,-252 502.161,-236.147 502.608,-231.786 500,-216 497.941,-203.536 493.332,-190.063 489.293,-179.821"/>
</g>
<!-- v9 -->
<g id="node9" class="node"><title>v9</title>
<ellipse fill="none" stroke="black" cx="114" cy="-18" rx="27" ry="18"/>
<text text-anchor="middle" x="114" y="-14.3" font-family="Times,serif" font-size="14.00">v9</text>
</g>
<!-- v0&#45;&#45;v9 -->
<g id="edge6" class="edge"><title>v0&#45;&#45;v9</title>
<path fill="none" stroke="black" d="M172.52,-515.435C119.044,-502.095 0,-462.968 0,-379 0,-379 0,-379 0,-161 0,-101.249 62.1367,-52.3256 94.6615,-30.8101"/>
</g>
<!-- v8 -->
<g id="node5" class="node"><title>v8</title>
<ellipse fill="red" stroke="black" cx="343" cy="-90" rx="27" ry="18"/>
<text text-anchor="middle" x="343" y="-86.3" font-family="Times,serif" font-size="14.00">v8</text>
</g>
<!-- v7&#45;&#45;v8 -->
<g id="edge32" class="edge"><title>v7&#45;&#45;v8</title>
<path fill="none" stroke="black" d="M317.821,-144.411C323.081,-133.252 329.987,-118.604 335.236,-107.47"/>
</g>
<!-- v4 -->
<g id="node4" class="node"><title>v4</title>
<ellipse fill="red" stroke="black" cx="431" cy="-234" rx="27" ry="18"/>
<text text-anchor="middle" x="431" y="-230.3" font-family="Times,serif" font-size="14.00">v4</text>
</g>
<!-- v1&#45;&#45;v4 -->
<g id="edge9" class="edge"><title>v1&#45;&#45;v4</title>
<path fill="none" stroke="black" d="M364.652,-433.047C378.233,-409.872 402.794,-365.157 416,-324 423.803,-299.68 427.751,-270.249 429.589,-252.074"/>
</g>
<!-- v1&#45;&#45;v8 -->
<g id="edge11" class="edge"><title>v1&#45;&#45;v8</title>
<path fill="none" stroke="black" d="M375.849,-438.184C392.856,-428.662 416.795,-413.595 434,-396 516.54,-311.591 588.349,-238.81 518,-144 483.667,-97.7295 410.052,-90.4282 370.113,-90.0973"/>
</g>
<!-- v1&#45;&#45;v2 -->
<g id="edge7" class="edge"><title>v1&#45;&#45;v2</title>
<path fill="none" stroke="black" d="M343.066,-433.811C333.84,-422.07 321.13,-405.893 311.911,-394.159"/>
</g>
<!-- v1&#45;&#45;v6 -->
<g id="edge10" class="edge"><title>v1&#45;&#45;v6</title>
<path fill="none" stroke="black" d="M370.75,-435.157C381.732,-425.007 396.278,-410.517 407,-396 450.242,-337.452 467.119,-322.555 485,-252 491.191,-227.572 488.282,-198.17 485.351,-180.031"/>
</g>
<!-- v1&#45;&#45;v9 -->
<g id="edge12" class="edge"><title>v1&#45;&#45;v9</title>
<path fill="none" stroke="black" d="M329.059,-444.475C253.35,-429.634 38,-375.107 38,-235 38,-235 38,-235 38,-161 38,-109.271 77.6896,-58.1496 99.705,-33.7722"/>
</g>
<!-- v3 -->
<g id="node10" class="node"><title>v3</title>
<ellipse fill="none" stroke="black" cx="355" cy="-306" rx="27" ry="18"/>
<text text-anchor="middle" x="355" y="-302.3" font-family="Times,serif" font-size="14.00">v3</text>
</g>
<!-- v1&#45;&#45;v3 -->
<g id="edge8" class="edge"><title>v1&#45;&#45;v3</title>
<path fill="none" stroke="black" d="M355,-431.871C355,-404.578 355,-351.52 355,-324.189"/>
</g>
<!-- v4&#45;&#45;v7 -->
<g id="edge25" class="edge"><title>v4&#45;&#45;v7</title>
<path fill="none" stroke="black" d="M411.29,-221.597C388.789,-208.581 352.199,-187.413 329.702,-174.398"/>
</g>
<!-- v4&#45;&#45;v8 -->
<g id="edge26" class="edge"><title>v4&#45;&#45;v8</title>
<path fill="none" stroke="black" d="M424.96,-216.166C417.945,-197.68 405.35,-167.501 390,-144 380.719,-129.791 367.787,-115.5 357.836,-105.344"/>
</g>
<!-- v4&#45;&#45;v6 -->
<g id="edge24" class="edge"><title>v4&#45;&#45;v6</title>
<path fill="none" stroke="black" d="M442.319,-217.465C450.77,-205.865 462.269,-190.082 470.713,-178.492"/>
</g>
<!-- v8&#45;&#45;v9 -->
<g id="edge33" class="edge"><title>v8&#45;&#45;v9</title>
<path fill="none" stroke="black" d="M318.926,-81.6411C274.944,-68.197 182.092,-39.8142 138.095,-26.3654"/>
</g>
<!-- v5&#45;&#45;v7 -->
<g id="edge28" class="edge"><title>v5&#45;&#45;v7</title>
<path fill="none" stroke="black" d="M258.785,-218.155C269.816,-206.276 285.21,-189.697 296.235,-177.824"/>
</g>
<!-- v5&#45;&#45;v8 -->
<g id="edge29" class="edge"><title>v5&#45;&#45;v8</title>
<path fill="none" stroke="black" d="M247.458,-215.902C250.856,-196.91 258.427,-166.028 274,-144 286.731,-125.992 307.384,-111.286 322.781,-101.973"/>
</g>
<!-- v5&#45;&#45;v6 -->
<g id="edge27" class="edge"><title>v5&#45;&#45;v6</title>
<path fill="none" stroke="black" d="M269.471,-225.772C315.004,-212.324 412.23,-183.607 457.663,-170.188"/>
</g>
<!-- v5&#45;&#45;v9 -->
<g id="edge30" class="edge"><title>v5&#45;&#45;v9</title>
<path fill="none" stroke="black" d="M235.154,-216.915C210.817,-177.159 148.051,-74.6246 123.782,-34.9795"/>
</g>
<!-- v2&#45;&#45;v7 -->
<g id="edge17" class="edge"><title>v2&#45;&#45;v7</title>
<path fill="none" stroke="black" d="M300.801,-359.849C302.674,-319.78 307.319,-220.383 309.195,-180.232"/>
</g>
<!-- v2&#45;&#45;v4 -->
<g id="edge14" class="edge"><title>v2&#45;&#45;v4</title>
<path fill="none" stroke="black" d="M323.251,-368.262C343.436,-359.661 372.286,-344.79 391,-324 410.04,-302.848 421.317,-271.129 426.819,-251.821"/>
</g>
<!-- v2&#45;&#45;v8 -->
<g id="edge18" class="edge"><title>v2&#45;&#45;v8</title>
<path fill="none" stroke="black" d="M283.13,-363.385C252.461,-336.868 192.216,-275.651 209,-216 219.157,-179.9 226.266,-170.301 253,-144 272.777,-124.543 301.062,-109.412 320.621,-100.386"/>
</g>
<!-- v2&#45;&#45;v5 -->
<g id="edge15" class="edge"><title>v2&#45;&#45;v5</title>
<path fill="none" stroke="black" d="M293.583,-360.433C283.042,-333.217 262.172,-279.334 251.546,-251.902"/>
</g>
<!-- v2&#45;&#45;v6 -->
<g id="edge16" class="edge"><title>v2&#45;&#45;v6</title>
<path fill="none" stroke="black" d="M324.259,-370.063C349.258,-362.022 388.371,-346.874 416,-324 446.206,-298.992 452.032,-288.245 467,-252 476.809,-228.248 480.206,-198.403 481.381,-180.019"/>
</g>
<!-- v2&#45;&#45;v9 -->
<g id="edge19" class="edge"><title>v2&#45;&#45;v9</title>
<path fill="none" stroke="black" d="M275.301,-370.713C224.705,-356.188 114,-315.237 114,-235 114,-235 114,-235 114,-161 114,-115.885 114,-62.7084 114,-36.0493"/>
</g>
<!-- v2&#45;&#45;v3 -->
<g id="edge13" class="edge"><title>v2&#45;&#45;v3</title>
<path fill="none" stroke="black" d="M311.934,-361.811C321.16,-350.07 333.87,-333.893 343.089,-322.159"/>
</g>
<!-- v6&#45;&#45;v8 -->
<g id="edge31" class="edge"><title>v6&#45;&#45;v8</title>
<path fill="none" stroke="black" d="M461.19,-150.52C434.986,-137.324 390.223,-114.781 363.952,-101.551"/>
</g>
<!-- v3&#45;&#45;v7 -->
<g id="edge22" class="edge"><title>v3&#45;&#45;v7</title>
<path fill="none" stroke="black" d="M349.661,-288.153C341.001,-260.824 323.988,-207.14 315.332,-179.825"/>
</g>
<!-- v3&#45;&#45;v4 -->
<g id="edge20" class="edge"><title>v3&#45;&#45;v4</title>
<path fill="none" stroke="black" d="M370.38,-290.834C383.565,-278.69 402.464,-261.283 415.643,-249.144"/>
</g>
<!-- v3&#45;&#45;v8 -->
<g id="edge23" class="edge"><title>v3&#45;&#45;v8</title>
<path fill="none" stroke="black" d="M354.032,-287.608C352.387,-258.083 348.94,-196.268 346,-144 345.327,-132.038 344.564,-118.558 343.976,-108.186"/>
</g>
<!-- v3&#45;&#45;v5 -->
<g id="edge21" class="edge"><title>v3&#45;&#45;v5</title>
<path fill="none" stroke="black" d="M335.839,-292.807C315.65,-279.959 284.048,-259.848 263.941,-247.053"/>
</g>
</g>
</svg>
