<?xml version="1.0" encoding="UTF-8" standalone="no"?>
<!DOCTYPE svg PUBLIC "-//W3C//DTD SVG 1.1//EN"
 "http://www.w3.org/Graphics/SVG/1.1/DTD/svg11.dtd">
<!-- Generated by graphviz version 2.38.0 (20140413.2041)
 -->
<!-- Title: G Pages: 1 -->
<svg width="491pt" height="548pt"
 viewBox="0.00 0.00 490.73 548.00" xmlns="http://www.w3.org/2000/svg" xmlns:xlink="http://www.w3.org/1999/xlink">
<g id="graph0" class="graph" transform="scale(1 1) rotate(0) translate(4 544)">
<title>G</title>
<polygon fill="white" stroke="none" points="-4,4 -4,-544 486.726,-544 486.726,4 -4,4"/>
<!-- v1 -->
<g id="node1" class="node"><title>v1</title>
<ellipse fill="red" stroke="black" cx="254.726" cy="-450" rx="27" ry="18"/>
<text text-anchor="middle" x="254.726" y="-446.3" font-family="Times,serif" font-size="14.00">v1</text>
</g>
<!-- v3 -->
<g id="node2" class="node"><title>v3</title>
<ellipse fill="red" stroke="black" cx="161.726" cy="-306" rx="27" ry="18"/>
<text text-anchor="middle" x="161.726" y="-302.3" font-family="Times,serif" font-size="14.00">v3</text>
</g>
<!-- v1&#45;&#45;v3 -->
<g id="edge8" class="edge"><title>v1&#45;&#45;v3</title>
<path fill="none" stroke="black" d="M244.763,-433.162C233.486,-415.299 214.498,-385.425 197.726,-360 189.396,-347.372 179.756,-333.204 172.55,-322.695"/>
</g>
<!-- v4 -->
<g id="node5" class="node"><title>v4</title>
<ellipse fill="red" stroke="black" cx="237.726" cy="-234" rx="27" ry="18"/>
<text text-anchor="middle" x="237.726" y="-230.3" font-family="Times,serif" font-size="14.00">v4</text>
</g>
<!-- v1&#45;&#45;v4 -->
<g id="edge9" class="edge"><title>v1&#45;&#45;v4</title>
<path fill="none" stroke="black" d="M253.363,-431.849C250.18,-391.78 242.284,-292.383 239.095,-252.232"/>
</g>
<!-- v2 -->
<g id="node6" class="node"><title>v2</title>
<ellipse fill="red" stroke="black" cx="161.726" cy="-378" rx="27" ry="18"/>
<text text-anchor="middle" x="161.726" y="-374.3" font-family="Times,serif" font-size="14.00">v2</text>
</g>
<!-- v1&#45;&#45;v2 -->
<g id="edge7" class="edge"><title>v1&#45;&#45;v2</title>
<path fill="none" stroke="black" d="M237.233,-435.834C220.606,-423.319 195.741,-404.603 179.14,-392.107"/>
</g>
<!-- v8 -->
<g id="node7" class="node"><title>v8</title>
<ellipse fill="red" stroke="black" cx="182.726" cy="-90" rx="27" ry="18"/>
<text text-anchor="middle" x="182.726" y="-86.3" font-family="Times,serif" font-size="14.00">v8</text>
</g>
<!-- v1&#45;&#45;v8 -->
<g id="edge11" class="edge"><title>v1&#45;&#45;v8</title>
<path fill="none" stroke="black" d="M265.669,-433.456C297.823,-385.706 385.773,-238.661 320.726,-144 295.726,-107.619 242.024,-96.1996 209.474,-92.623"/>
</g>
<!-- v6 -->
<g id="node8" class="node"><title>v6</title>
<ellipse fill="none" stroke="black" cx="284.726" cy="-162" rx="27" ry="18"/>
<text text-anchor="middle" x="284.726" y="-158.3" font-family="Times,serif" font-size="14.00">v6</text>
</g>
<!-- v1&#45;&#45;v6 -->
<g id="edge10" class="edge"><title>v1&#45;&#45;v6</title>
<path fill="none" stroke="black" d="M260.034,-432.164C271.494,-393.973 297.1,-297.74 291.726,-216 290.934,-203.96 289.142,-190.481 287.569,-180.129"/>
</g>
<!-- v9 -->
<g id="node10" class="node"><title>v9</title>
<ellipse fill="none" stroke="black" cx="182.726" cy="-18" rx="27" ry="18"/>
<text text-anchor="middle" x="182.726" y="-14.3" font-family="Times,serif" font-size="14.00">v9</text>
</g>
<!-- v1&#45;&#45;v9 -->
<g id="edge12" class="edge"><title>v1&#45;&#45;v9</title>
<path fill="none" stroke="black" d="M275.785,-438.249C325.254,-411.324 444.726,-335.857 444.726,-235 444.726,-235 444.726,-235 444.726,-161 444.726,-54.9386 276.718,-27.6836 209.778,-21.0335"/>
</g>
<!-- v5 -->
<g id="node3" class="node"><title>v5</title>
<ellipse fill="red" stroke="black" cx="51.7259" cy="-234" rx="27" ry="18"/>
<text text-anchor="middle" x="51.7259" y="-230.3" font-family="Times,serif" font-size="14.00">v5</text>
</g>
<!-- v3&#45;&#45;v5 -->
<g id="edge21" class="edge"><title>v3&#45;&#45;v5</title>
<path fill="none" stroke="black" d="M142.565,-292.807C122.376,-279.959 90.7734,-259.848 70.6669,-247.053"/>
</g>
<!-- v3&#45;&#45;v4 -->
<g id="edge20" class="edge"><title>v3&#45;&#45;v4</title>
<path fill="none" stroke="black" d="M177.106,-290.834C190.291,-278.69 209.19,-261.283 222.369,-249.144"/>
</g>
<!-- v3&#45;&#45;v8 -->
<g id="edge23" class="edge"><title>v3&#45;&#45;v8</title>
<path fill="none" stroke="black" d="M163.409,-287.849C167.341,-247.78 177.095,-148.383 181.035,-108.232"/>
</g>
<!-- v7 -->
<g id="node9" class="node"><title>v7</title>
<ellipse fill="none" stroke="black" cx="117.726" cy="-162" rx="27" ry="18"/>
<text text-anchor="middle" x="117.726" y="-158.3" font-family="Times,serif" font-size="14.00">v7</text>
</g>
<!-- v3&#45;&#45;v7 -->
<g id="edge22" class="edge"><title>v3&#45;&#45;v7</title>
<path fill="none" stroke="black" d="M156.506,-288.153C148.038,-260.824 131.403,-207.14 122.939,-179.825"/>
</g>
<!-- v5&#45;&#45;v8 -->
<g id="edge29" class="edge"><title>v5&#45;&#45;v8</title>
<path fill="none" stroke="black" d="M53.6742,-215.72C56.6706,-196.278 64.0522,-164.715 81.7259,-144 101.905,-120.349 135.32,-105.773 158.148,-98.0369"/>
</g>
<!-- v5&#45;&#45;v6 -->
<g id="edge27" class="edge"><title>v5&#45;&#45;v6</title>
<path fill="none" stroke="black" d="M75.7834,-225.772C120.432,-212.359 215.638,-183.756 260.45,-170.293"/>
</g>
<!-- v5&#45;&#45;v7 -->
<g id="edge28" class="edge"><title>v5&#45;&#45;v7</title>
<path fill="none" stroke="black" d="M65.7228,-218.155C76.9232,-206.276 92.5541,-189.697 103.749,-177.824"/>
</g>
<!-- v5&#45;&#45;v9 -->
<g id="edge30" class="edge"><title>v5&#45;&#45;v9</title>
<path fill="none" stroke="black" d="M49.4241,-215.738C47.7142,-197.146 47.2225,-167.124 57.7259,-144 80.9526,-92.8644 134.848,-50.9615 163.696,-31.2218"/>
</g>
<!-- v0 -->
<g id="node4" class="node"><title>v0</title>
<ellipse fill="red" stroke="black" cx="217.726" cy="-522" rx="27" ry="18"/>
<text text-anchor="middle" x="217.726" y="-518.3" font-family="Times,serif" font-size="14.00">v0</text>
</g>
<!-- v0&#45;&#45;v1 -->
<g id="edge1" class="edge"><title>v0&#45;&#45;v1</title>
<path fill="none" stroke="black" d="M226.307,-504.765C232.285,-493.456 240.224,-478.437 246.191,-467.147"/>
</g>
<!-- v0&#45;&#45;v5 -->
<g id="edge3" class="edge"><title>v0&#45;&#45;v5</title>
<path fill="none" stroke="black" d="M202.929,-506.784C172.267,-476.391 101.818,-401.52 67.7259,-324 57.3611,-300.432 53.7098,-270.535 52.4241,-252.09"/>
</g>
<!-- v0&#45;&#45;v2 -->
<g id="edge2" class="edge"><title>v0&#45;&#45;v2</title>
<path fill="none" stroke="black" d="M211.192,-504.433C200.459,-477.217 179.21,-423.334 168.391,-395.902"/>
</g>
<!-- v0&#45;&#45;v6 -->
<g id="edge4" class="edge"><title>v0&#45;&#45;v6</title>
<path fill="none" stroke="black" d="M239.742,-511.485C256.847,-502.82 279.49,-488.274 290.726,-468 345.114,-369.865 326.764,-326.208 305.726,-216 303.276,-203.167 297.77,-189.477 293.01,-179.226"/>
</g>
<!-- v0&#45;&#45;v7 -->
<g id="edge5" class="edge"><title>v0&#45;&#45;v7</title>
<path fill="none" stroke="black" d="M196.2,-510.658C177.972,-501.217 151.832,-486.015 132.726,-468 53.2905,-393.1 39.0062,-358.668 15.7259,-252 12.3142,-236.368 7.42037,-229.675 15.7259,-216 32.197,-188.88 67.5552,-175.003 91.9853,-168.38"/>
</g>
<!-- v0&#45;&#45;v9 -->
<g id="edge6" class="edge"><title>v0&#45;&#45;v9</title>
<path fill="none" stroke="black" d="M244.594,-519.125C311.965,-512.821 482.726,-486.262 482.726,-379 482.726,-379 482.726,-379 482.726,-161 482.726,-40.8556 283.726,-22.2218 209.878,-19.4431"/>
</g>
<!-- v4&#45;&#45;v8 -->
<g id="edge26" class="edge"><title>v4&#45;&#45;v8</title>
<path fill="none" stroke="black" d="M231.309,-216.433C220.768,-189.217 199.898,-135.334 189.272,-107.902"/>
</g>
<!-- v4&#45;&#45;v6 -->
<g id="edge24" class="edge"><title>v4&#45;&#45;v6</title>
<path fill="none" stroke="black" d="M248.391,-217.116C256.083,-205.66 266.421,-190.263 274.103,-178.821"/>
</g>
<!-- v4&#45;&#45;v7 -->
<g id="edge25" class="edge"><title>v4&#45;&#45;v7</title>
<path fill="none" stroke="black" d="M217.91,-221.441C195.676,-208.471 159.817,-187.553 137.571,-174.576"/>
</g>
<!-- v2&#45;&#45;v3 -->
<g id="edge13" class="edge"><title>v2&#45;&#45;v3</title>
<path fill="none" stroke="black" d="M161.726,-359.697C161.726,-348.846 161.726,-334.917 161.726,-324.104"/>
</g>
<!-- v2&#45;&#45;v5 -->
<g id="edge15" class="edge"><title>v2&#45;&#45;v5</title>
<path fill="none" stroke="black" d="M142.077,-365.599C126.993,-356.05 106.486,-341.235 92.7259,-324 75.0002,-301.798 62.9534,-270.688 56.7195,-251.741"/>
</g>
<!-- v2&#45;&#45;v4 -->
<g id="edge14" class="edge"><title>v2&#45;&#45;v4</title>
<path fill="none" stroke="black" d="M173.177,-361.686C180.648,-351.339 190.347,-337.206 197.726,-324 211.359,-299.599 224.035,-269.68 231.324,-251.493"/>
</g>
<!-- v2&#45;&#45;v8 -->
<g id="edge18" class="edge"><title>v2&#45;&#45;v8</title>
<path fill="none" stroke="black" d="M139.094,-367.62C118.885,-358.5 89.2377,-343.226 67.7259,-324 28.0046,-288.499 1.82245,-267.428 15.7259,-216 25.3943,-180.237 29.9199,-168.48 57.7259,-144 86.7409,-118.456 129.88,-103.889 157.14,-96.7179"/>
</g>
<!-- v2&#45;&#45;v6 -->
<g id="edge16" class="edge"><title>v2&#45;&#45;v6</title>
<path fill="none" stroke="black" d="M179.42,-364.034C205.653,-343.614 253.896,-301.185 273.726,-252 283.273,-228.319 285.103,-198.454 285.184,-180.046"/>
</g>
<!-- v2&#45;&#45;v7 -->
<g id="edge17" class="edge"><title>v2&#45;&#45;v7</title>
<path fill="none" stroke="black" d="M148.216,-361.992C140.101,-351.993 130.459,-338.134 125.726,-324 108.929,-273.845 112.573,-209.992 115.631,-180.005"/>
</g>
<!-- v2&#45;&#45;v9 -->
<g id="edge19" class="edge"><title>v2&#45;&#45;v9</title>
<path fill="none" stroke="black" d="M135.351,-373.81C104.79,-368.701 55.0187,-355.784 26.7259,-324 -5.67904,-287.596 -3.07264,-263.526 7.72591,-216 23.4501,-146.796 26.9674,-122.602 76.7259,-72 99.6631,-48.6741 134.998,-33.8782 158.483,-26.0146"/>
</g>
<!-- v8&#45;&#45;v9 -->
<g id="edge33" class="edge"><title>v8&#45;&#45;v9</title>
<path fill="none" stroke="black" d="M182.726,-71.6966C182.726,-60.8463 182.726,-46.9167 182.726,-36.1043"/>
</g>
<!-- v6&#45;&#45;v8 -->
<g id="edge31" class="edge"><title>v6&#45;&#45;v8</title>
<path fill="none" stroke="black" d="M266.49,-148.485C247.924,-135.744 219.312,-116.108 200.804,-103.406"/>
</g>
<!-- v7&#45;&#45;v8 -->
<g id="edge32" class="edge"><title>v7&#45;&#45;v8</title>
<path fill="none" stroke="black" d="M131.511,-146.155C142.541,-134.276 157.935,-117.697 168.961,-105.824"/>
</g>
</g>
</svg>
