<?xml version="1.0" encoding="UTF-8" standalone="no"?>
<!DOCTYPE svg PUBLIC "-//W3C//DTD SVG 1.1//EN"
 "http://www.w3.org/Graphics/SVG/1.1/DTD/svg11.dtd">
<!-- Generated by graphviz version 2.38.0 (20140413.2041)
 -->
<!-- Title: G Pages: 1 -->
<svg width="526pt" height="548pt"
 viewBox="0.00 0.00 526.11 548.00" xmlns="http://www.w3.org/2000/svg" xmlns:xlink="http://www.w3.org/1999/xlink">
<g id="graph0" class="graph" transform="scale(1 1) rotate(0) translate(4 544)">
<title>G</title>
<polygon fill="white" stroke="none" points="-4,4 -4,-544 522.108,-544 522.108,4 -4,4"/>
<!-- v5 -->
<g id="node1" class="node"><title>v5</title>
<ellipse fill="red" stroke="black" cx="211" cy="-234" rx="27" ry="18"/>
<text text-anchor="middle" x="211" y="-230.3" font-family="Times,serif" font-size="14.00">v5</text>
</g>
<!-- v8 -->
<g id="node5" class="node"><title>v8</title>
<ellipse fill="red" stroke="black" cx="293" cy="-90" rx="27" ry="18"/>
<text text-anchor="middle" x="293" y="-86.3" font-family="Times,serif" font-size="14.00">v8</text>
</g>
<!-- v5&#45;&#45;v8 -->
<g id="edge29" class="edge"><title>v5&#45;&#45;v8</title>
<path fill="none" stroke="black" d="M217.342,-216.356C224.621,-198.037 237.447,-168.003 252,-144 260.203,-130.471 271.261,-116.359 279.827,-106.101"/>
</g>
<!-- v6 -->
<g id="node8" class="node"><title>v6</title>
<ellipse fill="none" stroke="black" cx="135" cy="-162" rx="27" ry="18"/>
<text text-anchor="middle" x="135" y="-158.3" font-family="Times,serif" font-size="14.00">v6</text>
</g>
<!-- v5&#45;&#45;v6 -->
<g id="edge27" class="edge"><title>v5&#45;&#45;v6</title>
<path fill="none" stroke="black" d="M195.62,-218.834C182.435,-206.69 163.536,-189.283 150.357,-177.144"/>
</g>
<!-- v7 -->
<g id="node9" class="node"><title>v7</title>
<ellipse fill="none" stroke="black" cx="321" cy="-162" rx="27" ry="18"/>
<text text-anchor="middle" x="321" y="-158.3" font-family="Times,serif" font-size="14.00">v7</text>
</g>
<!-- v5&#45;&#45;v7 -->
<g id="edge28" class="edge"><title>v5&#45;&#45;v7</title>
<path fill="none" stroke="black" d="M230.161,-220.807C250.35,-207.959 281.952,-187.848 302.059,-175.053"/>
</g>
<!-- v9 -->
<g id="node10" class="node"><title>v9</title>
<ellipse fill="none" stroke="black" cx="190" cy="-18" rx="27" ry="18"/>
<text text-anchor="middle" x="190" y="-14.3" font-family="Times,serif" font-size="14.00">v9</text>
</g>
<!-- v5&#45;&#45;v9 -->
<g id="edge30" class="edge"><title>v5&#45;&#45;v9</title>
<path fill="none" stroke="black" d="M209.317,-215.849C205.385,-175.78 195.631,-76.3826 191.691,-36.2325"/>
</g>
<!-- v4 -->
<g id="node2" class="node"><title>v4</title>
<ellipse fill="red" stroke="black" cx="359" cy="-234" rx="27" ry="18"/>
<text text-anchor="middle" x="359" y="-230.3" font-family="Times,serif" font-size="14.00">v4</text>
</g>
<!-- v4&#45;&#45;v8 -->
<g id="edge26" class="edge"><title>v4&#45;&#45;v8</title>
<path fill="none" stroke="black" d="M362.633,-215.959C365.73,-197.291 368.111,-166.954 357,-144 347.949,-125.301 328.83,-110.869 313.834,-101.82"/>
</g>
<!-- v4&#45;&#45;v6 -->
<g id="edge24" class="edge"><title>v4&#45;&#45;v6</title>
<path fill="none" stroke="black" d="M335.028,-225.509C292.027,-212.071 202.259,-184.018 159.138,-170.543"/>
</g>
<!-- v4&#45;&#45;v7 -->
<g id="edge25" class="edge"><title>v4&#45;&#45;v7</title>
<path fill="none" stroke="black" d="M350.187,-216.765C344.048,-205.456 335.894,-190.437 329.766,-179.147"/>
</g>
<!-- v0 -->
<g id="node3" class="node"><title>v0</title>
<ellipse fill="red" stroke="black" cx="161" cy="-522" rx="27" ry="18"/>
<text text-anchor="middle" x="161" y="-518.3" font-family="Times,serif" font-size="14.00">v0</text>
</g>
<!-- v0&#45;&#45;v5 -->
<g id="edge3" class="edge"><title>v0&#45;&#45;v5</title>
<path fill="none" stroke="black" d="M163.978,-503.966C172.871,-453.098 199.165,-302.696 208.038,-251.945"/>
</g>
<!-- v1 -->
<g id="node4" class="node"><title>v1</title>
<ellipse fill="red" stroke="black" cx="397" cy="-450" rx="27" ry="18"/>
<text text-anchor="middle" x="397" y="-446.3" font-family="Times,serif" font-size="14.00">v1</text>
</g>
<!-- v0&#45;&#45;v1 -->
<g id="edge1" class="edge"><title>v0&#45;&#45;v1</title>
<path fill="none" stroke="black" d="M185.367,-513.772C230.708,-500.324 327.525,-471.607 372.765,-458.188"/>
</g>
<!-- v2 -->
<g id="node7" class="node"><title>v2</title>
<ellipse fill="red" stroke="black" cx="266" cy="-378" rx="27" ry="18"/>
<text text-anchor="middle" x="266" y="-374.3" font-family="Times,serif" font-size="14.00">v2</text>
</g>
<!-- v0&#45;&#45;v2 -->
<g id="edge2" class="edge"><title>v0&#45;&#45;v2</title>
<path fill="none" stroke="black" d="M172.437,-505.533C192.634,-478.218 234.39,-421.749 254.577,-394.448"/>
</g>
<!-- v0&#45;&#45;v6 -->
<g id="edge4" class="edge"><title>v0&#45;&#45;v6</title>
<path fill="none" stroke="black" d="M140.689,-509.908C105.754,-489.172 38,-440.969 38,-379 38,-379 38,-379 38,-305 38,-249.17 89.7577,-199.135 117.658,-176.219"/>
</g>
<!-- v0&#45;&#45;v7 -->
<g id="edge5" class="edge"><title>v0&#45;&#45;v7</title>
<path fill="none" stroke="black" d="M187.753,-518.505C248.2,-512.444 393.158,-495.393 433,-468 464.095,-446.621 467.597,-432.274 478,-396 501.449,-314.24 472.02,-277.247 413,-216 393.302,-195.559 364.011,-180.532 343.796,-171.802"/>
</g>
<!-- v0&#45;&#45;v9 -->
<g id="edge6" class="edge"><title>v0&#45;&#45;v9</title>
<path fill="none" stroke="black" d="M136.482,-513.733C112.645,-505.677 76.5415,-490.739 52,-468 18.3955,-436.863 0,-424.812 0,-379 0,-379 0,-379 0,-161 0,-79.6683 113.086,-39.3121 164.769,-25.1152"/>
</g>
<!-- v1&#45;&#45;v4 -->
<g id="edge9" class="edge"><title>v1&#45;&#45;v4</title>
<path fill="none" stroke="black" d="M407.337,-433.015C425.316,-403.019 458.132,-336.913 433,-288 422.312,-267.198 399.249,-252.734 381.692,-244.233"/>
</g>
<!-- v1&#45;&#45;v8 -->
<g id="edge11" class="edge"><title>v1&#45;&#45;v8</title>
<path fill="none" stroke="black" d="M413.627,-435.624C440.377,-412.476 490,-362.108 490,-307 490,-307 490,-307 490,-233 490,-149.312 371.558,-110.031 318.351,-96.6073"/>
</g>
<!-- v3 -->
<g id="node6" class="node"><title>v3</title>
<ellipse fill="red" stroke="black" cx="397" cy="-306" rx="27" ry="18"/>
<text text-anchor="middle" x="397" y="-302.3" font-family="Times,serif" font-size="14.00">v3</text>
</g>
<!-- v1&#45;&#45;v3 -->
<g id="edge8" class="edge"><title>v1&#45;&#45;v3</title>
<path fill="none" stroke="black" d="M397,-431.871C397,-404.578 397,-351.52 397,-324.189"/>
</g>
<!-- v1&#45;&#45;v2 -->
<g id="edge7" class="edge"><title>v1&#45;&#45;v2</title>
<path fill="none" stroke="black" d="M376.531,-438.062C351.921,-424.912 310.871,-402.977 286.325,-389.861"/>
</g>
<!-- v1&#45;&#45;v6 -->
<g id="edge10" class="edge"><title>v1&#45;&#45;v6</title>
<path fill="none" stroke="black" d="M370.328,-446.734C334.664,-442.44 271.169,-430.223 230,-396 161.134,-338.752 141.643,-223.779 136.609,-180.241"/>
</g>
<!-- v1&#45;&#45;v9 -->
<g id="edge12" class="edge"><title>v1&#45;&#45;v9</title>
<path fill="none" stroke="black" d="M417.195,-437.813C438.286,-425.787 469.469,-406.929 478,-396 527.737,-332.283 523.005,-294.564 504,-216 480.317,-118.1 420.864,-113.309 329,-72 289.192,-54.0996 241.366,-36.7356 213.457,-27.0009"/>
</g>
<!-- v8&#45;&#45;v9 -->
<g id="edge33" class="edge"><title>v8&#45;&#45;v9</title>
<path fill="none" stroke="black" d="M274.586,-76.4854C255.838,-63.7441 226.945,-44.1083 208.255,-31.4063"/>
</g>
<!-- v3&#45;&#45;v5 -->
<g id="edge21" class="edge"><title>v3&#45;&#45;v5</title>
<path fill="none" stroke="black" d="M373.819,-296.276C337.982,-282.789 269.548,-257.034 233.889,-243.614"/>
</g>
<!-- v3&#45;&#45;v4 -->
<g id="edge20" class="edge"><title>v3&#45;&#45;v4</title>
<path fill="none" stroke="black" d="M388.187,-288.765C382.048,-277.456 373.894,-262.437 367.766,-251.147"/>
</g>
<!-- v3&#45;&#45;v8 -->
<g id="edge23" class="edge"><title>v3&#45;&#45;v8</title>
<path fill="none" stroke="black" d="M404.112,-288.461C410.883,-270.488 419.19,-240.991 413,-216 404.3,-180.878 399.433,-170.688 375,-144 357.831,-125.246 332.629,-110.273 314.703,-101.089"/>
</g>
<!-- v3&#45;&#45;v7 -->
<g id="edge22" class="edge"><title>v3&#45;&#45;v7</title>
<path fill="none" stroke="black" d="M400.875,-288.146C404.265,-269.373 406.981,-238.687 395,-216 384.079,-195.319 361.052,-180.836 343.567,-172.297"/>
</g>
<!-- v2&#45;&#45;v5 -->
<g id="edge15" class="edge"><title>v2&#45;&#45;v5</title>
<path fill="none" stroke="black" d="M259.583,-360.433C249.042,-333.217 228.172,-279.334 217.546,-251.902"/>
</g>
<!-- v2&#45;&#45;v4 -->
<g id="edge14" class="edge"><title>v2&#45;&#45;v4</title>
<path fill="none" stroke="black" d="M282.043,-363.366C293.163,-353.314 307.754,-338.856 318,-324 334.034,-300.753 346.513,-270.232 353.306,-251.646"/>
</g>
<!-- v2&#45;&#45;v8 -->
<g id="edge18" class="edge"><title>v2&#45;&#45;v8</title>
<path fill="none" stroke="black" d="M266.986,-360.004C269.308,-321.487 275.638,-224.63 285,-144 286.395,-131.983 288.436,-118.504 290.108,-108.146"/>
</g>
<!-- v2&#45;&#45;v3 -->
<g id="edge13" class="edge"><title>v2&#45;&#45;v3</title>
<path fill="none" stroke="black" d="M286.469,-366.062C311.079,-352.912 352.129,-330.977 376.675,-317.861"/>
</g>
<!-- v2&#45;&#45;v6 -->
<g id="edge16" class="edge"><title>v2&#45;&#45;v6</title>
<path fill="none" stroke="black" d="M254.359,-361.257C246.587,-350.728 236.153,-336.555 227,-324 203.747,-292.103 194.748,-286.178 175,-252 161.016,-227.798 148.442,-197.822 141.269,-179.568"/>
</g>
<!-- v2&#45;&#45;v7 -->
<g id="edge17" class="edge"><title>v2&#45;&#45;v7</title>
<path fill="none" stroke="black" d="M270.578,-359.824C273.332,-349.456 276.894,-335.976 280,-324 293.615,-271.511 309.345,-209.287 316.74,-179.934"/>
</g>
<!-- v2&#45;&#45;v9 -->
<g id="edge19" class="edge"><title>v2&#45;&#45;v9</title>
<path fill="none" stroke="black" d="M246.807,-365.281C231.659,-355.449 210.558,-340.409 195,-324 142.077,-268.182 121.29,-253.618 99,-180 80.9499,-120.385 142.516,-58.6647 173.396,-32.2659"/>
</g>
<!-- v6&#45;&#45;v8 -->
<g id="edge31" class="edge"><title>v6&#45;&#45;v8</title>
<path fill="none" stroke="black" d="M156.969,-151.267C187.156,-137.893 241.129,-113.981 271.217,-100.651"/>
</g>
<!-- v7&#45;&#45;v8 -->
<g id="edge32" class="edge"><title>v7&#45;&#45;v8</title>
<path fill="none" stroke="black" d="M314.364,-144.411C309.901,-133.252 304.041,-118.604 299.588,-107.47"/>
</g>
</g>
</svg>
