<?xml version="1.0" encoding="UTF-8" standalone="no"?>
<!DOCTYPE svg PUBLIC "-//W3C//DTD SVG 1.1//EN"
 "http://www.w3.org/Graphics/SVG/1.1/DTD/svg11.dtd">
<!-- Generated by graphviz version 2.38.0 (20140413.2041)
 -->
<!-- Title: G Pages: 1 -->
<svg width="384pt" height="404pt"
 viewBox="0.00 0.00 384.00 404.00" xmlns="http://www.w3.org/2000/svg" xmlns:xlink="http://www.w3.org/1999/xlink">
<g id="graph0" class="graph" transform="scale(1 1) rotate(0) translate(4 400)">
<title>G</title>
<polygon fill="white" stroke="none" points="-4,4 -4,-400 380,-400 380,4 -4,4"/>
<!-- v4 -->
<g id="node1" class="node"><title>v4</title>
<ellipse fill="red" stroke="black" cx="169" cy="-162" rx="27" ry="18"/>
<text text-anchor="middle" x="169" y="-158.3" font-family="Times,serif" font-size="14.00">v4</text>
</g>
<!-- v5 -->
<g id="node3" class="node"><title>v5</title>
<ellipse fill="red" stroke="black" cx="142" cy="-90" rx="27" ry="18"/>
<text text-anchor="middle" x="142" y="-86.3" font-family="Times,serif" font-size="14.00">v5</text>
</g>
<!-- v4&#45;&#45;v5 -->
<g id="edge18" class="edge"><title>v4&#45;&#45;v5</title>
<path fill="none" stroke="black" d="M162.601,-144.411C158.36,-133.414 152.811,-119.027 148.54,-107.956"/>
</g>
<!-- v6 -->
<g id="node7" class="node"><title>v6</title>
<ellipse fill="none" stroke="black" cx="300" cy="-18" rx="27" ry="18"/>
<text text-anchor="middle" x="300" y="-14.3" font-family="Times,serif" font-size="14.00">v6</text>
</g>
<!-- v4&#45;&#45;v6 -->
<g id="edge19" class="edge"><title>v4&#45;&#45;v6</title>
<path fill="none" stroke="black" d="M182.526,-146.338C207.629,-119.128 261.156,-61.1052 286.351,-33.7946"/>
</g>
<!-- v3 -->
<g id="node2" class="node"><title>v3</title>
<ellipse fill="red" stroke="black" cx="104" cy="-234" rx="27" ry="18"/>
<text text-anchor="middle" x="104" y="-230.3" font-family="Times,serif" font-size="14.00">v3</text>
</g>
<!-- v3&#45;&#45;v4 -->
<g id="edge16" class="edge"><title>v3&#45;&#45;v4</title>
<path fill="none" stroke="black" d="M117.785,-218.155C128.816,-206.276 144.21,-189.697 155.235,-177.824"/>
</g>
<!-- v7 -->
<g id="node8" class="node"><title>v7</title>
<ellipse fill="none" stroke="black" cx="90" cy="-18" rx="27" ry="18"/>
<text text-anchor="middle" x="90" y="-14.3" font-family="Times,serif" font-size="14.00">v7</text>
</g>
<!-- v3&#45;&#45;v7 -->
<g id="edge17" class="edge"><title>v3&#45;&#45;v7</title>
<path fill="none" stroke="black" d="M102.645,-215.818C101.842,-205.448 100.823,-191.968 100,-180 96.406,-127.754 92.7268,-65.9288 91.0045,-36.3969"/>
</g>
<!-- v5&#45;&#45;v6 -->
<g id="edge20" class="edge"><title>v5&#45;&#45;v6</title>
<path fill="none" stroke="black" d="M163.969,-79.2668C194.156,-65.8931 248.129,-41.9806 278.217,-28.6505"/>
</g>
<!-- v5&#45;&#45;v7 -->
<g id="edge21" class="edge"><title>v5&#45;&#45;v7</title>
<path fill="none" stroke="black" d="M130.46,-73.4647C121.842,-61.8645 110.118,-46.0816 101.508,-34.4918"/>
</g>
<!-- v1 -->
<g id="node4" class="node"><title>v1</title>
<ellipse fill="red" stroke="black" cx="183" cy="-306" rx="27" ry="18"/>
<text text-anchor="middle" x="183" y="-302.3" font-family="Times,serif" font-size="14.00">v1</text>
</g>
<!-- v1&#45;&#45;v4 -->
<g id="edge9" class="edge"><title>v1&#45;&#45;v4</title>
<path fill="none" stroke="black" d="M181.311,-287.871C178.62,-260.578 173.389,-207.52 170.695,-180.189"/>
</g>
<!-- v1&#45;&#45;v3 -->
<g id="edge8" class="edge"><title>v1&#45;&#45;v3</title>
<path fill="none" stroke="black" d="M167.392,-291.17C153.542,-278.898 133.415,-261.064 119.575,-248.801"/>
</g>
<!-- v1&#45;&#45;v5 -->
<g id="edge10" class="edge"><title>v1&#45;&#45;v5</title>
<path fill="none" stroke="black" d="M174.095,-288.636C161.967,-265.328 140.868,-220.853 133,-180 128.213,-155.143 133.171,-125.858 137.404,-107.861"/>
</g>
<!-- v2 -->
<g id="node6" class="node"><title>v2</title>
<ellipse fill="red" stroke="black" cx="252" cy="-234" rx="27" ry="18"/>
<text text-anchor="middle" x="252" y="-230.3" font-family="Times,serif" font-size="14.00">v2</text>
</g>
<!-- v1&#45;&#45;v2 -->
<g id="edge7" class="edge"><title>v1&#45;&#45;v2</title>
<path fill="none" stroke="black" d="M197.297,-290.496C209.139,-278.482 225.884,-261.494 237.721,-249.485"/>
</g>
<!-- v1&#45;&#45;v6 -->
<g id="edge11" class="edge"><title>v1&#45;&#45;v6</title>
<path fill="none" stroke="black" d="M208.245,-299.47C232.801,-292.685 269.089,-278.643 288,-252 335.71,-184.783 315.151,-77.1977 304.713,-35.8978"/>
</g>
<!-- v0 -->
<g id="node5" class="node"><title>v0</title>
<ellipse fill="red" stroke="black" cx="146" cy="-378" rx="27" ry="18"/>
<text text-anchor="middle" x="146" y="-374.3" font-family="Times,serif" font-size="14.00">v0</text>
</g>
<!-- v0&#45;&#45;v3 -->
<g id="edge3" class="edge"><title>v0&#45;&#45;v3</title>
<path fill="none" stroke="black" d="M141.017,-360.153C132.934,-332.824 117.055,-279.14 108.976,-251.825"/>
</g>
<!-- v0&#45;&#45;v5 -->
<g id="edge4" class="edge"><title>v0&#45;&#45;v5</title>
<path fill="none" stroke="black" d="M132.81,-362.194C114.089,-340.08 80.6775,-296.264 68,-252 51.7375,-195.219 101.494,-133.047 127.388,-105.51"/>
</g>
<!-- v0&#45;&#45;v1 -->
<g id="edge1" class="edge"><title>v0&#45;&#45;v1</title>
<path fill="none" stroke="black" d="M154.582,-360.765C160.559,-349.456 168.498,-334.437 174.465,-323.147"/>
</g>
<!-- v0&#45;&#45;v2 -->
<g id="edge2" class="edge"><title>v0&#45;&#45;v2</title>
<path fill="none" stroke="black" d="M166.866,-366.333C183.082,-357.095 205.086,-342.343 219,-324 235.532,-302.205 244.5,-271.254 248.762,-252.184"/>
</g>
<!-- v0&#45;&#45;v6 -->
<g id="edge5" class="edge"><title>v0&#45;&#45;v6</title>
<path fill="none" stroke="black" d="M172.384,-373.364C232.797,-363.403 376,-329.794 376,-235 376,-235 376,-235 376,-161 376,-109.271 336.31,-58.1496 314.295,-33.7722"/>
</g>
<!-- v0&#45;&#45;v7 -->
<g id="edge6" class="edge"><title>v0&#45;&#45;v7</title>
<path fill="none" stroke="black" d="M123.507,-367.687C82.5533,-349.058 0,-303.066 0,-235 0,-235 0,-235 0,-161 0,-106.42 48.0226,-55.8088 73.9098,-32.4915"/>
</g>
<!-- v2&#45;&#45;v4 -->
<g id="edge12" class="edge"><title>v2&#45;&#45;v4</title>
<path fill="none" stroke="black" d="M235.602,-219.17C220.956,-206.819 199.63,-188.832 185.082,-176.563"/>
</g>
<!-- v2&#45;&#45;v5 -->
<g id="edge13" class="edge"><title>v2&#45;&#45;v5</title>
<path fill="none" stroke="black" d="M245.55,-216.445C237.737,-197.668 223.318,-166.715 205,-144 192.08,-127.978 173.761,-113.211 160.206,-103.357"/>
</g>
<!-- v2&#45;&#45;v6 -->
<g id="edge14" class="edge"><title>v2&#45;&#45;v6</title>
<path fill="none" stroke="black" d="M260.785,-216.744C265.968,-206.481 272.231,-192.789 276,-180 291.019,-129.038 296.922,-66.0979 298.999,-36.2569"/>
</g>
<!-- v2&#45;&#45;v7 -->
<g id="edge15" class="edge"><title>v2&#45;&#45;v7</title>
<path fill="none" stroke="black" d="M249.77,-215.955C246.917,-197.549 240.974,-167.684 230,-144 213.405,-108.185 207.051,-98.7239 178,-72 158.049,-53.647 130.766,-38.4036 111.892,-29.0473"/>
</g>
</g>
</svg>
