<?xml version="1.0" encoding="UTF-8" standalone="no"?>
<!DOCTYPE svg PUBLIC "-//W3C//DTD SVG 1.1//EN"
 "http://www.w3.org/Graphics/SVG/1.1/DTD/svg11.dtd">
<!-- Generated by graphviz version 2.38.0 (20140413.2041)
 -->
<!-- Title: G Pages: 1 -->
<svg width="546pt" height="548pt"
 viewBox="0.00 0.00 546.34 548.00" xmlns="http://www.w3.org/2000/svg" xmlns:xlink="http://www.w3.org/1999/xlink">
<g id="graph0" class="graph" transform="scale(1 1) rotate(0) translate(4 544)">
<title>G</title>
<polygon fill="white" stroke="none" points="-4,4 -4,-544 542.342,-544 542.342,4 -4,4"/>
<!-- v1 -->
<g id="node1" class="node"><title>v1</title>
<ellipse fill="red" stroke="black" cx="162.342" cy="-450" rx="27" ry="18"/>
<text text-anchor="middle" x="162.342" y="-446.3" font-family="Times,serif" font-size="14.00">v1</text>
</g>
<!-- v8 -->
<g id="node2" class="node"><title>v8</title>
<ellipse fill="red" stroke="black" cx="263.342" cy="-90" rx="27" ry="18"/>
<text text-anchor="middle" x="263.342" y="-86.3" font-family="Times,serif" font-size="14.00">v8</text>
</g>
<!-- v1&#45;&#45;v8 -->
<g id="edge11" class="edge"><title>v1&#45;&#45;v8</title>
<path fill="none" stroke="black" d="M143.003,-437.19C110.479,-415.674 48.3419,-366.751 48.3419,-307 48.3419,-307 48.3419,-307 48.3419,-233 48.3419,-192.145 42.6915,-173.125 71.3419,-144 115.719,-98.887 194.763,-91.1884 236.234,-90.4661"/>
</g>
<!-- v4 -->
<g id="node3" class="node"><title>v4</title>
<ellipse fill="red" stroke="black" cx="217.342" cy="-234" rx="27" ry="18"/>
<text text-anchor="middle" x="217.342" y="-230.3" font-family="Times,serif" font-size="14.00">v4</text>
</g>
<!-- v1&#45;&#45;v4 -->
<g id="edge9" class="edge"><title>v1&#45;&#45;v4</title>
<path fill="none" stroke="black" d="M161.744,-431.93C161.254,-401.842 162.749,-337.84 181.342,-288 186.552,-274.035 196.171,-260.168 204.156,-250.123"/>
</g>
<!-- v3 -->
<g id="node4" class="node"><title>v3</title>
<ellipse fill="red" stroke="black" cx="217.342" cy="-306" rx="27" ry="18"/>
<text text-anchor="middle" x="217.342" y="-302.3" font-family="Times,serif" font-size="14.00">v3</text>
</g>
<!-- v1&#45;&#45;v3 -->
<g id="edge8" class="edge"><title>v1&#45;&#45;v3</title>
<path fill="none" stroke="black" d="M168.759,-432.433C179.3,-405.217 200.17,-351.334 210.795,-323.902"/>
</g>
<!-- v2 -->
<g id="node6" class="node"><title>v2</title>
<ellipse fill="red" stroke="black" cx="310.342" cy="-378" rx="27" ry="18"/>
<text text-anchor="middle" x="310.342" y="-374.3" font-family="Times,serif" font-size="14.00">v2</text>
</g>
<!-- v1&#45;&#45;v2 -->
<g id="edge7" class="edge"><title>v1&#45;&#45;v2</title>
<path fill="none" stroke="black" d="M183.862,-438.821C211.922,-425.55 260.723,-402.468 288.796,-389.191"/>
</g>
<!-- v6 -->
<g id="node8" class="node"><title>v6</title>
<ellipse fill="none" stroke="black" cx="107.342" cy="-162" rx="27" ry="18"/>
<text text-anchor="middle" x="107.342" y="-158.3" font-family="Times,serif" font-size="14.00">v6</text>
</g>
<!-- v1&#45;&#45;v6 -->
<g id="edge10" class="edge"><title>v1&#45;&#45;v6</title>
<path fill="none" stroke="black" d="M157.597,-432.021C148.289,-398.092 127.568,-319.382 116.342,-252 112.207,-227.183 109.702,-198.135 108.419,-180.149"/>
</g>
<!-- v9 -->
<g id="node10" class="node"><title>v9</title>
<ellipse fill="none" stroke="black" cx="439.342" cy="-18" rx="27" ry="18"/>
<text text-anchor="middle" x="439.342" y="-14.3" font-family="Times,serif" font-size="14.00">v9</text>
</g>
<!-- v1&#45;&#45;v9 -->
<g id="edge12" class="edge"><title>v1&#45;&#45;v9</title>
<path fill="none" stroke="black" d="M139.513,-439.826C112.756,-428.632 70.7375,-409.53 60.3419,-396 -8.01598,-307.03 -24.5815,-231.745 45.3419,-144 138.143,-27.5465 339.358,-17.7518 412.268,-18.2203"/>
</g>
<!-- v8&#45;&#45;v9 -->
<g id="edge33" class="edge"><title>v8&#45;&#45;v9</title>
<path fill="none" stroke="black" d="M285.991,-79.992C319.785,-66.5511 383.037,-41.3942 416.78,-27.9734"/>
</g>
<!-- v4&#45;&#45;v8 -->
<g id="edge26" class="edge"><title>v4&#45;&#45;v8</title>
<path fill="none" stroke="black" d="M222.799,-216.153C231.652,-188.824 249.043,-135.14 257.892,-107.825"/>
</g>
<!-- v4&#45;&#45;v6 -->
<g id="edge24" class="edge"><title>v4&#45;&#45;v6</title>
<path fill="none" stroke="black" d="M198.181,-220.807C177.992,-207.959 146.389,-187.848 126.283,-175.053"/>
</g>
<!-- v7 -->
<g id="node9" class="node"><title>v7</title>
<ellipse fill="none" stroke="black" cx="384.342" cy="-162" rx="27" ry="18"/>
<text text-anchor="middle" x="384.342" y="-158.3" font-family="Times,serif" font-size="14.00">v7</text>
</g>
<!-- v4&#45;&#45;v7 -->
<g id="edge25" class="edge"><title>v4&#45;&#45;v7</title>
<path fill="none" stroke="black" d="M239.518,-223.705C271.459,-210.316 330.082,-185.744 362.074,-172.334"/>
</g>
<!-- v3&#45;&#45;v8 -->
<g id="edge23" class="edge"><title>v3&#45;&#45;v8</title>
<path fill="none" stroke="black" d="M203.592,-290.069C195.381,-280.1 185.723,-266.247 181.342,-252 176.639,-236.707 176.762,-231.331 181.342,-216 194.714,-171.237 229.821,-127.624 249.487,-105.674"/>
</g>
<!-- v3&#45;&#45;v4 -->
<g id="edge20" class="edge"><title>v3&#45;&#45;v4</title>
<path fill="none" stroke="black" d="M217.342,-287.697C217.342,-276.846 217.342,-262.917 217.342,-252.104"/>
</g>
<!-- v5 -->
<g id="node5" class="node"><title>v5</title>
<ellipse fill="red" stroke="black" cx="365.342" cy="-234" rx="27" ry="18"/>
<text text-anchor="middle" x="365.342" y="-230.3" font-family="Times,serif" font-size="14.00">v5</text>
</g>
<!-- v3&#45;&#45;v5 -->
<g id="edge21" class="edge"><title>v3&#45;&#45;v5</title>
<path fill="none" stroke="black" d="M238.862,-294.821C266.922,-281.55 315.723,-258.468 343.796,-245.191"/>
</g>
<!-- v3&#45;&#45;v7 -->
<g id="edge22" class="edge"><title>v3&#45;&#45;v7</title>
<path fill="none" stroke="black" d="M233.355,-291.384C265.194,-264.312 336.133,-203.992 368.132,-176.783"/>
</g>
<!-- v5&#45;&#45;v8 -->
<g id="edge29" class="edge"><title>v5&#45;&#45;v8</title>
<path fill="none" stroke="black" d="M355.081,-216.991C343.413,-198.976 323.607,-168.965 305.342,-144 295.775,-130.924 284.318,-116.545 275.788,-106.067"/>
</g>
<!-- v5&#45;&#45;v6 -->
<g id="edge27" class="edge"><title>v5&#45;&#45;v6</title>
<path fill="none" stroke="black" d="M340.604,-226.288C291.289,-212.908 181.258,-183.055 132.005,-169.692"/>
</g>
<!-- v5&#45;&#45;v7 -->
<g id="edge28" class="edge"><title>v5&#45;&#45;v7</title>
<path fill="none" stroke="black" d="M369.941,-216.055C372.929,-205.049 376.806,-190.764 379.785,-179.789"/>
</g>
<!-- v5&#45;&#45;v9 -->
<g id="edge30" class="edge"><title>v5&#45;&#45;v9</title>
<path fill="none" stroke="black" d="M383.635,-220.662C396.189,-211.125 412.03,-196.748 420.342,-180 444.116,-132.099 443.066,-66.6154 440.945,-36.0343"/>
</g>
<!-- v2&#45;&#45;v8 -->
<g id="edge18" class="edge"><title>v2&#45;&#45;v8</title>
<path fill="none" stroke="black" d="M307.543,-359.966C299.183,-309.098 274.467,-158.696 266.127,-107.945"/>
</g>
<!-- v2&#45;&#45;v4 -->
<g id="edge14" class="edge"><title>v2&#45;&#45;v4</title>
<path fill="none" stroke="black" d="M300.379,-361.162C289.102,-343.299 270.114,-313.425 253.342,-288 245.012,-275.372 235.372,-261.204 228.166,-250.695"/>
</g>
<!-- v2&#45;&#45;v3 -->
<g id="edge13" class="edge"><title>v2&#45;&#45;v3</title>
<path fill="none" stroke="black" d="M292.849,-363.834C276.222,-351.319 251.357,-332.603 234.756,-320.107"/>
</g>
<!-- v2&#45;&#45;v5 -->
<g id="edge15" class="edge"><title>v2&#45;&#45;v5</title>
<path fill="none" stroke="black" d="M316.759,-360.433C327.3,-333.217 348.17,-279.334 358.795,-251.902"/>
</g>
<!-- v2&#45;&#45;v6 -->
<g id="edge16" class="edge"><title>v2&#45;&#45;v6</title>
<path fill="none" stroke="black" d="M284.473,-372.274C255.971,-365.854 210.339,-351.832 181.342,-324 138.508,-282.887 118.2,-212.257 110.799,-179.983"/>
</g>
<!-- v2&#45;&#45;v7 -->
<g id="edge17" class="edge"><title>v2&#45;&#45;v7</title>
<path fill="none" stroke="black" d="M325.458,-363.039C347.344,-341.654 386.822,-298.365 401.342,-252 409.099,-227.231 399.795,-197.418 392.2,-179.353"/>
</g>
<!-- v2&#45;&#45;v9 -->
<g id="edge19" class="edge"><title>v2&#45;&#45;v9</title>
<path fill="none" stroke="black" d="M331.532,-366.558C348.336,-357.355 371.403,-342.537 386.342,-324 449.495,-245.635 444.692,-208.181 454.342,-108 455.876,-92.0737 456.541,-87.8481 454.342,-72 452.633,-59.6864 448.792,-46.2115 445.424,-35.9301"/>
</g>
<!-- v0 -->
<g id="node7" class="node"><title>v0</title>
<ellipse fill="red" stroke="black" cx="357.342" cy="-522" rx="27" ry="18"/>
<text text-anchor="middle" x="357.342" y="-518.3" font-family="Times,serif" font-size="14.00">v0</text>
</g>
<!-- v0&#45;&#45;v1 -->
<g id="edge1" class="edge"><title>v0&#45;&#45;v1</title>
<path fill="none" stroke="black" d="M334.207,-512.695C296.779,-499.259 223.353,-472.901 185.75,-459.403"/>
</g>
<!-- v0&#45;&#45;v5 -->
<g id="edge3" class="edge"><title>v0&#45;&#45;v5</title>
<path fill="none" stroke="black" d="M357.818,-503.966C359.238,-453.218 363.428,-303.407 364.858,-252.306"/>
</g>
<!-- v0&#45;&#45;v2 -->
<g id="edge2" class="edge"><title>v0&#45;&#45;v2</title>
<path fill="none" stroke="black" d="M351.766,-504.153C342.72,-476.824 324.952,-423.14 315.911,-395.825"/>
</g>
<!-- v0&#45;&#45;v6 -->
<g id="edge4" class="edge"><title>v0&#45;&#45;v6</title>
<path fill="none" stroke="black" d="M330.2,-520.772C264.944,-518.505 101.613,-502.1 60.3419,-396 30.0481,-318.12 77.0882,-217.659 98.0726,-179.071"/>
</g>
<!-- v0&#45;&#45;v7 -->
<g id="edge5" class="edge"><title>v0&#45;&#45;v7</title>
<path fill="none" stroke="black" d="M362.445,-504.224C374.902,-462.242 406.558,-349.044 416.342,-252 417.947,-236.081 420.634,-231.414 416.342,-216 412.478,-202.125 403.892,-188.254 396.585,-178.185"/>
</g>
<!-- v0&#45;&#45;v9 -->
<g id="edge6" class="edge"><title>v0&#45;&#45;v9</title>
<path fill="none" stroke="black" d="M382.13,-514.272C431.701,-499.145 538.342,-457.482 538.342,-379 538.342,-379 538.342,-379 538.342,-161 538.342,-104.801 485.517,-54.9364 457.041,-32.1387"/>
</g>
<!-- v6&#45;&#45;v8 -->
<g id="edge31" class="edge"><title>v6&#45;&#45;v8</title>
<path fill="none" stroke="black" d="M129.033,-151.267C158.754,-137.931 211.829,-114.115 241.584,-100.763"/>
</g>
<!-- v7&#45;&#45;v8 -->
<g id="edge32" class="edge"><title>v7&#45;&#45;v8</title>
<path fill="none" stroke="black" d="M364.632,-149.597C342.131,-136.581 305.541,-115.413 283.044,-102.398"/>
</g>
</g>
</svg>
