<?xml version="1.0" encoding="UTF-8" standalone="no"?>
<!DOCTYPE svg PUBLIC "-//W3C//DTD SVG 1.1//EN"
 "http://www.w3.org/Graphics/SVG/1.1/DTD/svg11.dtd">
<!-- Generated by graphviz version 2.38.0 (20140413.2041)
 -->
<!-- Title: G Pages: 1 -->
<svg width="470pt" height="548pt"
 viewBox="0.00 0.00 469.60 548.00" xmlns="http://www.w3.org/2000/svg" xmlns:xlink="http://www.w3.org/1999/xlink">
<g id="graph0" class="graph" transform="scale(1 1) rotate(0) translate(4 544)">
<title>G</title>
<polygon fill="white" stroke="none" points="-4,4 -4,-544 465.604,-544 465.604,4 -4,4"/>
<!-- v0 -->
<g id="node1" class="node"><title>v0</title>
<ellipse fill="red" stroke="black" cx="265" cy="-522" rx="27" ry="18"/>
<text text-anchor="middle" x="265" y="-518.3" font-family="Times,serif" font-size="14.00">v0</text>
</g>
<!-- v7 -->
<g id="node2" class="node"><title>v7</title>
<ellipse fill="red" stroke="black" cx="393" cy="-162" rx="27" ry="18"/>
<text text-anchor="middle" x="393" y="-158.3" font-family="Times,serif" font-size="14.00">v7</text>
</g>
<!-- v0&#45;&#45;v7 -->
<g id="edge5" class="edge"><title>v0&#45;&#45;v7</title>
<path fill="none" stroke="black" d="M284.488,-509.276C299.543,-499.549 320.235,-484.652 335,-468 406.34,-387.542 421.678,-357.188 444,-252 447.321,-236.349 449.981,-230.84 444,-216 437.318,-199.418 422.692,-185.122 410.809,-175.571"/>
</g>
<!-- v5 -->
<g id="node4" class="node"><title>v5</title>
<ellipse fill="red" stroke="black" cx="393" cy="-234" rx="27" ry="18"/>
<text text-anchor="middle" x="393" y="-230.3" font-family="Times,serif" font-size="14.00">v5</text>
</g>
<!-- v0&#45;&#45;v5 -->
<g id="edge3" class="edge"><title>v0&#45;&#45;v5</title>
<path fill="none" stroke="black" d="M277.389,-505.891C285.893,-495.394 297.343,-481.009 307,-468 330.221,-436.717 339.992,-431.051 357,-396 371.607,-365.896 371.493,-356.607 379,-324 384.685,-299.307 388.781,-270.226 391.023,-252.199"/>
</g>
<!-- v2 -->
<g id="node5" class="node"><title>v2</title>
<ellipse fill="red" stroke="black" cx="321" cy="-378" rx="27" ry="18"/>
<text text-anchor="middle" x="321" y="-374.3" font-family="Times,serif" font-size="14.00">v2</text>
</g>
<!-- v0&#45;&#45;v2 -->
<g id="edge2" class="edge"><title>v0&#45;&#45;v2</title>
<path fill="none" stroke="black" d="M271.534,-504.433C282.266,-477.217 303.516,-423.334 314.335,-395.902"/>
</g>
<!-- v1 -->
<g id="node6" class="node"><title>v1</title>
<ellipse fill="red" stroke="black" cx="228" cy="-450" rx="27" ry="18"/>
<text text-anchor="middle" x="228" y="-446.3" font-family="Times,serif" font-size="14.00">v1</text>
</g>
<!-- v0&#45;&#45;v1 -->
<g id="edge1" class="edge"><title>v0&#45;&#45;v1</title>
<path fill="none" stroke="black" d="M256.418,-504.765C250.441,-493.456 242.502,-478.437 236.535,-467.147"/>
</g>
<!-- v6 -->
<g id="node8" class="node"><title>v6</title>
<ellipse fill="none" stroke="black" cx="194" cy="-162" rx="27" ry="18"/>
<text text-anchor="middle" x="194" y="-158.3" font-family="Times,serif" font-size="14.00">v6</text>
</g>
<!-- v0&#45;&#45;v6 -->
<g id="edge4" class="edge"><title>v0&#45;&#45;v6</title>
<path fill="none" stroke="black" d="M238.516,-517.169C178.636,-506.857 38,-472.668 38,-379 38,-379 38,-379 38,-305 38,-233.951 127.588,-189.038 170.982,-171.45"/>
</g>
<!-- v9 -->
<g id="node9" class="node"><title>v9</title>
<ellipse fill="none" stroke="black" cx="300" cy="-18" rx="27" ry="18"/>
<text text-anchor="middle" x="300" y="-14.3" font-family="Times,serif" font-size="14.00">v9</text>
</g>
<!-- v0&#45;&#45;v9 -->
<g id="edge6" class="edge"><title>v0&#45;&#45;v9</title>
<path fill="none" stroke="black" d="M237.937,-520.59C194.917,-518.643 110.07,-509.379 54,-468 16.7727,-440.527 0,-425.267 0,-379 0,-379 0,-379 0,-161 0,-40.8556 199,-22.2218 272.848,-19.4431"/>
</g>
<!-- v8 -->
<g id="node7" class="node"><title>v8</title>
<ellipse fill="red" stroke="black" cx="300" cy="-90" rx="27" ry="18"/>
<text text-anchor="middle" x="300" y="-86.3" font-family="Times,serif" font-size="14.00">v8</text>
</g>
<!-- v7&#45;&#45;v8 -->
<g id="edge32" class="edge"><title>v7&#45;&#45;v8</title>
<path fill="none" stroke="black" d="M375.507,-147.834C358.88,-135.319 334.015,-116.603 317.414,-104.107"/>
</g>
<!-- v4 -->
<g id="node3" class="node"><title>v4</title>
<ellipse fill="red" stroke="black" cx="245" cy="-234" rx="27" ry="18"/>
<text text-anchor="middle" x="245" y="-230.3" font-family="Times,serif" font-size="14.00">v4</text>
</g>
<!-- v4&#45;&#45;v7 -->
<g id="edge25" class="edge"><title>v4&#45;&#45;v7</title>
<path fill="none" stroke="black" d="M266.52,-222.821C294.58,-209.55 343.381,-186.468 371.454,-173.191"/>
</g>
<!-- v4&#45;&#45;v8 -->
<g id="edge26" class="edge"><title>v4&#45;&#45;v8</title>
<path fill="none" stroke="black" d="M251.417,-216.433C261.958,-189.217 282.828,-135.334 293.454,-107.902"/>
</g>
<!-- v4&#45;&#45;v6 -->
<g id="edge24" class="edge"><title>v4&#45;&#45;v6</title>
<path fill="none" stroke="black" d="M233.681,-217.465C225.23,-205.865 213.731,-190.082 205.287,-178.492"/>
</g>
<!-- v5&#45;&#45;v7 -->
<g id="edge28" class="edge"><title>v5&#45;&#45;v7</title>
<path fill="none" stroke="black" d="M393,-215.697C393,-204.846 393,-190.917 393,-180.104"/>
</g>
<!-- v5&#45;&#45;v8 -->
<g id="edge29" class="edge"><title>v5&#45;&#45;v8</title>
<path fill="none" stroke="black" d="M382.176,-217.305C374.97,-206.796 365.33,-192.628 357,-180 340.228,-154.575 321.24,-124.701 309.963,-106.838"/>
</g>
<!-- v5&#45;&#45;v6 -->
<g id="edge27" class="edge"><title>v5&#45;&#45;v6</title>
<path fill="none" stroke="black" d="M369.391,-224.695C330.988,-211.187 255.453,-184.617 217.271,-171.186"/>
</g>
<!-- v5&#45;&#45;v9 -->
<g id="edge30" class="edge"><title>v5&#45;&#45;v9</title>
<path fill="none" stroke="black" d="M406.75,-218.069C414.961,-208.1 424.619,-194.247 429,-180 433.703,-164.707 435.239,-158.733 429,-144 406.625,-91.1614 349.772,-49.7031 319.563,-30.5624"/>
</g>
<!-- v2&#45;&#45;v7 -->
<g id="edge17" class="edge"><title>v2&#45;&#45;v7</title>
<path fill="none" stroke="black" d="M338.945,-364.191C365.395,-343.976 413.401,-301.811 429,-252 433.782,-236.731 433.703,-231.293 429,-216 424.619,-201.753 414.961,-187.9 406.75,-177.931"/>
</g>
<!-- v2&#45;&#45;v4 -->
<g id="edge14" class="edge"><title>v2&#45;&#45;v4</title>
<path fill="none" stroke="black" d="M309.549,-361.686C302.078,-351.339 292.379,-337.206 285,-324 271.366,-299.599 258.691,-269.68 251.402,-251.493"/>
</g>
<!-- v2&#45;&#45;v5 -->
<g id="edge15" class="edge"><title>v2&#45;&#45;v5</title>
<path fill="none" stroke="black" d="M332.951,-361.32C340.444,-351.053 349.978,-337.148 357,-324 369.877,-299.888 381.03,-270.144 387.383,-251.879"/>
</g>
<!-- v2&#45;&#45;v8 -->
<g id="edge18" class="edge"><title>v2&#45;&#45;v8</title>
<path fill="none" stroke="black" d="M344.272,-368.281C364.471,-359.692 393.329,-344.829 412,-324 445.416,-286.722 449.132,-265.799 444,-216 440.649,-183.485 449.887,-169.143 429,-144 403.085,-112.804 355.857,-99.7413 326.3,-94.438"/>
</g>
<!-- v2&#45;&#45;v6 -->
<g id="edge16" class="edge"><title>v2&#45;&#45;v6</title>
<path fill="none" stroke="black" d="M303.576,-363.921C277.695,-343.355 229.907,-300.737 209,-252 198.869,-228.384 195.562,-198.5 194.494,-180.071"/>
</g>
<!-- v2&#45;&#45;v9 -->
<g id="edge19" class="edge"><title>v2&#45;&#45;v9</title>
<path fill="none" stroke="black" d="M346.743,-372.029C373.389,-365.545 414.357,-351.608 438,-324 469.753,-286.923 460.7,-264.741 458,-216 454.22,-147.753 454.623,-117.927 404,-72 380.286,-50.4862 346.228,-35.3397 323.628,-26.8959"/>
</g>
<!-- v3 -->
<g id="node10" class="node"><title>v3</title>
<ellipse fill="none" stroke="black" cx="321" cy="-306" rx="27" ry="18"/>
<text text-anchor="middle" x="321" y="-302.3" font-family="Times,serif" font-size="14.00">v3</text>
</g>
<!-- v2&#45;&#45;v3 -->
<g id="edge13" class="edge"><title>v2&#45;&#45;v3</title>
<path fill="none" stroke="black" d="M321,-359.697C321,-348.846 321,-334.917 321,-324.104"/>
</g>
<!-- v1&#45;&#45;v4 -->
<g id="edge9" class="edge"><title>v1&#45;&#45;v4</title>
<path fill="none" stroke="black" d="M229.362,-431.849C232.546,-391.78 240.442,-292.383 243.631,-252.232"/>
</g>
<!-- v1&#45;&#45;v2 -->
<g id="edge7" class="edge"><title>v1&#45;&#45;v2</title>
<path fill="none" stroke="black" d="M245.493,-435.834C262.12,-423.319 286.985,-404.603 303.586,-392.107"/>
</g>
<!-- v1&#45;&#45;v8 -->
<g id="edge11" class="edge"><title>v1&#45;&#45;v8</title>
<path fill="none" stroke="black" d="M208.661,-437.19C176.137,-415.674 114,-366.751 114,-307 114,-307 114,-307 114,-233 114,-188.874 125.25,-173.572 158,-144 191.202,-114.021 242.926,-100.486 273.932,-94.7753"/>
</g>
<!-- v1&#45;&#45;v6 -->
<g id="edge10" class="edge"><title>v1&#45;&#45;v6</title>
<path fill="none" stroke="black" d="M224.235,-431.987C216.917,-397.997 200.968,-319.184 195,-252 192.785,-227.065 192.973,-198.048 193.41,-180.101"/>
</g>
<!-- v1&#45;&#45;v9 -->
<g id="edge12" class="edge"><title>v1&#45;&#45;v9</title>
<path fill="none" stroke="black" d="M204.413,-441.03C182.303,-432.619 149.388,-417.572 127,-396 94.1708,-364.367 76,-352.59 76,-307 76,-307 76,-307 76,-161 76,-68.2201 214.777,-33.5212 273.866,-22.9521"/>
</g>
<!-- v1&#45;&#45;v3 -->
<g id="edge8" class="edge"><title>v1&#45;&#45;v3</title>
<path fill="none" stroke="black" d="M237.963,-433.162C249.24,-415.299 268.228,-385.425 285,-360 293.33,-347.372 302.97,-333.204 310.176,-322.695"/>
</g>
<!-- v8&#45;&#45;v9 -->
<g id="edge33" class="edge"><title>v8&#45;&#45;v9</title>
<path fill="none" stroke="black" d="M300,-71.6966C300,-60.8463 300,-46.9167 300,-36.1043"/>
</g>
<!-- v6&#45;&#45;v8 -->
<g id="edge31" class="edge"><title>v6&#45;&#45;v8</title>
<path fill="none" stroke="black" d="M212.464,-148.807C231.801,-136.037 262.001,-116.093 281.392,-103.288"/>
</g>
<!-- v3&#45;&#45;v7 -->
<g id="edge22" class="edge"><title>v3&#45;&#45;v7</title>
<path fill="none" stroke="black" d="M326.617,-288.121C332.97,-269.856 344.123,-240.112 357,-216 364.022,-202.852 373.556,-188.947 381.049,-178.68"/>
</g>
<!-- v3&#45;&#45;v4 -->
<g id="edge20" class="edge"><title>v3&#45;&#45;v4</title>
<path fill="none" stroke="black" d="M305.62,-290.834C292.435,-278.69 273.536,-261.283 260.357,-249.144"/>
</g>
<!-- v3&#45;&#45;v5 -->
<g id="edge21" class="edge"><title>v3&#45;&#45;v5</title>
<path fill="none" stroke="black" d="M335.57,-290.834C347.98,-278.77 365.731,-261.512 378.204,-249.385"/>
</g>
<!-- v3&#45;&#45;v8 -->
<g id="edge23" class="edge"><title>v3&#45;&#45;v8</title>
<path fill="none" stroke="black" d="M319.317,-287.849C315.385,-247.78 305.631,-148.383 301.691,-108.232"/>
</g>
</g>
</svg>
