<?xml version="1.0" encoding="UTF-8" standalone="no"?>
<!DOCTYPE svg PUBLIC "-//W3C//DTD SVG 1.1//EN"
 "http://www.w3.org/Graphics/SVG/1.1/DTD/svg11.dtd">
<!-- Generated by graphviz version 2.38.0 (20140413.2041)
 -->
<!-- Title: G Pages: 1 -->
<svg width="384pt" height="404pt"
 viewBox="0.00 0.00 384.00 404.00" xmlns="http://www.w3.org/2000/svg" xmlns:xlink="http://www.w3.org/1999/xlink">
<g id="graph0" class="graph" transform="scale(1 1) rotate(0) translate(4 400)">
<title>G</title>
<polygon fill="white" stroke="none" points="-4,4 -4,-400 380,-400 380,4 -4,4"/>
<!-- v3 -->
<g id="node1" class="node"><title>v3</title>
<ellipse fill="red" stroke="black" cx="84" cy="-234" rx="27" ry="18"/>
<text text-anchor="middle" x="84" y="-230.3" font-family="Times,serif" font-size="14.00">v3</text>
</g>
<!-- v4 -->
<g id="node6" class="node"><title>v4</title>
<ellipse fill="red" stroke="black" cx="93" cy="-162" rx="27" ry="18"/>
<text text-anchor="middle" x="93" y="-158.3" font-family="Times,serif" font-size="14.00">v4</text>
</g>
<!-- v3&#45;&#45;v4 -->
<g id="edge16" class="edge"><title>v3&#45;&#45;v4</title>
<path fill="none" stroke="black" d="M86.1786,-216.055C87.5729,-205.211 89.3765,-191.183 90.7789,-180.275"/>
</g>
<!-- v7 -->
<g id="node8" class="node"><title>v7</title>
<ellipse fill="none" stroke="black" cx="84" cy="-18" rx="27" ry="18"/>
<text text-anchor="middle" x="84" y="-14.3" font-family="Times,serif" font-size="14.00">v7</text>
</g>
<!-- v3&#45;&#45;v7 -->
<g id="edge17" class="edge"><title>v3&#45;&#45;v7</title>
<path fill="none" stroke="black" d="M73.372,-217.071C67.2607,-206.931 60.1816,-193.255 57,-180 44.4972,-127.914 65.1722,-64.9816 76.8506,-35.6082"/>
</g>
<!-- v2 -->
<g id="node2" class="node"><title>v2</title>
<ellipse fill="red" stroke="black" cx="194" cy="-234" rx="27" ry="18"/>
<text text-anchor="middle" x="194" y="-230.3" font-family="Times,serif" font-size="14.00">v2</text>
</g>
<!-- v5 -->
<g id="node3" class="node"><title>v5</title>
<ellipse fill="red" stroke="black" cx="186" cy="-90" rx="27" ry="18"/>
<text text-anchor="middle" x="186" y="-86.3" font-family="Times,serif" font-size="14.00">v5</text>
</g>
<!-- v2&#45;&#45;v5 -->
<g id="edge13" class="edge"><title>v2&#45;&#45;v5</title>
<path fill="none" stroke="black" d="M193.035,-215.871C191.497,-188.578 188.508,-135.52 186.968,-108.189"/>
</g>
<!-- v6 -->
<g id="node4" class="node"><title>v6</title>
<ellipse fill="red" stroke="black" cx="241" cy="-18" rx="27" ry="18"/>
<text text-anchor="middle" x="241" y="-14.3" font-family="Times,serif" font-size="14.00">v6</text>
</g>
<!-- v2&#45;&#45;v6 -->
<g id="edge14" class="edge"><title>v2&#45;&#45;v6</title>
<path fill="none" stroke="black" d="M197.858,-216.029C203.309,-191.998 213.541,-146.671 222,-108 227.469,-82.9959 233.625,-53.9974 237.408,-36.0729"/>
</g>
<!-- v2&#45;&#45;v4 -->
<g id="edge12" class="edge"><title>v2&#45;&#45;v4</title>
<path fill="none" stroke="black" d="M175.943,-220.485C157.673,-207.823 129.577,-188.351 111.241,-175.642"/>
</g>
<!-- v2&#45;&#45;v7 -->
<g id="edge15" class="edge"><title>v2&#45;&#45;v7</title>
<path fill="none" stroke="black" d="M185.551,-216.563C165.025,-176.631 112.727,-74.8862 92.3271,-35.2"/>
</g>
<!-- v5&#45;&#45;v6 -->
<g id="edge20" class="edge"><title>v5&#45;&#45;v6</title>
<path fill="none" stroke="black" d="M197.934,-73.811C207.16,-62.0697 219.87,-45.8932 229.089,-34.1593"/>
</g>
<!-- v5&#45;&#45;v7 -->
<g id="edge21" class="edge"><title>v5&#45;&#45;v7</title>
<path fill="none" stroke="black" d="M167.764,-76.4854C149.198,-63.7441 120.586,-44.1083 102.078,-31.4063"/>
</g>
<!-- v0 -->
<g id="node5" class="node"><title>v0</title>
<ellipse fill="red" stroke="black" cx="191" cy="-378" rx="27" ry="18"/>
<text text-anchor="middle" x="191" y="-374.3" font-family="Times,serif" font-size="14.00">v0</text>
</g>
<!-- v0&#45;&#45;v3 -->
<g id="edge3" class="edge"><title>v0&#45;&#45;v3</title>
<path fill="none" stroke="black" d="M179.345,-361.533C158.763,-334.218 116.212,-277.749 95.6402,-250.448"/>
</g>
<!-- v0&#45;&#45;v2 -->
<g id="edge2" class="edge"><title>v0&#45;&#45;v2</title>
<path fill="none" stroke="black" d="M187.518,-359.926C184.318,-342 180.433,-313.001 183,-288 184.248,-275.847 187.065,-262.37 189.536,-252.047"/>
</g>
<!-- v0&#45;&#45;v5 -->
<g id="edge4" class="edge"><title>v0&#45;&#45;v5</title>
<path fill="none" stroke="black" d="M211.955,-366.238C227.015,-357.219 246.16,-342.799 255,-324 261.809,-309.521 256.212,-303.954 255,-288 250.075,-223.152 256.907,-202.743 229,-144 222.085,-129.445 210.382,-115.396 200.929,-105.424"/>
</g>
<!-- v0&#45;&#45;v6 -->
<g id="edge5" class="edge"><title>v0&#45;&#45;v6</title>
<path fill="none" stroke="black" d="M215.95,-370.559C266.447,-355.855 376,-314.763 376,-235 376,-235 376,-235 376,-161 376,-95.8597 300.457,-48.7159 262.391,-29.0949"/>
</g>
<!-- v1 -->
<g id="node7" class="node"><title>v1</title>
<ellipse fill="none" stroke="black" cx="219" cy="-306" rx="27" ry="18"/>
<text text-anchor="middle" x="219" y="-302.3" font-family="Times,serif" font-size="14.00">v1</text>
</g>
<!-- v0&#45;&#45;v1 -->
<g id="edge1" class="edge"><title>v0&#45;&#45;v1</title>
<path fill="none" stroke="black" d="M197.636,-360.411C202.099,-349.252 207.959,-334.604 212.412,-323.47"/>
</g>
<!-- v0&#45;&#45;v7 -->
<g id="edge6" class="edge"><title>v0&#45;&#45;v7</title>
<path fill="none" stroke="black" d="M166.03,-371.035C114.257,-357.017 0,-316.813 0,-235 0,-235 0,-235 0,-161 0,-107.724 44.343,-56.9037 68.5931,-33.0949"/>
</g>
<!-- v4&#45;&#45;v5 -->
<g id="edge18" class="edge"><title>v4&#45;&#45;v5</title>
<path fill="none" stroke="black" d="M110.493,-147.834C127.12,-135.319 151.985,-116.603 168.586,-104.107"/>
</g>
<!-- v4&#45;&#45;v6 -->
<g id="edge19" class="edge"><title>v4&#45;&#45;v6</title>
<path fill="none" stroke="black" d="M100.519,-144.585C109.944,-125.372 127.615,-93.4589 150,-72 170.193,-52.6424 198.754,-37.492 218.467,-28.4342"/>
</g>
<!-- v1&#45;&#45;v3 -->
<g id="edge8" class="edge"><title>v1&#45;&#45;v3</title>
<path fill="none" stroke="black" d="M198.202,-294.216C172.759,-281.023 129.953,-258.827 104.6,-245.681"/>
</g>
<!-- v1&#45;&#45;v2 -->
<g id="edge7" class="edge"><title>v1&#45;&#45;v2</title>
<path fill="none" stroke="black" d="M213.075,-288.411C209.148,-277.414 204.01,-263.027 200.056,-251.956"/>
</g>
<!-- v1&#45;&#45;v5 -->
<g id="edge10" class="edge"><title>v1&#45;&#45;v5</title>
<path fill="none" stroke="black" d="M223.464,-287.953C225.935,-277.63 228.752,-264.153 230,-252 231.634,-236.084 232.695,-231.771 230,-216 223.103,-175.633 204.525,-130.969 193.844,-107.499"/>
</g>
<!-- v1&#45;&#45;v6 -->
<g id="edge11" class="edge"><title>v1&#45;&#45;v6</title>
<path fill="none" stroke="black" d="M228.848,-288.965C234.509,-278.786 241.064,-265.104 244,-252 261.731,-172.85 249.848,-74.7571 243.862,-35.9449"/>
</g>
<!-- v1&#45;&#45;v4 -->
<g id="edge9" class="edge"><title>v1&#45;&#45;v4</title>
<path fill="none" stroke="black" d="M202.038,-291.985C189.261,-281.786 171.669,-266.876 158,-252 136.251,-228.33 115.055,-197.398 103.052,-178.929"/>
</g>
</g>
</svg>
