<?xml version="1.0" encoding="UTF-8" standalone="no"?>
<!DOCTYPE svg PUBLIC "-//W3C//DTD SVG 1.1//EN"
 "http://www.w3.org/Graphics/SVG/1.1/DTD/svg11.dtd">
<!-- Generated by graphviz version 2.38.0 (20140413.2041)
 -->
<!-- Title: G Pages: 1 -->
<svg width="401pt" height="404pt"
 viewBox="0.00 0.00 401.00 404.00" xmlns="http://www.w3.org/2000/svg" xmlns:xlink="http://www.w3.org/1999/xlink">
<g id="graph0" class="graph" transform="scale(1 1) rotate(0) translate(4 400)">
<title>G</title>
<polygon fill="white" stroke="none" points="-4,4 -4,-400 397,-400 397,4 -4,4"/>
<!-- v4 -->
<g id="node1" class="node"><title>v4</title>
<ellipse fill="red" stroke="black" cx="186" cy="-162" rx="27" ry="18"/>
<text text-anchor="middle" x="186" y="-158.3" font-family="Times,serif" font-size="14.00">v4</text>
</g>
<!-- v5 -->
<g id="node6" class="node"><title>v5</title>
<ellipse fill="red" stroke="black" cx="158" cy="-90" rx="27" ry="18"/>
<text text-anchor="middle" x="158" y="-86.3" font-family="Times,serif" font-size="14.00">v5</text>
</g>
<!-- v4&#45;&#45;v5 -->
<g id="edge18" class="edge"><title>v4&#45;&#45;v5</title>
<path fill="none" stroke="black" d="M179.364,-144.411C174.901,-133.252 169.041,-118.604 164.588,-107.47"/>
</g>
<!-- v6 -->
<g id="node8" class="node"><title>v6</title>
<ellipse fill="none" stroke="black" cx="317" cy="-18" rx="27" ry="18"/>
<text text-anchor="middle" x="317" y="-14.3" font-family="Times,serif" font-size="14.00">v6</text>
</g>
<!-- v4&#45;&#45;v6 -->
<g id="edge19" class="edge"><title>v4&#45;&#45;v6</title>
<path fill="none" stroke="black" d="M199.526,-146.338C224.629,-119.128 278.156,-61.1052 303.351,-33.7946"/>
</g>
<!-- v0 -->
<g id="node2" class="node"><title>v0</title>
<ellipse fill="red" stroke="black" cx="135" cy="-378" rx="27" ry="18"/>
<text text-anchor="middle" x="135" y="-374.3" font-family="Times,serif" font-size="14.00">v0</text>
</g>
<!-- v2 -->
<g id="node3" class="node"><title>v2</title>
<ellipse fill="red" stroke="black" cx="241" cy="-234" rx="27" ry="18"/>
<text text-anchor="middle" x="241" y="-230.3" font-family="Times,serif" font-size="14.00">v2</text>
</g>
<!-- v0&#45;&#45;v2 -->
<g id="edge2" class="edge"><title>v0&#45;&#45;v2</title>
<path fill="none" stroke="black" d="M155.866,-366.333C172.082,-357.095 194.086,-342.343 208,-324 224.532,-302.205 233.5,-271.254 237.762,-252.184"/>
</g>
<!-- v7 -->
<g id="node4" class="node"><title>v7</title>
<ellipse fill="red" stroke="black" cx="125" cy="-18" rx="27" ry="18"/>
<text text-anchor="middle" x="125" y="-14.3" font-family="Times,serif" font-size="14.00">v7</text>
</g>
<!-- v0&#45;&#45;v7 -->
<g id="edge6" class="edge"><title>v0&#45;&#45;v7</title>
<path fill="none" stroke="black" d="M113.609,-366.905C75.5425,-347.284 0,-300.14 0,-235 0,-235 0,-235 0,-161 0,-98.4327 69.2182,-50.3513 104.638,-29.8431"/>
</g>
<!-- v1 -->
<g id="node5" class="node"><title>v1</title>
<ellipse fill="red" stroke="black" cx="172" cy="-306" rx="27" ry="18"/>
<text text-anchor="middle" x="172" y="-302.3" font-family="Times,serif" font-size="14.00">v1</text>
</g>
<!-- v0&#45;&#45;v1 -->
<g id="edge1" class="edge"><title>v0&#45;&#45;v1</title>
<path fill="none" stroke="black" d="M143.582,-360.765C149.559,-349.456 157.498,-334.437 163.465,-323.147"/>
</g>
<!-- v0&#45;&#45;v5 -->
<g id="edge4" class="edge"><title>v0&#45;&#45;v5</title>
<path fill="none" stroke="black" d="M119.524,-362.816C91.4997,-335.325 37.0208,-272.516 57,-216 73.8313,-168.388 117.351,-125.616 141.407,-104.64"/>
</g>
<!-- v3 -->
<g id="node7" class="node"><title>v3</title>
<ellipse fill="none" stroke="black" cx="93" cy="-234" rx="27" ry="18"/>
<text text-anchor="middle" x="93" y="-230.3" font-family="Times,serif" font-size="14.00">v3</text>
</g>
<!-- v0&#45;&#45;v3 -->
<g id="edge3" class="edge"><title>v0&#45;&#45;v3</title>
<path fill="none" stroke="black" d="M130.017,-360.153C121.934,-332.824 106.055,-279.14 97.9764,-251.825"/>
</g>
<!-- v0&#45;&#45;v6 -->
<g id="edge5" class="edge"><title>v0&#45;&#45;v6</title>
<path fill="none" stroke="black" d="M161.639,-374.818C227.557,-367.819 393,-339.812 393,-235 393,-235 393,-235 393,-161 393,-109.271 353.31,-58.1496 331.295,-33.7722"/>
</g>
<!-- v2&#45;&#45;v4 -->
<g id="edge12" class="edge"><title>v2&#45;&#45;v4</title>
<path fill="none" stroke="black" d="M229.066,-217.811C219.84,-206.07 207.13,-189.893 197.911,-178.159"/>
</g>
<!-- v2&#45;&#45;v7 -->
<g id="edge15" class="edge"><title>v2&#45;&#45;v7</title>
<path fill="none" stroke="black" d="M244.19,-215.841C246.898,-197.597 249.299,-168.107 242,-144 226.237,-91.9381 173.223,-50.4333 144.27,-30.9959"/>
</g>
<!-- v2&#45;&#45;v5 -->
<g id="edge13" class="edge"><title>v2&#45;&#45;v5</title>
<path fill="none" stroke="black" d="M240.625,-215.709C239.497,-196.824 235.509,-166.296 222,-144 211.235,-126.233 192.331,-111.684 177.85,-102.355"/>
</g>
<!-- v2&#45;&#45;v6 -->
<g id="edge14" class="edge"><title>v2&#45;&#45;v6</title>
<path fill="none" stroke="black" d="M258.4,-220.167C270.159,-210.492 284.957,-196.155 293,-180 316.93,-131.933 318.559,-66.5298 317.809,-36.0012"/>
</g>
<!-- v1&#45;&#45;v4 -->
<g id="edge9" class="edge"><title>v1&#45;&#45;v4</title>
<path fill="none" stroke="black" d="M173.689,-287.871C176.38,-260.578 181.611,-207.52 184.305,-180.189"/>
</g>
<!-- v1&#45;&#45;v2 -->
<g id="edge7" class="edge"><title>v1&#45;&#45;v2</title>
<path fill="none" stroke="black" d="M186.297,-290.496C198.139,-278.482 214.884,-261.494 226.721,-249.485"/>
</g>
<!-- v1&#45;&#45;v5 -->
<g id="edge10" class="edge"><title>v1&#45;&#45;v5</title>
<path fill="none" stroke="black" d="M167.328,-288.151C159.756,-258.925 146.031,-196.888 150,-144 150.905,-131.937 152.954,-118.458 154.752,-108.112"/>
</g>
<!-- v1&#45;&#45;v3 -->
<g id="edge8" class="edge"><title>v1&#45;&#45;v3</title>
<path fill="none" stroke="black" d="M156.392,-291.17C142.542,-278.898 122.415,-261.064 108.575,-248.801"/>
</g>
<!-- v1&#45;&#45;v6 -->
<g id="edge11" class="edge"><title>v1&#45;&#45;v6</title>
<path fill="none" stroke="black" d="M196.37,-297.695C219.57,-289.689 254.23,-274.857 277,-252 335.77,-193.006 338.252,-154.756 329,-72 327.637,-59.8114 324.564,-46.3345 321.869,-36.0209"/>
</g>
<!-- v5&#45;&#45;v7 -->
<g id="edge21" class="edge"><title>v5&#45;&#45;v7</title>
<path fill="none" stroke="black" d="M150.179,-72.411C144.919,-61.2524 138.013,-46.6036 132.764,-35.4699"/>
</g>
<!-- v5&#45;&#45;v6 -->
<g id="edge20" class="edge"><title>v5&#45;&#45;v6</title>
<path fill="none" stroke="black" d="M180.108,-79.2668C210.486,-65.8931 264.801,-41.9806 295.079,-28.6505"/>
</g>
<!-- v3&#45;&#45;v4 -->
<g id="edge16" class="edge"><title>v3&#45;&#45;v4</title>
<path fill="none" stroke="black" d="M110.493,-219.834C127.12,-207.319 151.985,-188.603 168.586,-176.107"/>
</g>
<!-- v3&#45;&#45;v7 -->
<g id="edge17" class="edge"><title>v3&#45;&#45;v7</title>
<path fill="none" stroke="black" d="M95.5646,-215.849C101.571,-175.68 116.493,-75.8902 122.468,-35.9354"/>
</g>
</g>
</svg>
