<?xml version="1.0" encoding="UTF-8" standalone="no"?>
<!DOCTYPE svg PUBLIC "-//W3C//DTD SVG 1.1//EN"
 "http://www.w3.org/Graphics/SVG/1.1/DTD/svg11.dtd">
<!-- Generated by graphviz version 2.38.0 (20140413.2041)
 -->
<!-- Title: G Pages: 1 -->
<svg width="574pt" height="548pt"
 viewBox="0.00 0.00 574.00 548.00" xmlns="http://www.w3.org/2000/svg" xmlns:xlink="http://www.w3.org/1999/xlink">
<g id="graph0" class="graph" transform="scale(1 1) rotate(0) translate(4 544)">
<title>G</title>
<polygon fill="white" stroke="none" points="-4,4 -4,-544 570,-544 570,4 -4,4"/>
<!-- v8 -->
<g id="node1" class="node"><title>v8</title>
<ellipse fill="red" stroke="black" cx="264" cy="-90" rx="27" ry="18"/>
<text text-anchor="middle" x="264" y="-86.3" font-family="Times,serif" font-size="14.00">v8</text>
</g>
<!-- v9 -->
<g id="node10" class="node"><title>v9</title>
<ellipse fill="none" stroke="black" cx="264" cy="-18" rx="27" ry="18"/>
<text text-anchor="middle" x="264" y="-14.3" font-family="Times,serif" font-size="14.00">v9</text>
</g>
<!-- v8&#45;&#45;v9 -->
<g id="edge33" class="edge"><title>v8&#45;&#45;v9</title>
<path fill="none" stroke="black" d="M264,-71.6966C264,-60.8463 264,-46.9167 264,-36.1043"/>
</g>
<!-- v3 -->
<g id="node2" class="node"><title>v3</title>
<ellipse fill="red" stroke="black" cx="245" cy="-306" rx="27" ry="18"/>
<text text-anchor="middle" x="245" y="-302.3" font-family="Times,serif" font-size="14.00">v3</text>
</g>
<!-- v3&#45;&#45;v8 -->
<g id="edge23" class="edge"><title>v3&#45;&#45;v8</title>
<path fill="none" stroke="black" d="M246.523,-287.849C250.08,-247.78 258.905,-148.383 262.47,-108.232"/>
</g>
<!-- v5 -->
<g id="node3" class="node"><title>v5</title>
<ellipse fill="red" stroke="black" cx="171" cy="-234" rx="27" ry="18"/>
<text text-anchor="middle" x="171" y="-230.3" font-family="Times,serif" font-size="14.00">v5</text>
</g>
<!-- v3&#45;&#45;v5 -->
<g id="edge21" class="edge"><title>v3&#45;&#45;v5</title>
<path fill="none" stroke="black" d="M230.025,-290.834C217.186,-278.69 198.785,-261.283 185.953,-249.144"/>
</g>
<!-- v4 -->
<g id="node4" class="node"><title>v4</title>
<ellipse fill="red" stroke="black" cx="319" cy="-234" rx="27" ry="18"/>
<text text-anchor="middle" x="319" y="-230.3" font-family="Times,serif" font-size="14.00">v4</text>
</g>
<!-- v3&#45;&#45;v4 -->
<g id="edge20" class="edge"><title>v3&#45;&#45;v4</title>
<path fill="none" stroke="black" d="M259.975,-290.834C272.814,-278.69 291.215,-261.283 304.047,-249.144"/>
</g>
<!-- v7 -->
<g id="node9" class="node"><title>v7</title>
<ellipse fill="none" stroke="black" cx="171" cy="-162" rx="27" ry="18"/>
<text text-anchor="middle" x="171" y="-158.3" font-family="Times,serif" font-size="14.00">v7</text>
</g>
<!-- v3&#45;&#45;v7 -->
<g id="edge22" class="edge"><title>v3&#45;&#45;v7</title>
<path fill="none" stroke="black" d="M238.923,-288.147C232.091,-269.904 220.212,-240.179 207,-216 199.853,-202.92 190.324,-189.012 182.866,-178.726"/>
</g>
<!-- v5&#45;&#45;v8 -->
<g id="edge29" class="edge"><title>v5&#45;&#45;v8</title>
<path fill="none" stroke="black" d="M181.824,-217.305C189.03,-206.796 198.67,-192.628 207,-180 223.772,-154.575 242.76,-124.701 254.037,-106.838"/>
</g>
<!-- v6 -->
<g id="node8" class="node"><title>v6</title>
<ellipse fill="none" stroke="black" cx="374" cy="-162" rx="27" ry="18"/>
<text text-anchor="middle" x="374" y="-158.3" font-family="Times,serif" font-size="14.00">v6</text>
</g>
<!-- v5&#45;&#45;v6 -->
<g id="edge27" class="edge"><title>v5&#45;&#45;v6</title>
<path fill="none" stroke="black" d="M194.684,-224.833C233.8,-211.345 311.45,-184.569 350.467,-171.115"/>
</g>
<!-- v5&#45;&#45;v7 -->
<g id="edge28" class="edge"><title>v5&#45;&#45;v7</title>
<path fill="none" stroke="black" d="M171,-215.697C171,-204.846 171,-190.917 171,-180.104"/>
</g>
<!-- v5&#45;&#45;v9 -->
<g id="edge30" class="edge"><title>v5&#45;&#45;v9</title>
<path fill="none" stroke="black" d="M157.25,-218.069C149.039,-208.1 139.381,-194.247 135,-180 130.297,-164.707 128.761,-158.733 135,-144 157.375,-91.1614 214.228,-49.7031 244.437,-30.5624"/>
</g>
<!-- v4&#45;&#45;v8 -->
<g id="edge26" class="edge"><title>v4&#45;&#45;v8</title>
<path fill="none" stroke="black" d="M312.583,-216.433C302.042,-189.217 281.172,-135.334 270.546,-107.902"/>
</g>
<!-- v4&#45;&#45;v6 -->
<g id="edge24" class="edge"><title>v4&#45;&#45;v6</title>
<path fill="none" stroke="black" d="M330.934,-217.811C340.16,-206.07 352.87,-189.893 362.089,-178.159"/>
</g>
<!-- v4&#45;&#45;v7 -->
<g id="edge25" class="edge"><title>v4&#45;&#45;v7</title>
<path fill="none" stroke="black" d="M297.48,-222.821C269.42,-209.55 220.619,-186.468 192.546,-173.191"/>
</g>
<!-- v0 -->
<g id="node5" class="node"><title>v0</title>
<ellipse fill="red" stroke="black" cx="268" cy="-522" rx="27" ry="18"/>
<text text-anchor="middle" x="268" y="-518.3" font-family="Times,serif" font-size="14.00">v0</text>
</g>
<!-- v0&#45;&#45;v5 -->
<g id="edge3" class="edge"><title>v0&#45;&#45;v5</title>
<path fill="none" stroke="black" d="M262.366,-504.387C245.222,-453.839 193.815,-302.268 176.65,-251.659"/>
</g>
<!-- v2 -->
<g id="node6" class="node"><title>v2</title>
<ellipse fill="red" stroke="black" cx="143" cy="-378" rx="27" ry="18"/>
<text text-anchor="middle" x="143" y="-374.3" font-family="Times,serif" font-size="14.00">v2</text>
</g>
<!-- v0&#45;&#45;v2 -->
<g id="edge2" class="edge"><title>v0&#45;&#45;v2</title>
<path fill="none" stroke="black" d="M245.861,-511.447C227.306,-502.5 201.165,-487.579 184,-468 165.271,-446.637 153.53,-415.272 147.63,-396.046"/>
</g>
<!-- v1 -->
<g id="node7" class="node"><title>v1</title>
<ellipse fill="red" stroke="black" cx="338" cy="-450" rx="27" ry="18"/>
<text text-anchor="middle" x="338" y="-446.3" font-family="Times,serif" font-size="14.00">v1</text>
</g>
<!-- v0&#45;&#45;v1 -->
<g id="edge1" class="edge"><title>v0&#45;&#45;v1</title>
<path fill="none" stroke="black" d="M282.504,-506.496C294.518,-494.482 311.506,-477.494 323.515,-465.485"/>
</g>
<!-- v0&#45;&#45;v6 -->
<g id="edge4" class="edge"><title>v0&#45;&#45;v6</title>
<path fill="none" stroke="black" d="M291.585,-513.032C331.914,-497.849 412.088,-460.415 436,-396 465.572,-316.338 409.259,-216.505 384.675,-178.582"/>
</g>
<!-- v0&#45;&#45;v7 -->
<g id="edge5" class="edge"><title>v0&#45;&#45;v7</title>
<path fill="none" stroke="black" d="M240.828,-519.235C172.695,-513.193 0,-487.207 0,-379 0,-379 0,-379 0,-305 0,-229.559 99.7263,-186.528 146.863,-170.404"/>
</g>
<!-- v0&#45;&#45;v9 -->
<g id="edge6" class="edge"><title>v0&#45;&#45;v9</title>
<path fill="none" stroke="black" d="M294.971,-520.489C368.326,-517.536 566,-498.49 566,-379 566,-379 566,-379 566,-161 566,-40.056 365.192,-21.9352 291.066,-19.3662"/>
</g>
<!-- v2&#45;&#45;v8 -->
<g id="edge18" class="edge"><title>v2&#45;&#45;v8</title>
<path fill="none" stroke="black" d="M136.002,-360.447C119.7,-319.003 84.2847,-209.415 135,-144 159.923,-111.853 207.69,-99.0737 237.585,-94.0866"/>
</g>
<!-- v2&#45;&#45;v3 -->
<g id="edge13" class="edge"><title>v2&#45;&#45;v3</title>
<path fill="none" stroke="black" d="M161.236,-364.485C179.802,-351.744 208.414,-332.108 226.922,-319.406"/>
</g>
<!-- v2&#45;&#45;v5 -->
<g id="edge15" class="edge"><title>v2&#45;&#45;v5</title>
<path fill="none" stroke="black" d="M146.377,-359.871C151.759,-332.578 162.221,-279.52 167.611,-252.189"/>
</g>
<!-- v2&#45;&#45;v4 -->
<g id="edge14" class="edge"><title>v2&#45;&#45;v4</title>
<path fill="none" stroke="black" d="M169.161,-373.226C199.633,-367.556 249.771,-354.099 281,-324 301.444,-304.296 311.456,-271.821 315.9,-252.023"/>
</g>
<!-- v2&#45;&#45;v6 -->
<g id="edge16" class="edge"><title>v2&#45;&#45;v6</title>
<path fill="none" stroke="black" d="M169.415,-373.782C203.821,-368.471 264.469,-355.168 306,-324 353.323,-288.485 368.007,-213.66 372.318,-180.018"/>
</g>
<!-- v2&#45;&#45;v7 -->
<g id="edge17" class="edge"><title>v2&#45;&#45;v7</title>
<path fill="none" stroke="black" d="M138.448,-360.077C131.223,-330.218 119.453,-266.557 135,-216 139.381,-201.753 149.039,-187.9 157.25,-177.931"/>
</g>
<!-- v2&#45;&#45;v9 -->
<g id="edge19" class="edge"><title>v2&#45;&#45;v9</title>
<path fill="none" stroke="black" d="M124.71,-364.466C94.6272,-342.204 38,-292.642 38,-235 38,-235 38,-235 38,-161 38,-67.6285 178.016,-33.2693 237.633,-22.8716"/>
</g>
<!-- v1&#45;&#45;v8 -->
<g id="edge11" class="edge"><title>v1&#45;&#45;v8</title>
<path fill="none" stroke="black" d="M357.339,-437.19C389.863,-415.674 452,-366.751 452,-307 452,-307 452,-307 452,-233 452,-189.261 442.328,-173.462 410,-144 375.919,-112.94 322.225,-99.7267 290.327,-94.3763"/>
</g>
<!-- v1&#45;&#45;v3 -->
<g id="edge8" class="edge"><title>v1&#45;&#45;v3</title>
<path fill="none" stroke="black" d="M327.692,-433.261C309.816,-405.966 273.263,-350.154 255.354,-322.81"/>
</g>
<!-- v1&#45;&#45;v4 -->
<g id="edge9" class="edge"><title>v1&#45;&#45;v4</title>
<path fill="none" stroke="black" d="M336.477,-431.849C332.92,-391.78 324.095,-292.383 320.53,-252.232"/>
</g>
<!-- v1&#45;&#45;v2 -->
<g id="edge7" class="edge"><title>v1&#45;&#45;v2</title>
<path fill="none" stroke="black" d="M314.865,-440.695C277.437,-427.259 204.011,-400.901 166.408,-387.403"/>
</g>
<!-- v1&#45;&#45;v6 -->
<g id="edge10" class="edge"><title>v1&#45;&#45;v6</title>
<path fill="none" stroke="black" d="M342.178,-432.015C350.287,-398.075 367.897,-319.347 374,-252 376.259,-227.071 375.659,-198.052 374.914,-180.103"/>
</g>
<!-- v1&#45;&#45;v9 -->
<g id="edge12" class="edge"><title>v1&#45;&#45;v9</title>
<path fill="none" stroke="black" d="M359.069,-438.567C386.137,-425.018 430.331,-402.348 436,-396 490.023,-335.508 480.471,-295.802 466,-216 459.902,-182.372 459.809,-171.11 439,-144 396.261,-88.3193 321.916,-47.0063 285.436,-28.9874"/>
</g>
<!-- v6&#45;&#45;v8 -->
<g id="edge31" class="edge"><title>v6&#45;&#45;v8</title>
<path fill="none" stroke="black" d="M354.839,-148.807C334.65,-135.959 303.048,-115.848 282.941,-103.053"/>
</g>
<!-- v7&#45;&#45;v8 -->
<g id="edge32" class="edge"><title>v7&#45;&#45;v8</title>
<path fill="none" stroke="black" d="M188.493,-147.834C205.12,-135.319 229.985,-116.603 246.586,-104.107"/>
</g>
</g>
</svg>
