<?xml version="1.0" encoding="UTF-8" standalone="no"?>
<!DOCTYPE svg PUBLIC "-//W3C//DTD SVG 1.1//EN"
 "http://www.w3.org/Graphics/SVG/1.1/DTD/svg11.dtd">
<!-- Generated by graphviz version 2.38.0 (20140413.2041)
 -->
<!-- Title: G Pages: 1 -->
<svg width="526pt" height="548pt"
 viewBox="0.00 0.00 525.52 548.00" xmlns="http://www.w3.org/2000/svg" xmlns:xlink="http://www.w3.org/1999/xlink">
<g id="graph0" class="graph" transform="scale(1 1) rotate(0) translate(4 544)">
<title>G</title>
<polygon fill="white" stroke="none" points="-4,4 -4,-544 521.524,-544 521.524,4 -4,4"/>
<!-- v2 -->
<g id="node1" class="node"><title>v2</title>
<ellipse fill="red" stroke="black" cx="266" cy="-378" rx="27" ry="18"/>
<text text-anchor="middle" x="266" y="-374.3" font-family="Times,serif" font-size="14.00">v2</text>
</g>
<!-- v5 -->
<g id="node2" class="node"><title>v5</title>
<ellipse fill="red" stroke="black" cx="211" cy="-234" rx="27" ry="18"/>
<text text-anchor="middle" x="211" y="-230.3" font-family="Times,serif" font-size="14.00">v5</text>
</g>
<!-- v2&#45;&#45;v5 -->
<g id="edge15" class="edge"><title>v2&#45;&#45;v5</title>
<path fill="none" stroke="black" d="M259.583,-360.433C249.042,-333.217 228.172,-279.334 217.546,-251.902"/>
</g>
<!-- v3 -->
<g id="node3" class="node"><title>v3</title>
<ellipse fill="red" stroke="black" cx="359" cy="-306" rx="27" ry="18"/>
<text text-anchor="middle" x="359" y="-302.3" font-family="Times,serif" font-size="14.00">v3</text>
</g>
<!-- v2&#45;&#45;v3 -->
<g id="edge13" class="edge"><title>v2&#45;&#45;v3</title>
<path fill="none" stroke="black" d="M283.493,-363.834C300.12,-351.319 324.985,-332.603 341.586,-320.107"/>
</g>
<!-- v4 -->
<g id="node4" class="node"><title>v4</title>
<ellipse fill="red" stroke="black" cx="435" cy="-234" rx="27" ry="18"/>
<text text-anchor="middle" x="435" y="-230.3" font-family="Times,serif" font-size="14.00">v4</text>
</g>
<!-- v2&#45;&#45;v4 -->
<g id="edge14" class="edge"><title>v2&#45;&#45;v4</title>
<path fill="none" stroke="black" d="M291.656,-372.377C320.178,-366.024 366.034,-352.038 395,-324 415.571,-304.089 426.414,-271.68 431.408,-251.951"/>
</g>
<!-- v8 -->
<g id="node7" class="node"><title>v8</title>
<ellipse fill="red" stroke="black" cx="285" cy="-90" rx="27" ry="18"/>
<text text-anchor="middle" x="285" y="-86.3" font-family="Times,serif" font-size="14.00">v8</text>
</g>
<!-- v2&#45;&#45;v8 -->
<g id="edge18" class="edge"><title>v2&#45;&#45;v8</title>
<path fill="none" stroke="black" d="M267.132,-359.966C270.503,-309.218 280.456,-159.407 283.85,-108.306"/>
</g>
<!-- v6 -->
<g id="node8" class="node"><title>v6</title>
<ellipse fill="none" stroke="black" cx="135" cy="-162" rx="27" ry="18"/>
<text text-anchor="middle" x="135" y="-158.3" font-family="Times,serif" font-size="14.00">v6</text>
</g>
<!-- v2&#45;&#45;v6 -->
<g id="edge16" class="edge"><title>v2&#45;&#45;v6</title>
<path fill="none" stroke="black" d="M254.359,-361.257C246.587,-350.728 236.153,-336.555 227,-324 203.747,-292.103 194.748,-286.178 175,-252 161.016,-227.798 148.442,-197.822 141.269,-179.568"/>
</g>
<!-- v7 -->
<g id="node9" class="node"><title>v7</title>
<ellipse fill="none" stroke="black" cx="365" cy="-162" rx="27" ry="18"/>
<text text-anchor="middle" x="365" y="-158.3" font-family="Times,serif" font-size="14.00">v7</text>
</g>
<!-- v2&#45;&#45;v7 -->
<g id="edge17" class="edge"><title>v2&#45;&#45;v7</title>
<path fill="none" stroke="black" d="M273.604,-360.563C292.032,-320.729 338.916,-219.385 357.37,-179.493"/>
</g>
<!-- v9 -->
<g id="node10" class="node"><title>v9</title>
<ellipse fill="none" stroke="black" cx="190" cy="-18" rx="27" ry="18"/>
<text text-anchor="middle" x="190" y="-14.3" font-family="Times,serif" font-size="14.00">v9</text>
</g>
<!-- v2&#45;&#45;v9 -->
<g id="edge19" class="edge"><title>v2&#45;&#45;v9</title>
<path fill="none" stroke="black" d="M246.807,-365.281C231.659,-355.449 210.558,-340.409 195,-324 142.077,-268.182 121.29,-253.618 99,-180 80.9499,-120.385 142.516,-58.6647 173.396,-32.2659"/>
</g>
<!-- v5&#45;&#45;v8 -->
<g id="edge29" class="edge"><title>v5&#45;&#45;v8</title>
<path fill="none" stroke="black" d="M217.951,-216.294C225.66,-198.178 238.764,-168.56 252,-144 258.891,-131.214 267.609,-117.292 274.354,-106.927"/>
</g>
<!-- v5&#45;&#45;v6 -->
<g id="edge27" class="edge"><title>v5&#45;&#45;v6</title>
<path fill="none" stroke="black" d="M195.62,-218.834C182.435,-206.69 163.536,-189.283 150.357,-177.144"/>
</g>
<!-- v5&#45;&#45;v7 -->
<g id="edge28" class="edge"><title>v5&#45;&#45;v7</title>
<path fill="none" stroke="black" d="M232.738,-223.119C262.088,-209.778 314.079,-186.146 343.373,-172.831"/>
</g>
<!-- v5&#45;&#45;v9 -->
<g id="edge30" class="edge"><title>v5&#45;&#45;v9</title>
<path fill="none" stroke="black" d="M209.317,-215.849C205.385,-175.78 195.631,-76.3826 191.691,-36.2325"/>
</g>
<!-- v3&#45;&#45;v5 -->
<g id="edge21" class="edge"><title>v3&#45;&#45;v5</title>
<path fill="none" stroke="black" d="M337.48,-294.821C309.42,-281.55 260.619,-258.468 232.546,-245.191"/>
</g>
<!-- v3&#45;&#45;v4 -->
<g id="edge20" class="edge"><title>v3&#45;&#45;v4</title>
<path fill="none" stroke="black" d="M374.38,-290.834C387.565,-278.69 406.464,-261.283 419.643,-249.144"/>
</g>
<!-- v3&#45;&#45;v8 -->
<g id="edge23" class="edge"><title>v3&#45;&#45;v8</title>
<path fill="none" stroke="black" d="M353.193,-288.208C339.36,-248.204 304.586,-147.639 290.78,-107.714"/>
</g>
<!-- v3&#45;&#45;v7 -->
<g id="edge22" class="edge"><title>v3&#45;&#45;v7</title>
<path fill="none" stroke="black" d="M359.724,-287.871C360.877,-260.578 363.119,-207.52 364.274,-180.189"/>
</g>
<!-- v4&#45;&#45;v8 -->
<g id="edge26" class="edge"><title>v4&#45;&#45;v8</title>
<path fill="none" stroke="black" d="M432.45,-215.864C428.715,-196.261 420.014,-164.264 401,-144 376.457,-117.842 336.524,-103.567 310.507,-96.6095"/>
</g>
<!-- v4&#45;&#45;v6 -->
<g id="edge24" class="edge"><title>v4&#45;&#45;v6</title>
<path fill="none" stroke="black" d="M409.938,-227.152C353.468,-213.976 216.804,-182.088 160.201,-168.88"/>
</g>
<!-- v4&#45;&#45;v7 -->
<g id="edge25" class="edge"><title>v4&#45;&#45;v7</title>
<path fill="none" stroke="black" d="M420.496,-218.496C408.482,-206.482 391.494,-189.494 379.485,-177.485"/>
</g>
<!-- v0 -->
<g id="node5" class="node"><title>v0</title>
<ellipse fill="red" stroke="black" cx="161" cy="-522" rx="27" ry="18"/>
<text text-anchor="middle" x="161" y="-518.3" font-family="Times,serif" font-size="14.00">v0</text>
</g>
<!-- v0&#45;&#45;v2 -->
<g id="edge2" class="edge"><title>v0&#45;&#45;v2</title>
<path fill="none" stroke="black" d="M172.437,-505.533C192.634,-478.218 234.39,-421.749 254.577,-394.448"/>
</g>
<!-- v0&#45;&#45;v5 -->
<g id="edge3" class="edge"><title>v0&#45;&#45;v5</title>
<path fill="none" stroke="black" d="M163.978,-503.966C172.871,-453.098 199.165,-302.696 208.038,-251.945"/>
</g>
<!-- v1 -->
<g id="node6" class="node"><title>v1</title>
<ellipse fill="red" stroke="black" cx="359" cy="-450" rx="27" ry="18"/>
<text text-anchor="middle" x="359" y="-446.3" font-family="Times,serif" font-size="14.00">v1</text>
</g>
<!-- v0&#45;&#45;v1 -->
<g id="edge1" class="edge"><title>v0&#45;&#45;v1</title>
<path fill="none" stroke="black" d="M184.491,-512.695C222.598,-499.223 297.453,-472.759 335.54,-459.294"/>
</g>
<!-- v0&#45;&#45;v6 -->
<g id="edge4" class="edge"><title>v0&#45;&#45;v6</title>
<path fill="none" stroke="black" d="M140.689,-509.908C105.754,-489.172 38,-440.969 38,-379 38,-379 38,-379 38,-305 38,-249.17 89.7577,-199.135 117.658,-176.219"/>
</g>
<!-- v0&#45;&#45;v7 -->
<g id="edge5" class="edge"><title>v0&#45;&#45;v7</title>
<path fill="none" stroke="black" d="M188.386,-521.084C255.144,-519.555 424.224,-504.748 471,-396 502.61,-322.51 513.058,-284.052 471,-216 453.585,-187.822 416.149,-174.124 390.763,-167.838"/>
</g>
<!-- v0&#45;&#45;v9 -->
<g id="edge6" class="edge"><title>v0&#45;&#45;v9</title>
<path fill="none" stroke="black" d="M136.668,-513.981C112.586,-506.037 75.8234,-491.112 51,-468 17.6338,-436.934 2.66454e-15,-424.59 0,-379 0,-379 0,-379 0,-161 0,-79.6683 113.086,-39.3121 164.769,-25.1152"/>
</g>
<!-- v1&#45;&#45;v2 -->
<g id="edge7" class="edge"><title>v1&#45;&#45;v2</title>
<path fill="none" stroke="black" d="M341.507,-435.834C324.88,-423.319 300.015,-404.603 283.414,-392.107"/>
</g>
<!-- v1&#45;&#45;v3 -->
<g id="edge8" class="edge"><title>v1&#45;&#45;v3</title>
<path fill="none" stroke="black" d="M359,-431.871C359,-404.578 359,-351.52 359,-324.189"/>
</g>
<!-- v1&#45;&#45;v4 -->
<g id="edge9" class="edge"><title>v1&#45;&#45;v4</title>
<path fill="none" stroke="black" d="M368.652,-433.047C382.233,-409.872 406.794,-365.157 420,-324 427.803,-299.68 431.751,-270.249 433.589,-252.074"/>
</g>
<!-- v1&#45;&#45;v8 -->
<g id="edge11" class="edge"><title>v1&#45;&#45;v8</title>
<path fill="none" stroke="black" d="M380.047,-438.575C417.078,-418.577 490,-371.064 490,-307 490,-307 490,-307 490,-233 490,-146.627 365.503,-108.637 310.549,-96.0757"/>
</g>
<!-- v1&#45;&#45;v6 -->
<g id="edge10" class="edge"><title>v1&#45;&#45;v6</title>
<path fill="none" stroke="black" d="M333.463,-443.916C305.26,-437.175 259.894,-422.866 230,-396 163.555,-336.286 142.644,-223.291 136.92,-180.245"/>
</g>
<!-- v1&#45;&#45;v9 -->
<g id="edge12" class="edge"><title>v1&#45;&#45;v9</title>
<path fill="none" stroke="black" d="M381.22,-439.48C411.905,-426.185 464.256,-402.907 471,-396 527.824,-337.809 523.981,-294.841 504,-216 471.155,-86.4009 284.828,-37.4089 215.758,-23.545"/>
</g>
<!-- v8&#45;&#45;v9 -->
<g id="edge33" class="edge"><title>v8&#45;&#45;v9</title>
<path fill="none" stroke="black" d="M267.576,-76.1609C250.542,-63.6096 224.742,-44.5991 207.636,-31.9947"/>
</g>
<!-- v6&#45;&#45;v8 -->
<g id="edge31" class="edge"><title>v6&#45;&#45;v8</title>
<path fill="none" stroke="black" d="M156.491,-150.971C185.006,-137.664 235.054,-114.308 263.549,-101.011"/>
</g>
<!-- v7&#45;&#45;v8 -->
<g id="edge32" class="edge"><title>v7&#45;&#45;v8</title>
<path fill="none" stroke="black" d="M349.195,-147.17C335.169,-134.898 314.788,-117.064 300.773,-104.801"/>
</g>
</g>
</svg>
