<?xml version="1.0" encoding="UTF-8" standalone="no"?>
<!DOCTYPE svg PUBLIC "-//W3C//DTD SVG 1.1//EN"
 "http://www.w3.org/Graphics/SVG/1.1/DTD/svg11.dtd">
<!-- Generated by graphviz version 2.38.0 (20140413.2041)
 -->
<!-- Title: G Pages: 1 -->
<svg width="518pt" height="548pt"
 viewBox="0.00 0.00 517.84 548.00" xmlns="http://www.w3.org/2000/svg" xmlns:xlink="http://www.w3.org/1999/xlink">
<g id="graph0" class="graph" transform="scale(1 1) rotate(0) translate(4 544)">
<title>G</title>
<polygon fill="white" stroke="none" points="-4,4 -4,-544 513.838,-544 513.838,4 -4,4"/>
<!-- v3 -->
<g id="node1" class="node"><title>v3</title>
<ellipse fill="red" stroke="black" cx="188.838" cy="-306" rx="27" ry="18"/>
<text text-anchor="middle" x="188.838" y="-302.3" font-family="Times,serif" font-size="14.00">v3</text>
</g>
<!-- v5 -->
<g id="node3" class="node"><title>v5</title>
<ellipse fill="red" stroke="black" cx="40.8384" cy="-234" rx="27" ry="18"/>
<text text-anchor="middle" x="40.8384" y="-230.3" font-family="Times,serif" font-size="14.00">v5</text>
</g>
<!-- v3&#45;&#45;v5 -->
<g id="edge21" class="edge"><title>v3&#45;&#45;v5</title>
<path fill="none" stroke="black" d="M167.318,-294.821C139.258,-281.55 90.4574,-258.468 62.3849,-245.191"/>
</g>
<!-- v8 -->
<g id="node4" class="node"><title>v8</title>
<ellipse fill="red" stroke="black" cx="209.838" cy="-90" rx="27" ry="18"/>
<text text-anchor="middle" x="209.838" y="-86.3" font-family="Times,serif" font-size="14.00">v8</text>
</g>
<!-- v3&#45;&#45;v8 -->
<g id="edge23" class="edge"><title>v3&#45;&#45;v8</title>
<path fill="none" stroke="black" d="M190.521,-287.849C194.453,-247.78 204.207,-148.383 208.147,-108.232"/>
</g>
<!-- v4 -->
<g id="node6" class="node"><title>v4</title>
<ellipse fill="red" stroke="black" cx="264.838" cy="-234" rx="27" ry="18"/>
<text text-anchor="middle" x="264.838" y="-230.3" font-family="Times,serif" font-size="14.00">v4</text>
</g>
<!-- v3&#45;&#45;v4 -->
<g id="edge20" class="edge"><title>v3&#45;&#45;v4</title>
<path fill="none" stroke="black" d="M204.218,-290.834C217.404,-278.69 236.302,-261.283 249.482,-249.144"/>
</g>
<!-- v7 -->
<g id="node9" class="node"><title>v7</title>
<ellipse fill="none" stroke="black" cx="116.838" cy="-162" rx="27" ry="18"/>
<text text-anchor="middle" x="116.838" y="-158.3" font-family="Times,serif" font-size="14.00">v7</text>
</g>
<!-- v3&#45;&#45;v7 -->
<g id="edge22" class="edge"><title>v3&#45;&#45;v7</title>
<path fill="none" stroke="black" d="M180.579,-288.711C166.764,-261.465 139.121,-206.946 125.223,-179.537"/>
</g>
<!-- v1 -->
<g id="node2" class="node"><title>v1</title>
<ellipse fill="red" stroke="black" cx="281.838" cy="-450" rx="27" ry="18"/>
<text text-anchor="middle" x="281.838" y="-446.3" font-family="Times,serif" font-size="14.00">v1</text>
</g>
<!-- v1&#45;&#45;v3 -->
<g id="edge8" class="edge"><title>v1&#45;&#45;v3</title>
<path fill="none" stroke="black" d="M271.876,-433.162C260.598,-415.299 241.611,-385.425 224.838,-360 216.508,-347.372 206.869,-333.204 199.662,-322.695"/>
</g>
<!-- v1&#45;&#45;v8 -->
<g id="edge11" class="edge"><title>v1&#45;&#45;v8</title>
<path fill="none" stroke="black" d="M292.782,-433.456C324.936,-385.706 412.885,-238.661 347.838,-144 322.839,-107.619 269.137,-96.1996 236.587,-92.623"/>
</g>
<!-- v1&#45;&#45;v4 -->
<g id="edge9" class="edge"><title>v1&#45;&#45;v4</title>
<path fill="none" stroke="black" d="M280.476,-431.849C277.293,-391.78 269.397,-292.383 266.207,-252.232"/>
</g>
<!-- v2 -->
<g id="node7" class="node"><title>v2</title>
<ellipse fill="red" stroke="black" cx="188.838" cy="-378" rx="27" ry="18"/>
<text text-anchor="middle" x="188.838" y="-374.3" font-family="Times,serif" font-size="14.00">v2</text>
</g>
<!-- v1&#45;&#45;v2 -->
<g id="edge7" class="edge"><title>v1&#45;&#45;v2</title>
<path fill="none" stroke="black" d="M264.346,-435.834C247.719,-423.319 222.854,-404.603 206.253,-392.107"/>
</g>
<!-- v6 -->
<g id="node8" class="node"><title>v6</title>
<ellipse fill="none" stroke="black" cx="311.838" cy="-162" rx="27" ry="18"/>
<text text-anchor="middle" x="311.838" y="-158.3" font-family="Times,serif" font-size="14.00">v6</text>
</g>
<!-- v1&#45;&#45;v6 -->
<g id="edge10" class="edge"><title>v1&#45;&#45;v6</title>
<path fill="none" stroke="black" d="M287.147,-432.164C298.607,-393.973 324.213,-297.74 318.838,-216 318.047,-203.96 316.254,-190.481 314.681,-180.129"/>
</g>
<!-- v9 -->
<g id="node10" class="node"><title>v9</title>
<ellipse fill="none" stroke="black" cx="209.838" cy="-18" rx="27" ry="18"/>
<text text-anchor="middle" x="209.838" y="-14.3" font-family="Times,serif" font-size="14.00">v9</text>
</g>
<!-- v1&#45;&#45;v9 -->
<g id="edge12" class="edge"><title>v1&#45;&#45;v9</title>
<path fill="none" stroke="black" d="M302.898,-438.249C352.367,-411.324 471.838,-335.857 471.838,-235 471.838,-235 471.838,-235 471.838,-161 471.838,-54.9386 303.831,-27.6836 236.89,-21.0335"/>
</g>
<!-- v5&#45;&#45;v8 -->
<g id="edge29" class="edge"><title>v5&#45;&#45;v8</title>
<path fill="none" stroke="black" d="M44.4303,-216.049C49.4246,-196.32 60.2678,-163.911 80.8384,-144 109.805,-115.962 155.66,-101.976 184.183,-95.6235"/>
</g>
<!-- v5&#45;&#45;v6 -->
<g id="edge27" class="edge"><title>v5&#45;&#45;v6</title>
<path fill="none" stroke="black" d="M65.8477,-226.54C117.474,-213.205 235.315,-182.766 286.89,-169.444"/>
</g>
<!-- v5&#45;&#45;v7 -->
<g id="edge28" class="edge"><title>v5&#45;&#45;v7</title>
<path fill="none" stroke="black" d="M56.2181,-218.834C69.4038,-206.69 88.3025,-189.283 101.482,-177.144"/>
</g>
<!-- v5&#45;&#45;v9 -->
<g id="edge30" class="edge"><title>v5&#45;&#45;v9</title>
<path fill="none" stroke="black" d="M39.4959,-215.739C38.8261,-196.879 40.1407,-166.373 52.8384,-144 84.9107,-87.4885 153.578,-46.9741 188.498,-29.1412"/>
</g>
<!-- v8&#45;&#45;v9 -->
<g id="edge33" class="edge"><title>v8&#45;&#45;v9</title>
<path fill="none" stroke="black" d="M209.838,-71.6966C209.838,-60.8463 209.838,-46.9167 209.838,-36.1043"/>
</g>
<!-- v0 -->
<g id="node5" class="node"><title>v0</title>
<ellipse fill="red" stroke="black" cx="244.838" cy="-522" rx="27" ry="18"/>
<text text-anchor="middle" x="244.838" y="-518.3" font-family="Times,serif" font-size="14.00">v0</text>
</g>
<!-- v0&#45;&#45;v1 -->
<g id="edge1" class="edge"><title>v0&#45;&#45;v1</title>
<path fill="none" stroke="black" d="M253.42,-504.765C259.397,-493.456 267.336,-478.437 273.303,-467.147"/>
</g>
<!-- v0&#45;&#45;v5 -->
<g id="edge3" class="edge"><title>v0&#45;&#45;v5</title>
<path fill="none" stroke="black" d="M226.581,-508.489C187.436,-480.552 95.6051,-408.836 53.8384,-324 42.5269,-301.024 40.3731,-270.961 40.2859,-252.32"/>
</g>
<!-- v0&#45;&#45;v2 -->
<g id="edge2" class="edge"><title>v0&#45;&#45;v2</title>
<path fill="none" stroke="black" d="M238.305,-504.433C227.572,-477.217 206.322,-423.334 195.504,-395.902"/>
</g>
<!-- v0&#45;&#45;v6 -->
<g id="edge4" class="edge"><title>v0&#45;&#45;v6</title>
<path fill="none" stroke="black" d="M266.854,-511.485C283.959,-502.82 306.602,-488.274 317.838,-468 372.226,-369.865 353.876,-326.208 332.838,-216 330.389,-203.167 324.882,-189.477 320.122,-179.226"/>
</g>
<!-- v0&#45;&#45;v7 -->
<g id="edge5" class="edge"><title>v0&#45;&#45;v7</title>
<path fill="none" stroke="black" d="M220.827,-513.467C196.468,-505.034 158.514,-489.654 130.838,-468 43.3076,-399.514 29.1563,-360.446 4.83841,-252 1.33752,-236.388 -3.72018,-229.519 4.83841,-216 23.5946,-186.374 63.8719,-172.988 90.6606,-167.172"/>
</g>
<!-- v0&#45;&#45;v9 -->
<g id="edge6" class="edge"><title>v0&#45;&#45;v9</title>
<path fill="none" stroke="black" d="M271.706,-519.125C339.077,-512.821 509.838,-486.262 509.838,-379 509.838,-379 509.838,-379 509.838,-161 509.838,-40.8556 310.838,-22.2218 236.991,-19.4431"/>
</g>
<!-- v4&#45;&#45;v8 -->
<g id="edge26" class="edge"><title>v4&#45;&#45;v8</title>
<path fill="none" stroke="black" d="M258.422,-216.433C247.88,-189.217 227.01,-135.334 216.385,-107.902"/>
</g>
<!-- v4&#45;&#45;v6 -->
<g id="edge24" class="edge"><title>v4&#45;&#45;v6</title>
<path fill="none" stroke="black" d="M275.503,-217.116C283.195,-205.66 293.533,-190.263 301.216,-178.821"/>
</g>
<!-- v4&#45;&#45;v7 -->
<g id="edge25" class="edge"><title>v4&#45;&#45;v7</title>
<path fill="none" stroke="black" d="M243.318,-222.821C215.258,-209.55 166.457,-186.468 138.385,-173.191"/>
</g>
<!-- v2&#45;&#45;v3 -->
<g id="edge13" class="edge"><title>v2&#45;&#45;v3</title>
<path fill="none" stroke="black" d="M188.838,-359.697C188.838,-348.846 188.838,-334.917 188.838,-324.104"/>
</g>
<!-- v2&#45;&#45;v5 -->
<g id="edge15" class="edge"><title>v2&#45;&#45;v5</title>
<path fill="none" stroke="black" d="M164.29,-370.118C140.526,-362.355 104.815,-347.634 81.8384,-324 61.9161,-303.508 50.4846,-271.582 44.9795,-252.055"/>
</g>
<!-- v2&#45;&#45;v8 -->
<g id="edge18" class="edge"><title>v2&#45;&#45;v8</title>
<path fill="none" stroke="black" d="M175.088,-362.069C166.878,-352.1 157.219,-338.247 152.838,-324 148.136,-308.707 150.593,-303.842 152.838,-288 162.583,-219.259 190.555,-140.938 203.332,-107.516"/>
</g>
<!-- v2&#45;&#45;v4 -->
<g id="edge14" class="edge"><title>v2&#45;&#45;v4</title>
<path fill="none" stroke="black" d="M200.289,-361.686C207.761,-351.339 217.46,-337.206 224.838,-324 238.472,-299.599 251.148,-269.68 258.437,-251.493"/>
</g>
<!-- v2&#45;&#45;v6 -->
<g id="edge16" class="edge"><title>v2&#45;&#45;v6</title>
<path fill="none" stroke="black" d="M206.533,-364.034C232.766,-343.614 281.009,-301.185 300.838,-252 310.386,-228.319 312.215,-198.454 312.297,-180.046"/>
</g>
<!-- v2&#45;&#45;v7 -->
<g id="edge17" class="edge"><title>v2&#45;&#45;v7</title>
<path fill="none" stroke="black" d="M167.07,-366.959C150.817,-358.16 129.771,-343.69 119.838,-324 95.9144,-276.576 105.85,-210.861 112.563,-180.129"/>
</g>
<!-- v2&#45;&#45;v9 -->
<g id="edge19" class="edge"><title>v2&#45;&#45;v9</title>
<path fill="none" stroke="black" d="M163.409,-371.811C134.422,-364.881 86.7995,-350.311 53.8384,-324 12.6442,-291.117 -6.1036,-267.561 4.83841,-216 19.6514,-146.198 22.4521,-119.346 75.8384,-72 107.19,-44.1959 154.881,-30.0865 184.108,-23.6541"/>
</g>
<!-- v6&#45;&#45;v8 -->
<g id="edge31" class="edge"><title>v6&#45;&#45;v8</title>
<path fill="none" stroke="black" d="M293.603,-148.485C275.037,-135.744 246.425,-116.108 227.916,-103.406"/>
</g>
<!-- v7&#45;&#45;v8 -->
<g id="edge32" class="edge"><title>v7&#45;&#45;v8</title>
<path fill="none" stroke="black" d="M134.331,-147.834C150.958,-135.319 175.823,-116.603 192.424,-104.107"/>
</g>
</g>
</svg>
