<?xml version="1.0" encoding="UTF-8" standalone="no"?>
<!DOCTYPE svg PUBLIC "-//W3C//DTD SVG 1.1//EN"
 "http://www.w3.org/Graphics/SVG/1.1/DTD/svg11.dtd">
<!-- Generated by graphviz version 2.38.0 (20140413.2041)
 -->
<!-- Title: G Pages: 1 -->
<svg width="546pt" height="548pt"
 viewBox="0.00 0.00 545.66 548.00" xmlns="http://www.w3.org/2000/svg" xmlns:xlink="http://www.w3.org/1999/xlink">
<g id="graph0" class="graph" transform="scale(1 1) rotate(0) translate(4 544)">
<title>G</title>
<polygon fill="white" stroke="none" points="-4,4 -4,-544 541.655,-544 541.655,4 -4,4"/>
<!-- v3 -->
<g id="node1" class="node"><title>v3</title>
<ellipse fill="red" stroke="black" cx="216.655" cy="-306" rx="27" ry="18"/>
<text text-anchor="middle" x="216.655" y="-302.3" font-family="Times,serif" font-size="14.00">v3</text>
</g>
<!-- v8 -->
<g id="node2" class="node"><title>v8</title>
<ellipse fill="red" stroke="black" cx="261.655" cy="-90" rx="27" ry="18"/>
<text text-anchor="middle" x="261.655" y="-86.3" font-family="Times,serif" font-size="14.00">v8</text>
</g>
<!-- v3&#45;&#45;v8 -->
<g id="edge23" class="edge"><title>v3&#45;&#45;v8</title>
<path fill="none" stroke="black" d="M202.905,-290.069C194.694,-280.1 185.036,-266.247 180.655,-252 175.952,-236.707 176.118,-231.343 180.655,-216 193.853,-171.363 228.536,-127.699 247.967,-105.707"/>
</g>
<!-- v5 -->
<g id="node4" class="node"><title>v5</title>
<ellipse fill="red" stroke="black" cx="364.655" cy="-234" rx="27" ry="18"/>
<text text-anchor="middle" x="364.655" y="-230.3" font-family="Times,serif" font-size="14.00">v5</text>
</g>
<!-- v3&#45;&#45;v5 -->
<g id="edge21" class="edge"><title>v3&#45;&#45;v5</title>
<path fill="none" stroke="black" d="M238.176,-294.821C266.235,-281.55 315.036,-258.468 343.109,-245.191"/>
</g>
<!-- v4 -->
<g id="node5" class="node"><title>v4</title>
<ellipse fill="red" stroke="black" cx="216.655" cy="-234" rx="27" ry="18"/>
<text text-anchor="middle" x="216.655" y="-230.3" font-family="Times,serif" font-size="14.00">v4</text>
</g>
<!-- v3&#45;&#45;v4 -->
<g id="edge20" class="edge"><title>v3&#45;&#45;v4</title>
<path fill="none" stroke="black" d="M216.655,-287.697C216.655,-276.846 216.655,-262.917 216.655,-252.104"/>
</g>
<!-- v7 -->
<g id="node9" class="node"><title>v7</title>
<ellipse fill="none" stroke="black" cx="383.655" cy="-162" rx="27" ry="18"/>
<text text-anchor="middle" x="383.655" y="-158.3" font-family="Times,serif" font-size="14.00">v7</text>
</g>
<!-- v3&#45;&#45;v7 -->
<g id="edge22" class="edge"><title>v3&#45;&#45;v7</title>
<path fill="none" stroke="black" d="M232.668,-291.384C264.507,-264.312 335.446,-203.992 367.446,-176.783"/>
</g>
<!-- v9 -->
<g id="node10" class="node"><title>v9</title>
<ellipse fill="none" stroke="black" cx="438.655" cy="-18" rx="27" ry="18"/>
<text text-anchor="middle" x="438.655" y="-14.3" font-family="Times,serif" font-size="14.00">v9</text>
</g>
<!-- v8&#45;&#45;v9 -->
<g id="edge33" class="edge"><title>v8&#45;&#45;v9</title>
<path fill="none" stroke="black" d="M284.432,-79.992C318.419,-66.5511 382.03,-41.3942 415.965,-27.9734"/>
</g>
<!-- v1 -->
<g id="node3" class="node"><title>v1</title>
<ellipse fill="red" stroke="black" cx="161.655" cy="-450" rx="27" ry="18"/>
<text text-anchor="middle" x="161.655" y="-446.3" font-family="Times,serif" font-size="14.00">v1</text>
</g>
<!-- v1&#45;&#45;v3 -->
<g id="edge8" class="edge"><title>v1&#45;&#45;v3</title>
<path fill="none" stroke="black" d="M168.072,-432.433C178.613,-405.217 199.483,-351.334 210.109,-323.902"/>
</g>
<!-- v1&#45;&#45;v8 -->
<g id="edge11" class="edge"><title>v1&#45;&#45;v8</title>
<path fill="none" stroke="black" d="M142.317,-437.19C109.792,-415.674 47.6551,-366.751 47.6551,-307 47.6551,-307 47.6551,-307 47.6551,-233 47.6551,-192.145 42.0242,-173.145 70.6551,-144 114.667,-99.1984 192.996,-91.3388 234.346,-90.5187"/>
</g>
<!-- v1&#45;&#45;v4 -->
<g id="edge9" class="edge"><title>v1&#45;&#45;v4</title>
<path fill="none" stroke="black" d="M161.058,-431.93C160.567,-401.842 162.062,-337.84 180.655,-288 185.865,-274.035 195.484,-260.168 203.469,-250.123"/>
</g>
<!-- v2 -->
<g id="node6" class="node"><title>v2</title>
<ellipse fill="red" stroke="black" cx="309.655" cy="-378" rx="27" ry="18"/>
<text text-anchor="middle" x="309.655" y="-374.3" font-family="Times,serif" font-size="14.00">v2</text>
</g>
<!-- v1&#45;&#45;v2 -->
<g id="edge7" class="edge"><title>v1&#45;&#45;v2</title>
<path fill="none" stroke="black" d="M183.176,-438.821C211.235,-425.55 260.036,-402.468 288.109,-389.191"/>
</g>
<!-- v6 -->
<g id="node8" class="node"><title>v6</title>
<ellipse fill="none" stroke="black" cx="106.655" cy="-162" rx="27" ry="18"/>
<text text-anchor="middle" x="106.655" y="-158.3" font-family="Times,serif" font-size="14.00">v6</text>
</g>
<!-- v1&#45;&#45;v6 -->
<g id="edge10" class="edge"><title>v1&#45;&#45;v6</title>
<path fill="none" stroke="black" d="M157.09,-432.002C148.121,-398.039 128.08,-319.272 116.655,-252 112.437,-227.167 109.553,-198.123 108.004,-180.142"/>
</g>
<!-- v1&#45;&#45;v9 -->
<g id="edge12" class="edge"><title>v1&#45;&#45;v9</title>
<path fill="none" stroke="black" d="M139.077,-439.776C112.61,-428.532 71.0318,-409.378 60.6551,-396 -8.10932,-307.344 -24.6952,-231.403 45.6551,-144 138.695,-28.4071 338.664,-18.0499 411.45,-18.297"/>
</g>
<!-- v5&#45;&#45;v8 -->
<g id="edge29" class="edge"><title>v5&#45;&#45;v8</title>
<path fill="none" stroke="black" d="M354.657,-217.277C343.065,-199.264 323.175,-169.01 304.655,-144 294.924,-130.859 283.189,-116.485 274.438,-106.025"/>
</g>
<!-- v5&#45;&#45;v6 -->
<g id="edge27" class="edge"><title>v5&#45;&#45;v6</title>
<path fill="none" stroke="black" d="M339.917,-226.288C290.603,-212.908 180.571,-183.055 131.318,-169.692"/>
</g>
<!-- v5&#45;&#45;v7 -->
<g id="edge28" class="edge"><title>v5&#45;&#45;v7</title>
<path fill="none" stroke="black" d="M369.254,-216.055C372.242,-205.049 376.119,-190.764 379.098,-179.789"/>
</g>
<!-- v5&#45;&#45;v9 -->
<g id="edge30" class="edge"><title>v5&#45;&#45;v9</title>
<path fill="none" stroke="black" d="M382.948,-220.662C395.502,-211.125 411.343,-196.748 419.655,-180 443.429,-132.099 442.379,-66.6154 440.258,-36.0343"/>
</g>
<!-- v4&#45;&#45;v8 -->
<g id="edge26" class="edge"><title>v4&#45;&#45;v8</title>
<path fill="none" stroke="black" d="M221.994,-216.153C230.655,-188.824 247.667,-135.14 256.323,-107.825"/>
</g>
<!-- v4&#45;&#45;v6 -->
<g id="edge24" class="edge"><title>v4&#45;&#45;v6</title>
<path fill="none" stroke="black" d="M197.495,-220.807C177.305,-207.959 145.703,-187.848 125.596,-175.053"/>
</g>
<!-- v4&#45;&#45;v7 -->
<g id="edge25" class="edge"><title>v4&#45;&#45;v7</title>
<path fill="none" stroke="black" d="M238.831,-223.705C270.772,-210.316 329.395,-185.744 361.387,-172.334"/>
</g>
<!-- v2&#45;&#45;v3 -->
<g id="edge13" class="edge"><title>v2&#45;&#45;v3</title>
<path fill="none" stroke="black" d="M292.162,-363.834C275.536,-351.319 250.67,-332.603 234.069,-320.107"/>
</g>
<!-- v2&#45;&#45;v8 -->
<g id="edge18" class="edge"><title>v2&#45;&#45;v8</title>
<path fill="none" stroke="black" d="M306.796,-359.966C298.259,-309.098 273.017,-158.696 264.499,-107.945"/>
</g>
<!-- v2&#45;&#45;v5 -->
<g id="edge15" class="edge"><title>v2&#45;&#45;v5</title>
<path fill="none" stroke="black" d="M316.072,-360.433C326.613,-333.217 347.483,-279.334 358.109,-251.902"/>
</g>
<!-- v2&#45;&#45;v4 -->
<g id="edge14" class="edge"><title>v2&#45;&#45;v4</title>
<path fill="none" stroke="black" d="M299.693,-361.162C288.415,-343.299 269.427,-313.425 252.655,-288 244.325,-275.372 234.685,-261.204 227.479,-250.695"/>
</g>
<!-- v2&#45;&#45;v6 -->
<g id="edge16" class="edge"><title>v2&#45;&#45;v6</title>
<path fill="none" stroke="black" d="M283.786,-372.274C255.284,-365.854 209.652,-351.832 180.655,-324 137.821,-282.887 117.513,-212.257 110.112,-179.983"/>
</g>
<!-- v2&#45;&#45;v7 -->
<g id="edge17" class="edge"><title>v2&#45;&#45;v7</title>
<path fill="none" stroke="black" d="M324.828,-363.056C346.785,-341.694 386.354,-298.433 400.655,-252 408.295,-227.194 399.025,-197.392 391.468,-179.339"/>
</g>
<!-- v2&#45;&#45;v9 -->
<g id="edge19" class="edge"><title>v2&#45;&#45;v9</title>
<path fill="none" stroke="black" d="M331.128,-366.621C348.155,-357.455 371.527,-342.655 386.655,-324 449.964,-245.931 444.69,-208.112 453.655,-108 455.082,-92.0638 455.855,-87.8481 453.655,-72 451.946,-59.6864 448.105,-46.2115 444.737,-35.9301"/>
</g>
<!-- v0 -->
<g id="node7" class="node"><title>v0</title>
<ellipse fill="red" stroke="black" cx="356.655" cy="-522" rx="27" ry="18"/>
<text text-anchor="middle" x="356.655" y="-518.3" font-family="Times,serif" font-size="14.00">v0</text>
</g>
<!-- v0&#45;&#45;v1 -->
<g id="edge1" class="edge"><title>v0&#45;&#45;v1</title>
<path fill="none" stroke="black" d="M333.52,-512.695C296.092,-499.259 222.666,-472.901 185.063,-459.403"/>
</g>
<!-- v0&#45;&#45;v5 -->
<g id="edge3" class="edge"><title>v0&#45;&#45;v5</title>
<path fill="none" stroke="black" d="M357.132,-503.966C358.551,-453.218 362.742,-303.407 364.171,-252.306"/>
</g>
<!-- v0&#45;&#45;v2 -->
<g id="edge2" class="edge"><title>v0&#45;&#45;v2</title>
<path fill="none" stroke="black" d="M351.079,-504.153C342.033,-476.824 324.265,-423.14 315.224,-395.825"/>
</g>
<!-- v0&#45;&#45;v6 -->
<g id="edge4" class="edge"><title>v0&#45;&#45;v6</title>
<path fill="none" stroke="black" d="M329.556,-520.753C264.412,-518.445 101.406,-501.952 60.6551,-396 30.6821,-318.07 76.9098,-217.638 97.5405,-179.065"/>
</g>
<!-- v0&#45;&#45;v7 -->
<g id="edge5" class="edge"><title>v0&#45;&#45;v7</title>
<path fill="none" stroke="black" d="M362.247,-503.926C365.521,-493.594 369.599,-480.116 372.655,-468 396.615,-373.004 406.828,-349.477 416.655,-252 418.26,-236.081 421.053,-231.384 416.655,-216 412.663,-202.035 403.808,-188.168 396.276,-178.123"/>
</g>
<!-- v0&#45;&#45;v9 -->
<g id="edge6" class="edge"><title>v0&#45;&#45;v9</title>
<path fill="none" stroke="black" d="M381.443,-514.272C431.014,-499.145 537.655,-457.482 537.655,-379 537.655,-379 537.655,-379 537.655,-161 537.655,-104.801 484.83,-54.9364 456.354,-32.1387"/>
</g>
<!-- v6&#45;&#45;v8 -->
<g id="edge31" class="edge"><title>v6&#45;&#45;v8</title>
<path fill="none" stroke="black" d="M128.534,-151.119C158.075,-137.778 210.404,-114.146 239.887,-100.831"/>
</g>
<!-- v7&#45;&#45;v8 -->
<g id="edge32" class="edge"><title>v7&#45;&#45;v8</title>
<path fill="none" stroke="black" d="M363.782,-149.597C341.095,-136.581 304.203,-115.413 281.52,-102.398"/>
</g>
</g>
</svg>
