<?xml version="1.0" encoding="UTF-8" standalone="no"?>
<!DOCTYPE svg PUBLIC "-//W3C//DTD SVG 1.1//EN"
 "http://www.w3.org/Graphics/SVG/1.1/DTD/svg11.dtd">
<!-- Generated by graphviz version 2.38.0 (20140413.2041)
 -->
<!-- Title: G Pages: 1 -->
<svg width="574pt" height="548pt"
 viewBox="0.00 0.00 574.00 548.00" xmlns="http://www.w3.org/2000/svg" xmlns:xlink="http://www.w3.org/1999/xlink">
<g id="graph0" class="graph" transform="scale(1 1) rotate(0) translate(4 544)">
<title>G</title>
<polygon fill="white" stroke="none" points="-4,4 -4,-544 570,-544 570,4 -4,4"/>
<!-- v0 -->
<g id="node1" class="node"><title>v0</title>
<ellipse fill="red" stroke="black" cx="385" cy="-522" rx="27" ry="18"/>
<text text-anchor="middle" x="385" y="-518.3" font-family="Times,serif" font-size="14.00">v0</text>
</g>
<!-- v2 -->
<g id="node3" class="node"><title>v2</title>
<ellipse fill="red" stroke="black" cx="338" cy="-378" rx="27" ry="18"/>
<text text-anchor="middle" x="338" y="-374.3" font-family="Times,serif" font-size="14.00">v2</text>
</g>
<!-- v0&#45;&#45;v2 -->
<g id="edge2" class="edge"><title>v0&#45;&#45;v2</title>
<path fill="none" stroke="black" d="M379.424,-504.153C370.378,-476.824 352.61,-423.14 343.569,-395.825"/>
</g>
<!-- v5 -->
<g id="node4" class="node"><title>v5</title>
<ellipse fill="red" stroke="black" cx="393" cy="-234" rx="27" ry="18"/>
<text text-anchor="middle" x="393" y="-230.3" font-family="Times,serif" font-size="14.00">v5</text>
</g>
<!-- v0&#45;&#45;v5 -->
<g id="edge3" class="edge"><title>v0&#45;&#45;v5</title>
<path fill="none" stroke="black" d="M385.476,-503.966C386.896,-453.218 391.087,-303.407 392.516,-252.306"/>
</g>
<!-- v1 -->
<g id="node6" class="node"><title>v1</title>
<ellipse fill="red" stroke="black" cx="190" cy="-450" rx="27" ry="18"/>
<text text-anchor="middle" x="190" y="-446.3" font-family="Times,serif" font-size="14.00">v1</text>
</g>
<!-- v0&#45;&#45;v1 -->
<g id="edge1" class="edge"><title>v0&#45;&#45;v1</title>
<path fill="none" stroke="black" d="M361.865,-512.695C324.437,-499.259 251.011,-472.901 213.408,-459.403"/>
</g>
<!-- v7 -->
<g id="node7" class="node"><title>v7</title>
<ellipse fill="red" stroke="black" cx="412" cy="-162" rx="27" ry="18"/>
<text text-anchor="middle" x="412" y="-158.3" font-family="Times,serif" font-size="14.00">v7</text>
</g>
<!-- v0&#45;&#45;v7 -->
<g id="edge5" class="edge"><title>v0&#45;&#45;v7</title>
<path fill="none" stroke="black" d="M390.103,-504.224C402.56,-462.242 434.216,-349.044 444,-252 445.605,-236.081 448.292,-231.414 444,-216 440.136,-202.125 431.55,-188.254 424.243,-178.185"/>
</g>
<!-- v6 -->
<g id="node8" class="node"><title>v6</title>
<ellipse fill="none" stroke="black" cx="156" cy="-162" rx="27" ry="18"/>
<text text-anchor="middle" x="156" y="-158.3" font-family="Times,serif" font-size="14.00">v6</text>
</g>
<!-- v0&#45;&#45;v6 -->
<g id="edge4" class="edge"><title>v0&#45;&#45;v6</title>
<path fill="none" stroke="black" d="M358.84,-517.18C272.187,-503.801 0,-455.674 0,-379 0,-379 0,-379 0,-305 0,-233.951 89.5876,-189.038 132.982,-171.45"/>
</g>
<!-- v9 -->
<g id="node9" class="node"><title>v9</title>
<ellipse fill="none" stroke="black" cx="467" cy="-18" rx="27" ry="18"/>
<text text-anchor="middle" x="467" y="-14.3" font-family="Times,serif" font-size="14.00">v9</text>
</g>
<!-- v0&#45;&#45;v9 -->
<g id="edge6" class="edge"><title>v0&#45;&#45;v9</title>
<path fill="none" stroke="black" d="M409.788,-514.272C459.359,-499.145 566,-457.482 566,-379 566,-379 566,-379 566,-161 566,-104.801 513.175,-54.9364 484.699,-32.1387"/>
</g>
<!-- v8 -->
<g id="node2" class="node"><title>v8</title>
<ellipse fill="red" stroke="black" cx="291" cy="-90" rx="27" ry="18"/>
<text text-anchor="middle" x="291" y="-86.3" font-family="Times,serif" font-size="14.00">v8</text>
</g>
<!-- v8&#45;&#45;v9 -->
<g id="edge33" class="edge"><title>v8&#45;&#45;v9</title>
<path fill="none" stroke="black" d="M313.649,-79.992C347.443,-66.5511 410.695,-41.3942 444.438,-27.9734"/>
</g>
<!-- v2&#45;&#45;v8 -->
<g id="edge18" class="edge"><title>v2&#45;&#45;v8</title>
<path fill="none" stroke="black" d="M335.678,-359.994C330.348,-321.455 316.573,-224.555 302,-144 299.825,-131.978 297.023,-118.499 294.791,-108.142"/>
</g>
<!-- v2&#45;&#45;v5 -->
<g id="edge15" class="edge"><title>v2&#45;&#45;v5</title>
<path fill="none" stroke="black" d="M344.417,-360.433C354.958,-333.217 375.828,-279.334 386.454,-251.902"/>
</g>
<!-- v4 -->
<g id="node5" class="node"><title>v4</title>
<ellipse fill="red" stroke="black" cx="207" cy="-234" rx="27" ry="18"/>
<text text-anchor="middle" x="207" y="-230.3" font-family="Times,serif" font-size="14.00">v4</text>
</g>
<!-- v2&#45;&#45;v4 -->
<g id="edge14" class="edge"><title>v2&#45;&#45;v4</title>
<path fill="none" stroke="black" d="M314.749,-368.262C294.564,-359.661 265.714,-344.79 247,-324 227.96,-302.848 216.683,-271.129 211.181,-251.821"/>
</g>
<!-- v2&#45;&#45;v7 -->
<g id="edge17" class="edge"><title>v2&#45;&#45;v7</title>
<path fill="none" stroke="black" d="M353.116,-363.039C375.002,-341.654 414.48,-298.365 429,-252 436.757,-227.231 427.453,-197.418 419.858,-179.353"/>
</g>
<!-- v2&#45;&#45;v6 -->
<g id="edge16" class="edge"><title>v2&#45;&#45;v6</title>
<path fill="none" stroke="black" d="M313.232,-370.264C287.728,-362.389 247.88,-347.373 220,-324 190.337,-299.132 185.439,-287.914 171,-252 161.473,-228.303 157.997,-198.701 156.728,-180.321"/>
</g>
<!-- v2&#45;&#45;v9 -->
<g id="edge19" class="edge"><title>v2&#45;&#45;v9</title>
<path fill="none" stroke="black" d="M359.19,-366.558C375.994,-357.355 399.061,-342.537 414,-324 477.153,-245.635 472.351,-208.181 482,-108 483.534,-92.0737 484.199,-87.8481 482,-72 480.291,-59.6864 476.45,-46.2115 473.082,-35.9301"/>
</g>
<!-- v3 -->
<g id="node10" class="node"><title>v3</title>
<ellipse fill="none" stroke="black" cx="283" cy="-306" rx="27" ry="18"/>
<text text-anchor="middle" x="283" y="-302.3" font-family="Times,serif" font-size="14.00">v3</text>
</g>
<!-- v2&#45;&#45;v3 -->
<g id="edge13" class="edge"><title>v2&#45;&#45;v3</title>
<path fill="none" stroke="black" d="M326.066,-361.811C316.84,-350.07 304.13,-333.893 294.911,-322.159"/>
</g>
<!-- v5&#45;&#45;v8 -->
<g id="edge29" class="edge"><title>v5&#45;&#45;v8</title>
<path fill="none" stroke="black" d="M382.74,-216.991C371.071,-198.976 351.266,-168.965 333,-144 323.433,-130.924 311.976,-116.545 303.446,-106.067"/>
</g>
<!-- v5&#45;&#45;v7 -->
<g id="edge28" class="edge"><title>v5&#45;&#45;v7</title>
<path fill="none" stroke="black" d="M397.599,-216.055C400.587,-205.049 404.464,-190.764 407.443,-179.789"/>
</g>
<!-- v5&#45;&#45;v6 -->
<g id="edge27" class="edge"><title>v5&#45;&#45;v6</title>
<path fill="none" stroke="black" d="M368.529,-225.772C322.996,-212.324 225.77,-183.607 180.337,-170.188"/>
</g>
<!-- v5&#45;&#45;v9 -->
<g id="edge30" class="edge"><title>v5&#45;&#45;v9</title>
<path fill="none" stroke="black" d="M411.293,-220.662C423.847,-211.125 439.688,-196.748 448,-180 471.774,-132.099 470.724,-66.6154 468.603,-36.0343"/>
</g>
<!-- v4&#45;&#45;v8 -->
<g id="edge26" class="edge"><title>v4&#45;&#45;v8</title>
<path fill="none" stroke="black" d="M213.237,-216.292C220.424,-197.916 233.169,-167.832 248,-144 256.514,-130.318 268.118,-116.215 277.125,-106"/>
</g>
<!-- v4&#45;&#45;v7 -->
<g id="edge25" class="edge"><title>v4&#45;&#45;v7</title>
<path fill="none" stroke="black" d="M230.516,-224.97C269.955,-211.503 348.977,-184.52 388.443,-171.044"/>
</g>
<!-- v4&#45;&#45;v6 -->
<g id="edge24" class="edge"><title>v4&#45;&#45;v6</title>
<path fill="none" stroke="black" d="M195.681,-217.465C187.23,-205.865 175.731,-190.082 167.287,-178.492"/>
</g>
<!-- v1&#45;&#45;v8 -->
<g id="edge11" class="edge"><title>v1&#45;&#45;v8</title>
<path fill="none" stroke="black" d="M170.661,-437.19C138.137,-415.674 76,-366.751 76,-307 76,-307 76,-307 76,-233 76,-188.874 86.425,-172.632 120,-144 161.859,-108.304 227.58,-96.6324 264.156,-92.8284"/>
</g>
<!-- v1&#45;&#45;v2 -->
<g id="edge7" class="edge"><title>v1&#45;&#45;v2</title>
<path fill="none" stroke="black" d="M211.52,-438.821C239.58,-425.55 288.381,-402.468 316.454,-389.191"/>
</g>
<!-- v1&#45;&#45;v4 -->
<g id="edge9" class="edge"><title>v1&#45;&#45;v4</title>
<path fill="none" stroke="black" d="M191.362,-431.849C194.546,-391.78 202.442,-292.383 205.631,-252.232"/>
</g>
<!-- v1&#45;&#45;v6 -->
<g id="edge10" class="edge"><title>v1&#45;&#45;v6</title>
<path fill="none" stroke="black" d="M186.235,-431.987C178.917,-397.997 162.968,-319.184 157,-252 154.785,-227.065 154.973,-198.048 155.41,-180.101"/>
</g>
<!-- v1&#45;&#45;v9 -->
<g id="edge12" class="edge"><title>v1&#45;&#45;v9</title>
<path fill="none" stroke="black" d="M166.136,-441.128C143.776,-432.787 110.513,-417.79 88,-396 55.399,-364.446 38,-352.37 38,-307 38,-307 38,-307 38,-161 38,-75.7802 346.956,-32.9358 440.488,-21.9179"/>
</g>
<!-- v1&#45;&#45;v3 -->
<g id="edge8" class="edge"><title>v1&#45;&#45;v3</title>
<path fill="none" stroke="black" d="M200.308,-433.261C218.184,-405.966 254.737,-350.154 272.646,-322.81"/>
</g>
<!-- v7&#45;&#45;v8 -->
<g id="edge32" class="edge"><title>v7&#45;&#45;v8</title>
<path fill="none" stroke="black" d="M392.29,-149.597C369.789,-136.581 333.199,-115.413 310.702,-102.398"/>
</g>
<!-- v6&#45;&#45;v8 -->
<g id="edge31" class="edge"><title>v6&#45;&#45;v8</title>
<path fill="none" stroke="black" d="M176.798,-150.216C202.241,-137.023 245.047,-114.827 270.4,-101.681"/>
</g>
<!-- v3&#45;&#45;v8 -->
<g id="edge23" class="edge"><title>v3&#45;&#45;v8</title>
<path fill="none" stroke="black" d="M283.641,-287.849C285.139,-247.78 288.855,-148.383 290.356,-108.232"/>
</g>
<!-- v3&#45;&#45;v5 -->
<g id="edge21" class="edge"><title>v3&#45;&#45;v5</title>
<path fill="none" stroke="black" d="M302.161,-292.807C322.35,-279.959 353.952,-259.848 374.059,-247.053"/>
</g>
<!-- v3&#45;&#45;v4 -->
<g id="edge20" class="edge"><title>v3&#45;&#45;v4</title>
<path fill="none" stroke="black" d="M267.62,-290.834C254.435,-278.69 235.536,-261.283 222.357,-249.144"/>
</g>
<!-- v3&#45;&#45;v7 -->
<g id="edge22" class="edge"><title>v3&#45;&#45;v7</title>
<path fill="none" stroke="black" d="M294.821,-289.769C309.037,-271.695 333.882,-240.877 357,-216 369.818,-202.207 385.339,-187.408 396.619,-176.964"/>
</g>
</g>
</svg>
