<?xml version="1.0" encoding="UTF-8" standalone="no"?>
<!DOCTYPE svg PUBLIC "-//W3C//DTD SVG 1.1//EN"
 "http://www.w3.org/Graphics/SVG/1.1/DTD/svg11.dtd">
<!-- Generated by graphviz version 2.38.0 (20140413.2041)
 -->
<!-- Title: G Pages: 1 -->
<svg width="518pt" height="548pt"
 viewBox="0.00 0.00 517.81 548.00" xmlns="http://www.w3.org/2000/svg" xmlns:xlink="http://www.w3.org/1999/xlink">
<g id="graph0" class="graph" transform="scale(1 1) rotate(0) translate(4 544)">
<title>G</title>
<polygon fill="white" stroke="none" points="-4,4 -4,-544 513.811,-544 513.811,4 -4,4"/>
<!-- v8 -->
<g id="node1" class="node"><title>v8</title>
<ellipse fill="red" stroke="black" cx="209.811" cy="-90" rx="27" ry="18"/>
<text text-anchor="middle" x="209.811" y="-86.3" font-family="Times,serif" font-size="14.00">v8</text>
</g>
<!-- v9 -->
<g id="node10" class="node"><title>v9</title>
<ellipse fill="none" stroke="black" cx="209.811" cy="-18" rx="27" ry="18"/>
<text text-anchor="middle" x="209.811" y="-14.3" font-family="Times,serif" font-size="14.00">v9</text>
</g>
<!-- v8&#45;&#45;v9 -->
<g id="edge33" class="edge"><title>v8&#45;&#45;v9</title>
<path fill="none" stroke="black" d="M209.811,-71.6966C209.811,-60.8463 209.811,-46.9167 209.811,-36.1043"/>
</g>
<!-- v3 -->
<g id="node2" class="node"><title>v3</title>
<ellipse fill="red" stroke="black" cx="188.811" cy="-306" rx="27" ry="18"/>
<text text-anchor="middle" x="188.811" y="-302.3" font-family="Times,serif" font-size="14.00">v3</text>
</g>
<!-- v3&#45;&#45;v8 -->
<g id="edge23" class="edge"><title>v3&#45;&#45;v8</title>
<path fill="none" stroke="black" d="M190.494,-287.849C194.426,-247.78 204.18,-148.383 208.12,-108.232"/>
</g>
<!-- v5 -->
<g id="node6" class="node"><title>v5</title>
<ellipse fill="red" stroke="black" cx="40.8105" cy="-234" rx="27" ry="18"/>
<text text-anchor="middle" x="40.8105" y="-230.3" font-family="Times,serif" font-size="14.00">v5</text>
</g>
<!-- v3&#45;&#45;v5 -->
<g id="edge21" class="edge"><title>v3&#45;&#45;v5</title>
<path fill="none" stroke="black" d="M167.29,-294.821C139.23,-281.55 90.4296,-258.468 62.357,-245.191"/>
</g>
<!-- v4 -->
<g id="node7" class="node"><title>v4</title>
<ellipse fill="red" stroke="black" cx="264.811" cy="-234" rx="27" ry="18"/>
<text text-anchor="middle" x="264.811" y="-230.3" font-family="Times,serif" font-size="14.00">v4</text>
</g>
<!-- v3&#45;&#45;v4 -->
<g id="edge20" class="edge"><title>v3&#45;&#45;v4</title>
<path fill="none" stroke="black" d="M204.19,-290.834C217.376,-278.69 236.275,-261.283 249.454,-249.144"/>
</g>
<!-- v7 -->
<g id="node9" class="node"><title>v7</title>
<ellipse fill="none" stroke="black" cx="116.811" cy="-162" rx="27" ry="18"/>
<text text-anchor="middle" x="116.811" y="-158.3" font-family="Times,serif" font-size="14.00">v7</text>
</g>
<!-- v3&#45;&#45;v7 -->
<g id="edge22" class="edge"><title>v3&#45;&#45;v7</title>
<path fill="none" stroke="black" d="M180.551,-288.711C166.737,-261.465 139.093,-206.946 125.195,-179.537"/>
</g>
<!-- v0 -->
<g id="node3" class="node"><title>v0</title>
<ellipse fill="red" stroke="black" cx="272.811" cy="-522" rx="27" ry="18"/>
<text text-anchor="middle" x="272.811" y="-518.3" font-family="Times,serif" font-size="14.00">v0</text>
</g>
<!-- v2 -->
<g id="node4" class="node"><title>v2</title>
<ellipse fill="red" stroke="black" cx="188.811" cy="-378" rx="27" ry="18"/>
<text text-anchor="middle" x="188.811" y="-374.3" font-family="Times,serif" font-size="14.00">v2</text>
</g>
<!-- v0&#45;&#45;v2 -->
<g id="edge2" class="edge"><title>v0&#45;&#45;v2</title>
<path fill="none" stroke="black" d="M263.338,-504.987C247.205,-477.715 214.574,-422.553 198.377,-395.173"/>
</g>
<!-- v1 -->
<g id="node5" class="node"><title>v1</title>
<ellipse fill="red" stroke="black" cx="319.811" cy="-450" rx="27" ry="18"/>
<text text-anchor="middle" x="319.811" y="-446.3" font-family="Times,serif" font-size="14.00">v1</text>
</g>
<!-- v0&#45;&#45;v1 -->
<g id="edge1" class="edge"><title>v0&#45;&#45;v1</title>
<path fill="none" stroke="black" d="M283.476,-505.116C291.167,-493.66 301.506,-478.263 309.188,-466.821"/>
</g>
<!-- v0&#45;&#45;v5 -->
<g id="edge3" class="edge"><title>v0&#45;&#45;v5</title>
<path fill="none" stroke="black" d="M252.888,-509.788C208.602,-483.687 102.094,-414.166 53.8105,-324 41.6475,-301.286 39.7629,-270.88 39.96,-252.132"/>
</g>
<!-- v6 -->
<g id="node8" class="node"><title>v6</title>
<ellipse fill="none" stroke="black" cx="311.811" cy="-162" rx="27" ry="18"/>
<text text-anchor="middle" x="311.811" y="-158.3" font-family="Times,serif" font-size="14.00">v6</text>
</g>
<!-- v0&#45;&#45;v6 -->
<g id="edge4" class="edge"><title>v0&#45;&#45;v6</title>
<path fill="none" stroke="black" d="M294.728,-511.426C313.09,-502.466 338.935,-487.537 355.811,-468 384.159,-435.181 395.811,-422.367 395.811,-379 395.811,-379 395.811,-379 395.811,-305 395.811,-251.724 351.468,-200.904 327.217,-177.095"/>
</g>
<!-- v0&#45;&#45;v7 -->
<g id="edge5" class="edge"><title>v0&#45;&#45;v7</title>
<path fill="none" stroke="black" d="M247.931,-514.668C219.949,-506.765 173.961,-491.378 139.811,-468 46.3941,-404.052 28.95,-362.604 4.81054,-252 1.39884,-236.368 -3.74805,-229.519 4.81054,-216 23.5667,-186.374 63.8441,-172.988 90.6328,-167.172"/>
</g>
<!-- v0&#45;&#45;v9 -->
<g id="edge6" class="edge"><title>v0&#45;&#45;v9</title>
<path fill="none" stroke="black" d="M299.079,-517.781C360.785,-508.607 509.811,-476.371 509.811,-379 509.811,-379 509.811,-379 509.811,-161 509.811,-40.8556 310.81,-22.2218 236.963,-19.4431"/>
</g>
<!-- v2&#45;&#45;v8 -->
<g id="edge18" class="edge"><title>v2&#45;&#45;v8</title>
<path fill="none" stroke="black" d="M175.06,-362.069C166.85,-352.1 157.192,-338.247 152.811,-324 148.108,-308.707 150.565,-303.842 152.811,-288 162.555,-219.259 190.527,-140.938 203.304,-107.516"/>
</g>
<!-- v2&#45;&#45;v3 -->
<g id="edge13" class="edge"><title>v2&#45;&#45;v3</title>
<path fill="none" stroke="black" d="M188.811,-359.697C188.811,-348.846 188.811,-334.917 188.811,-324.104"/>
</g>
<!-- v2&#45;&#45;v5 -->
<g id="edge15" class="edge"><title>v2&#45;&#45;v5</title>
<path fill="none" stroke="black" d="M164.262,-370.118C140.498,-362.355 104.787,-347.634 81.8105,-324 61.8882,-303.508 50.4567,-271.582 44.9517,-252.055"/>
</g>
<!-- v2&#45;&#45;v4 -->
<g id="edge14" class="edge"><title>v2&#45;&#45;v4</title>
<path fill="none" stroke="black" d="M200.261,-361.686C207.733,-351.339 217.432,-337.206 224.811,-324 238.444,-299.599 251.12,-269.68 258.409,-251.493"/>
</g>
<!-- v2&#45;&#45;v6 -->
<g id="edge16" class="edge"><title>v2&#45;&#45;v6</title>
<path fill="none" stroke="black" d="M206.505,-364.034C232.738,-343.614 280.981,-301.185 300.811,-252 310.358,-228.319 312.187,-198.454 312.269,-180.046"/>
</g>
<!-- v2&#45;&#45;v7 -->
<g id="edge17" class="edge"><title>v2&#45;&#45;v7</title>
<path fill="none" stroke="black" d="M167.042,-366.959C150.789,-358.16 129.744,-343.69 119.811,-324 95.8866,-276.576 105.822,-210.861 112.535,-180.129"/>
</g>
<!-- v2&#45;&#45;v9 -->
<g id="edge19" class="edge"><title>v2&#45;&#45;v9</title>
<path fill="none" stroke="black" d="M163.381,-371.811C134.394,-364.881 86.7717,-350.311 53.8105,-324 12.6163,-291.117 -6.13147,-267.561 4.81054,-216 19.6235,-146.198 22.4242,-119.346 75.8105,-72 107.162,-44.1959 154.853,-30.0865 184.08,-23.6541"/>
</g>
<!-- v1&#45;&#45;v8 -->
<g id="edge11" class="edge"><title>v1&#45;&#45;v8</title>
<path fill="none" stroke="black" d="M339.149,-437.19C371.674,-415.674 433.811,-366.751 433.811,-307 433.811,-307 433.811,-307 433.811,-233 433.811,-140.22 295.033,-105.521 235.945,-94.9521"/>
</g>
<!-- v1&#45;&#45;v3 -->
<g id="edge8" class="edge"><title>v1&#45;&#45;v3</title>
<path fill="none" stroke="black" d="M306.285,-434.338C281.182,-407.128 227.654,-349.105 202.459,-321.795"/>
</g>
<!-- v1&#45;&#45;v2 -->
<g id="edge7" class="edge"><title>v1&#45;&#45;v2</title>
<path fill="none" stroke="black" d="M299.342,-438.062C274.731,-424.912 233.682,-402.977 209.136,-389.861"/>
</g>
<!-- v1&#45;&#45;v4 -->
<g id="edge9" class="edge"><title>v1&#45;&#45;v4</title>
<path fill="none" stroke="black" d="M315.495,-432.208C305.239,-392.302 279.495,-292.134 269.182,-252.01"/>
</g>
<!-- v1&#45;&#45;v6 -->
<g id="edge10" class="edge"><title>v1&#45;&#45;v6</title>
<path fill="none" stroke="black" d="M320.485,-431.727C321.831,-393.042 324.278,-296.516 318.811,-216 317.993,-203.962 316.201,-190.483 314.634,-180.13"/>
</g>
<!-- v1&#45;&#45;v9 -->
<g id="edge12" class="edge"><title>v1&#45;&#45;v9</title>
<path fill="none" stroke="black" d="M342.566,-440.236C384.969,-422.248 471.811,-376.878 471.811,-307 471.811,-307 471.811,-307 471.811,-161 471.811,-54.9386 303.803,-27.6836 236.862,-21.0335"/>
</g>
<!-- v5&#45;&#45;v8 -->
<g id="edge29" class="edge"><title>v5&#45;&#45;v8</title>
<path fill="none" stroke="black" d="M44.4025,-216.049C49.3967,-196.32 60.2399,-163.911 80.8105,-144 109.777,-115.962 155.632,-101.976 184.155,-95.6235"/>
</g>
<!-- v5&#45;&#45;v6 -->
<g id="edge27" class="edge"><title>v5&#45;&#45;v6</title>
<path fill="none" stroke="black" d="M65.8198,-226.54C117.446,-213.205 235.287,-182.766 286.862,-169.444"/>
</g>
<!-- v5&#45;&#45;v7 -->
<g id="edge28" class="edge"><title>v5&#45;&#45;v7</title>
<path fill="none" stroke="black" d="M56.1903,-218.834C69.3759,-206.69 88.2746,-189.283 101.454,-177.144"/>
</g>
<!-- v5&#45;&#45;v9 -->
<g id="edge30" class="edge"><title>v5&#45;&#45;v9</title>
<path fill="none" stroke="black" d="M39.4681,-215.739C38.7982,-196.879 40.1128,-166.373 52.8105,-144 84.8829,-87.4885 153.55,-46.9741 188.471,-29.1412"/>
</g>
<!-- v4&#45;&#45;v8 -->
<g id="edge26" class="edge"><title>v4&#45;&#45;v8</title>
<path fill="none" stroke="black" d="M258.394,-216.433C247.852,-189.217 226.982,-135.334 216.357,-107.902"/>
</g>
<!-- v4&#45;&#45;v6 -->
<g id="edge24" class="edge"><title>v4&#45;&#45;v6</title>
<path fill="none" stroke="black" d="M275.476,-217.116C283.167,-205.66 293.506,-190.263 301.188,-178.821"/>
</g>
<!-- v4&#45;&#45;v7 -->
<g id="edge25" class="edge"><title>v4&#45;&#45;v7</title>
<path fill="none" stroke="black" d="M243.29,-222.821C215.23,-209.55 166.43,-186.468 138.357,-173.191"/>
</g>
<!-- v6&#45;&#45;v8 -->
<g id="edge31" class="edge"><title>v6&#45;&#45;v8</title>
<path fill="none" stroke="black" d="M293.575,-148.485C275.009,-135.744 246.397,-116.108 227.888,-103.406"/>
</g>
<!-- v7&#45;&#45;v8 -->
<g id="edge32" class="edge"><title>v7&#45;&#45;v8</title>
<path fill="none" stroke="black" d="M134.303,-147.834C150.93,-135.319 175.795,-116.603 192.396,-104.107"/>
</g>
</g>
</svg>
