<?xml version="1.0" encoding="UTF-8" standalone="no"?>
<!DOCTYPE svg PUBLIC "-//W3C//DTD SVG 1.1//EN"
 "http://www.w3.org/Graphics/SVG/1.1/DTD/svg11.dtd">
<!-- Generated by graphviz version 2.38.0 (20140413.2041)
 -->
<!-- Title: G Pages: 1 -->
<svg width="574pt" height="548pt"
 viewBox="0.00 0.00 574.00 548.00" xmlns="http://www.w3.org/2000/svg" xmlns:xlink="http://www.w3.org/1999/xlink">
<g id="graph0" class="graph" transform="scale(1 1) rotate(0) translate(4 544)">
<title>G</title>
<polygon fill="white" stroke="none" points="-4,4 -4,-544 570,-544 570,4 -4,4"/>
<!-- v1 -->
<g id="node1" class="node"><title>v1</title>
<ellipse fill="red" stroke="black" cx="338" cy="-450" rx="27" ry="18"/>
<text text-anchor="middle" x="338" y="-446.3" font-family="Times,serif" font-size="14.00">v1</text>
</g>
<!-- v8 -->
<g id="node3" class="node"><title>v8</title>
<ellipse fill="red" stroke="black" cx="266" cy="-90" rx="27" ry="18"/>
<text text-anchor="middle" x="266" y="-86.3" font-family="Times,serif" font-size="14.00">v8</text>
</g>
<!-- v1&#45;&#45;v8 -->
<g id="edge11" class="edge"><title>v1&#45;&#45;v8</title>
<path fill="none" stroke="black" d="M357.339,-437.19C389.863,-415.674 452,-366.751 452,-307 452,-307 452,-307 452,-233 452,-188.874 440.75,-173.572 408,-144 374.798,-114.021 323.074,-100.486 292.068,-94.7753"/>
</g>
<!-- v3 -->
<g id="node4" class="node"><title>v3</title>
<ellipse fill="red" stroke="black" cx="245" cy="-306" rx="27" ry="18"/>
<text text-anchor="middle" x="245" y="-302.3" font-family="Times,serif" font-size="14.00">v3</text>
</g>
<!-- v1&#45;&#45;v3 -->
<g id="edge8" class="edge"><title>v1&#45;&#45;v3</title>
<path fill="none" stroke="black" d="M328.037,-433.162C316.76,-415.299 297.772,-385.425 281,-360 272.67,-347.372 263.03,-333.204 255.824,-322.695"/>
</g>
<!-- v4 -->
<g id="node5" class="node"><title>v4</title>
<ellipse fill="red" stroke="black" cx="321" cy="-234" rx="27" ry="18"/>
<text text-anchor="middle" x="321" y="-230.3" font-family="Times,serif" font-size="14.00">v4</text>
</g>
<!-- v1&#45;&#45;v4 -->
<g id="edge9" class="edge"><title>v1&#45;&#45;v4</title>
<path fill="none" stroke="black" d="M336.638,-431.849C333.454,-391.78 325.558,-292.383 322.369,-252.232"/>
</g>
<!-- v2 -->
<g id="node6" class="node"><title>v2</title>
<ellipse fill="red" stroke="black" cx="245" cy="-378" rx="27" ry="18"/>
<text text-anchor="middle" x="245" y="-374.3" font-family="Times,serif" font-size="14.00">v2</text>
</g>
<!-- v1&#45;&#45;v2 -->
<g id="edge7" class="edge"><title>v1&#45;&#45;v2</title>
<path fill="none" stroke="black" d="M320.507,-435.834C303.88,-423.319 279.015,-404.603 262.414,-392.107"/>
</g>
<!-- v6 -->
<g id="node8" class="node"><title>v6</title>
<ellipse fill="none" stroke="black" cx="372" cy="-162" rx="27" ry="18"/>
<text text-anchor="middle" x="372" y="-158.3" font-family="Times,serif" font-size="14.00">v6</text>
</g>
<!-- v1&#45;&#45;v6 -->
<g id="edge10" class="edge"><title>v1&#45;&#45;v6</title>
<path fill="none" stroke="black" d="M342.41,-432.031C350.968,-398.12 369.555,-319.441 376,-252 377.522,-236.073 376.602,-231.989 376,-216 375.548,-204.013 374.524,-190.533 373.625,-180.167"/>
</g>
<!-- v9 -->
<g id="node10" class="node"><title>v9</title>
<ellipse fill="none" stroke="black" cx="266" cy="-18" rx="27" ry="18"/>
<text text-anchor="middle" x="266" y="-14.3" font-family="Times,serif" font-size="14.00">v9</text>
</g>
<!-- v1&#45;&#45;v9 -->
<g id="edge12" class="edge"><title>v1&#45;&#45;v9</title>
<path fill="none" stroke="black" d="M361.978,-441.359C383.906,-433.264 415.901,-418.506 436,-396 490.023,-335.508 480.954,-295.713 466,-216 459.669,-182.254 458.959,-171.195 438,-144 395.749,-89.1786 323.121,-47.6068 287.279,-29.2844"/>
</g>
<!-- v5 -->
<g id="node2" class="node"><title>v5</title>
<ellipse fill="red" stroke="black" cx="97" cy="-234" rx="27" ry="18"/>
<text text-anchor="middle" x="97" y="-230.3" font-family="Times,serif" font-size="14.00">v5</text>
</g>
<!-- v5&#45;&#45;v8 -->
<g id="edge29" class="edge"><title>v5&#45;&#45;v8</title>
<path fill="none" stroke="black" d="M100.592,-216.049C105.586,-196.32 116.429,-163.911 137,-144 165.966,-115.962 211.822,-101.976 240.344,-95.6235"/>
</g>
<!-- v5&#45;&#45;v6 -->
<g id="edge27" class="edge"><title>v5&#45;&#45;v6</title>
<path fill="none" stroke="black" d="M121.889,-226.665C174.114,-213.371 294.621,-182.697 346.969,-169.372"/>
</g>
<!-- v7 -->
<g id="node9" class="node"><title>v7</title>
<ellipse fill="none" stroke="black" cx="173" cy="-162" rx="27" ry="18"/>
<text text-anchor="middle" x="173" y="-158.3" font-family="Times,serif" font-size="14.00">v7</text>
</g>
<!-- v5&#45;&#45;v7 -->
<g id="edge28" class="edge"><title>v5&#45;&#45;v7</title>
<path fill="none" stroke="black" d="M112.38,-218.834C125.565,-206.69 144.464,-189.283 157.643,-177.144"/>
</g>
<!-- v5&#45;&#45;v9 -->
<g id="edge30" class="edge"><title>v5&#45;&#45;v9</title>
<path fill="none" stroke="black" d="M95.9058,-215.733C95.4954,-196.867 97.1942,-166.358 110,-144 142.17,-87.8352 210.262,-47.1624 244.863,-29.2179"/>
</g>
<!-- v8&#45;&#45;v9 -->
<g id="edge33" class="edge"><title>v8&#45;&#45;v9</title>
<path fill="none" stroke="black" d="M266,-71.6966C266,-60.8463 266,-46.9167 266,-36.1043"/>
</g>
<!-- v3&#45;&#45;v5 -->
<g id="edge21" class="edge"><title>v3&#45;&#45;v5</title>
<path fill="none" stroke="black" d="M223.48,-294.821C195.42,-281.55 146.619,-258.468 118.546,-245.191"/>
</g>
<!-- v3&#45;&#45;v8 -->
<g id="edge23" class="edge"><title>v3&#45;&#45;v8</title>
<path fill="none" stroke="black" d="M246.683,-287.849C250.615,-247.78 260.369,-148.383 264.309,-108.232"/>
</g>
<!-- v3&#45;&#45;v4 -->
<g id="edge20" class="edge"><title>v3&#45;&#45;v4</title>
<path fill="none" stroke="black" d="M260.38,-290.834C273.565,-278.69 292.464,-261.283 305.643,-249.144"/>
</g>
<!-- v3&#45;&#45;v7 -->
<g id="edge22" class="edge"><title>v3&#45;&#45;v7</title>
<path fill="none" stroke="black" d="M236.741,-288.711C222.926,-261.465 195.283,-206.946 181.385,-179.537"/>
</g>
<!-- v4&#45;&#45;v8 -->
<g id="edge26" class="edge"><title>v4&#45;&#45;v8</title>
<path fill="none" stroke="black" d="M314.583,-216.433C304.042,-189.217 283.172,-135.334 272.546,-107.902"/>
</g>
<!-- v4&#45;&#45;v6 -->
<g id="edge24" class="edge"><title>v4&#45;&#45;v6</title>
<path fill="none" stroke="black" d="M332.319,-217.465C340.77,-205.865 352.269,-190.082 360.713,-178.492"/>
</g>
<!-- v4&#45;&#45;v7 -->
<g id="edge25" class="edge"><title>v4&#45;&#45;v7</title>
<path fill="none" stroke="black" d="M299.48,-222.821C271.42,-209.55 222.619,-186.468 194.546,-173.191"/>
</g>
<!-- v2&#45;&#45;v5 -->
<g id="edge15" class="edge"><title>v2&#45;&#45;v5</title>
<path fill="none" stroke="black" d="M220.452,-370.118C196.688,-362.355 160.976,-347.634 138,-324 118.078,-303.508 106.646,-271.582 101.141,-252.055"/>
</g>
<!-- v2&#45;&#45;v8 -->
<g id="edge18" class="edge"><title>v2&#45;&#45;v8</title>
<path fill="none" stroke="black" d="M231.25,-362.069C223.039,-352.1 213.381,-338.247 209,-324 204.297,-308.707 206.754,-303.842 209,-288 218.745,-219.259 246.716,-140.938 259.493,-107.516"/>
</g>
<!-- v2&#45;&#45;v3 -->
<g id="edge13" class="edge"><title>v2&#45;&#45;v3</title>
<path fill="none" stroke="black" d="M245,-359.697C245,-348.846 245,-334.917 245,-324.104"/>
</g>
<!-- v2&#45;&#45;v4 -->
<g id="edge14" class="edge"><title>v2&#45;&#45;v4</title>
<path fill="none" stroke="black" d="M256.451,-361.686C263.922,-351.339 273.621,-337.206 281,-324 294.634,-299.599 307.309,-269.68 314.598,-251.493"/>
</g>
<!-- v2&#45;&#45;v6 -->
<g id="edge16" class="edge"><title>v2&#45;&#45;v6</title>
<path fill="none" stroke="black" d="M262.424,-363.921C288.305,-343.355 336.093,-300.737 357,-252 367.131,-228.384 370.438,-198.5 371.506,-180.071"/>
</g>
<!-- v2&#45;&#45;v7 -->
<g id="edge17" class="edge"><title>v2&#45;&#45;v7</title>
<path fill="none" stroke="black" d="M223.231,-366.959C206.979,-358.16 185.933,-343.69 176,-324 152.076,-276.576 162.012,-210.861 168.725,-180.129"/>
</g>
<!-- v2&#45;&#45;v9 -->
<g id="edge19" class="edge"><title>v2&#45;&#45;v9</title>
<path fill="none" stroke="black" d="M219.202,-372.008C163.712,-359.614 38,-321.943 38,-235 38,-235 38,-235 38,-161 38,-66.8021 179.957,-32.8483 239.846,-22.7153"/>
</g>
<!-- v0 -->
<g id="node7" class="node"><title>v0</title>
<ellipse fill="red" stroke="black" cx="301" cy="-522" rx="27" ry="18"/>
<text text-anchor="middle" x="301" y="-518.3" font-family="Times,serif" font-size="14.00">v0</text>
</g>
<!-- v0&#45;&#45;v1 -->
<g id="edge1" class="edge"><title>v0&#45;&#45;v1</title>
<path fill="none" stroke="black" d="M309.582,-504.765C315.559,-493.456 323.498,-478.437 329.465,-467.147"/>
</g>
<!-- v0&#45;&#45;v5 -->
<g id="edge3" class="edge"><title>v0&#45;&#45;v5</title>
<path fill="none" stroke="black" d="M282.909,-508.43C244.107,-480.377 153.014,-408.446 111,-324 99.5736,-301.034 97.0416,-270.967 96.6976,-252.323"/>
</g>
<!-- v0&#45;&#45;v2 -->
<g id="edge2" class="edge"><title>v0&#45;&#45;v2</title>
<path fill="none" stroke="black" d="M294.466,-504.433C283.734,-477.217 262.484,-423.334 251.665,-395.902"/>
</g>
<!-- v0&#45;&#45;v6 -->
<g id="edge4" class="edge"><title>v0&#45;&#45;v6</title>
<path fill="none" stroke="black" d="M323.779,-511.952C361.692,-495.473 436.486,-456.576 466,-396 505.166,-315.614 421.328,-214.56 386.369,-177.486"/>
</g>
<!-- v0&#45;&#45;v7 -->
<g id="edge5" class="edge"><title>v0&#45;&#45;v7</title>
<path fill="none" stroke="black" d="M274.023,-520.6C200.143,-517.944 0,-499.616 0,-379 0,-379 0,-379 0,-305 0,-228.841 101.409,-186.063 148.945,-170.194"/>
</g>
<!-- v0&#45;&#45;v9 -->
<g id="edge6" class="edge"><title>v0&#45;&#45;v9</title>
<path fill="none" stroke="black" d="M327.868,-519.125C395.239,-512.821 566,-486.262 566,-379 566,-379 566,-379 566,-161 566,-40.8556 367,-22.2218 293.152,-19.4431"/>
</g>
<!-- v6&#45;&#45;v8 -->
<g id="edge31" class="edge"><title>v6&#45;&#45;v8</title>
<path fill="none" stroke="black" d="M353.536,-148.807C334.199,-136.037 303.999,-116.093 284.608,-103.288"/>
</g>
<!-- v7&#45;&#45;v8 -->
<g id="edge32" class="edge"><title>v7&#45;&#45;v8</title>
<path fill="none" stroke="black" d="M190.493,-147.834C207.12,-135.319 231.985,-116.603 248.586,-104.107"/>
</g>
</g>
</svg>
