<?xml version="1.0" encoding="UTF-8" standalone="no"?>
<!DOCTYPE svg PUBLIC "-//W3C//DTD SVG 1.1//EN"
 "http://www.w3.org/Graphics/SVG/1.1/DTD/svg11.dtd">
<!-- Generated by graphviz version 2.38.0 (20140413.2041)
 -->
<!-- Title: G Pages: 1 -->
<svg width="574pt" height="548pt"
 viewBox="0.00 0.00 574.00 548.00" xmlns="http://www.w3.org/2000/svg" xmlns:xlink="http://www.w3.org/1999/xlink">
<g id="graph0" class="graph" transform="scale(1 1) rotate(0) translate(4 544)">
<title>G</title>
<polygon fill="white" stroke="none" points="-4,4 -4,-544 570,-544 570,4 -4,4"/>
<!-- v0 -->
<g id="node1" class="node"><title>v0</title>
<ellipse fill="red" stroke="black" cx="243" cy="-522" rx="27" ry="18"/>
<text text-anchor="middle" x="243" y="-518.3" font-family="Times,serif" font-size="14.00">v0</text>
</g>
<!-- v2 -->
<g id="node4" class="node"><title>v2</title>
<ellipse fill="red" stroke="black" cx="181" cy="-378" rx="27" ry="18"/>
<text text-anchor="middle" x="181" y="-374.3" font-family="Times,serif" font-size="14.00">v2</text>
</g>
<!-- v0&#45;&#45;v2 -->
<g id="edge2" class="edge"><title>v0&#45;&#45;v2</title>
<path fill="none" stroke="black" d="M235.766,-504.433C223.82,-477.071 200.104,-422.754 188.187,-395.462"/>
</g>
<!-- v1 -->
<g id="node5" class="node"><title>v1</title>
<ellipse fill="red" stroke="black" cx="283" cy="-450" rx="27" ry="18"/>
<text text-anchor="middle" x="283" y="-446.3" font-family="Times,serif" font-size="14.00">v1</text>
</g>
<!-- v0&#45;&#45;v1 -->
<g id="edge1" class="edge"><title>v0&#45;&#45;v1</title>
<path fill="none" stroke="black" d="M252.277,-504.765C258.739,-493.456 267.322,-478.437 273.773,-467.147"/>
</g>
<!-- v5 -->
<g id="node6" class="node"><title>v5</title>
<ellipse fill="red" stroke="black" cx="355" cy="-234" rx="27" ry="18"/>
<text text-anchor="middle" x="355" y="-230.3" font-family="Times,serif" font-size="14.00">v5</text>
</g>
<!-- v0&#45;&#45;v5 -->
<g id="edge3" class="edge"><title>v0&#45;&#45;v5</title>
<path fill="none" stroke="black" d="M265.34,-511.384C282.812,-502.66 306.216,-488.083 319,-468 363.509,-398.078 360.129,-292.986 356.772,-252.114"/>
</g>
<!-- v7 -->
<g id="node7" class="node"><title>v7</title>
<ellipse fill="red" stroke="black" cx="245" cy="-162" rx="27" ry="18"/>
<text text-anchor="middle" x="245" y="-158.3" font-family="Times,serif" font-size="14.00">v7</text>
</g>
<!-- v0&#45;&#45;v7 -->
<g id="edge5" class="edge"><title>v0&#45;&#45;v7</title>
<path fill="none" stroke="black" d="M226.812,-507.274C203.36,-486.19 160.992,-443.281 145,-396 130.395,-352.822 113.295,-284.883 156,-216 170.593,-192.462 199.836,-178.063 220.822,-170.327"/>
</g>
<!-- v6 -->
<g id="node8" class="node"><title>v6</title>
<ellipse fill="none" stroke="black" cx="431" cy="-162" rx="27" ry="18"/>
<text text-anchor="middle" x="431" y="-158.3" font-family="Times,serif" font-size="14.00">v6</text>
</g>
<!-- v0&#45;&#45;v6 -->
<g id="edge4" class="edge"><title>v0&#45;&#45;v6</title>
<path fill="none" stroke="black" d="M269.433,-518.293C333.153,-510.164 490,-479.905 490,-379 490,-379 490,-379 490,-305 490,-255.879 459.521,-204.012 442.376,-178.722"/>
</g>
<!-- v9 -->
<g id="node9" class="node"><title>v9</title>
<ellipse fill="none" stroke="black" cx="300" cy="-18" rx="27" ry="18"/>
<text text-anchor="middle" x="300" y="-14.3" font-family="Times,serif" font-size="14.00">v9</text>
</g>
<!-- v0&#45;&#45;v9 -->
<g id="edge6" class="edge"><title>v0&#45;&#45;v9</title>
<path fill="none" stroke="black" d="M216.532,-518.079C153.552,-509.514 0,-478.435 0,-379 0,-379 0,-379 0,-161 2.79156e-15,-115.41 14.1645,-98.8619 51,-72 86.4429,-46.1536 216.628,-28.5241 273.322,-21.9085"/>
</g>
<!-- v4 -->
<g id="node2" class="node"><title>v4</title>
<ellipse fill="red" stroke="black" cx="207" cy="-234" rx="27" ry="18"/>
<text text-anchor="middle" x="207" y="-230.3" font-family="Times,serif" font-size="14.00">v4</text>
</g>
<!-- v8 -->
<g id="node3" class="node"><title>v8</title>
<ellipse fill="red" stroke="black" cx="300" cy="-90" rx="27" ry="18"/>
<text text-anchor="middle" x="300" y="-86.3" font-family="Times,serif" font-size="14.00">v8</text>
</g>
<!-- v4&#45;&#45;v8 -->
<g id="edge26" class="edge"><title>v4&#45;&#45;v8</title>
<path fill="none" stroke="black" d="M202.735,-215.928C198.994,-196.959 195.965,-166.098 209,-144 223.398,-119.592 253.721,-105.311 275.406,-97.8417"/>
</g>
<!-- v4&#45;&#45;v7 -->
<g id="edge25" class="edge"><title>v4&#45;&#45;v7</title>
<path fill="none" stroke="black" d="M215.813,-216.765C221.952,-205.456 230.106,-190.437 236.234,-179.147"/>
</g>
<!-- v4&#45;&#45;v6 -->
<g id="edge24" class="edge"><title>v4&#45;&#45;v6</title>
<path fill="none" stroke="black" d="M230.972,-225.509C273.973,-212.071 363.741,-184.018 406.862,-170.543"/>
</g>
<!-- v8&#45;&#45;v9 -->
<g id="edge33" class="edge"><title>v8&#45;&#45;v9</title>
<path fill="none" stroke="black" d="M300,-71.6966C300,-60.8463 300,-46.9167 300,-36.1043"/>
</g>
<!-- v2&#45;&#45;v4 -->
<g id="edge14" class="edge"><title>v2&#45;&#45;v4</title>
<path fill="none" stroke="black" d="M184.136,-359.871C189.134,-332.578 198.848,-279.52 203.853,-252.189"/>
</g>
<!-- v2&#45;&#45;v8 -->
<g id="edge18" class="edge"><title>v2&#45;&#45;v8</title>
<path fill="none" stroke="black" d="M170.762,-361.017C164.875,-350.858 158.058,-337.178 155,-324 151.685,-309.717 150.926,-235.454 156,-216 165.185,-180.785 168.896,-169.358 195,-144 218.142,-121.519 252.714,-106.599 275.793,-98.4708"/>
</g>
<!-- v2&#45;&#45;v5 -->
<g id="edge15" class="edge"><title>v2&#45;&#45;v5</title>
<path fill="none" stroke="black" d="M207.262,-373.329C237.83,-367.758 288.061,-354.397 319,-324 339.093,-304.259 348.346,-271.796 352.315,-252.01"/>
</g>
<!-- v2&#45;&#45;v7 -->
<g id="edge17" class="edge"><title>v2&#45;&#45;v7</title>
<path fill="none" stroke="black" d="M174.665,-360.334C164.153,-329.782 146.554,-263.577 171,-216 181.688,-195.198 204.751,-180.734 222.308,-172.233"/>
</g>
<!-- v2&#45;&#45;v6 -->
<g id="edge16" class="edge"><title>v2&#45;&#45;v6</title>
<path fill="none" stroke="black" d="M207.506,-373.903C242.013,-368.724 302.77,-355.566 344,-324 393.066,-286.434 417.795,-213.015 426.845,-179.907"/>
</g>
<!-- v2&#45;&#45;v9 -->
<g id="edge19" class="edge"><title>v2&#45;&#45;v9</title>
<path fill="none" stroke="black" d="M158.97,-367.555C118.857,-348.704 38,-302.35 38,-235 38,-235 38,-235 38,-161 38,-54.9386 206.008,-27.6836 272.948,-21.0335"/>
</g>
<!-- v3 -->
<g id="node10" class="node"><title>v3</title>
<ellipse fill="none" stroke="black" cx="283" cy="-306" rx="27" ry="18"/>
<text text-anchor="middle" x="283" y="-302.3" font-family="Times,serif" font-size="14.00">v3</text>
</g>
<!-- v2&#45;&#45;v3 -->
<g id="edge13" class="edge"><title>v2&#45;&#45;v3</title>
<path fill="none" stroke="black" d="M199.236,-364.485C217.802,-351.744 246.414,-332.108 264.922,-319.406"/>
</g>
<!-- v1&#45;&#45;v4 -->
<g id="edge9" class="edge"><title>v1&#45;&#45;v4</title>
<path fill="none" stroke="black" d="M277.036,-432.208C262.829,-392.204 227.115,-291.639 212.936,-251.714"/>
</g>
<!-- v1&#45;&#45;v8 -->
<g id="edge11" class="edge"><title>v1&#45;&#45;v8</title>
<path fill="none" stroke="black" d="M309.686,-446.156C373.184,-437.764 528,-407.046 528,-307 528,-307 528,-307 528,-233 528,-138.802 386.043,-104.848 326.154,-94.7153"/>
</g>
<!-- v1&#45;&#45;v2 -->
<g id="edge7" class="edge"><title>v1&#45;&#45;v2</title>
<path fill="none" stroke="black" d="M264.764,-436.485C246.198,-423.744 217.586,-404.108 199.078,-391.406"/>
</g>
<!-- v1&#45;&#45;v6 -->
<g id="edge10" class="edge"><title>v1&#45;&#45;v6</title>
<path fill="none" stroke="black" d="M297.763,-434.334C327.537,-403.677 394.301,-329.224 422,-252 430.547,-228.172 431.858,-198.606 431.684,-180.269"/>
</g>
<!-- v1&#45;&#45;v9 -->
<g id="edge12" class="edge"><title>v1&#45;&#45;v9</title>
<path fill="none" stroke="black" d="M309.879,-447.907C380.521,-443.457 566,-420.925 566,-307 566,-307 566,-307 566,-161 566,-53.4231 394.594,-27.0552 326.969,-20.8385"/>
</g>
<!-- v1&#45;&#45;v3 -->
<g id="edge8" class="edge"><title>v1&#45;&#45;v3</title>
<path fill="none" stroke="black" d="M283,-431.871C283,-404.578 283,-351.52 283,-324.189"/>
</g>
<!-- v5&#45;&#45;v8 -->
<g id="edge29" class="edge"><title>v5&#45;&#45;v8</title>
<path fill="none" stroke="black" d="M348.583,-216.433C338.042,-189.217 317.172,-135.334 306.546,-107.902"/>
</g>
<!-- v5&#45;&#45;v7 -->
<g id="edge28" class="edge"><title>v5&#45;&#45;v7</title>
<path fill="none" stroke="black" d="M335.839,-220.807C315.65,-207.959 284.048,-187.848 263.941,-175.053"/>
</g>
<!-- v5&#45;&#45;v6 -->
<g id="edge27" class="edge"><title>v5&#45;&#45;v6</title>
<path fill="none" stroke="black" d="M370.38,-218.834C383.565,-206.69 402.464,-189.283 415.643,-177.144"/>
</g>
<!-- v5&#45;&#45;v9 -->
<g id="edge30" class="edge"><title>v5&#45;&#45;v9</title>
<path fill="none" stroke="black" d="M355.598,-215.93C356.088,-185.842 354.593,-121.84 336,-72 330.79,-58.0349 321.171,-44.1682 313.186,-34.1232"/>
</g>
<!-- v7&#45;&#45;v8 -->
<g id="edge32" class="edge"><title>v7&#45;&#45;v8</title>
<path fill="none" stroke="black" d="M256.934,-145.811C266.16,-134.07 278.87,-117.893 288.089,-106.159"/>
</g>
<!-- v6&#45;&#45;v8 -->
<g id="edge31" class="edge"><title>v6&#45;&#45;v8</title>
<path fill="none" stroke="black" d="M410.531,-150.062C385.921,-136.912 344.871,-114.977 320.325,-101.861"/>
</g>
<!-- v3&#45;&#45;v4 -->
<g id="edge20" class="edge"><title>v3&#45;&#45;v4</title>
<path fill="none" stroke="black" d="M267.62,-290.834C254.435,-278.69 235.536,-261.283 222.357,-249.144"/>
</g>
<!-- v3&#45;&#45;v8 -->
<g id="edge23" class="edge"><title>v3&#45;&#45;v8</title>
<path fill="none" stroke="black" d="M284.362,-287.849C287.546,-247.78 295.442,-148.383 298.631,-108.232"/>
</g>
<!-- v3&#45;&#45;v5 -->
<g id="edge21" class="edge"><title>v3&#45;&#45;v5</title>
<path fill="none" stroke="black" d="M297.57,-290.834C309.98,-278.77 327.731,-261.512 340.204,-249.385"/>
</g>
<!-- v3&#45;&#45;v7 -->
<g id="edge22" class="edge"><title>v3&#45;&#45;v7</title>
<path fill="none" stroke="black" d="M278.492,-288.153C271.178,-260.824 256.812,-207.14 249.502,-179.825"/>
</g>
</g>
</svg>
