<?xml version="1.0" encoding="UTF-8" standalone="no"?>
<!DOCTYPE svg PUBLIC "-//W3C//DTD SVG 1.1//EN"
 "http://www.w3.org/Graphics/SVG/1.1/DTD/svg11.dtd">
<!-- Generated by graphviz version 2.38.0 (20140413.2041)
 -->
<!-- Title: G Pages: 1 -->
<svg width="608pt" height="548pt"
 viewBox="0.00 0.00 608.00 548.00" xmlns="http://www.w3.org/2000/svg" xmlns:xlink="http://www.w3.org/1999/xlink">
<g id="graph0" class="graph" transform="scale(1 1) rotate(0) translate(4 544)">
<title>G</title>
<polygon fill="white" stroke="none" points="-4,4 -4,-544 604,-544 604,4 -4,4"/>
<!-- v3 -->
<g id="node1" class="node"><title>v3</title>
<ellipse fill="red" stroke="black" cx="317" cy="-306" rx="27" ry="18"/>
<text text-anchor="middle" x="317" y="-302.3" font-family="Times,serif" font-size="14.00">v3</text>
</g>
<!-- v8 -->
<g id="node2" class="node"><title>v8</title>
<ellipse fill="red" stroke="black" cx="305" cy="-90" rx="27" ry="18"/>
<text text-anchor="middle" x="305" y="-86.3" font-family="Times,serif" font-size="14.00">v8</text>
</g>
<!-- v3&#45;&#45;v8 -->
<g id="edge23" class="edge"><title>v3&#45;&#45;v8</title>
<path fill="none" stroke="black" d="M317.526,-287.56C318.23,-257.965 318.877,-196.05 314,-144 312.868,-131.92 310.565,-118.441 308.572,-108.1"/>
</g>
<!-- v5 -->
<g id="node5" class="node"><title>v5</title>
<ellipse fill="red" stroke="black" cx="207" cy="-234" rx="27" ry="18"/>
<text text-anchor="middle" x="207" y="-230.3" font-family="Times,serif" font-size="14.00">v5</text>
</g>
<!-- v3&#45;&#45;v5 -->
<g id="edge21" class="edge"><title>v3&#45;&#45;v5</title>
<path fill="none" stroke="black" d="M297.839,-292.807C277.65,-279.959 246.048,-259.848 225.941,-247.053"/>
</g>
<!-- v4 -->
<g id="node6" class="node"><title>v4</title>
<ellipse fill="red" stroke="black" cx="393" cy="-234" rx="27" ry="18"/>
<text text-anchor="middle" x="393" y="-230.3" font-family="Times,serif" font-size="14.00">v4</text>
</g>
<!-- v3&#45;&#45;v4 -->
<g id="edge20" class="edge"><title>v3&#45;&#45;v4</title>
<path fill="none" stroke="black" d="M332.38,-290.834C345.565,-278.69 364.464,-261.283 377.643,-249.144"/>
</g>
<!-- v7 -->
<g id="node9" class="node"><title>v7</title>
<ellipse fill="none" stroke="black" cx="278" cy="-162" rx="27" ry="18"/>
<text text-anchor="middle" x="278" y="-158.3" font-family="Times,serif" font-size="14.00">v7</text>
</g>
<!-- v3&#45;&#45;v7 -->
<g id="edge22" class="edge"><title>v3&#45;&#45;v7</title>
<path fill="none" stroke="black" d="M312.373,-288.153C304.867,-260.824 290.123,-207.14 282.621,-179.825"/>
</g>
<!-- v9 -->
<g id="node10" class="node"><title>v9</title>
<ellipse fill="none" stroke="black" cx="114" cy="-18" rx="27" ry="18"/>
<text text-anchor="middle" x="114" y="-14.3" font-family="Times,serif" font-size="14.00">v9</text>
</g>
<!-- v8&#45;&#45;v9 -->
<g id="edge33" class="edge"><title>v8&#45;&#45;v9</title>
<path fill="none" stroke="black" d="M281.961,-80.5564C245.25,-67.102 173.883,-40.9467 137.121,-27.4736"/>
</g>
<!-- v0 -->
<g id="node3" class="node"><title>v0</title>
<ellipse fill="red" stroke="black" cx="316" cy="-522" rx="27" ry="18"/>
<text text-anchor="middle" x="316" y="-518.3" font-family="Times,serif" font-size="14.00">v0</text>
</g>
<!-- v1 -->
<g id="node4" class="node"><title>v1</title>
<ellipse fill="red" stroke="black" cx="344" cy="-450" rx="27" ry="18"/>
<text text-anchor="middle" x="344" y="-446.3" font-family="Times,serif" font-size="14.00">v1</text>
</g>
<!-- v0&#45;&#45;v1 -->
<g id="edge1" class="edge"><title>v0&#45;&#45;v1</title>
<path fill="none" stroke="black" d="M322.636,-504.411C327.099,-493.252 332.959,-478.604 337.412,-467.47"/>
</g>
<!-- v0&#45;&#45;v5 -->
<g id="edge3" class="edge"><title>v0&#45;&#45;v5</title>
<path fill="none" stroke="black" d="M289.413,-518.495C236.98,-512.947 123.293,-497.699 100,-468 42.8619,-395.147 149.21,-286.864 191.099,-248.819"/>
</g>
<!-- v2 -->
<g id="node7" class="node"><title>v2</title>
<ellipse fill="red" stroke="black" cx="289" cy="-378" rx="27" ry="18"/>
<text text-anchor="middle" x="289" y="-374.3" font-family="Times,serif" font-size="14.00">v2</text>
</g>
<!-- v0&#45;&#45;v2 -->
<g id="edge2" class="edge"><title>v0&#45;&#45;v2</title>
<path fill="none" stroke="black" d="M312.743,-503.871C307.554,-476.578 297.465,-423.52 292.268,-396.189"/>
</g>
<!-- v6 -->
<g id="node8" class="node"><title>v6</title>
<ellipse fill="none" stroke="black" cx="440" cy="-162" rx="27" ry="18"/>
<text text-anchor="middle" x="440" y="-158.3" font-family="Times,serif" font-size="14.00">v6</text>
</g>
<!-- v0&#45;&#45;v6 -->
<g id="edge4" class="edge"><title>v0&#45;&#45;v6</title>
<path fill="none" stroke="black" d="M334.88,-508.991C348.853,-499.318 367.546,-484.627 380,-468 441.558,-385.812 448.131,-353.744 462,-252 464.161,-236.147 465.127,-231.691 462,-216 459.43,-203.103 453.661,-189.415 448.675,-179.181"/>
</g>
<!-- v0&#45;&#45;v7 -->
<g id="edge5" class="edge"><title>v0&#45;&#45;v7</title>
<path fill="none" stroke="black" d="M290.417,-515.703C236.061,-502.793 114,-464.306 114,-379 114,-379 114,-379 114,-305 114,-231.747 208.668,-187.836 254.153,-170.965"/>
</g>
<!-- v0&#45;&#45;v9 -->
<g id="edge6" class="edge"><title>v0&#45;&#45;v9</title>
<path fill="none" stroke="black" d="M342.974,-519.942C413.865,-515.579 600,-493.247 600,-379 600,-379 600,-379 600,-161 600,-64.5267 242.706,-29.0956 140.822,-20.9533"/>
</g>
<!-- v1&#45;&#45;v3 -->
<g id="edge8" class="edge"><title>v1&#45;&#45;v3</title>
<path fill="none" stroke="black" d="M340.743,-431.871C335.554,-404.578 325.465,-351.52 320.268,-324.189"/>
</g>
<!-- v1&#45;&#45;v8 -->
<g id="edge11" class="edge"><title>v1&#45;&#45;v8</title>
<path fill="none" stroke="black" d="M362.285,-436.462C375.643,-426.621 393.527,-411.953 406,-396 477.597,-304.426 544.963,-237.574 476,-144 442.717,-98.8389 371.358,-91.0139 332.162,-90.3264"/>
</g>
<!-- v1&#45;&#45;v4 -->
<g id="edge9" class="edge"><title>v1&#45;&#45;v4</title>
<path fill="none" stroke="black" d="M348.917,-432.122C355.781,-408.202 368.36,-363.006 377,-324 382.5,-299.169 387.447,-270.125 390.337,-252.143"/>
</g>
<!-- v1&#45;&#45;v2 -->
<g id="edge7" class="edge"><title>v1&#45;&#45;v2</title>
<path fill="none" stroke="black" d="M332.066,-433.811C322.84,-422.07 310.13,-405.893 300.911,-394.159"/>
</g>
<!-- v1&#45;&#45;v6 -->
<g id="edge10" class="edge"><title>v1&#45;&#45;v6</title>
<path fill="none" stroke="black" d="M355.882,-433.267C379.193,-401.254 430.119,-325.341 447,-252 452.667,-227.38 448.28,-198.031 444.344,-179.955"/>
</g>
<!-- v1&#45;&#45;v9 -->
<g id="edge12" class="edge"><title>v1&#45;&#45;v9</title>
<path fill="none" stroke="black" d="M317.578,-445.51C237.026,-433.246 0,-384.463 0,-235 0,-235 0,-235 0,-161 0,-101.249 62.1367,-52.3256 94.6615,-30.8101"/>
</g>
<!-- v5&#45;&#45;v8 -->
<g id="edge29" class="edge"><title>v5&#45;&#45;v8</title>
<path fill="none" stroke="black" d="M210.973,-216.034C215.976,-197.16 225.918,-166.383 242,-144 253.926,-127.401 272.186,-112.809 285.983,-103.161"/>
</g>
<!-- v5&#45;&#45;v6 -->
<g id="edge27" class="edge"><title>v5&#45;&#45;v6</title>
<path fill="none" stroke="black" d="M231.058,-225.772C275.706,-212.359 370.912,-183.756 415.724,-170.293"/>
</g>
<!-- v5&#45;&#45;v7 -->
<g id="edge28" class="edge"><title>v5&#45;&#45;v7</title>
<path fill="none" stroke="black" d="M221.711,-218.496C233.897,-206.482 251.127,-189.494 263.308,-177.485"/>
</g>
<!-- v5&#45;&#45;v9 -->
<g id="edge30" class="edge"><title>v5&#45;&#45;v9</title>
<path fill="none" stroke="black" d="M199.857,-216.563C182.546,-176.729 138.504,-75.3846 121.167,-35.4929"/>
</g>
<!-- v4&#45;&#45;v8 -->
<g id="edge26" class="edge"><title>v4&#45;&#45;v8</title>
<path fill="none" stroke="black" d="M386.96,-216.166C379.945,-197.68 367.35,-167.501 352,-144 342.719,-129.791 329.787,-115.5 319.836,-105.344"/>
</g>
<!-- v4&#45;&#45;v6 -->
<g id="edge24" class="edge"><title>v4&#45;&#45;v6</title>
<path fill="none" stroke="black" d="M403.665,-217.116C411.357,-205.66 421.695,-190.263 429.377,-178.821"/>
</g>
<!-- v4&#45;&#45;v7 -->
<g id="edge25" class="edge"><title>v4&#45;&#45;v7</title>
<path fill="none" stroke="black" d="M373.752,-221.284C352.523,-208.362 318.565,-187.692 297.311,-174.755"/>
</g>
<!-- v2&#45;&#45;v3 -->
<g id="edge13" class="edge"><title>v2&#45;&#45;v3</title>
<path fill="none" stroke="black" d="M295.636,-360.411C300.099,-349.252 305.959,-334.604 310.412,-323.47"/>
</g>
<!-- v2&#45;&#45;v8 -->
<g id="edge18" class="edge"><title>v2&#45;&#45;v8</title>
<path fill="none" stroke="black" d="M269.349,-365.327C230.943,-340.848 151.317,-281.009 171,-216 182.145,-179.191 191.324,-170.705 219,-144 238.183,-125.489 264.905,-110.276 283.45,-100.969"/>
</g>
<!-- v2&#45;&#45;v5 -->
<g id="edge15" class="edge"><title>v2&#45;&#45;v5</title>
<path fill="none" stroke="black" d="M275.827,-361.899C267.261,-351.641 256.203,-337.529 248,-324 233.447,-299.997 220.621,-269.963 213.342,-251.644"/>
</g>
<!-- v2&#45;&#45;v4 -->
<g id="edge14" class="edge"><title>v2&#45;&#45;v4</title>
<path fill="none" stroke="black" d="M307.805,-364.934C321.738,-355.232 340.415,-340.528 353,-324 370.035,-301.627 381.797,-270.847 387.961,-251.97"/>
</g>
<!-- v2&#45;&#45;v6 -->
<g id="edge16" class="edge"><title>v2&#45;&#45;v6</title>
<path fill="none" stroke="black" d="M310.892,-366.953C329.766,-357.596 357.049,-342.353 377,-324 406.051,-297.276 414.57,-288.741 429,-252 438.334,-228.234 440.223,-198.393 440.375,-180.013"/>
</g>
<!-- v2&#45;&#45;v7 -->
<g id="edge17" class="edge"><title>v2&#45;&#45;v7</title>
<path fill="none" stroke="black" d="M285.833,-359.882C284.065,-349.533 282.018,-336.054 281,-324 276.602,-271.907 277.029,-210.012 277.578,-180.43"/>
</g>
<!-- v2&#45;&#45;v9 -->
<g id="edge19" class="edge"><title>v2&#45;&#45;v9</title>
<path fill="none" stroke="black" d="M263.307,-372.436C206.656,-360.741 76,-324.109 76,-235 76,-235 76,-235 76,-161 76,-114.298 95.4181,-61.803 106.492,-35.662"/>
</g>
<!-- v6&#45;&#45;v8 -->
<g id="edge31" class="edge"><title>v6&#45;&#45;v8</title>
<path fill="none" stroke="black" d="M419.202,-150.216C393.759,-137.023 350.953,-114.827 325.6,-101.681"/>
</g>
<!-- v7&#45;&#45;v8 -->
<g id="edge32" class="edge"><title>v7&#45;&#45;v8</title>
<path fill="none" stroke="black" d="M284.399,-144.411C288.64,-133.414 294.189,-119.027 298.46,-107.956"/>
</g>
</g>
</svg>
