<?xml version="1.0" encoding="UTF-8" standalone="no"?>
<!DOCTYPE svg PUBLIC "-//W3C//DTD SVG 1.1//EN"
 "http://www.w3.org/Graphics/SVG/1.1/DTD/svg11.dtd">
<!-- Generated by graphviz version 2.38.0 (20140413.2041)
 -->
<!-- Title: G Pages: 1 -->
<svg width="384pt" height="404pt"
 viewBox="0.00 0.00 384.00 404.00" xmlns="http://www.w3.org/2000/svg" xmlns:xlink="http://www.w3.org/1999/xlink">
<g id="graph0" class="graph" transform="scale(1 1) rotate(0) translate(4 400)">
<title>G</title>
<polygon fill="white" stroke="none" points="-4,4 -4,-400 380,-400 380,4 -4,4"/>
<!-- v3 -->
<g id="node1" class="node"><title>v3</title>
<ellipse fill="red" stroke="black" cx="104" cy="-234" rx="27" ry="18"/>
<text text-anchor="middle" x="104" y="-230.3" font-family="Times,serif" font-size="14.00">v3</text>
</g>
<!-- v7 -->
<g id="node6" class="node"><title>v7</title>
<ellipse fill="red" stroke="black" cx="83" cy="-18" rx="27" ry="18"/>
<text text-anchor="middle" x="83" y="-14.3" font-family="Times,serif" font-size="14.00">v7</text>
</g>
<!-- v3&#45;&#45;v7 -->
<g id="edge17" class="edge"><title>v3&#45;&#45;v7</title>
<path fill="none" stroke="black" d="M102.317,-215.849C98.3849,-175.78 88.631,-76.3826 84.691,-36.2325"/>
</g>
<!-- v4 -->
<g id="node8" class="node"><title>v4</title>
<ellipse fill="none" stroke="black" cx="169" cy="-162" rx="27" ry="18"/>
<text text-anchor="middle" x="169" y="-158.3" font-family="Times,serif" font-size="14.00">v4</text>
</g>
<!-- v3&#45;&#45;v4 -->
<g id="edge16" class="edge"><title>v3&#45;&#45;v4</title>
<path fill="none" stroke="black" d="M117.785,-218.155C128.816,-206.276 144.21,-189.697 155.235,-177.824"/>
</g>
<!-- v2 -->
<g id="node2" class="node"><title>v2</title>
<ellipse fill="red" stroke="black" cx="252" cy="-234" rx="27" ry="18"/>
<text text-anchor="middle" x="252" y="-230.3" font-family="Times,serif" font-size="14.00">v2</text>
</g>
<!-- v5 -->
<g id="node3" class="node"><title>v5</title>
<ellipse fill="red" stroke="black" cx="128" cy="-90" rx="27" ry="18"/>
<text text-anchor="middle" x="128" y="-86.3" font-family="Times,serif" font-size="14.00">v5</text>
</g>
<!-- v2&#45;&#45;v5 -->
<g id="edge13" class="edge"><title>v2&#45;&#45;v5</title>
<path fill="none" stroke="black" d="M245.94,-216.115C238.485,-197.035 224.393,-165.805 205,-144 188.93,-125.931 165.482,-110.941 148.688,-101.567"/>
</g>
<!-- v6 -->
<g id="node5" class="node"><title>v6</title>
<ellipse fill="red" stroke="black" cx="300" cy="-18" rx="27" ry="18"/>
<text text-anchor="middle" x="300" y="-14.3" font-family="Times,serif" font-size="14.00">v6</text>
</g>
<!-- v2&#45;&#45;v6 -->
<g id="edge14" class="edge"><title>v2&#45;&#45;v6</title>
<path fill="none" stroke="black" d="M260.785,-216.744C265.968,-206.481 272.231,-192.789 276,-180 291.019,-129.038 296.922,-66.0979 298.999,-36.2569"/>
</g>
<!-- v2&#45;&#45;v7 -->
<g id="edge15" class="edge"><title>v2&#45;&#45;v7</title>
<path fill="none" stroke="black" d="M250.341,-216.031C247.961,-197.427 242.409,-167.145 230,-144 200.637,-89.232 136.644,-48.2025 103.624,-29.7578"/>
</g>
<!-- v2&#45;&#45;v4 -->
<g id="edge12" class="edge"><title>v2&#45;&#45;v4</title>
<path fill="none" stroke="black" d="M235.602,-219.17C220.956,-206.819 199.63,-188.832 185.082,-176.563"/>
</g>
<!-- v5&#45;&#45;v6 -->
<g id="edge20" class="edge"><title>v5&#45;&#45;v6</title>
<path fill="none" stroke="black" d="M150.486,-79.8487C183.45,-66.4333 244.542,-41.5702 277.508,-28.1535"/>
</g>
<!-- v5&#45;&#45;v7 -->
<g id="edge21" class="edge"><title>v5&#45;&#45;v7</title>
<path fill="none" stroke="black" d="M117.789,-73.1159C110.424,-61.66 100.526,-46.2627 93.1708,-34.8212"/>
</g>
<!-- v1 -->
<g id="node4" class="node"><title>v1</title>
<ellipse fill="red" stroke="black" cx="183" cy="-306" rx="27" ry="18"/>
<text text-anchor="middle" x="183" y="-302.3" font-family="Times,serif" font-size="14.00">v1</text>
</g>
<!-- v1&#45;&#45;v3 -->
<g id="edge8" class="edge"><title>v1&#45;&#45;v3</title>
<path fill="none" stroke="black" d="M167.392,-291.17C153.542,-278.898 133.415,-261.064 119.575,-248.801"/>
</g>
<!-- v1&#45;&#45;v2 -->
<g id="edge7" class="edge"><title>v1&#45;&#45;v2</title>
<path fill="none" stroke="black" d="M197.297,-290.496C209.139,-278.482 225.884,-261.494 237.721,-249.485"/>
</g>
<!-- v1&#45;&#45;v5 -->
<g id="edge10" class="edge"><title>v1&#45;&#45;v5</title>
<path fill="none" stroke="black" d="M174.413,-288.57C162.664,-265.183 142.011,-220.617 133,-180 127.57,-155.524 127.01,-126.386 127.331,-108.287"/>
</g>
<!-- v1&#45;&#45;v6 -->
<g id="edge11" class="edge"><title>v1&#45;&#45;v6</title>
<path fill="none" stroke="black" d="M208.245,-299.47C232.801,-292.685 269.089,-278.643 288,-252 335.71,-184.783 315.151,-77.1977 304.713,-35.8978"/>
</g>
<!-- v1&#45;&#45;v4 -->
<g id="edge9" class="edge"><title>v1&#45;&#45;v4</title>
<path fill="none" stroke="black" d="M181.311,-287.871C178.62,-260.578 173.389,-207.52 170.695,-180.189"/>
</g>
<!-- v0 -->
<g id="node7" class="node"><title>v0</title>
<ellipse fill="none" stroke="black" cx="146" cy="-378" rx="27" ry="18"/>
<text text-anchor="middle" x="146" y="-374.3" font-family="Times,serif" font-size="14.00">v0</text>
</g>
<!-- v0&#45;&#45;v3 -->
<g id="edge3" class="edge"><title>v0&#45;&#45;v3</title>
<path fill="none" stroke="black" d="M141.017,-360.153C132.934,-332.824 117.055,-279.14 108.976,-251.825"/>
</g>
<!-- v0&#45;&#45;v2 -->
<g id="edge2" class="edge"><title>v0&#45;&#45;v2</title>
<path fill="none" stroke="black" d="M166.866,-366.333C183.082,-357.095 205.086,-342.343 219,-324 235.532,-302.205 244.5,-271.254 248.762,-252.184"/>
</g>
<!-- v0&#45;&#45;v5 -->
<g id="edge4" class="edge"><title>v0&#45;&#45;v5</title>
<path fill="none" stroke="black" d="M132.81,-362.194C114.089,-340.08 80.6775,-296.264 68,-252 52.313,-197.228 93.4333,-134.565 115.326,-106.274"/>
</g>
<!-- v0&#45;&#45;v1 -->
<g id="edge1" class="edge"><title>v0&#45;&#45;v1</title>
<path fill="none" stroke="black" d="M154.582,-360.765C160.559,-349.456 168.498,-334.437 174.465,-323.147"/>
</g>
<!-- v0&#45;&#45;v6 -->
<g id="edge5" class="edge"><title>v0&#45;&#45;v6</title>
<path fill="none" stroke="black" d="M172.384,-373.364C232.797,-363.403 376,-329.794 376,-235 376,-235 376,-235 376,-161 376,-109.271 336.31,-58.1496 314.295,-33.7722"/>
</g>
<!-- v0&#45;&#45;v7 -->
<g id="edge6" class="edge"><title>v0&#45;&#45;v7</title>
<path fill="none" stroke="black" d="M123.507,-367.687C82.5533,-349.058 0,-303.066 0,-235 0,-235 0,-235 0,-161 0,-107.887 43.8151,-56.9932 67.7765,-33.1316"/>
</g>
<!-- v4&#45;&#45;v5 -->
<g id="edge18" class="edge"><title>v4&#45;&#45;v5</title>
<path fill="none" stroke="black" d="M159.491,-144.765C152.867,-133.456 144.07,-118.437 137.458,-107.147"/>
</g>
<!-- v4&#45;&#45;v6 -->
<g id="edge19" class="edge"><title>v4&#45;&#45;v6</title>
<path fill="none" stroke="black" d="M182.526,-146.338C207.629,-119.128 261.156,-61.1052 286.351,-33.7946"/>
</g>
</g>
</svg>
