<?xml version="1.0" encoding="UTF-8" standalone="no"?>
<!DOCTYPE svg PUBLIC "-//W3C//DTD SVG 1.1//EN"
 "http://www.w3.org/Graphics/SVG/1.1/DTD/svg11.dtd">
<!-- Generated by graphviz version 2.38.0 (20140413.2041)
 -->
<!-- Title: G Pages: 1 -->
<svg width="574pt" height="548pt"
 viewBox="0.00 0.00 574.00 548.00" xmlns="http://www.w3.org/2000/svg" xmlns:xlink="http://www.w3.org/1999/xlink">
<g id="graph0" class="graph" transform="scale(1 1) rotate(0) translate(4 544)">
<title>G</title>
<polygon fill="white" stroke="none" points="-4,4 -4,-544 570,-544 570,4 -4,4"/>
<!-- v8 -->
<g id="node1" class="node"><title>v8</title>
<ellipse fill="red" stroke="black" cx="281" cy="-90" rx="27" ry="18"/>
<text text-anchor="middle" x="281" y="-86.3" font-family="Times,serif" font-size="14.00">v8</text>
</g>
<!-- v9 -->
<g id="node9" class="node"><title>v9</title>
<ellipse fill="none" stroke="black" cx="467" cy="-18" rx="27" ry="18"/>
<text text-anchor="middle" x="467" y="-14.3" font-family="Times,serif" font-size="14.00">v9</text>
</g>
<!-- v8&#45;&#45;v9 -->
<g id="edge33" class="edge"><title>v8&#45;&#45;v9</title>
<path fill="none" stroke="black" d="M304.181,-80.276C340.018,-66.7888 408.452,-41.0342 444.111,-27.6141"/>
</g>
<!-- v2 -->
<g id="node2" class="node"><title>v2</title>
<ellipse fill="red" stroke="black" cx="338" cy="-378" rx="27" ry="18"/>
<text text-anchor="middle" x="338" y="-374.3" font-family="Times,serif" font-size="14.00">v2</text>
</g>
<!-- v2&#45;&#45;v8 -->
<g id="edge18" class="edge"><title>v2&#45;&#45;v8</title>
<path fill="none" stroke="black" d="M335.507,-359.928C329.732,-321.254 314.507,-224.096 296,-144 293.201,-131.887 289.377,-118.409 286.29,-108.076"/>
</g>
<!-- v5 -->
<g id="node4" class="node"><title>v5</title>
<ellipse fill="red" stroke="black" cx="393" cy="-234" rx="27" ry="18"/>
<text text-anchor="middle" x="393" y="-230.3" font-family="Times,serif" font-size="14.00">v5</text>
</g>
<!-- v2&#45;&#45;v5 -->
<g id="edge15" class="edge"><title>v2&#45;&#45;v5</title>
<path fill="none" stroke="black" d="M344.417,-360.433C354.958,-333.217 375.828,-279.334 386.454,-251.902"/>
</g>
<!-- v7 -->
<g id="node6" class="node"><title>v7</title>
<ellipse fill="red" stroke="black" cx="412" cy="-162" rx="27" ry="18"/>
<text text-anchor="middle" x="412" y="-158.3" font-family="Times,serif" font-size="14.00">v7</text>
</g>
<!-- v2&#45;&#45;v7 -->
<g id="edge17" class="edge"><title>v2&#45;&#45;v7</title>
<path fill="none" stroke="black" d="M353.173,-363.056C375.13,-341.694 414.699,-298.433 429,-252 436.64,-227.194 427.37,-197.392 419.813,-179.339"/>
</g>
<!-- v4 -->
<g id="node7" class="node"><title>v4</title>
<ellipse fill="red" stroke="black" cx="207" cy="-234" rx="27" ry="18"/>
<text text-anchor="middle" x="207" y="-230.3" font-family="Times,serif" font-size="14.00">v4</text>
</g>
<!-- v2&#45;&#45;v4 -->
<g id="edge14" class="edge"><title>v2&#45;&#45;v4</title>
<path fill="none" stroke="black" d="M314.749,-368.262C294.564,-359.661 265.714,-344.79 247,-324 227.96,-302.848 216.683,-271.129 211.181,-251.821"/>
</g>
<!-- v6 -->
<g id="node8" class="node"><title>v6</title>
<ellipse fill="none" stroke="black" cx="156" cy="-162" rx="27" ry="18"/>
<text text-anchor="middle" x="156" y="-158.3" font-family="Times,serif" font-size="14.00">v6</text>
</g>
<!-- v2&#45;&#45;v6 -->
<g id="edge16" class="edge"><title>v2&#45;&#45;v6</title>
<path fill="none" stroke="black" d="M313.487,-370.163C288.236,-362.204 248.756,-347.122 221,-324 191.067,-299.064 185.703,-288.078 171,-252 161.302,-228.203 157.873,-198.37 156.662,-180.001"/>
</g>
<!-- v2&#45;&#45;v9 -->
<g id="edge19" class="edge"><title>v2&#45;&#45;v9</title>
<path fill="none" stroke="black" d="M359.472,-366.621C376.5,-357.455 399.872,-342.655 415,-324 478.392,-245.828 473.351,-208.181 483,-108 484.534,-92.0737 485.337,-87.8284 483,-72 481.175,-59.639 477.077,-46.1649 473.486,-35.8957"/>
</g>
<!-- v3 -->
<g id="node10" class="node"><title>v3</title>
<ellipse fill="none" stroke="black" cx="283" cy="-306" rx="27" ry="18"/>
<text text-anchor="middle" x="283" y="-302.3" font-family="Times,serif" font-size="14.00">v3</text>
</g>
<!-- v2&#45;&#45;v3 -->
<g id="edge13" class="edge"><title>v2&#45;&#45;v3</title>
<path fill="none" stroke="black" d="M326.066,-361.811C316.84,-350.07 304.13,-333.893 294.911,-322.159"/>
</g>
<!-- v0 -->
<g id="node3" class="node"><title>v0</title>
<ellipse fill="red" stroke="black" cx="385" cy="-522" rx="27" ry="18"/>
<text text-anchor="middle" x="385" y="-518.3" font-family="Times,serif" font-size="14.00">v0</text>
</g>
<!-- v0&#45;&#45;v2 -->
<g id="edge2" class="edge"><title>v0&#45;&#45;v2</title>
<path fill="none" stroke="black" d="M379.424,-504.153C370.378,-476.824 352.61,-423.14 343.569,-395.825"/>
</g>
<!-- v0&#45;&#45;v5 -->
<g id="edge3" class="edge"><title>v0&#45;&#45;v5</title>
<path fill="none" stroke="black" d="M385.476,-503.966C386.896,-453.218 391.087,-303.407 392.516,-252.306"/>
</g>
<!-- v1 -->
<g id="node5" class="node"><title>v1</title>
<ellipse fill="red" stroke="black" cx="190" cy="-450" rx="27" ry="18"/>
<text text-anchor="middle" x="190" y="-446.3" font-family="Times,serif" font-size="14.00">v1</text>
</g>
<!-- v0&#45;&#45;v1 -->
<g id="edge1" class="edge"><title>v0&#45;&#45;v1</title>
<path fill="none" stroke="black" d="M361.865,-512.695C324.437,-499.259 251.011,-472.901 213.408,-459.403"/>
</g>
<!-- v0&#45;&#45;v7 -->
<g id="edge5" class="edge"><title>v0&#45;&#45;v7</title>
<path fill="none" stroke="black" d="M390.592,-503.926C393.866,-493.594 397.944,-480.116 401,-468 424.96,-373.004 435.173,-349.477 445,-252 446.605,-236.081 449.398,-231.384 445,-216 441.008,-202.035 432.153,-188.168 424.621,-178.123"/>
</g>
<!-- v0&#45;&#45;v6 -->
<g id="edge4" class="edge"><title>v0&#45;&#45;v6</title>
<path fill="none" stroke="black" d="M358.84,-517.18C272.187,-503.801 0,-455.674 0,-379 0,-379 0,-379 0,-305 0,-233.951 89.5876,-189.038 132.982,-171.45"/>
</g>
<!-- v0&#45;&#45;v9 -->
<g id="edge6" class="edge"><title>v0&#45;&#45;v9</title>
<path fill="none" stroke="black" d="M409.788,-514.272C459.359,-499.145 566,-457.482 566,-379 566,-379 566,-379 566,-161 566,-104.801 513.175,-54.9364 484.699,-32.1387"/>
</g>
<!-- v5&#45;&#45;v8 -->
<g id="edge29" class="edge"><title>v5&#45;&#45;v8</title>
<path fill="none" stroke="black" d="M383.422,-216.95C372.215,-198.638 352.677,-168.109 333,-144 321.589,-130.019 307.107,-115.479 296.326,-105.172"/>
</g>
<!-- v5&#45;&#45;v7 -->
<g id="edge28" class="edge"><title>v5&#45;&#45;v7</title>
<path fill="none" stroke="black" d="M397.599,-216.055C400.587,-205.049 404.464,-190.764 407.443,-179.789"/>
</g>
<!-- v5&#45;&#45;v6 -->
<g id="edge27" class="edge"><title>v5&#45;&#45;v6</title>
<path fill="none" stroke="black" d="M368.529,-225.772C322.996,-212.324 225.77,-183.607 180.337,-170.188"/>
</g>
<!-- v5&#45;&#45;v9 -->
<g id="edge30" class="edge"><title>v5&#45;&#45;v9</title>
<path fill="none" stroke="black" d="M411.293,-220.662C423.847,-211.125 439.688,-196.748 448,-180 471.774,-132.099 470.724,-66.6154 468.603,-36.0343"/>
</g>
<!-- v1&#45;&#45;v8 -->
<g id="edge11" class="edge"><title>v1&#45;&#45;v8</title>
<path fill="none" stroke="black" d="M170.661,-437.19C138.137,-415.674 76,-366.751 76,-307 76,-307 76,-307 76,-233 76,-188.874 86.6764,-172.924 120,-144 158.78,-110.34 219.498,-97.9427 254.228,-93.4603"/>
</g>
<!-- v1&#45;&#45;v2 -->
<g id="edge7" class="edge"><title>v1&#45;&#45;v2</title>
<path fill="none" stroke="black" d="M211.52,-438.821C239.58,-425.55 288.381,-402.468 316.454,-389.191"/>
</g>
<!-- v1&#45;&#45;v4 -->
<g id="edge9" class="edge"><title>v1&#45;&#45;v4</title>
<path fill="none" stroke="black" d="M191.362,-431.849C194.546,-391.78 202.442,-292.383 205.631,-252.232"/>
</g>
<!-- v1&#45;&#45;v6 -->
<g id="edge10" class="edge"><title>v1&#45;&#45;v6</title>
<path fill="none" stroke="black" d="M186.416,-431.974C179.439,-397.961 164.175,-319.11 158,-252 155.706,-227.068 155.514,-198.05 155.683,-180.102"/>
</g>
<!-- v1&#45;&#45;v9 -->
<g id="edge12" class="edge"><title>v1&#45;&#45;v9</title>
<path fill="none" stroke="black" d="M166.413,-441.03C144.303,-432.619 111.388,-417.572 89,-396 56.1708,-364.367 38,-352.59 38,-307 38,-307 38,-307 38,-161 38,-75.7802 346.956,-32.9358 440.488,-21.9179"/>
</g>
<!-- v1&#45;&#45;v3 -->
<g id="edge8" class="edge"><title>v1&#45;&#45;v3</title>
<path fill="none" stroke="black" d="M200.308,-433.261C218.184,-405.966 254.737,-350.154 272.646,-322.81"/>
</g>
<!-- v7&#45;&#45;v8 -->
<g id="edge32" class="edge"><title>v7&#45;&#45;v8</title>
<path fill="none" stroke="black" d="M391.531,-150.062C366.921,-136.912 325.871,-114.977 301.325,-101.861"/>
</g>
<!-- v4&#45;&#45;v8 -->
<g id="edge26" class="edge"><title>v4&#45;&#45;v8</title>
<path fill="none" stroke="black" d="M213.951,-216.294C221.66,-198.178 234.764,-168.56 248,-144 254.891,-131.214 263.609,-117.292 270.354,-106.927"/>
</g>
<!-- v4&#45;&#45;v7 -->
<g id="edge25" class="edge"><title>v4&#45;&#45;v7</title>
<path fill="none" stroke="black" d="M230.516,-224.97C269.955,-211.503 348.977,-184.52 388.443,-171.044"/>
</g>
<!-- v4&#45;&#45;v6 -->
<g id="edge24" class="edge"><title>v4&#45;&#45;v6</title>
<path fill="none" stroke="black" d="M195.681,-217.465C187.23,-205.865 175.731,-190.082 167.287,-178.492"/>
</g>
<!-- v6&#45;&#45;v8 -->
<g id="edge31" class="edge"><title>v6&#45;&#45;v8</title>
<path fill="none" stroke="black" d="M176.083,-149.753C199.41,-136.691 237.661,-115.27 260.966,-102.219"/>
</g>
<!-- v3&#45;&#45;v8 -->
<g id="edge23" class="edge"><title>v3&#45;&#45;v8</title>
<path fill="none" stroke="black" d="M282.84,-287.849C282.465,-247.78 281.536,-148.383 281.161,-108.232"/>
</g>
<!-- v3&#45;&#45;v5 -->
<g id="edge21" class="edge"><title>v3&#45;&#45;v5</title>
<path fill="none" stroke="black" d="M302.161,-292.807C322.35,-279.959 353.952,-259.848 374.059,-247.053"/>
</g>
<!-- v3&#45;&#45;v7 -->
<g id="edge22" class="edge"><title>v3&#45;&#45;v7</title>
<path fill="none" stroke="black" d="M294.821,-289.769C309.037,-271.695 333.882,-240.877 357,-216 369.818,-202.207 385.339,-187.408 396.619,-176.964"/>
</g>
<!-- v3&#45;&#45;v4 -->
<g id="edge20" class="edge"><title>v3&#45;&#45;v4</title>
<path fill="none" stroke="black" d="M267.62,-290.834C254.435,-278.69 235.536,-261.283 222.357,-249.144"/>
</g>
</g>
</svg>
