<?xml version="1.0" encoding="UTF-8" standalone="no"?>
<!DOCTYPE svg PUBLIC "-//W3C//DTD SVG 1.1//EN"
 "http://www.w3.org/Graphics/SVG/1.1/DTD/svg11.dtd">
<!-- Generated by graphviz version 2.38.0 (20140413.2041)
 -->
<!-- Title: G Pages: 1 -->
<svg width="574pt" height="548pt"
 viewBox="0.00 0.00 574.00 548.00" xmlns="http://www.w3.org/2000/svg" xmlns:xlink="http://www.w3.org/1999/xlink">
<g id="graph0" class="graph" transform="scale(1 1) rotate(0) translate(4 544)">
<title>G</title>
<polygon fill="white" stroke="none" points="-4,4 -4,-544 570,-544 570,4 -4,4"/>
<!-- v0 -->
<g id="node1" class="node"><title>v0</title>
<ellipse fill="red" stroke="black" cx="329" cy="-522" rx="27" ry="18"/>
<text text-anchor="middle" x="329" y="-518.3" font-family="Times,serif" font-size="14.00">v0</text>
</g>
<!-- v5 -->
<g id="node2" class="node"><title>v5</title>
<ellipse fill="red" stroke="black" cx="97" cy="-234" rx="27" ry="18"/>
<text text-anchor="middle" x="97" y="-230.3" font-family="Times,serif" font-size="14.00">v5</text>
</g>
<!-- v0&#45;&#45;v5 -->
<g id="edge3" class="edge"><title>v0&#45;&#45;v5</title>
<path fill="none" stroke="black" d="M309.239,-509.725C265.299,-483.495 159.553,-413.729 111,-324 98.7177,-301.302 96.4522,-270.89 96.3935,-252.138"/>
</g>
<!-- v1 -->
<g id="node3" class="node"><title>v1</title>
<ellipse fill="red" stroke="black" cx="376" cy="-450" rx="27" ry="18"/>
<text text-anchor="middle" x="376" y="-446.3" font-family="Times,serif" font-size="14.00">v1</text>
</g>
<!-- v0&#45;&#45;v1 -->
<g id="edge1" class="edge"><title>v0&#45;&#45;v1</title>
<path fill="none" stroke="black" d="M339.665,-505.116C347.357,-493.66 357.695,-478.263 365.377,-466.821"/>
</g>
<!-- v2 -->
<g id="node4" class="node"><title>v2</title>
<ellipse fill="red" stroke="black" cx="245" cy="-378" rx="27" ry="18"/>
<text text-anchor="middle" x="245" y="-374.3" font-family="Times,serif" font-size="14.00">v2</text>
</g>
<!-- v0&#45;&#45;v2 -->
<g id="edge2" class="edge"><title>v0&#45;&#45;v2</title>
<path fill="none" stroke="black" d="M319.527,-504.987C303.395,-477.715 270.764,-422.553 254.567,-395.173"/>
</g>
<!-- v6 -->
<g id="node8" class="node"><title>v6</title>
<ellipse fill="none" stroke="black" cx="372" cy="-162" rx="27" ry="18"/>
<text text-anchor="middle" x="372" y="-158.3" font-family="Times,serif" font-size="14.00">v6</text>
</g>
<!-- v0&#45;&#45;v6 -->
<g id="edge4" class="edge"><title>v0&#45;&#45;v6</title>
<path fill="none" stroke="black" d="M354.608,-515.478C408.355,-502.221 528,-463.248 528,-379 528,-379 528,-379 528,-305 528,-233.951 438.412,-189.038 395.018,-171.45"/>
</g>
<!-- v7 -->
<g id="node9" class="node"><title>v7</title>
<ellipse fill="none" stroke="black" cx="152" cy="-162" rx="27" ry="18"/>
<text text-anchor="middle" x="152" y="-158.3" font-family="Times,serif" font-size="14.00">v7</text>
</g>
<!-- v0&#45;&#45;v7 -->
<g id="edge5" class="edge"><title>v0&#45;&#45;v7</title>
<path fill="none" stroke="black" d="M301.885,-520.214C229.644,-516.54 38,-495.786 38,-379 38,-379 38,-379 38,-305 38,-264.145 36.3353,-248.57 61,-216 77.9979,-193.554 107.476,-178.934 128.268,-170.847"/>
</g>
<!-- v9 -->
<g id="node10" class="node"><title>v9</title>
<ellipse fill="none" stroke="black" cx="266" cy="-18" rx="27" ry="18"/>
<text text-anchor="middle" x="266" y="-14.3" font-family="Times,serif" font-size="14.00">v9</text>
</g>
<!-- v0&#45;&#45;v9 -->
<g id="edge6" class="edge"><title>v0&#45;&#45;v9</title>
<path fill="none" stroke="black" d="M355.269,-517.781C416.975,-508.607 566,-476.371 566,-379 566,-379 566,-379 566,-161 566,-40.8556 367,-22.2218 293.152,-19.4431"/>
</g>
<!-- v8 -->
<g id="node5" class="node"><title>v8</title>
<ellipse fill="red" stroke="black" cx="266" cy="-90" rx="27" ry="18"/>
<text text-anchor="middle" x="266" y="-86.3" font-family="Times,serif" font-size="14.00">v8</text>
</g>
<!-- v5&#45;&#45;v8 -->
<g id="edge29" class="edge"><title>v5&#45;&#45;v8</title>
<path fill="none" stroke="black" d="M95.9822,-215.75C95.7744,-196.04 98.483,-163.942 116,-144 147.624,-107.997 205.281,-96.4508 239.159,-92.748"/>
</g>
<!-- v5&#45;&#45;v6 -->
<g id="edge27" class="edge"><title>v5&#45;&#45;v6</title>
<path fill="none" stroke="black" d="M121.889,-226.665C174.114,-213.371 294.621,-182.697 346.969,-169.372"/>
</g>
<!-- v5&#45;&#45;v7 -->
<g id="edge28" class="edge"><title>v5&#45;&#45;v7</title>
<path fill="none" stroke="black" d="M108.934,-217.811C118.16,-206.07 130.87,-189.893 140.089,-178.159"/>
</g>
<!-- v5&#45;&#45;v9 -->
<g id="edge30" class="edge"><title>v5&#45;&#45;v9</title>
<path fill="none" stroke="black" d="M92.4224,-216.221C88.2783,-197.515 84.42,-166.888 96,-144 127.092,-82.5464 204.2,-43.9395 242.969,-27.7655"/>
</g>
<!-- v1&#45;&#45;v2 -->
<g id="edge7" class="edge"><title>v1&#45;&#45;v2</title>
<path fill="none" stroke="black" d="M355.531,-438.062C330.921,-424.912 289.871,-402.977 265.325,-389.861"/>
</g>
<!-- v1&#45;&#45;v8 -->
<g id="edge11" class="edge"><title>v1&#45;&#45;v8</title>
<path fill="none" stroke="black" d="M390.295,-434.228C412.31,-409.85 452,-358.729 452,-307 452,-307 452,-307 452,-233 452,-188.874 440.75,-173.572 408,-144 374.798,-114.021 323.074,-100.486 292.068,-94.7753"/>
</g>
<!-- v4 -->
<g id="node6" class="node"><title>v4</title>
<ellipse fill="red" stroke="black" cx="321" cy="-234" rx="27" ry="18"/>
<text text-anchor="middle" x="321" y="-230.3" font-family="Times,serif" font-size="14.00">v4</text>
</g>
<!-- v1&#45;&#45;v4 -->
<g id="edge9" class="edge"><title>v1&#45;&#45;v4</title>
<path fill="none" stroke="black" d="M371.684,-432.208C361.428,-392.302 335.684,-292.134 325.372,-252.01"/>
</g>
<!-- v3 -->
<g id="node7" class="node"><title>v3</title>
<ellipse fill="red" stroke="black" cx="245" cy="-306" rx="27" ry="18"/>
<text text-anchor="middle" x="245" y="-302.3" font-family="Times,serif" font-size="14.00">v3</text>
</g>
<!-- v1&#45;&#45;v3 -->
<g id="edge8" class="edge"><title>v1&#45;&#45;v3</title>
<path fill="none" stroke="black" d="M362.474,-434.338C337.371,-407.128 283.844,-349.105 258.649,-321.795"/>
</g>
<!-- v1&#45;&#45;v6 -->
<g id="edge10" class="edge"><title>v1&#45;&#45;v6</title>
<path fill="none" stroke="black" d="M376.444,-431.746C377.341,-393.098 379.039,-296.643 376,-216 375.548,-204.013 374.524,-190.533 373.625,-180.167"/>
</g>
<!-- v1&#45;&#45;v9 -->
<g id="edge12" class="edge"><title>v1&#45;&#45;v9</title>
<path fill="none" stroke="black" d="M395.339,-437.19C427.863,-415.674 490,-366.751 490,-307 490,-307 490,-307 490,-161 490,-68.2201 351.223,-33.5212 292.134,-22.9521"/>
</g>
<!-- v2&#45;&#45;v5 -->
<g id="edge15" class="edge"><title>v2&#45;&#45;v5</title>
<path fill="none" stroke="black" d="M220.452,-370.118C196.688,-362.355 160.976,-347.634 138,-324 118.078,-303.508 106.646,-271.582 101.141,-252.055"/>
</g>
<!-- v2&#45;&#45;v8 -->
<g id="edge18" class="edge"><title>v2&#45;&#45;v8</title>
<path fill="none" stroke="black" d="M231.25,-362.069C223.039,-352.1 213.381,-338.247 209,-324 204.297,-308.707 206.754,-303.842 209,-288 218.745,-219.259 246.716,-140.938 259.493,-107.516"/>
</g>
<!-- v2&#45;&#45;v4 -->
<g id="edge14" class="edge"><title>v2&#45;&#45;v4</title>
<path fill="none" stroke="black" d="M256.451,-361.686C263.922,-351.339 273.621,-337.206 281,-324 294.634,-299.599 307.309,-269.68 314.598,-251.493"/>
</g>
<!-- v2&#45;&#45;v3 -->
<g id="edge13" class="edge"><title>v2&#45;&#45;v3</title>
<path fill="none" stroke="black" d="M245,-359.697C245,-348.846 245,-334.917 245,-324.104"/>
</g>
<!-- v2&#45;&#45;v6 -->
<g id="edge16" class="edge"><title>v2&#45;&#45;v6</title>
<path fill="none" stroke="black" d="M262.424,-363.921C288.305,-343.355 336.093,-300.737 357,-252 367.131,-228.384 370.438,-198.5 371.506,-180.071"/>
</g>
<!-- v2&#45;&#45;v7 -->
<g id="edge17" class="edge"><title>v2&#45;&#45;v7</title>
<path fill="none" stroke="black" d="M223.925,-366.581C208.055,-357.573 187.185,-343.007 176,-324 148.768,-277.723 148.738,-211.453 150.533,-180.358"/>
</g>
<!-- v2&#45;&#45;v9 -->
<g id="edge19" class="edge"><title>v2&#45;&#45;v9</title>
<path fill="none" stroke="black" d="M218.314,-374.156C154.816,-365.764 0,-335.046 0,-235 0,-235 0,-235 0,-161 0,-53.4231 171.406,-27.0552 239.031,-20.8385"/>
</g>
<!-- v8&#45;&#45;v9 -->
<g id="edge33" class="edge"><title>v8&#45;&#45;v9</title>
<path fill="none" stroke="black" d="M266,-71.6966C266,-60.8463 266,-46.9167 266,-36.1043"/>
</g>
<!-- v4&#45;&#45;v8 -->
<g id="edge26" class="edge"><title>v4&#45;&#45;v8</title>
<path fill="none" stroke="black" d="M314.583,-216.433C304.042,-189.217 283.172,-135.334 272.546,-107.902"/>
</g>
<!-- v4&#45;&#45;v6 -->
<g id="edge24" class="edge"><title>v4&#45;&#45;v6</title>
<path fill="none" stroke="black" d="M332.319,-217.465C340.77,-205.865 352.269,-190.082 360.713,-178.492"/>
</g>
<!-- v4&#45;&#45;v7 -->
<g id="edge25" class="edge"><title>v4&#45;&#45;v7</title>
<path fill="none" stroke="black" d="M298.558,-223.705C266.145,-210.279 206.58,-185.607 174.266,-172.222"/>
</g>
<!-- v3&#45;&#45;v5 -->
<g id="edge21" class="edge"><title>v3&#45;&#45;v5</title>
<path fill="none" stroke="black" d="M223.48,-294.821C195.42,-281.55 146.619,-258.468 118.546,-245.191"/>
</g>
<!-- v3&#45;&#45;v8 -->
<g id="edge23" class="edge"><title>v3&#45;&#45;v8</title>
<path fill="none" stroke="black" d="M246.683,-287.849C250.615,-247.78 260.369,-148.383 264.309,-108.232"/>
</g>
<!-- v3&#45;&#45;v4 -->
<g id="edge20" class="edge"><title>v3&#45;&#45;v4</title>
<path fill="none" stroke="black" d="M260.38,-290.834C273.565,-278.69 292.464,-261.283 305.643,-249.144"/>
</g>
<!-- v3&#45;&#45;v7 -->
<g id="edge22" class="edge"><title>v3&#45;&#45;v7</title>
<path fill="none" stroke="black" d="M234.692,-289.261C216.816,-261.966 180.263,-206.154 162.354,-178.81"/>
</g>
<!-- v6&#45;&#45;v8 -->
<g id="edge31" class="edge"><title>v6&#45;&#45;v8</title>
<path fill="none" stroke="black" d="M353.536,-148.807C334.199,-136.037 303.999,-116.093 284.608,-103.288"/>
</g>
<!-- v7&#45;&#45;v8 -->
<g id="edge32" class="edge"><title>v7&#45;&#45;v8</title>
<path fill="none" stroke="black" d="M171.339,-149.125C192.302,-136.253 225.566,-115.828 246.567,-102.933"/>
</g>
</g>
</svg>
