<?xml version="1.0" encoding="UTF-8" standalone="no"?>
<!DOCTYPE svg PUBLIC "-//W3C//DTD SVG 1.1//EN"
 "http://www.w3.org/Graphics/SVG/1.1/DTD/svg11.dtd">
<!-- Generated by graphviz version 2.38.0 (20140413.2041)
 -->
<!-- Title: G Pages: 1 -->
<svg width="608pt" height="548pt"
 viewBox="0.00 0.00 608.00 548.00" xmlns="http://www.w3.org/2000/svg" xmlns:xlink="http://www.w3.org/1999/xlink">
<g id="graph0" class="graph" transform="scale(1 1) rotate(0) translate(4 544)">
<title>G</title>
<polygon fill="white" stroke="none" points="-4,4 -4,-544 604,-544 604,4 -4,4"/>
<!-- v3 -->
<g id="node1" class="node"><title>v3</title>
<ellipse fill="red" stroke="black" cx="279" cy="-306" rx="27" ry="18"/>
<text text-anchor="middle" x="279" y="-302.3" font-family="Times,serif" font-size="14.00">v3</text>
</g>
<!-- v5 -->
<g id="node5" class="node"><title>v5</title>
<ellipse fill="red" stroke="black" cx="169" cy="-234" rx="27" ry="18"/>
<text text-anchor="middle" x="169" y="-230.3" font-family="Times,serif" font-size="14.00">v5</text>
</g>
<!-- v3&#45;&#45;v5 -->
<g id="edge21" class="edge"><title>v3&#45;&#45;v5</title>
<path fill="none" stroke="black" d="M259.839,-292.807C239.65,-279.959 208.048,-259.848 187.941,-247.053"/>
</g>
<!-- v4 -->
<g id="node6" class="node"><title>v4</title>
<ellipse fill="red" stroke="black" cx="355" cy="-234" rx="27" ry="18"/>
<text text-anchor="middle" x="355" y="-230.3" font-family="Times,serif" font-size="14.00">v4</text>
</g>
<!-- v3&#45;&#45;v4 -->
<g id="edge20" class="edge"><title>v3&#45;&#45;v4</title>
<path fill="none" stroke="black" d="M294.38,-290.834C307.565,-278.69 326.464,-261.283 339.643,-249.144"/>
</g>
<!-- v8 -->
<g id="node7" class="node"><title>v8</title>
<ellipse fill="red" stroke="black" cx="300" cy="-90" rx="27" ry="18"/>
<text text-anchor="middle" x="300" y="-86.3" font-family="Times,serif" font-size="14.00">v8</text>
</g>
<!-- v3&#45;&#45;v8 -->
<g id="edge23" class="edge"><title>v3&#45;&#45;v8</title>
<path fill="none" stroke="black" d="M280.683,-287.849C284.615,-247.78 294.369,-148.383 298.309,-108.232"/>
</g>
<!-- v7 -->
<g id="node9" class="node"><title>v7</title>
<ellipse fill="none" stroke="black" cx="245" cy="-162" rx="27" ry="18"/>
<text text-anchor="middle" x="245" y="-158.3" font-family="Times,serif" font-size="14.00">v7</text>
</g>
<!-- v3&#45;&#45;v7 -->
<g id="edge22" class="edge"><title>v3&#45;&#45;v7</title>
<path fill="none" stroke="black" d="M274.966,-288.153C268.423,-260.824 255.569,-207.14 249.029,-179.825"/>
</g>
<!-- v0 -->
<g id="node2" class="node"><title>v0</title>
<ellipse fill="red" stroke="black" cx="335" cy="-522" rx="27" ry="18"/>
<text text-anchor="middle" x="335" y="-518.3" font-family="Times,serif" font-size="14.00">v0</text>
</g>
<!-- v2 -->
<g id="node3" class="node"><title>v2</title>
<ellipse fill="red" stroke="black" cx="279" cy="-378" rx="27" ry="18"/>
<text text-anchor="middle" x="279" y="-374.3" font-family="Times,serif" font-size="14.00">v2</text>
</g>
<!-- v0&#45;&#45;v2 -->
<g id="edge2" class="edge"><title>v0&#45;&#45;v2</title>
<path fill="none" stroke="black" d="M328.466,-504.433C317.734,-477.217 296.484,-423.334 285.665,-395.902"/>
</g>
<!-- v1 -->
<g id="node4" class="node"><title>v1</title>
<ellipse fill="red" stroke="black" cx="372" cy="-450" rx="27" ry="18"/>
<text text-anchor="middle" x="372" y="-446.3" font-family="Times,serif" font-size="14.00">v1</text>
</g>
<!-- v0&#45;&#45;v1 -->
<g id="edge1" class="edge"><title>v0&#45;&#45;v1</title>
<path fill="none" stroke="black" d="M343.582,-504.765C349.559,-493.456 357.498,-478.437 363.465,-467.147"/>
</g>
<!-- v0&#45;&#45;v5 -->
<g id="edge3" class="edge"><title>v0&#45;&#45;v5</title>
<path fill="none" stroke="black" d="M320.203,-506.784C289.541,-476.391 219.092,-401.52 185,-324 174.635,-300.432 170.984,-270.535 169.698,-252.09"/>
</g>
<!-- v6 -->
<g id="node8" class="node"><title>v6</title>
<ellipse fill="none" stroke="black" cx="402" cy="-162" rx="27" ry="18"/>
<text text-anchor="middle" x="402" y="-158.3" font-family="Times,serif" font-size="14.00">v6</text>
</g>
<!-- v0&#45;&#45;v6 -->
<g id="edge4" class="edge"><title>v0&#45;&#45;v6</title>
<path fill="none" stroke="black" d="M357.934,-512.052C400.175,-493.893 486,-448.453 486,-379 486,-379 486,-379 486,-305 486,-251.724 441.657,-200.904 417.407,-177.095"/>
</g>
<!-- v0&#45;&#45;v7 -->
<g id="edge5" class="edge"><title>v0&#45;&#45;v7</title>
<path fill="none" stroke="black" d="M307.869,-521.733C228.117,-522.348 0,-512.444 0,-379 0,-379 0,-379 0,-305 0,-204.954 154.816,-174.236 218.314,-165.844"/>
</g>
<!-- v9 -->
<g id="node10" class="node"><title>v9</title>
<ellipse fill="none" stroke="black" cx="300" cy="-18" rx="27" ry="18"/>
<text text-anchor="middle" x="300" y="-14.3" font-family="Times,serif" font-size="14.00">v9</text>
</g>
<!-- v0&#45;&#45;v9 -->
<g id="edge6" class="edge"><title>v0&#45;&#45;v9</title>
<path fill="none" stroke="black" d="M361.868,-519.125C429.239,-512.821 600,-486.262 600,-379 600,-379 600,-379 600,-161 600,-40.8556 401,-22.2218 327.152,-19.4431"/>
</g>
<!-- v2&#45;&#45;v3 -->
<g id="edge13" class="edge"><title>v2&#45;&#45;v3</title>
<path fill="none" stroke="black" d="M279,-359.697C279,-348.846 279,-334.917 279,-324.104"/>
</g>
<!-- v2&#45;&#45;v5 -->
<g id="edge15" class="edge"><title>v2&#45;&#45;v5</title>
<path fill="none" stroke="black" d="M259.351,-365.599C244.267,-356.05 223.76,-341.235 210,-324 192.274,-301.798 180.227,-270.688 173.994,-251.741"/>
</g>
<!-- v2&#45;&#45;v4 -->
<g id="edge14" class="edge"><title>v2&#45;&#45;v4</title>
<path fill="none" stroke="black" d="M290.451,-361.686C297.922,-351.339 307.621,-337.206 315,-324 328.634,-299.599 341.309,-269.68 348.598,-251.493"/>
</g>
<!-- v2&#45;&#45;v8 -->
<g id="edge18" class="edge"><title>v2&#45;&#45;v8</title>
<path fill="none" stroke="black" d="M256.369,-367.62C236.159,-358.5 206.512,-343.226 185,-324 145.279,-288.499 117.319,-266.914 133,-216 144.394,-179.007 152.337,-168.868 182,-144 209.88,-120.627 249.728,-105.611 275.232,-97.7357"/>
</g>
<!-- v2&#45;&#45;v6 -->
<g id="edge16" class="edge"><title>v2&#45;&#45;v6</title>
<path fill="none" stroke="black" d="M296.694,-364.034C322.928,-343.614 371.17,-301.185 391,-252 400.547,-228.319 402.377,-198.454 402.458,-180.046"/>
</g>
<!-- v2&#45;&#45;v7 -->
<g id="edge17" class="edge"><title>v2&#45;&#45;v7</title>
<path fill="none" stroke="black" d="M265.25,-362.069C257.039,-352.1 247.381,-338.247 243,-324 227.471,-273.501 235.962,-209.813 241.47,-179.935"/>
</g>
<!-- v2&#45;&#45;v9 -->
<g id="edge19" class="edge"><title>v2&#45;&#45;v9</title>
<path fill="none" stroke="black" d="M253.29,-371.745C198.665,-358.919 76,-320.589 76,-235 76,-235 76,-235 76,-161 76,-68.2201 214.777,-33.5212 273.866,-22.9521"/>
</g>
<!-- v1&#45;&#45;v3 -->
<g id="edge8" class="edge"><title>v1&#45;&#45;v3</title>
<path fill="none" stroke="black" d="M362.037,-433.162C350.76,-415.299 331.772,-385.425 315,-360 306.67,-347.372 297.03,-333.204 289.824,-322.695"/>
</g>
<!-- v1&#45;&#45;v2 -->
<g id="edge7" class="edge"><title>v1&#45;&#45;v2</title>
<path fill="none" stroke="black" d="M354.507,-435.834C337.88,-423.319 313.015,-404.603 296.414,-392.107"/>
</g>
<!-- v1&#45;&#45;v4 -->
<g id="edge9" class="edge"><title>v1&#45;&#45;v4</title>
<path fill="none" stroke="black" d="M370.638,-431.849C367.454,-391.78 359.558,-292.383 356.369,-252.232"/>
</g>
<!-- v1&#45;&#45;v8 -->
<g id="edge11" class="edge"><title>v1&#45;&#45;v8</title>
<path fill="none" stroke="black" d="M394.756,-440.236C437.159,-422.248 524,-376.878 524,-307 524,-307 524,-307 524,-233 524,-140.22 385.223,-105.521 326.134,-94.9521"/>
</g>
<!-- v1&#45;&#45;v6 -->
<g id="edge10" class="edge"><title>v1&#45;&#45;v6</title>
<path fill="none" stroke="black" d="M377.308,-432.164C388.768,-393.973 414.375,-297.74 409,-216 408.208,-203.96 406.416,-190.481 404.843,-180.129"/>
</g>
<!-- v1&#45;&#45;v9 -->
<g id="edge12" class="edge"><title>v1&#45;&#45;v9</title>
<path fill="none" stroke="black" d="M397.231,-442.885C448.914,-428.688 562,-388.332 562,-307 562,-307 562,-307 562,-161 562,-54.9386 393.992,-27.6836 327.052,-21.0335"/>
</g>
<!-- v5&#45;&#45;v8 -->
<g id="edge29" class="edge"><title>v5&#45;&#45;v8</title>
<path fill="none" stroke="black" d="M173.181,-216.179C178.683,-196.871 189.96,-165.152 209,-144 227.714,-123.21 256.564,-108.339 276.749,-99.7383"/>
</g>
<!-- v5&#45;&#45;v6 -->
<g id="edge27" class="edge"><title>v5&#45;&#45;v6</title>
<path fill="none" stroke="black" d="M193.058,-225.772C237.706,-212.359 332.912,-183.756 377.724,-170.293"/>
</g>
<!-- v5&#45;&#45;v7 -->
<g id="edge28" class="edge"><title>v5&#45;&#45;v7</title>
<path fill="none" stroke="black" d="M184.38,-218.834C197.565,-206.69 216.464,-189.283 229.643,-177.144"/>
</g>
<!-- v5&#45;&#45;v9 -->
<g id="edge30" class="edge"><title>v5&#45;&#45;v9</title>
<path fill="none" stroke="black" d="M168.507,-215.709C168.645,-197.093 170.842,-167.051 182,-144 205.795,-94.8429 255.869,-52.0899 282.492,-31.7045"/>
</g>
<!-- v4&#45;&#45;v8 -->
<g id="edge26" class="edge"><title>v4&#45;&#45;v8</title>
<path fill="none" stroke="black" d="M348.583,-216.433C338.042,-189.217 317.172,-135.334 306.546,-107.902"/>
</g>
<!-- v4&#45;&#45;v6 -->
<g id="edge24" class="edge"><title>v4&#45;&#45;v6</title>
<path fill="none" stroke="black" d="M365.665,-217.116C373.357,-205.66 383.695,-190.263 391.377,-178.821"/>
</g>
<!-- v4&#45;&#45;v7 -->
<g id="edge25" class="edge"><title>v4&#45;&#45;v7</title>
<path fill="none" stroke="black" d="M335.839,-220.807C315.65,-207.959 284.048,-187.848 263.941,-175.053"/>
</g>
<!-- v8&#45;&#45;v9 -->
<g id="edge33" class="edge"><title>v8&#45;&#45;v9</title>
<path fill="none" stroke="black" d="M300,-71.6966C300,-60.8463 300,-46.9167 300,-36.1043"/>
</g>
<!-- v6&#45;&#45;v8 -->
<g id="edge31" class="edge"><title>v6&#45;&#45;v8</title>
<path fill="none" stroke="black" d="M383.764,-148.485C365.198,-135.744 336.586,-116.108 318.078,-103.406"/>
</g>
<!-- v7&#45;&#45;v8 -->
<g id="edge32" class="edge"><title>v7&#45;&#45;v8</title>
<path fill="none" stroke="black" d="M256.934,-145.811C266.16,-134.07 278.87,-117.893 288.089,-106.159"/>
</g>
</g>
</svg>
