<?xml version="1.0" encoding="UTF-8" standalone="no"?>
<!DOCTYPE svg PUBLIC "-//W3C//DTD SVG 1.1//EN"
 "http://www.w3.org/Graphics/SVG/1.1/DTD/svg11.dtd">
<!-- Generated by graphviz version 2.38.0 (20140413.2041)
 -->
<!-- Title: G Pages: 1 -->
<svg width="593pt" height="548pt"
 viewBox="0.00 0.00 593.00 548.00" xmlns="http://www.w3.org/2000/svg" xmlns:xlink="http://www.w3.org/1999/xlink">
<g id="graph0" class="graph" transform="scale(1 1) rotate(0) translate(4 544)">
<title>G</title>
<polygon fill="white" stroke="none" points="-4,4 -4,-544 589,-544 589,4 -4,4"/>
<!-- v8 -->
<g id="node1" class="node"><title>v8</title>
<ellipse fill="red" stroke="black" cx="255" cy="-90" rx="27" ry="18"/>
<text text-anchor="middle" x="255" y="-86.3" font-family="Times,serif" font-size="14.00">v8</text>
</g>
<!-- v9 -->
<g id="node9" class="node"><title>v9</title>
<ellipse fill="none" stroke="black" cx="321" cy="-18" rx="27" ry="18"/>
<text text-anchor="middle" x="321" y="-14.3" font-family="Times,serif" font-size="14.00">v9</text>
</g>
<!-- v8&#45;&#45;v9 -->
<g id="edge33" class="edge"><title>v8&#45;&#45;v9</title>
<path fill="none" stroke="black" d="M268.997,-74.1548C280.197,-62.2756 295.828,-45.6974 307.023,-33.8238"/>
</g>
<!-- v7 -->
<g id="node2" class="node"><title>v7</title>
<ellipse fill="red" stroke="black" cx="190" cy="-162" rx="27" ry="18"/>
<text text-anchor="middle" x="190" y="-158.3" font-family="Times,serif" font-size="14.00">v7</text>
</g>
<!-- v7&#45;&#45;v8 -->
<g id="edge32" class="edge"><title>v7&#45;&#45;v8</title>
<path fill="none" stroke="black" d="M203.785,-146.155C214.816,-134.276 230.21,-117.697 241.235,-105.824"/>
</g>
<!-- v0 -->
<g id="node3" class="node"><title>v0</title>
<ellipse fill="red" stroke="black" cx="367" cy="-522" rx="27" ry="18"/>
<text text-anchor="middle" x="367" y="-518.3" font-family="Times,serif" font-size="14.00">v0</text>
</g>
<!-- v0&#45;&#45;v7 -->
<g id="edge5" class="edge"><title>v0&#45;&#45;v7</title>
<path fill="none" stroke="black" d="M340.9,-516.741C257.056,-502.332 0,-452.186 0,-379 0,-379 0,-379 0,-305 0,-223.668 113.086,-183.312 164.769,-169.115"/>
</g>
<!-- v1 -->
<g id="node4" class="node"><title>v1</title>
<ellipse fill="red" stroke="black" cx="340" cy="-450" rx="27" ry="18"/>
<text text-anchor="middle" x="340" y="-446.3" font-family="Times,serif" font-size="14.00">v1</text>
</g>
<!-- v0&#45;&#45;v1 -->
<g id="edge1" class="edge"><title>v0&#45;&#45;v1</title>
<path fill="none" stroke="black" d="M360.601,-504.411C356.36,-493.414 350.811,-479.027 346.54,-467.956"/>
</g>
<!-- v2 -->
<g id="node6" class="node"><title>v2</title>
<ellipse fill="red" stroke="black" cx="226" cy="-378" rx="27" ry="18"/>
<text text-anchor="middle" x="226" y="-374.3" font-family="Times,serif" font-size="14.00">v2</text>
</g>
<!-- v0&#45;&#45;v2 -->
<g id="edge2" class="edge"><title>v0&#45;&#45;v2</title>
<path fill="none" stroke="black" d="M350.087,-507.93C337.048,-497.583 318.802,-482.506 304,-468 279.201,-443.697 253.151,-412.695 238.31,-394.43"/>
</g>
<!-- v5 -->
<g id="node7" class="node"><title>v5</title>
<ellipse fill="red" stroke="black" cx="317" cy="-234" rx="27" ry="18"/>
<text text-anchor="middle" x="317" y="-230.3" font-family="Times,serif" font-size="14.00">v5</text>
</g>
<!-- v0&#45;&#45;v5 -->
<g id="edge3" class="edge"><title>v0&#45;&#45;v5</title>
<path fill="none" stroke="black" d="M371.153,-504.214C375.018,-486.28 379.67,-457.047 376,-432 365.906,-363.116 336.957,-284.87 323.734,-251.492"/>
</g>
<!-- v6 -->
<g id="node8" class="node"><title>v6</title>
<ellipse fill="none" stroke="black" cx="376" cy="-162" rx="27" ry="18"/>
<text text-anchor="middle" x="376" y="-158.3" font-family="Times,serif" font-size="14.00">v6</text>
</g>
<!-- v0&#45;&#45;v6 -->
<g id="edge4" class="edge"><title>v0&#45;&#45;v6</title>
<path fill="none" stroke="black" d="M385.115,-508.426C414.912,-486.101 471,-436.448 471,-379 471,-379 471,-379 471,-305 471,-249.534 420.309,-199.331 392.984,-176.298"/>
</g>
<!-- v0&#45;&#45;v9 -->
<g id="edge6" class="edge"><title>v0&#45;&#45;v9</title>
<path fill="none" stroke="black" d="M392.864,-516.725C450.609,-505.549 585,-469.788 585,-379 585,-379 585,-379 585,-161 585,-54.052 414.883,-27.3034 347.767,-20.9119"/>
</g>
<!-- v1&#45;&#45;v8 -->
<g id="edge11" class="edge"><title>v1&#45;&#45;v8</title>
<path fill="none" stroke="black" d="M363.855,-441.509C410.44,-425.225 509,-381.92 509,-307 509,-307 509,-307 509,-233 509,-129.686 346.916,-100.818 281.702,-93.3846"/>
</g>
<!-- v4 -->
<g id="node5" class="node"><title>v4</title>
<ellipse fill="red" stroke="black" cx="245" cy="-234" rx="27" ry="18"/>
<text text-anchor="middle" x="245" y="-230.3" font-family="Times,serif" font-size="14.00">v4</text>
</g>
<!-- v1&#45;&#45;v4 -->
<g id="edge9" class="edge"><title>v1&#45;&#45;v4</title>
<path fill="none" stroke="black" d="M332.703,-432.563C315.02,-392.729 270.031,-291.385 252.322,-251.493"/>
</g>
<!-- v1&#45;&#45;v2 -->
<g id="edge7" class="edge"><title>v1&#45;&#45;v2</title>
<path fill="none" stroke="black" d="M320.661,-437.125C299.698,-424.253 266.434,-403.828 245.433,-390.933"/>
</g>
<!-- v1&#45;&#45;v6 -->
<g id="edge10" class="edge"><title>v1&#45;&#45;v6</title>
<path fill="none" stroke="black" d="M343.635,-431.974C350.721,-397.963 366.278,-319.113 373,-252 375.496,-227.079 376.035,-198.059 376.093,-180.107"/>
</g>
<!-- v1&#45;&#45;v9 -->
<g id="edge12" class="edge"><title>v1&#45;&#45;v9</title>
<path fill="none" stroke="black" d="M365.798,-444.008C421.288,-431.614 547,-393.943 547,-307 547,-307 547,-307 547,-161 547,-67.6285 406.984,-33.2693 347.367,-22.8716"/>
</g>
<!-- v3 -->
<g id="node10" class="node"><title>v3</title>
<ellipse fill="none" stroke="black" cx="226" cy="-306" rx="27" ry="18"/>
<text text-anchor="middle" x="226" y="-302.3" font-family="Times,serif" font-size="14.00">v3</text>
</g>
<!-- v1&#45;&#45;v3 -->
<g id="edge8" class="edge"><title>v1&#45;&#45;v3</title>
<path fill="none" stroke="black" d="M327.8,-433.804C305.858,-406.473 259.99,-349.339 238.112,-322.087"/>
</g>
<!-- v4&#45;&#45;v8 -->
<g id="edge26" class="edge"><title>v4&#45;&#45;v8</title>
<path fill="none" stroke="black" d="M246.206,-215.871C248.128,-188.578 251.865,-135.52 253.789,-108.189"/>
</g>
<!-- v4&#45;&#45;v7 -->
<g id="edge25" class="edge"><title>v4&#45;&#45;v7</title>
<path fill="none" stroke="black" d="M233.066,-217.811C223.84,-206.07 211.13,-189.893 201.911,-178.159"/>
</g>
<!-- v4&#45;&#45;v6 -->
<g id="edge24" class="edge"><title>v4&#45;&#45;v6</title>
<path fill="none" stroke="black" d="M265.469,-222.062C290.079,-208.912 331.129,-186.977 355.675,-173.861"/>
</g>
<!-- v2&#45;&#45;v8 -->
<g id="edge18" class="edge"><title>v2&#45;&#45;v8</title>
<path fill="none" stroke="black" d="M208.407,-364.284C196.191,-354.564 180.468,-340.123 171,-324 129.969,-254.125 98.538,-212.39 142,-144 160.944,-114.19 201.576,-100.855 228.597,-95.0995"/>
</g>
<!-- v2&#45;&#45;v7 -->
<g id="edge17" class="edge"><title>v2&#45;&#45;v7</title>
<path fill="none" stroke="black" d="M209.7,-363.065C199.595,-353.3 187.523,-339.298 182,-324 164.04,-274.249 176.96,-210.204 184.952,-180.088"/>
</g>
<!-- v2&#45;&#45;v4 -->
<g id="edge14" class="edge"><title>v2&#45;&#45;v4</title>
<path fill="none" stroke="black" d="M212.25,-362.069C204.039,-352.1 194.381,-338.247 190,-324 185.297,-308.707 183.74,-302.725 190,-288 197.315,-270.793 213.257,-256.462 226.103,-247.06"/>
</g>
<!-- v2&#45;&#45;v5 -->
<g id="edge15" class="edge"><title>v2&#45;&#45;v5</title>
<path fill="none" stroke="black" d="M236.891,-361.349C244.126,-350.859 253.772,-336.694 262,-324 278.4,-298.698 296.657,-268.788 307.467,-250.884"/>
</g>
<!-- v2&#45;&#45;v6 -->
<g id="edge16" class="edge"><title>v2&#45;&#45;v6</title>
<path fill="none" stroke="black" d="M244.501,-364.441C272.696,-344.25 325.986,-301.754 353,-252 365.565,-228.859 371.487,-198.576 374.11,-179.97"/>
</g>
<!-- v2&#45;&#45;v9 -->
<g id="edge19" class="edge"><title>v2&#45;&#45;v9</title>
<path fill="none" stroke="black" d="M201.035,-370.799C149.895,-356.437 38,-315.783 38,-235 38,-235 38,-235 38,-161 38,-47.0746 223.479,-24.543 294.121,-20.093"/>
</g>
<!-- v2&#45;&#45;v3 -->
<g id="edge13" class="edge"><title>v2&#45;&#45;v3</title>
<path fill="none" stroke="black" d="M226,-359.697C226,-348.846 226,-334.917 226,-324.104"/>
</g>
<!-- v5&#45;&#45;v8 -->
<g id="edge29" class="edge"><title>v5&#45;&#45;v8</title>
<path fill="none" stroke="black" d="M309.766,-216.433C297.82,-189.071 274.104,-134.754 262.187,-107.462"/>
</g>
<!-- v5&#45;&#45;v7 -->
<g id="edge28" class="edge"><title>v5&#45;&#45;v7</title>
<path fill="none" stroke="black" d="M296.876,-221.908C273.236,-208.878 234.231,-187.379 210.45,-174.272"/>
</g>
<!-- v5&#45;&#45;v6 -->
<g id="edge27" class="edge"><title>v5&#45;&#45;v6</title>
<path fill="none" stroke="black" d="M329.802,-217.811C339.698,-206.07 353.333,-189.893 363.223,-178.159"/>
</g>
<!-- v5&#45;&#45;v9 -->
<g id="edge30" class="edge"><title>v5&#45;&#45;v9</title>
<path fill="none" stroke="black" d="M317.321,-215.849C318.07,-175.78 319.927,-76.3826 320.678,-36.2325"/>
</g>
<!-- v6&#45;&#45;v8 -->
<g id="edge31" class="edge"><title>v6&#45;&#45;v8</title>
<path fill="none" stroke="black" d="M356.29,-149.597C333.789,-136.581 297.199,-115.413 274.702,-102.398"/>
</g>
<!-- v3&#45;&#45;v8 -->
<g id="edge23" class="edge"><title>v3&#45;&#45;v8</title>
<path fill="none" stroke="black" d="M210.872,-291.077C181.651,-262.449 122.951,-195.357 154,-144 170.29,-117.056 205.306,-103.136 229.503,-96.4561"/>
</g>
<!-- v3&#45;&#45;v7 -->
<g id="edge22" class="edge"><title>v3&#45;&#45;v7</title>
<path fill="none" stroke="black" d="M220.209,-288.417C216.701,-278.031 212.284,-264.325 209,-252 202.411,-227.267 196.553,-198.197 193.139,-180.183"/>
</g>
<!-- v3&#45;&#45;v4 -->
<g id="edge20" class="edge"><title>v3&#45;&#45;v4</title>
<path fill="none" stroke="black" d="M230.599,-288.055C233.587,-277.049 237.464,-262.764 240.443,-251.789"/>
</g>
<!-- v3&#45;&#45;v5 -->
<g id="edge21" class="edge"><title>v3&#45;&#45;v5</title>
<path fill="none" stroke="black" d="M243.116,-291.834C259.386,-279.319 283.716,-260.603 299.96,-248.107"/>
</g>
</g>
</svg>
