<?xml version="1.0" encoding="UTF-8" standalone="no"?>
<!DOCTYPE svg PUBLIC "-//W3C//DTD SVG 1.1//EN"
 "http://www.w3.org/Graphics/SVG/1.1/DTD/svg11.dtd">
<!-- Generated by graphviz version 2.38.0 (20140413.2041)
 -->
<!-- Title: G Pages: 1 -->
<svg width="574pt" height="548pt"
 viewBox="0.00 0.00 574.00 548.00" xmlns="http://www.w3.org/2000/svg" xmlns:xlink="http://www.w3.org/1999/xlink">
<g id="graph0" class="graph" transform="scale(1 1) rotate(0) translate(4 544)">
<title>G</title>
<polygon fill="white" stroke="none" points="-4,4 -4,-544 570,-544 570,4 -4,4"/>
<!-- v5 -->
<g id="node1" class="node"><title>v5</title>
<ellipse fill="red" stroke="black" cx="209" cy="-234" rx="27" ry="18"/>
<text text-anchor="middle" x="209" y="-230.3" font-family="Times,serif" font-size="14.00">v5</text>
</g>
<!-- v8 -->
<g id="node6" class="node"><title>v8</title>
<ellipse fill="red" stroke="black" cx="302" cy="-90" rx="27" ry="18"/>
<text text-anchor="middle" x="302" y="-86.3" font-family="Times,serif" font-size="14.00">v8</text>
</g>
<!-- v5&#45;&#45;v8 -->
<g id="edge29" class="edge"><title>v5&#45;&#45;v8</title>
<path fill="none" stroke="black" d="M218.963,-217.162C230.24,-199.299 249.228,-169.425 266,-144 274.33,-131.372 283.97,-117.204 291.176,-106.695"/>
</g>
<!-- v6 -->
<g id="node8" class="node"><title>v6</title>
<ellipse fill="none" stroke="black" cx="154" cy="-162" rx="27" ry="18"/>
<text text-anchor="middle" x="154" y="-158.3" font-family="Times,serif" font-size="14.00">v6</text>
</g>
<!-- v5&#45;&#45;v6 -->
<g id="edge27" class="edge"><title>v5&#45;&#45;v6</title>
<path fill="none" stroke="black" d="M197.066,-217.811C187.84,-206.07 175.13,-189.893 165.911,-178.159"/>
</g>
<!-- v7 -->
<g id="node9" class="node"><title>v7</title>
<ellipse fill="none" stroke="black" cx="302" cy="-162" rx="27" ry="18"/>
<text text-anchor="middle" x="302" y="-158.3" font-family="Times,serif" font-size="14.00">v7</text>
</g>
<!-- v5&#45;&#45;v7 -->
<g id="edge28" class="edge"><title>v5&#45;&#45;v7</title>
<path fill="none" stroke="black" d="M226.493,-219.834C243.12,-207.319 267.985,-188.603 284.586,-176.107"/>
</g>
<!-- v9 -->
<g id="node10" class="node"><title>v9</title>
<ellipse fill="none" stroke="black" cx="302" cy="-18" rx="27" ry="18"/>
<text text-anchor="middle" x="302" y="-14.3" font-family="Times,serif" font-size="14.00">v9</text>
</g>
<!-- v5&#45;&#45;v9 -->
<g id="edge30" class="edge"><title>v5&#45;&#45;v9</title>
<path fill="none" stroke="black" d="M213.375,-215.915C221.445,-185.805 240.235,-121.767 266,-72 272.853,-58.7634 282.395,-44.8626 289.934,-34.6195"/>
</g>
<!-- v3 -->
<g id="node2" class="node"><title>v3</title>
<ellipse fill="red" stroke="black" cx="359" cy="-306" rx="27" ry="18"/>
<text text-anchor="middle" x="359" y="-302.3" font-family="Times,serif" font-size="14.00">v3</text>
</g>
<!-- v3&#45;&#45;v5 -->
<g id="edge21" class="edge"><title>v3&#45;&#45;v5</title>
<path fill="none" stroke="black" d="M337.509,-294.971C308.994,-281.664 258.946,-258.308 230.451,-245.011"/>
</g>
<!-- v4 -->
<g id="node3" class="node"><title>v4</title>
<ellipse fill="red" stroke="black" cx="319" cy="-234" rx="27" ry="18"/>
<text text-anchor="middle" x="319" y="-230.3" font-family="Times,serif" font-size="14.00">v4</text>
</g>
<!-- v3&#45;&#45;v4 -->
<g id="edge20" class="edge"><title>v3&#45;&#45;v4</title>
<path fill="none" stroke="black" d="M349.723,-288.765C343.261,-277.456 334.678,-262.437 328.227,-251.147"/>
</g>
<!-- v3&#45;&#45;v8 -->
<g id="edge23" class="edge"><title>v3&#45;&#45;v8</title>
<path fill="none" stroke="black" d="M364.274,-288.007C367.193,-277.704 370.522,-264.227 372,-252 377.847,-203.615 376.881,-186.485 353,-144 344.365,-128.638 330.22,-114.437 319.014,-104.61"/>
</g>
<!-- v3&#45;&#45;v7 -->
<g id="edge22" class="edge"><title>v3&#45;&#45;v7</title>
<path fill="none" stroke="black" d="M361.785,-287.772C363.995,-269.209 365.231,-239.211 355,-216 347.652,-199.33 332.49,-185.042 320.258,-175.516"/>
</g>
<!-- v4&#45;&#45;v8 -->
<g id="edge26" class="edge"><title>v4&#45;&#45;v8</title>
<path fill="none" stroke="black" d="M327.4,-216.703C335.554,-198.687 345.662,-168.918 338,-144 333.619,-129.753 323.961,-115.9 315.75,-105.931"/>
</g>
<!-- v4&#45;&#45;v6 -->
<g id="edge24" class="edge"><title>v4&#45;&#45;v6</title>
<path fill="none" stroke="black" d="M296.747,-223.559C265.168,-210.162 207.693,-185.779 176.163,-172.402"/>
</g>
<!-- v4&#45;&#45;v7 -->
<g id="edge25" class="edge"><title>v4&#45;&#45;v7</title>
<path fill="none" stroke="black" d="M314.885,-216.055C312.251,-205.211 308.844,-191.183 306.195,-180.275"/>
</g>
<!-- v1 -->
<g id="node4" class="node"><title>v1</title>
<ellipse fill="red" stroke="black" cx="376" cy="-450" rx="27" ry="18"/>
<text text-anchor="middle" x="376" y="-446.3" font-family="Times,serif" font-size="14.00">v1</text>
</g>
<!-- v1&#45;&#45;v3 -->
<g id="edge8" class="edge"><title>v1&#45;&#45;v3</title>
<path fill="none" stroke="black" d="M373.949,-431.871C370.682,-404.578 364.33,-351.52 361.058,-324.189"/>
</g>
<!-- v1&#45;&#45;v4 -->
<g id="edge9" class="edge"><title>v1&#45;&#45;v4</title>
<path fill="none" stroke="black" d="M383.862,-432.35C397.052,-401.824 419.868,-335.66 395,-288 383.912,-266.751 359.986,-252.283 341.921,-243.9"/>
</g>
<!-- v2 -->
<g id="node5" class="node"><title>v2</title>
<ellipse fill="red" stroke="black" cx="190" cy="-378" rx="27" ry="18"/>
<text text-anchor="middle" x="190" y="-374.3" font-family="Times,serif" font-size="14.00">v2</text>
</g>
<!-- v1&#45;&#45;v2 -->
<g id="edge7" class="edge"><title>v1&#45;&#45;v2</title>
<path fill="none" stroke="black" d="M352.819,-440.276C316.982,-426.789 248.548,-401.034 212.889,-387.614"/>
</g>
<!-- v1&#45;&#45;v8 -->
<g id="edge11" class="edge"><title>v1&#45;&#45;v8</title>
<path fill="none" stroke="black" d="M395.339,-437.19C427.863,-415.674 490,-366.751 490,-307 490,-307 490,-307 490,-233 490,-152.217 378.105,-111.563 326.965,-97.2011"/>
</g>
<!-- v1&#45;&#45;v6 -->
<g id="edge10" class="edge"><title>v1&#45;&#45;v6</title>
<path fill="none" stroke="black" d="M357.327,-436.768C316.735,-409.12 220.313,-337.513 173,-252 160.379,-229.189 156.134,-198.811 154.711,-180.096"/>
</g>
<!-- v1&#45;&#45;v9 -->
<g id="edge12" class="edge"><title>v1&#45;&#45;v9</title>
<path fill="none" stroke="black" d="M398.756,-440.236C441.159,-422.248 528,-376.878 528,-307 528,-307 528,-307 528,-161 528,-67.6285 387.984,-33.2693 328.367,-22.8716"/>
</g>
<!-- v2&#45;&#45;v5 -->
<g id="edge15" class="edge"><title>v2&#45;&#45;v5</title>
<path fill="none" stroke="black" d="M183.143,-360.334C176.678,-342.253 168.949,-312.664 176,-288 179.992,-274.035 188.847,-260.168 196.379,-250.123"/>
</g>
<!-- v2&#45;&#45;v3 -->
<g id="edge13" class="edge"><title>v2&#45;&#45;v3</title>
<path fill="none" stroke="black" d="M212.442,-367.705C244.855,-354.279 304.42,-329.607 336.734,-316.222"/>
</g>
<!-- v2&#45;&#45;v4 -->
<g id="edge14" class="edge"><title>v2&#45;&#45;v4</title>
<path fill="none" stroke="black" d="M203.319,-362.338C228.039,-335.128 280.749,-277.105 305.56,-249.795"/>
</g>
<!-- v2&#45;&#45;v8 -->
<g id="edge18" class="edge"><title>v2&#45;&#45;v8</title>
<path fill="none" stroke="black" d="M175.039,-362.591C165.573,-352.625 153.866,-338.578 147,-324 112.473,-250.692 69.2728,-208.744 118,-144 137.041,-118.7 229.633,-101.705 275.767,-94.6647"/>
</g>
<!-- v2&#45;&#45;v6 -->
<g id="edge16" class="edge"><title>v2&#45;&#45;v6</title>
<path fill="none" stroke="black" d="M181.095,-360.636C168.967,-337.328 147.868,-292.853 140,-252 135.179,-226.965 142.173,-197.729 147.891,-179.791"/>
</g>
<!-- v2&#45;&#45;v7 -->
<g id="edge17" class="edge"><title>v2&#45;&#45;v7</title>
<path fill="none" stroke="black" d="M198.177,-360.537C207.106,-342.628 221.886,-313.185 235,-288 255.469,-248.69 280.277,-202.862 293.203,-179.116"/>
</g>
<!-- v2&#45;&#45;v9 -->
<g id="edge19" class="edge"><title>v2&#45;&#45;v9</title>
<path fill="none" stroke="black" d="M164.769,-370.885C113.086,-356.688 0,-316.332 0,-235 0,-235 0,-235 0,-161 0,-40.056 200.808,-21.9352 274.934,-19.3662"/>
</g>
<!-- v8&#45;&#45;v9 -->
<g id="edge33" class="edge"><title>v8&#45;&#45;v9</title>
<path fill="none" stroke="black" d="M302,-71.6966C302,-60.8463 302,-46.9167 302,-36.1043"/>
</g>
<!-- v0 -->
<g id="node7" class="node"><title>v0</title>
<ellipse fill="red" stroke="black" cx="338" cy="-522" rx="27" ry="18"/>
<text text-anchor="middle" x="338" y="-518.3" font-family="Times,serif" font-size="14.00">v0</text>
</g>
<!-- v0&#45;&#45;v5 -->
<g id="edge3" class="edge"><title>v0&#45;&#45;v5</title>
<path fill="none" stroke="black" d="M330.507,-504.387C307.707,-453.839 239.341,-302.268 216.514,-251.659"/>
</g>
<!-- v0&#45;&#45;v1 -->
<g id="edge1" class="edge"><title>v0&#45;&#45;v1</title>
<path fill="none" stroke="black" d="M346.813,-504.765C352.952,-493.456 361.106,-478.437 367.234,-467.147"/>
</g>
<!-- v0&#45;&#45;v2 -->
<g id="edge2" class="edge"><title>v0&#45;&#45;v2</title>
<path fill="none" stroke="black" d="M323.268,-506.865C295.046,-479.787 233.631,-420.862 205.113,-393.5"/>
</g>
<!-- v0&#45;&#45;v6 -->
<g id="edge4" class="edge"><title>v0&#45;&#45;v6</title>
<path fill="none" stroke="black" d="M314.41,-513.021C273.321,-497.71 189.606,-459.936 154,-396 114.86,-325.719 121.223,-295.256 135,-216 137.21,-203.288 142.192,-189.594 146.501,-179.311"/>
</g>
<!-- v0&#45;&#45;v7 -->
<g id="edge5" class="edge"><title>v0&#45;&#45;v7</title>
<path fill="none" stroke="black" d="M358.821,-510.134C375.072,-500.784 397.288,-485.977 412,-468 439.465,-434.439 452,-422.367 452,-379 452,-379 452,-379 452,-305 452,-235.791 366.744,-190.227 324.782,-171.992"/>
</g>
<!-- v0&#45;&#45;v9 -->
<g id="edge6" class="edge"><title>v0&#45;&#45;v9</title>
<path fill="none" stroke="black" d="M364.154,-517.285C424.043,-507.152 566,-473.198 566,-379 566,-379 566,-379 566,-161 566,-54.052 395.883,-27.3034 328.767,-20.9119"/>
</g>
<!-- v6&#45;&#45;v8 -->
<g id="edge31" class="edge"><title>v6&#45;&#45;v8</title>
<path fill="none" stroke="black" d="M175.52,-150.821C203.58,-137.55 252.381,-114.468 280.454,-101.191"/>
</g>
<!-- v7&#45;&#45;v8 -->
<g id="edge32" class="edge"><title>v7&#45;&#45;v8</title>
<path fill="none" stroke="black" d="M302,-143.697C302,-132.846 302,-118.917 302,-108.104"/>
</g>
</g>
</svg>
