<?xml version="1.0" encoding="UTF-8" standalone="no"?>
<!DOCTYPE svg PUBLIC "-//W3C//DTD SVG 1.1//EN"
 "http://www.w3.org/Graphics/SVG/1.1/DTD/svg11.dtd">
<!-- Generated by graphviz version 2.38.0 (20140413.2041)
 -->
<!-- Title: G Pages: 1 -->
<svg width="574pt" height="548pt"
 viewBox="0.00 0.00 574.00 548.00" xmlns="http://www.w3.org/2000/svg" xmlns:xlink="http://www.w3.org/1999/xlink">
<g id="graph0" class="graph" transform="scale(1 1) rotate(0) translate(4 544)">
<title>G</title>
<polygon fill="white" stroke="none" points="-4,4 -4,-544 570,-544 570,4 -4,4"/>
<!-- v8 -->
<g id="node1" class="node"><title>v8</title>
<ellipse fill="red" stroke="black" cx="274" cy="-90" rx="27" ry="18"/>
<text text-anchor="middle" x="274" y="-86.3" font-family="Times,serif" font-size="14.00">v8</text>
</g>
<!-- v9 -->
<g id="node9" class="node"><title>v9</title>
<ellipse fill="none" stroke="black" cx="340" cy="-18" rx="27" ry="18"/>
<text text-anchor="middle" x="340" y="-14.3" font-family="Times,serif" font-size="14.00">v9</text>
</g>
<!-- v8&#45;&#45;v9 -->
<g id="edge33" class="edge"><title>v8&#45;&#45;v9</title>
<path fill="none" stroke="black" d="M287.997,-74.1548C299.197,-62.2756 314.828,-45.6974 326.023,-33.8238"/>
</g>
<!-- v7 -->
<g id="node2" class="node"><title>v7</title>
<ellipse fill="red" stroke="black" cx="209" cy="-162" rx="27" ry="18"/>
<text text-anchor="middle" x="209" y="-158.3" font-family="Times,serif" font-size="14.00">v7</text>
</g>
<!-- v7&#45;&#45;v8 -->
<g id="edge32" class="edge"><title>v7&#45;&#45;v8</title>
<path fill="none" stroke="black" d="M222.785,-146.155C233.816,-134.276 249.21,-117.697 260.235,-105.824"/>
</g>
<!-- v1 -->
<g id="node3" class="node"><title>v1</title>
<ellipse fill="red" stroke="black" cx="283" cy="-450" rx="27" ry="18"/>
<text text-anchor="middle" x="283" y="-446.3" font-family="Times,serif" font-size="14.00">v1</text>
</g>
<!-- v1&#45;&#45;v8 -->
<g id="edge11" class="edge"><title>v1&#45;&#45;v8</title>
<path fill="none" stroke="black" d="M308.798,-444.008C364.288,-431.614 490,-393.943 490,-307 490,-307 490,-307 490,-233 490,-143.02 357.504,-106.881 300.055,-95.4411"/>
</g>
<!-- v4 -->
<g id="node4" class="node"><title>v4</title>
<ellipse fill="red" stroke="black" cx="171" cy="-234" rx="27" ry="18"/>
<text text-anchor="middle" x="171" y="-230.3" font-family="Times,serif" font-size="14.00">v4</text>
</g>
<!-- v1&#45;&#45;v4 -->
<g id="edge9" class="edge"><title>v1&#45;&#45;v4</title>
<path fill="none" stroke="black" d="M272.732,-433.197C257.768,-409.84 229.519,-364.492 209,-324 196.545,-299.422 184.453,-269.809 177.37,-251.699"/>
</g>
<!-- v2 -->
<g id="node5" class="node"><title>v2</title>
<ellipse fill="red" stroke="black" cx="144" cy="-378" rx="27" ry="18"/>
<text text-anchor="middle" x="144" y="-374.3" font-family="Times,serif" font-size="14.00">v2</text>
</g>
<!-- v1&#45;&#45;v2 -->
<g id="edge7" class="edge"><title>v1&#45;&#45;v2</title>
<path fill="none" stroke="black" d="M262.19,-438.52C235.986,-425.324 191.223,-402.781 164.952,-389.551"/>
</g>
<!-- v6 -->
<g id="node8" class="node"><title>v6</title>
<ellipse fill="none" stroke="black" cx="395" cy="-162" rx="27" ry="18"/>
<text text-anchor="middle" x="395" y="-158.3" font-family="Times,serif" font-size="14.00">v6</text>
</g>
<!-- v1&#45;&#45;v6 -->
<g id="edge10" class="edge"><title>v1&#45;&#45;v6</title>
<path fill="none" stroke="black" d="M293.732,-433.264C315.173,-400.942 363.121,-324.046 385,-252 392.364,-227.749 394.405,-198.299 394.915,-180.102"/>
</g>
<!-- v1&#45;&#45;v9 -->
<g id="edge12" class="edge"><title>v1&#45;&#45;v9</title>
<path fill="none" stroke="black" d="M309.686,-446.156C373.184,-437.764 528,-407.046 528,-307 528,-307 528,-307 528,-161 528,-80.2165 416.105,-39.5627 364.965,-25.2011"/>
</g>
<!-- v3 -->
<g id="node10" class="node"><title>v3</title>
<ellipse fill="none" stroke="black" cx="245" cy="-306" rx="27" ry="18"/>
<text text-anchor="middle" x="245" y="-302.3" font-family="Times,serif" font-size="14.00">v3</text>
</g>
<!-- v1&#45;&#45;v3 -->
<g id="edge8" class="edge"><title>v1&#45;&#45;v3</title>
<path fill="none" stroke="black" d="M278.492,-432.153C271.178,-404.824 256.812,-351.14 249.502,-323.825"/>
</g>
<!-- v4&#45;&#45;v8 -->
<g id="edge26" class="edge"><title>v4&#45;&#45;v8</title>
<path fill="none" stroke="black" d="M166.626,-216.162C162.692,-197.127 159.399,-165.936 173,-144 189.591,-117.24 224.535,-103.276 248.633,-96.5356"/>
</g>
<!-- v4&#45;&#45;v7 -->
<g id="edge25" class="edge"><title>v4&#45;&#45;v7</title>
<path fill="none" stroke="black" d="M179.813,-216.765C185.952,-205.456 194.106,-190.437 200.234,-179.147"/>
</g>
<!-- v4&#45;&#45;v6 -->
<g id="edge24" class="edge"><title>v4&#45;&#45;v6</title>
<path fill="none" stroke="black" d="M194.972,-225.509C237.973,-212.071 327.741,-184.018 370.862,-170.543"/>
</g>
<!-- v2&#45;&#45;v8 -->
<g id="edge18" class="edge"><title>v2&#45;&#45;v8</title>
<path fill="none" stroke="black" d="M133.762,-361.017C127.875,-350.858 121.058,-337.178 118,-324 114.288,-308.004 115.684,-232.089 120,-216 129.43,-180.85 132.449,-168.89 159,-144 184.822,-119.794 223.65,-105.072 248.911,-97.4787"/>
</g>
<!-- v2&#45;&#45;v7 -->
<g id="edge17" class="edge"><title>v2&#45;&#45;v7</title>
<path fill="none" stroke="black" d="M137.828,-360.331C127.601,-329.773 110.563,-263.56 135,-216 145.688,-195.198 168.751,-180.734 186.308,-172.233"/>
</g>
<!-- v2&#45;&#45;v4 -->
<g id="edge14" class="edge"><title>v2&#45;&#45;v4</title>
<path fill="none" stroke="black" d="M147.257,-359.871C152.446,-332.578 162.535,-279.52 167.732,-252.189"/>
</g>
<!-- v5 -->
<g id="node7" class="node"><title>v5</title>
<ellipse fill="red" stroke="black" cx="319" cy="-234" rx="27" ry="18"/>
<text text-anchor="middle" x="319" y="-230.3" font-family="Times,serif" font-size="14.00">v5</text>
</g>
<!-- v2&#45;&#45;v5 -->
<g id="edge15" class="edge"><title>v2&#45;&#45;v5</title>
<path fill="none" stroke="black" d="M170.243,-373.122C200.522,-367.372 250.096,-353.858 281,-324 301.42,-304.271 311.44,-271.804 315.892,-252.015"/>
</g>
<!-- v2&#45;&#45;v6 -->
<g id="edge16" class="edge"><title>v2&#45;&#45;v6</title>
<path fill="none" stroke="black" d="M170.254,-373.741C204.45,-368.385 264.727,-355.033 306,-324 355.65,-286.668 381.23,-213.127 390.655,-179.947"/>
</g>
<!-- v2&#45;&#45;v9 -->
<g id="edge19" class="edge"><title>v2&#45;&#45;v9</title>
<path fill="none" stroke="black" d="M125.536,-364.508C95.1665,-342.307 38,-292.836 38,-235 38,-235 38,-235 38,-161 38,-40.056 238.808,-21.9352 312.934,-19.3662"/>
</g>
<!-- v2&#45;&#45;v3 -->
<g id="edge13" class="edge"><title>v2&#45;&#45;v3</title>
<path fill="none" stroke="black" d="M162.057,-364.485C180.327,-351.823 208.423,-332.351 226.759,-319.642"/>
</g>
<!-- v0 -->
<g id="node6" class="node"><title>v0</title>
<ellipse fill="red" stroke="black" cx="310" cy="-522" rx="27" ry="18"/>
<text text-anchor="middle" x="310" y="-518.3" font-family="Times,serif" font-size="14.00">v0</text>
</g>
<!-- v0&#45;&#45;v7 -->
<g id="edge5" class="edge"><title>v0&#45;&#45;v7</title>
<path fill="none" stroke="black" d="M283.032,-520.922C207.611,-519.152 0,-503.018 0,-379 0,-379 0,-379 0,-305 0,-217.265 127.563,-179.946 183.372,-167.817"/>
</g>
<!-- v0&#45;&#45;v1 -->
<g id="edge1" class="edge"><title>v0&#45;&#45;v1</title>
<path fill="none" stroke="black" d="M303.601,-504.411C299.36,-493.414 293.811,-479.027 289.54,-467.956"/>
</g>
<!-- v0&#45;&#45;v2 -->
<g id="edge2" class="edge"><title>v0&#45;&#45;v2</title>
<path fill="none" stroke="black" d="M293.633,-507.332C280.888,-496.664 262.771,-481.446 247,-468 216.068,-441.627 180.205,-410.517 160,-392.94"/>
</g>
<!-- v0&#45;&#45;v5 -->
<g id="edge3" class="edge"><title>v0&#45;&#45;v5</title>
<path fill="none" stroke="black" d="M313.654,-503.908C315.676,-493.569 317.981,-480.09 319,-468 325.796,-387.383 321.973,-290.518 319.976,-251.997"/>
</g>
<!-- v0&#45;&#45;v6 -->
<g id="edge4" class="edge"><title>v0&#45;&#45;v6</title>
<path fill="none" stroke="black" d="M332.188,-511.364C372.125,-492.345 452,-445.939 452,-379 452,-379 452,-379 452,-305 452,-256.121 422.554,-204.148 405.99,-178.78"/>
</g>
<!-- v0&#45;&#45;v9 -->
<g id="edge6" class="edge"><title>v0&#45;&#45;v9</title>
<path fill="none" stroke="black" d="M336.913,-518.691C402.64,-511.431 566,-482.935 566,-379 566,-379 566,-379 566,-161 566,-67.6285 425.984,-33.2693 366.367,-22.8716"/>
</g>
<!-- v5&#45;&#45;v8 -->
<g id="edge29" class="edge"><title>v5&#45;&#45;v8</title>
<path fill="none" stroke="black" d="M313.661,-216.153C305.001,-188.824 287.988,-135.14 279.332,-107.825"/>
</g>
<!-- v5&#45;&#45;v7 -->
<g id="edge28" class="edge"><title>v5&#45;&#45;v7</title>
<path fill="none" stroke="black" d="M299.839,-220.807C279.65,-207.959 248.048,-187.848 227.941,-175.053"/>
</g>
<!-- v5&#45;&#45;v6 -->
<g id="edge27" class="edge"><title>v5&#45;&#45;v6</title>
<path fill="none" stroke="black" d="M334.38,-218.834C347.565,-206.69 366.464,-189.283 379.643,-177.144"/>
</g>
<!-- v5&#45;&#45;v9 -->
<g id="edge30" class="edge"><title>v5&#45;&#45;v9</title>
<path fill="none" stroke="black" d="M320.683,-215.849C324.615,-175.78 334.369,-76.3826 338.309,-36.2325"/>
</g>
<!-- v6&#45;&#45;v8 -->
<g id="edge31" class="edge"><title>v6&#45;&#45;v8</title>
<path fill="none" stroke="black" d="M375.29,-149.597C352.789,-136.581 316.199,-115.413 293.702,-102.398"/>
</g>
<!-- v3&#45;&#45;v8 -->
<g id="edge23" class="edge"><title>v3&#45;&#45;v8</title>
<path fill="none" stroke="black" d="M247.324,-287.849C252.768,-247.68 266.291,-147.89 271.705,-107.935"/>
</g>
<!-- v3&#45;&#45;v7 -->
<g id="edge22" class="edge"><title>v3&#45;&#45;v7</title>
<path fill="none" stroke="black" d="M240.729,-288.153C233.8,-260.824 220.19,-207.14 213.265,-179.825"/>
</g>
<!-- v3&#45;&#45;v4 -->
<g id="edge20" class="edge"><title>v3&#45;&#45;v4</title>
<path fill="none" stroke="black" d="M230.025,-290.834C217.186,-278.69 198.785,-261.283 185.953,-249.144"/>
</g>
<!-- v3&#45;&#45;v5 -->
<g id="edge21" class="edge"><title>v3&#45;&#45;v5</title>
<path fill="none" stroke="black" d="M259.975,-290.834C272.814,-278.69 291.215,-261.283 304.047,-249.144"/>
</g>
</g>
</svg>
