<?xml version="1.0" encoding="UTF-8" standalone="no"?>
<!DOCTYPE svg PUBLIC "-//W3C//DTD SVG 1.1//EN"
 "http://www.w3.org/Graphics/SVG/1.1/DTD/svg11.dtd">
<!-- Generated by graphviz version 2.38.0 (20140413.2041)
 -->
<!-- Title: G Pages: 1 -->
<svg width="608pt" height="548pt"
 viewBox="0.00 0.00 608.00 548.00" xmlns="http://www.w3.org/2000/svg" xmlns:xlink="http://www.w3.org/1999/xlink">
<g id="graph0" class="graph" transform="scale(1 1) rotate(0) translate(4 544)">
<title>G</title>
<polygon fill="white" stroke="none" points="-4,4 -4,-544 604,-544 604,4 -4,4"/>
<!-- v4 -->
<g id="node1" class="node"><title>v4</title>
<ellipse fill="red" stroke="black" cx="393" cy="-234" rx="27" ry="18"/>
<text text-anchor="middle" x="393" y="-230.3" font-family="Times,serif" font-size="14.00">v4</text>
</g>
<!-- v8 -->
<g id="node4" class="node"><title>v8</title>
<ellipse fill="red" stroke="black" cx="308" cy="-90" rx="27" ry="18"/>
<text text-anchor="middle" x="308" y="-86.3" font-family="Times,serif" font-size="14.00">v8</text>
</g>
<!-- v4&#45;&#45;v8 -->
<g id="edge26" class="edge"><title>v4&#45;&#45;v8</title>
<path fill="none" stroke="black" d="M386.814,-216.26C379.671,-197.856 366.965,-167.748 352,-144 343.202,-130.037 331.103,-115.727 321.819,-105.501"/>
</g>
<!-- v6 -->
<g id="node8" class="node"><title>v6</title>
<ellipse fill="none" stroke="black" cx="440" cy="-162" rx="27" ry="18"/>
<text text-anchor="middle" x="440" y="-158.3" font-family="Times,serif" font-size="14.00">v6</text>
</g>
<!-- v4&#45;&#45;v6 -->
<g id="edge24" class="edge"><title>v4&#45;&#45;v6</title>
<path fill="none" stroke="black" d="M403.665,-217.116C411.357,-205.66 421.695,-190.263 429.377,-178.821"/>
</g>
<!-- v7 -->
<g id="node9" class="node"><title>v7</title>
<ellipse fill="none" stroke="black" cx="278" cy="-162" rx="27" ry="18"/>
<text text-anchor="middle" x="278" y="-158.3" font-family="Times,serif" font-size="14.00">v7</text>
</g>
<!-- v4&#45;&#45;v7 -->
<g id="edge25" class="edge"><title>v4&#45;&#45;v7</title>
<path fill="none" stroke="black" d="M373.752,-221.284C352.523,-208.362 318.565,-187.692 297.311,-174.755"/>
</g>
<!-- v3 -->
<g id="node2" class="node"><title>v3</title>
<ellipse fill="red" stroke="black" cx="317" cy="-306" rx="27" ry="18"/>
<text text-anchor="middle" x="317" y="-302.3" font-family="Times,serif" font-size="14.00">v3</text>
</g>
<!-- v3&#45;&#45;v4 -->
<g id="edge20" class="edge"><title>v3&#45;&#45;v4</title>
<path fill="none" stroke="black" d="M332.38,-290.834C345.565,-278.69 364.464,-261.283 377.643,-249.144"/>
</g>
<!-- v3&#45;&#45;v8 -->
<g id="edge23" class="edge"><title>v3&#45;&#45;v8</title>
<path fill="none" stroke="black" d="M317.211,-287.585C317.45,-258.028 317.431,-196.165 314,-144 313.21,-131.988 311.675,-118.508 310.355,-108.149"/>
</g>
<!-- v5 -->
<g id="node6" class="node"><title>v5</title>
<ellipse fill="red" stroke="black" cx="207" cy="-234" rx="27" ry="18"/>
<text text-anchor="middle" x="207" y="-230.3" font-family="Times,serif" font-size="14.00">v5</text>
</g>
<!-- v3&#45;&#45;v5 -->
<g id="edge21" class="edge"><title>v3&#45;&#45;v5</title>
<path fill="none" stroke="black" d="M297.839,-292.807C277.65,-279.959 246.048,-259.848 225.941,-247.053"/>
</g>
<!-- v3&#45;&#45;v7 -->
<g id="edge22" class="edge"><title>v3&#45;&#45;v7</title>
<path fill="none" stroke="black" d="M312.373,-288.153C304.867,-260.824 290.123,-207.14 282.621,-179.825"/>
</g>
<!-- v1 -->
<g id="node3" class="node"><title>v1</title>
<ellipse fill="red" stroke="black" cx="345" cy="-450" rx="27" ry="18"/>
<text text-anchor="middle" x="345" y="-446.3" font-family="Times,serif" font-size="14.00">v1</text>
</g>
<!-- v1&#45;&#45;v4 -->
<g id="edge9" class="edge"><title>v1&#45;&#45;v4</title>
<path fill="none" stroke="black" d="M349.741,-432.11C356.363,-408.175 368.522,-362.963 377,-324 382.407,-299.149 387.378,-270.11 390.3,-252.135"/>
</g>
<!-- v1&#45;&#45;v3 -->
<g id="edge8" class="edge"><title>v1&#45;&#45;v3</title>
<path fill="none" stroke="black" d="M341.623,-431.871C336.241,-404.578 325.779,-351.52 320.389,-324.189"/>
</g>
<!-- v1&#45;&#45;v8 -->
<g id="edge11" class="edge"><title>v1&#45;&#45;v8</title>
<path fill="none" stroke="black" d="M363.285,-436.462C376.643,-426.621 394.527,-411.953 407,-396 478.524,-304.519 544.657,-237.652 476,-144 443.452,-99.6021 373.618,-91.4364 335.023,-90.5009"/>
</g>
<!-- v2 -->
<g id="node7" class="node"><title>v2</title>
<ellipse fill="red" stroke="black" cx="290" cy="-378" rx="27" ry="18"/>
<text text-anchor="middle" x="290" y="-374.3" font-family="Times,serif" font-size="14.00">v2</text>
</g>
<!-- v1&#45;&#45;v2 -->
<g id="edge7" class="edge"><title>v1&#45;&#45;v2</title>
<path fill="none" stroke="black" d="M333.066,-433.811C323.84,-422.07 311.13,-405.893 301.911,-394.159"/>
</g>
<!-- v1&#45;&#45;v6 -->
<g id="edge10" class="edge"><title>v1&#45;&#45;v6</title>
<path fill="none" stroke="black" d="M356.78,-433.249C379.888,-401.204 430.36,-325.235 447,-252 452.598,-227.364 448.229,-198.019 444.316,-179.949"/>
</g>
<!-- v9 -->
<g id="node10" class="node"><title>v9</title>
<ellipse fill="none" stroke="black" cx="114" cy="-18" rx="27" ry="18"/>
<text text-anchor="middle" x="114" y="-14.3" font-family="Times,serif" font-size="14.00">v9</text>
</g>
<!-- v1&#45;&#45;v9 -->
<g id="edge12" class="edge"><title>v1&#45;&#45;v9</title>
<path fill="none" stroke="black" d="M318.786,-445.58C238.275,-433.467 0,-384.952 0,-235 0,-235 0,-235 0,-161 0,-101.249 62.1367,-52.3256 94.6615,-30.8101"/>
</g>
<!-- v8&#45;&#45;v9 -->
<g id="edge33" class="edge"><title>v8&#45;&#45;v9</title>
<path fill="none" stroke="black" d="M284.599,-80.5564C247.211,-67.0657 174.432,-40.8052 137.182,-27.3646"/>
</g>
<!-- v0 -->
<g id="node5" class="node"><title>v0</title>
<ellipse fill="red" stroke="black" cx="317" cy="-522" rx="27" ry="18"/>
<text text-anchor="middle" x="317" y="-518.3" font-family="Times,serif" font-size="14.00">v0</text>
</g>
<!-- v0&#45;&#45;v1 -->
<g id="edge1" class="edge"><title>v0&#45;&#45;v1</title>
<path fill="none" stroke="black" d="M323.636,-504.411C328.099,-493.252 333.959,-478.604 338.412,-467.47"/>
</g>
<!-- v0&#45;&#45;v5 -->
<g id="edge3" class="edge"><title>v0&#45;&#45;v5</title>
<path fill="none" stroke="black" d="M290.292,-518.515C237.618,-513.002 123.41,-497.816 100,-468 42.8231,-395.178 149.195,-286.875 191.095,-248.822"/>
</g>
<!-- v0&#45;&#45;v2 -->
<g id="edge2" class="edge"><title>v0&#45;&#45;v2</title>
<path fill="none" stroke="black" d="M313.743,-503.871C308.554,-476.578 298.465,-423.52 293.268,-396.189"/>
</g>
<!-- v0&#45;&#45;v6 -->
<g id="edge4" class="edge"><title>v0&#45;&#45;v6</title>
<path fill="none" stroke="black" d="M335.88,-508.991C349.853,-499.318 368.546,-484.627 381,-468 422.772,-412.229 420.27,-389.868 443,-324 458.898,-277.929 471.526,-263.797 462,-216 459.43,-203.103 453.661,-189.415 448.675,-179.181"/>
</g>
<!-- v0&#45;&#45;v7 -->
<g id="edge5" class="edge"><title>v0&#45;&#45;v7</title>
<path fill="none" stroke="black" d="M291.29,-515.745C236.665,-502.919 114,-464.589 114,-379 114,-379 114,-379 114,-305 114,-231.747 208.668,-187.836 254.153,-170.965"/>
</g>
<!-- v0&#45;&#45;v9 -->
<g id="edge6" class="edge"><title>v0&#45;&#45;v9</title>
<path fill="none" stroke="black" d="M343.879,-519.907C414.521,-515.457 600,-492.925 600,-379 600,-379 600,-379 600,-161 600,-64.5267 242.706,-29.0956 140.822,-20.9533"/>
</g>
<!-- v5&#45;&#45;v8 -->
<g id="edge29" class="edge"><title>v5&#45;&#45;v8</title>
<path fill="none" stroke="black" d="M210.879,-215.965C215.797,-197.03 225.663,-166.198 242,-144 254.63,-126.838 274.127,-112.114 288.659,-102.572"/>
</g>
<!-- v5&#45;&#45;v6 -->
<g id="edge27" class="edge"><title>v5&#45;&#45;v6</title>
<path fill="none" stroke="black" d="M231.058,-225.772C275.706,-212.359 370.912,-183.756 415.724,-170.293"/>
</g>
<!-- v5&#45;&#45;v7 -->
<g id="edge28" class="edge"><title>v5&#45;&#45;v7</title>
<path fill="none" stroke="black" d="M221.711,-218.496C233.897,-206.482 251.127,-189.494 263.308,-177.485"/>
</g>
<!-- v5&#45;&#45;v9 -->
<g id="edge30" class="edge"><title>v5&#45;&#45;v9</title>
<path fill="none" stroke="black" d="M199.857,-216.563C182.546,-176.729 138.504,-75.3846 121.167,-35.4929"/>
</g>
<!-- v2&#45;&#45;v4 -->
<g id="edge14" class="edge"><title>v2&#45;&#45;v4</title>
<path fill="none" stroke="black" d="M308.501,-364.874C322.212,-355.14 340.595,-340.424 353,-324 369.949,-301.561 381.736,-270.8 387.929,-251.946"/>
</g>
<!-- v2&#45;&#45;v3 -->
<g id="edge13" class="edge"><title>v2&#45;&#45;v3</title>
<path fill="none" stroke="black" d="M296.399,-360.411C300.64,-349.414 306.189,-335.027 310.46,-323.956"/>
</g>
<!-- v2&#45;&#45;v8 -->
<g id="edge18" class="edge"><title>v2&#45;&#45;v8</title>
<path fill="none" stroke="black" d="M270.496,-365.545C231.912,-341.243 151.208,-281.368 171,-216 182.145,-179.191 191.122,-170.494 219,-144 238.945,-125.045 266.839,-109.816 286.057,-100.63"/>
</g>
<!-- v2&#45;&#45;v5 -->
<g id="edge15" class="edge"><title>v2&#45;&#45;v5</title>
<path fill="none" stroke="black" d="M276.476,-361.949C267.689,-351.712 256.358,-337.604 248,-324 233.306,-300.083 220.522,-270.024 213.289,-251.676"/>
</g>
<!-- v2&#45;&#45;v6 -->
<g id="edge16" class="edge"><title>v2&#45;&#45;v6</title>
<path fill="none" stroke="black" d="M311.636,-366.902C330.291,-357.513 357.261,-342.25 377,-324 405.983,-297.203 414.57,-288.741 429,-252 438.334,-228.234 440.223,-198.393 440.375,-180.013"/>
</g>
<!-- v2&#45;&#45;v7 -->
<g id="edge17" class="edge"><title>v2&#45;&#45;v7</title>
<path fill="none" stroke="black" d="M286.428,-359.9C284.435,-349.559 282.132,-336.08 281,-324 276.123,-271.95 276.77,-210.035 277.474,-180.44"/>
</g>
<!-- v2&#45;&#45;v9 -->
<g id="edge19" class="edge"><title>v2&#45;&#45;v9</title>
<path fill="none" stroke="black" d="M264.187,-372.477C207.269,-360.867 76,-324.399 76,-235 76,-235 76,-235 76,-161 76,-114.298 95.4181,-61.803 106.492,-35.662"/>
</g>
<!-- v6&#45;&#45;v8 -->
<g id="edge31" class="edge"><title>v6&#45;&#45;v8</title>
<path fill="none" stroke="black" d="M419.375,-150.062C394.577,-136.912 353.214,-114.977 328.48,-101.861"/>
</g>
<!-- v7&#45;&#45;v8 -->
<g id="edge32" class="edge"><title>v7&#45;&#45;v8</title>
<path fill="none" stroke="black" d="M285.11,-144.411C289.892,-133.252 296.17,-118.604 300.941,-107.47"/>
</g>
</g>
</svg>
