<?xml version="1.0" encoding="UTF-8" standalone="no"?>
<!DOCTYPE svg PUBLIC "-//W3C//DTD SVG 1.1//EN"
 "http://www.w3.org/Graphics/SVG/1.1/DTD/svg11.dtd">
<!-- Generated by graphviz version 2.38.0 (20140413.2041)
 -->
<!-- Title: G Pages: 1 -->
<svg width="384pt" height="404pt"
 viewBox="0.00 0.00 384.00 404.00" xmlns="http://www.w3.org/2000/svg" xmlns:xlink="http://www.w3.org/1999/xlink">
<g id="graph0" class="graph" transform="scale(1 1) rotate(0) translate(4 400)">
<title>G</title>
<polygon fill="white" stroke="none" points="-4,4 -4,-400 380,-400 380,4 -4,4"/>
<!-- v2 -->
<g id="node1" class="node"><title>v2</title>
<ellipse fill="red" stroke="black" cx="124" cy="-234" rx="27" ry="18"/>
<text text-anchor="middle" x="124" y="-230.3" font-family="Times,serif" font-size="14.00">v2</text>
</g>
<!-- v5 -->
<g id="node2" class="node"><title>v5</title>
<ellipse fill="red" stroke="black" cx="248" cy="-90" rx="27" ry="18"/>
<text text-anchor="middle" x="248" y="-86.3" font-family="Times,serif" font-size="14.00">v5</text>
</g>
<!-- v2&#45;&#45;v5 -->
<g id="edge13" class="edge"><title>v2&#45;&#45;v5</title>
<path fill="none" stroke="black" d="M130.06,-216.115C137.515,-197.035 151.607,-165.805 171,-144 187.07,-125.931 210.518,-110.941 227.312,-101.567"/>
</g>
<!-- v4 -->
<g id="node4" class="node"><title>v4</title>
<ellipse fill="red" stroke="black" cx="207" cy="-162" rx="27" ry="18"/>
<text text-anchor="middle" x="207" y="-158.3" font-family="Times,serif" font-size="14.00">v4</text>
</g>
<!-- v2&#45;&#45;v4 -->
<g id="edge12" class="edge"><title>v2&#45;&#45;v4</title>
<path fill="none" stroke="black" d="M140.398,-219.17C155.044,-206.819 176.37,-188.832 190.918,-176.563"/>
</g>
<!-- v6 -->
<g id="node5" class="node"><title>v6</title>
<ellipse fill="red" stroke="black" cx="76" cy="-18" rx="27" ry="18"/>
<text text-anchor="middle" x="76" y="-14.3" font-family="Times,serif" font-size="14.00">v6</text>
</g>
<!-- v2&#45;&#45;v6 -->
<g id="edge14" class="edge"><title>v2&#45;&#45;v6</title>
<path fill="none" stroke="black" d="M115.215,-216.744C110.032,-206.481 103.769,-192.789 100,-180 84.9812,-129.038 79.0779,-66.0979 77.0014,-36.2569"/>
</g>
<!-- v7 -->
<g id="node8" class="node"><title>v7</title>
<ellipse fill="none" stroke="black" cx="293" cy="-18" rx="27" ry="18"/>
<text text-anchor="middle" x="293" y="-14.3" font-family="Times,serif" font-size="14.00">v7</text>
</g>
<!-- v2&#45;&#45;v7 -->
<g id="edge15" class="edge"><title>v2&#45;&#45;v7</title>
<path fill="none" stroke="black" d="M125.132,-216.002C126.966,-197.373 131.727,-167.069 144,-144 173.419,-88.7039 238.437,-47.9116 272.017,-29.6376"/>
</g>
<!-- v5&#45;&#45;v6 -->
<g id="edge20" class="edge"><title>v5&#45;&#45;v6</title>
<path fill="none" stroke="black" d="M225.514,-79.8487C192.55,-66.4333 131.458,-41.5702 98.4915,-28.1535"/>
</g>
<!-- v5&#45;&#45;v7 -->
<g id="edge21" class="edge"><title>v5&#45;&#45;v7</title>
<path fill="none" stroke="black" d="M258.211,-73.1159C265.576,-61.66 275.474,-46.2627 282.829,-34.8212"/>
</g>
<!-- v0 -->
<g id="node3" class="node"><title>v0</title>
<ellipse fill="red" stroke="black" cx="225" cy="-378" rx="27" ry="18"/>
<text text-anchor="middle" x="225" y="-374.3" font-family="Times,serif" font-size="14.00">v0</text>
</g>
<!-- v0&#45;&#45;v2 -->
<g id="edge2" class="edge"><title>v0&#45;&#45;v2</title>
<path fill="none" stroke="black" d="M203.881,-366.52C187.522,-357.388 165.448,-342.686 152,-324 136.293,-302.176 129.183,-271.233 126.125,-252.173"/>
</g>
<!-- v0&#45;&#45;v5 -->
<g id="edge4" class="edge"><title>v0&#45;&#45;v5</title>
<path fill="none" stroke="black" d="M239.125,-362.391C259.158,-340.522 294.85,-297.008 308,-252 323.978,-197.312 282.715,-134.607 260.73,-106.291"/>
</g>
<!-- v0&#45;&#45;v6 -->
<g id="edge5" class="edge"><title>v0&#45;&#45;v6</title>
<path fill="none" stroke="black" d="M198.749,-373.088C139.397,-362.605 0,-328.076 0,-235 0,-235 0,-235 0,-161 0,-109.271 39.6896,-58.1496 61.705,-33.7722"/>
</g>
<!-- v3 -->
<g id="node6" class="node"><title>v3</title>
<ellipse fill="red" stroke="black" cx="272" cy="-234" rx="27" ry="18"/>
<text text-anchor="middle" x="272" y="-230.3" font-family="Times,serif" font-size="14.00">v3</text>
</g>
<!-- v0&#45;&#45;v3 -->
<g id="edge3" class="edge"><title>v0&#45;&#45;v3</title>
<path fill="none" stroke="black" d="M230.576,-360.153C239.622,-332.824 257.39,-279.14 266.431,-251.825"/>
</g>
<!-- v1 -->
<g id="node7" class="node"><title>v1</title>
<ellipse fill="none" stroke="black" cx="188" cy="-306" rx="27" ry="18"/>
<text text-anchor="middle" x="188" y="-302.3" font-family="Times,serif" font-size="14.00">v1</text>
</g>
<!-- v0&#45;&#45;v1 -->
<g id="edge1" class="edge"><title>v0&#45;&#45;v1</title>
<path fill="none" stroke="black" d="M216.418,-360.765C210.441,-349.456 202.502,-334.437 196.535,-323.147"/>
</g>
<!-- v0&#45;&#45;v7 -->
<g id="edge6" class="edge"><title>v0&#45;&#45;v7</title>
<path fill="none" stroke="black" d="M247.934,-368.052C290.175,-349.893 376,-304.453 376,-235 376,-235 376,-235 376,-161 376,-107.887 332.185,-56.9932 308.223,-33.1316"/>
</g>
<!-- v4&#45;&#45;v5 -->
<g id="edge18" class="edge"><title>v4&#45;&#45;v5</title>
<path fill="none" stroke="black" d="M216.509,-144.765C223.133,-133.456 231.93,-118.437 238.542,-107.147"/>
</g>
<!-- v4&#45;&#45;v6 -->
<g id="edge19" class="edge"><title>v4&#45;&#45;v6</title>
<path fill="none" stroke="black" d="M193.474,-146.338C168.371,-119.128 114.844,-61.1052 89.6486,-33.7946"/>
</g>
<!-- v3&#45;&#45;v4 -->
<g id="edge16" class="edge"><title>v3&#45;&#45;v4</title>
<path fill="none" stroke="black" d="M258.215,-218.155C247.184,-206.276 231.79,-189.697 220.765,-177.824"/>
</g>
<!-- v3&#45;&#45;v7 -->
<g id="edge17" class="edge"><title>v3&#45;&#45;v7</title>
<path fill="none" stroke="black" d="M273.683,-215.849C277.615,-175.78 287.369,-76.3826 291.309,-36.2325"/>
</g>
<!-- v1&#45;&#45;v2 -->
<g id="edge7" class="edge"><title>v1&#45;&#45;v2</title>
<path fill="none" stroke="black" d="M174.427,-290.155C163.566,-278.276 148.409,-261.697 137.553,-249.824"/>
</g>
<!-- v1&#45;&#45;v5 -->
<g id="edge10" class="edge"><title>v1&#45;&#45;v5</title>
<path fill="none" stroke="black" d="M197.249,-289.078C210.158,-265.94 233.105,-221.27 243,-180 248.845,-155.62 249.295,-126.456 248.837,-108.325"/>
</g>
<!-- v1&#45;&#45;v4 -->
<g id="edge9" class="edge"><title>v1&#45;&#45;v4</title>
<path fill="none" stroke="black" d="M190.292,-287.871C193.944,-260.578 201.043,-207.52 204.7,-180.189"/>
</g>
<!-- v1&#45;&#45;v6 -->
<g id="edge11" class="edge"><title>v1&#45;&#45;v6</title>
<path fill="none" stroke="black" d="M162.734,-299.064C139.115,-292.073 105.009,-277.971 88,-252 42.9497,-183.214 61.8008,-77.0082 71.5372,-35.9805"/>
</g>
<!-- v1&#45;&#45;v3 -->
<g id="edge8" class="edge"><title>v1&#45;&#45;v3</title>
<path fill="none" stroke="black" d="M204.196,-291.503C219.071,-279.108 240.995,-260.838 255.854,-248.455"/>
</g>
</g>
</svg>
