<?xml version="1.0" encoding="UTF-8" standalone="no"?>
<!DOCTYPE svg PUBLIC "-//W3C//DTD SVG 1.1//EN"
 "http://www.w3.org/Graphics/SVG/1.1/DTD/svg11.dtd">
<!-- Generated by graphviz version 2.38.0 (20140413.2041)
 -->
<!-- Title: G Pages: 1 -->
<svg width="574pt" height="548pt"
 viewBox="0.00 0.00 574.00 548.00" xmlns="http://www.w3.org/2000/svg" xmlns:xlink="http://www.w3.org/1999/xlink">
<g id="graph0" class="graph" transform="scale(1 1) rotate(0) translate(4 544)">
<title>G</title>
<polygon fill="white" stroke="none" points="-4,4 -4,-544 570,-544 570,4 -4,4"/>
<!-- v5 -->
<g id="node1" class="node"><title>v5</title>
<ellipse fill="red" stroke="black" cx="173" cy="-234" rx="27" ry="18"/>
<text text-anchor="middle" x="173" y="-230.3" font-family="Times,serif" font-size="14.00">v5</text>
</g>
<!-- v7 -->
<g id="node3" class="node"><title>v7</title>
<ellipse fill="red" stroke="black" cx="327" cy="-162" rx="27" ry="18"/>
<text text-anchor="middle" x="327" y="-158.3" font-family="Times,serif" font-size="14.00">v7</text>
</g>
<!-- v5&#45;&#45;v7 -->
<g id="edge28" class="edge"><title>v5&#45;&#45;v7</title>
<path fill="none" stroke="black" d="M194.738,-223.119C224.088,-209.778 276.079,-186.146 305.373,-172.831"/>
</g>
<!-- v8 -->
<g id="node4" class="node"><title>v8</title>
<ellipse fill="red" stroke="black" cx="266" cy="-90" rx="27" ry="18"/>
<text text-anchor="middle" x="266" y="-86.3" font-family="Times,serif" font-size="14.00">v8</text>
</g>
<!-- v5&#45;&#45;v8 -->
<g id="edge29" class="edge"><title>v5&#45;&#45;v8</title>
<path fill="none" stroke="black" d="M178.694,-216.354C185.487,-197.768 197.966,-167.247 214,-144 224.246,-129.144 238.837,-114.686 249.957,-104.634"/>
</g>
<!-- v6 -->
<g id="node8" class="node"><title>v6</title>
<ellipse fill="none" stroke="black" cx="97" cy="-162" rx="27" ry="18"/>
<text text-anchor="middle" x="97" y="-158.3" font-family="Times,serif" font-size="14.00">v6</text>
</g>
<!-- v5&#45;&#45;v6 -->
<g id="edge27" class="edge"><title>v5&#45;&#45;v6</title>
<path fill="none" stroke="black" d="M157.62,-218.834C144.435,-206.69 125.536,-189.283 112.357,-177.144"/>
</g>
<!-- v9 -->
<g id="node9" class="node"><title>v9</title>
<ellipse fill="none" stroke="black" cx="266" cy="-18" rx="27" ry="18"/>
<text text-anchor="middle" x="266" y="-14.3" font-family="Times,serif" font-size="14.00">v9</text>
</g>
<!-- v5&#45;&#45;v9 -->
<g id="edge30" class="edge"><title>v5&#45;&#45;v9</title>
<path fill="none" stroke="black" d="M174.639,-215.841C176.756,-197.595 181.258,-168.105 190,-144 202.481,-109.587 210.808,-103.172 230,-72 237.931,-59.1181 247.596,-44.9653 254.913,-34.5274"/>
</g>
<!-- v4 -->
<g id="node2" class="node"><title>v4</title>
<ellipse fill="red" stroke="black" cx="397" cy="-234" rx="27" ry="18"/>
<text text-anchor="middle" x="397" y="-230.3" font-family="Times,serif" font-size="14.00">v4</text>
</g>
<!-- v4&#45;&#45;v7 -->
<g id="edge25" class="edge"><title>v4&#45;&#45;v7</title>
<path fill="none" stroke="black" d="M382.496,-218.496C370.482,-206.482 353.494,-189.494 341.485,-177.485"/>
</g>
<!-- v4&#45;&#45;v8 -->
<g id="edge26" class="edge"><title>v4&#45;&#45;v8</title>
<path fill="none" stroke="black" d="M394.117,-215.753C390.102,-196.341 381.169,-164.807 363,-144 343.309,-121.451 311.597,-106.702 289.826,-98.6211"/>
</g>
<!-- v4&#45;&#45;v6 -->
<g id="edge24" class="edge"><title>v4&#45;&#45;v6</title>
<path fill="none" stroke="black" d="M371.938,-227.152C315.468,-213.976 178.804,-182.088 122.201,-168.88"/>
</g>
<!-- v7&#45;&#45;v8 -->
<g id="edge32" class="edge"><title>v7&#45;&#45;v8</title>
<path fill="none" stroke="black" d="M314.063,-146.155C303.712,-134.276 289.265,-117.697 278.918,-105.824"/>
</g>
<!-- v8&#45;&#45;v9 -->
<g id="edge33" class="edge"><title>v8&#45;&#45;v9</title>
<path fill="none" stroke="black" d="M266,-71.6966C266,-60.8463 266,-46.9167 266,-36.1043"/>
</g>
<!-- v1 -->
<g id="node5" class="node"><title>v1</title>
<ellipse fill="red" stroke="black" cx="321" cy="-450" rx="27" ry="18"/>
<text text-anchor="middle" x="321" y="-446.3" font-family="Times,serif" font-size="14.00">v1</text>
</g>
<!-- v1&#45;&#45;v4 -->
<g id="edge9" class="edge"><title>v1&#45;&#45;v4</title>
<path fill="none" stroke="black" d="M330.652,-433.047C344.233,-409.872 368.794,-365.157 382,-324 389.803,-299.68 393.751,-270.249 395.589,-252.074"/>
</g>
<!-- v1&#45;&#45;v8 -->
<g id="edge11" class="edge"><title>v1&#45;&#45;v8</title>
<path fill="none" stroke="black" d="M342.047,-438.575C379.078,-418.577 452,-371.064 452,-307 452,-307 452,-307 452,-233 452,-152.763 341.295,-111.812 290.699,-97.2867"/>
</g>
<!-- v2 -->
<g id="node7" class="node"><title>v2</title>
<ellipse fill="red" stroke="black" cx="266" cy="-378" rx="27" ry="18"/>
<text text-anchor="middle" x="266" y="-374.3" font-family="Times,serif" font-size="14.00">v2</text>
</g>
<!-- v1&#45;&#45;v2 -->
<g id="edge7" class="edge"><title>v1&#45;&#45;v2</title>
<path fill="none" stroke="black" d="M309.066,-433.811C299.84,-422.07 287.13,-405.893 277.911,-394.159"/>
</g>
<!-- v1&#45;&#45;v6 -->
<g id="edge10" class="edge"><title>v1&#45;&#45;v6</title>
<path fill="none" stroke="black" d="M299.878,-438.538C280.844,-428.69 252.479,-412.954 230,-396 193.109,-368.176 183.393,-360.454 155,-324 132.372,-294.948 126.737,-286.552 114,-252 105.131,-227.942 100.664,-198.439 98.5891,-180.178"/>
</g>
<!-- v1&#45;&#45;v9 -->
<g id="edge12" class="edge"><title>v1&#45;&#45;v9</title>
<path fill="none" stroke="black" d="M345.827,-442.758C370.743,-435.353 408.803,-420.779 433,-396 489.824,-337.809 485.555,-294.947 466,-216 442.564,-121.384 333.676,-54.3662 287.16,-29.5735"/>
</g>
<!-- v3 -->
<g id="node10" class="node"><title>v3</title>
<ellipse fill="none" stroke="black" cx="321" cy="-306" rx="27" ry="18"/>
<text text-anchor="middle" x="321" y="-302.3" font-family="Times,serif" font-size="14.00">v3</text>
</g>
<!-- v1&#45;&#45;v3 -->
<g id="edge8" class="edge"><title>v1&#45;&#45;v3</title>
<path fill="none" stroke="black" d="M321,-431.871C321,-404.578 321,-351.52 321,-324.189"/>
</g>
<!-- v0 -->
<g id="node6" class="node"><title>v0</title>
<ellipse fill="red" stroke="black" cx="293" cy="-522" rx="27" ry="18"/>
<text text-anchor="middle" x="293" y="-518.3" font-family="Times,serif" font-size="14.00">v0</text>
</g>
<!-- v0&#45;&#45;v5 -->
<g id="edge3" class="edge"><title>v0&#45;&#45;v5</title>
<path fill="none" stroke="black" d="M282.62,-505.131C261.802,-472.567 214.824,-395.251 190,-324 181.564,-299.786 176.979,-270.326 174.761,-252.116"/>
</g>
<!-- v0&#45;&#45;v7 -->
<g id="edge5" class="edge"><title>v0&#45;&#45;v7</title>
<path fill="none" stroke="black" d="M316.109,-512.483C355.438,-496.57 434.208,-458.193 466,-396 490.105,-348.845 484.345,-281.315 433,-216 412.782,-190.281 376.788,-176.065 352.415,-168.984"/>
</g>
<!-- v0&#45;&#45;v1 -->
<g id="edge1" class="edge"><title>v0&#45;&#45;v1</title>
<path fill="none" stroke="black" d="M299.636,-504.411C304.099,-493.252 309.959,-478.604 314.412,-467.47"/>
</g>
<!-- v0&#45;&#45;v2 -->
<g id="edge2" class="edge"><title>v0&#45;&#45;v2</title>
<path fill="none" stroke="black" d="M289.743,-503.871C284.554,-476.578 274.465,-423.52 269.268,-396.189"/>
</g>
<!-- v0&#45;&#45;v6 -->
<g id="edge4" class="edge"><title>v0&#45;&#45;v6</title>
<path fill="none" stroke="black" d="M265.96,-520.296C193.426,-516.833 0,-496.576 0,-379 0,-379 0,-379 0,-305 0,-249.17 51.7577,-199.135 79.6583,-176.219"/>
</g>
<!-- v0&#45;&#45;v9 -->
<g id="edge6" class="edge"><title>v0&#45;&#45;v9</title>
<path fill="none" stroke="black" d="M320.174,-519.46C389.227,-513.938 566,-489.053 566,-379 566,-379 566,-379 566,-161 566,-40.8556 367,-22.2218 293.152,-19.4431"/>
</g>
<!-- v2&#45;&#45;v5 -->
<g id="edge15" class="edge"><title>v2&#45;&#45;v5</title>
<path fill="none" stroke="black" d="M249.957,-363.366C238.837,-353.314 224.246,-338.856 214,-324 197.966,-300.753 185.487,-270.232 178.694,-251.646"/>
</g>
<!-- v2&#45;&#45;v4 -->
<g id="edge14" class="edge"><title>v2&#45;&#45;v4</title>
<path fill="none" stroke="black" d="M289.251,-368.262C309.436,-359.661 338.286,-344.79 357,-324 376.04,-302.848 387.317,-271.129 392.819,-251.821"/>
</g>
<!-- v2&#45;&#45;v7 -->
<g id="edge17" class="edge"><title>v2&#45;&#45;v7</title>
<path fill="none" stroke="black" d="M269.07,-359.799C272.428,-341.77 278.241,-312.687 285,-288 295.761,-248.696 311.863,-203.617 320.676,-179.795"/>
</g>
<!-- v2&#45;&#45;v8 -->
<g id="edge18" class="edge"><title>v2&#45;&#45;v8</title>
<path fill="none" stroke="black" d="M266,-359.966C266,-309.218 266,-159.407 266,-108.306"/>
</g>
<!-- v2&#45;&#45;v6 -->
<g id="edge16" class="edge"><title>v2&#45;&#45;v6</title>
<path fill="none" stroke="black" d="M245.936,-365.533C229.786,-355.735 207.048,-340.617 190,-324 145.387,-280.515 115.183,-211.089 103.019,-179.552"/>
</g>
<!-- v2&#45;&#45;v9 -->
<g id="edge19" class="edge"><title>v2&#45;&#45;v9</title>
<path fill="none" stroke="black" d="M241.726,-369.724C217.642,-361.581 180.711,-346.503 155,-324 87.0869,-264.559 16.8138,-222.695 61,-144 100.184,-74.2134 195.905,-38.7942 241.316,-25.4463"/>
</g>
<!-- v2&#45;&#45;v3 -->
<g id="edge13" class="edge"><title>v2&#45;&#45;v3</title>
<path fill="none" stroke="black" d="M277.934,-361.811C287.16,-350.07 299.87,-333.893 309.089,-322.159"/>
</g>
<!-- v6&#45;&#45;v8 -->
<g id="edge31" class="edge"><title>v6&#45;&#45;v8</title>
<path fill="none" stroke="black" d="M119.442,-151.705C151.855,-138.279 211.42,-113.607 243.734,-100.222"/>
</g>
<!-- v3&#45;&#45;v5 -->
<g id="edge21" class="edge"><title>v3&#45;&#45;v5</title>
<path fill="none" stroke="black" d="M299.48,-294.821C271.42,-281.55 222.619,-258.468 194.546,-245.191"/>
</g>
<!-- v3&#45;&#45;v4 -->
<g id="edge20" class="edge"><title>v3&#45;&#45;v4</title>
<path fill="none" stroke="black" d="M336.38,-290.834C349.565,-278.69 368.464,-261.283 381.643,-249.144"/>
</g>
<!-- v3&#45;&#45;v7 -->
<g id="edge22" class="edge"><title>v3&#45;&#45;v7</title>
<path fill="none" stroke="black" d="M321.724,-287.871C322.877,-260.578 325.119,-207.52 326.274,-180.189"/>
</g>
<!-- v3&#45;&#45;v8 -->
<g id="edge23" class="edge"><title>v3&#45;&#45;v8</title>
<path fill="none" stroke="black" d="M316.684,-288.208C306.428,-248.302 280.684,-148.134 270.372,-108.01"/>
</g>
</g>
</svg>
