<?xml version="1.0" encoding="UTF-8" standalone="no"?>
<!DOCTYPE svg PUBLIC "-//W3C//DTD SVG 1.1//EN"
 "http://www.w3.org/Graphics/SVG/1.1/DTD/svg11.dtd">
<!-- Generated by graphviz version 2.38.0 (20140413.2041)
 -->
<!-- Title: G Pages: 1 -->
<svg width="515pt" height="548pt"
 viewBox="0.00 0.00 515.38 548.00" xmlns="http://www.w3.org/2000/svg" xmlns:xlink="http://www.w3.org/1999/xlink">
<g id="graph0" class="graph" transform="scale(1 1) rotate(0) translate(4 544)">
<title>G</title>
<polygon fill="white" stroke="none" points="-4,4 -4,-544 511.378,-544 511.378,4 -4,4"/>
<!-- v3 -->
<g id="node1" class="node"><title>v3</title>
<ellipse fill="red" stroke="black" cx="186.378" cy="-306" rx="27" ry="18"/>
<text text-anchor="middle" x="186.378" y="-302.3" font-family="Times,serif" font-size="14.00">v3</text>
</g>
<!-- v8 -->
<g id="node3" class="node"><title>v8</title>
<ellipse fill="red" stroke="black" cx="188.378" cy="-90" rx="27" ry="18"/>
<text text-anchor="middle" x="188.378" y="-86.3" font-family="Times,serif" font-size="14.00">v8</text>
</g>
<!-- v3&#45;&#45;v8 -->
<g id="edge23" class="edge"><title>v3&#45;&#45;v8</title>
<path fill="none" stroke="black" d="M186.538,-287.849C186.913,-247.78 187.842,-148.383 188.217,-108.232"/>
</g>
<!-- v4 -->
<g id="node5" class="node"><title>v4</title>
<ellipse fill="red" stroke="black" cx="114.378" cy="-234" rx="27" ry="18"/>
<text text-anchor="middle" x="114.378" y="-230.3" font-family="Times,serif" font-size="14.00">v4</text>
</g>
<!-- v3&#45;&#45;v4 -->
<g id="edge20" class="edge"><title>v3&#45;&#45;v4</title>
<path fill="none" stroke="black" d="M171.808,-290.834C159.398,-278.77 141.647,-261.512 129.174,-249.385"/>
</g>
<!-- v5 -->
<g id="node7" class="node"><title>v5</title>
<ellipse fill="red" stroke="black" cx="300.378" cy="-234" rx="27" ry="18"/>
<text text-anchor="middle" x="300.378" y="-230.3" font-family="Times,serif" font-size="14.00">v5</text>
</g>
<!-- v3&#45;&#45;v5 -->
<g id="edge21" class="edge"><title>v3&#45;&#45;v5</title>
<path fill="none" stroke="black" d="M205.716,-293.125C226.68,-280.253 259.944,-259.828 280.944,-246.933"/>
</g>
<!-- v7 -->
<g id="node9" class="node"><title>v7</title>
<ellipse fill="none" stroke="black" cx="262.378" cy="-162" rx="27" ry="18"/>
<text text-anchor="middle" x="262.378" y="-158.3" font-family="Times,serif" font-size="14.00">v7</text>
</g>
<!-- v3&#45;&#45;v7 -->
<g id="edge22" class="edge"><title>v3&#45;&#45;v7</title>
<path fill="none" stroke="black" d="M195.096,-288.711C209.756,-261.319 239.17,-206.362 253.761,-179.099"/>
</g>
<!-- v1 -->
<g id="node2" class="node"><title>v1</title>
<ellipse fill="red" stroke="black" cx="186.378" cy="-450" rx="27" ry="18"/>
<text text-anchor="middle" x="186.378" y="-446.3" font-family="Times,serif" font-size="14.00">v1</text>
</g>
<!-- v1&#45;&#45;v3 -->
<g id="edge8" class="edge"><title>v1&#45;&#45;v3</title>
<path fill="none" stroke="black" d="M186.378,-431.871C186.378,-404.578 186.378,-351.52 186.378,-324.189"/>
</g>
<!-- v1&#45;&#45;v8 -->
<g id="edge11" class="edge"><title>v1&#45;&#45;v8</title>
<path fill="none" stroke="black" d="M165.361,-438.538C148.314,-429.227 124.542,-414.27 108.378,-396 30.5126,-307.993 -40.4198,-239.263 28.3779,-144 58.8731,-101.774 124.314,-92.6451 161.362,-91.0023"/>
</g>
<!-- v1&#45;&#45;v4 -->
<g id="edge9" class="edge"><title>v1&#45;&#45;v4</title>
<path fill="none" stroke="black" d="M176.479,-433.123C162.599,-410.041 137.675,-365.438 125.378,-324 118.158,-299.671 115.673,-270.242 114.82,-252.071"/>
</g>
<!-- v2 -->
<g id="node6" class="node"><title>v2</title>
<ellipse fill="red" stroke="black" cx="241.378" cy="-378" rx="27" ry="18"/>
<text text-anchor="middle" x="241.378" y="-374.3" font-family="Times,serif" font-size="14.00">v2</text>
</g>
<!-- v1&#45;&#45;v2 -->
<g id="edge7" class="edge"><title>v1&#45;&#45;v2</title>
<path fill="none" stroke="black" d="M198.312,-433.811C207.537,-422.07 220.248,-405.893 229.467,-394.159"/>
</g>
<!-- v6 -->
<g id="node8" class="node"><title>v6</title>
<ellipse fill="none" stroke="black" cx="64.3779" cy="-162" rx="27" ry="18"/>
<text text-anchor="middle" x="64.3779" y="-158.3" font-family="Times,serif" font-size="14.00">v6</text>
</g>
<!-- v1&#45;&#45;v6 -->
<g id="edge10" class="edge"><title>v1&#45;&#45;v6</title>
<path fill="none" stroke="black" d="M170.65,-434.737C160.089,-424.618 146.338,-410.337 136.378,-396 95.6653,-337.398 81.9689,-321.401 65.3779,-252 59.5216,-227.503 60.7175,-198.12 62.3593,-180.004"/>
</g>
<!-- v9 -->
<g id="node10" class="node"><title>v9</title>
<ellipse fill="none" stroke="black" cx="431.378" cy="-18" rx="27" ry="18"/>
<text text-anchor="middle" x="431.378" y="-14.3" font-family="Times,serif" font-size="14.00">v9</text>
</g>
<!-- v1&#45;&#45;v9 -->
<g id="edge12" class="edge"><title>v1&#45;&#45;v9</title>
<path fill="none" stroke="black" d="M211.492,-443.027C280.753,-424.907 469.378,-363.739 469.378,-235 469.378,-235 469.378,-235 469.378,-161 469.378,-114.298 449.96,-61.803 438.885,-35.662"/>
</g>
<!-- v8&#45;&#45;v9 -->
<g id="edge33" class="edge"><title>v8&#45;&#45;v9</title>
<path fill="none" stroke="black" d="M213.015,-81.9028C259.711,-68.4515 360.571,-39.3969 407.037,-26.0119"/>
</g>
<!-- v0 -->
<g id="node4" class="node"><title>v0</title>
<ellipse fill="red" stroke="black" cx="345.378" cy="-522" rx="27" ry="18"/>
<text text-anchor="middle" x="345.378" y="-518.3" font-family="Times,serif" font-size="14.00">v0</text>
</g>
<!-- v0&#45;&#45;v1 -->
<g id="edge1" class="edge"><title>v0&#45;&#45;v1</title>
<path fill="none" stroke="black" d="M323.27,-511.267C292.892,-497.893 238.577,-473.981 208.298,-460.651"/>
</g>
<!-- v0&#45;&#45;v2 -->
<g id="edge2" class="edge"><title>v0&#45;&#45;v2</title>
<path fill="none" stroke="black" d="M334.05,-505.533C314.045,-478.218 272.687,-421.749 252.692,-394.448"/>
</g>
<!-- v0&#45;&#45;v5 -->
<g id="edge3" class="edge"><title>v0&#45;&#45;v5</title>
<path fill="none" stroke="black" d="M342.698,-503.966C334.694,-453.098 311.029,-302.696 303.044,-251.945"/>
</g>
<!-- v0&#45;&#45;v6 -->
<g id="edge4" class="edge"><title>v0&#45;&#45;v6</title>
<path fill="none" stroke="black" d="M318.285,-519.989C277.808,-517.189 200.911,-506.74 150.378,-468 67.4282,-404.409 67.3989,-356.039 57.3779,-252 54.9706,-227.007 58.4132,-198.006 61.2659,-180.077"/>
</g>
<!-- v0&#45;&#45;v7 -->
<g id="edge5" class="edge"><title>v0&#45;&#45;v7</title>
<path fill="none" stroke="black" d="M351.43,-504.337C367.917,-455.896 408.813,-312.439 353.378,-216 339.255,-191.431 308.874,-177.184 287.1,-169.767"/>
</g>
<!-- v0&#45;&#45;v9 -->
<g id="edge6" class="edge"><title>v0&#45;&#45;v9</title>
<path fill="none" stroke="black" d="M368.934,-512.947C413.864,-495.92 507.378,-451.743 507.378,-379 507.378,-379 507.378,-379 507.378,-161 507.378,-109.271 467.688,-58.1496 445.673,-33.7722"/>
</g>
<!-- v4&#45;&#45;v8 -->
<g id="edge26" class="edge"><title>v4&#45;&#45;v8</title>
<path fill="none" stroke="black" d="M121.329,-216.294C129.038,-198.178 142.142,-168.56 155.378,-144 162.269,-131.214 170.987,-117.292 177.732,-106.927"/>
</g>
<!-- v4&#45;&#45;v6 -->
<g id="edge24" class="edge"><title>v4&#45;&#45;v6</title>
<path fill="none" stroke="black" d="M103.281,-217.465C94.9954,-205.865 83.7219,-190.082 75.4435,-178.492"/>
</g>
<!-- v4&#45;&#45;v7 -->
<g id="edge25" class="edge"><title>v4&#45;&#45;v7</title>
<path fill="none" stroke="black" d="M135.898,-222.821C163.958,-209.55 212.759,-186.468 240.831,-173.191"/>
</g>
<!-- v2&#45;&#45;v3 -->
<g id="edge13" class="edge"><title>v2&#45;&#45;v3</title>
<path fill="none" stroke="black" d="M229.444,-361.811C220.218,-350.07 207.508,-333.893 198.289,-322.159"/>
</g>
<!-- v2&#45;&#45;v8 -->
<g id="edge18" class="edge"><title>v2&#45;&#45;v8</title>
<path fill="none" stroke="black" d="M238.221,-359.966C228.795,-309.098 200.923,-158.696 191.518,-107.945"/>
</g>
<!-- v2&#45;&#45;v4 -->
<g id="edge14" class="edge"><title>v2&#45;&#45;v4</title>
<path fill="none" stroke="black" d="M218.331,-368.598C198,-360.137 168.814,-345.281 150.378,-324 132.152,-302.962 122.385,-271.498 117.797,-252.163"/>
</g>
<!-- v2&#45;&#45;v5 -->
<g id="edge15" class="edge"><title>v2&#45;&#45;v5</title>
<path fill="none" stroke="black" d="M248.261,-360.433C259.63,-333.071 282.198,-278.754 293.538,-251.462"/>
</g>
<!-- v2&#45;&#45;v6 -->
<g id="edge16" class="edge"><title>v2&#45;&#45;v6</title>
<path fill="none" stroke="black" d="M216.941,-370.273C191.798,-362.405 152.567,-347.395 125.378,-324 96.4105,-299.075 92.0961,-287.667 78.3779,-252 69.2255,-228.204 66.0524,-198.629 64.9548,-180.282"/>
</g>
<!-- v2&#45;&#45;v7 -->
<g id="edge17" class="edge"><title>v2&#45;&#45;v7</title>
<path fill="none" stroke="black" d="M257.209,-363.205C280.12,-342.033 321.415,-299.012 336.378,-252 341.231,-236.754 343.69,-230.231 336.378,-216 325.689,-195.198 302.627,-180.734 285.07,-172.233"/>
</g>
<!-- v2&#45;&#45;v9 -->
<g id="edge19" class="edge"><title>v2&#45;&#45;v9</title>
<path fill="none" stroke="black" d="M262.867,-367.08C280.549,-357.999 305.241,-343.082 321.378,-324 397.707,-233.738 422.829,-86.3237 429.393,-36.2611"/>
</g>
<!-- v5&#45;&#45;v8 -->
<g id="edge29" class="edge"><title>v5&#45;&#45;v8</title>
<path fill="none" stroke="black" d="M304.888,-216.077C308.946,-196.962 312.352,-165.7 298.378,-144 279.785,-115.128 240.674,-101.573 214.459,-95.5114"/>
</g>
<!-- v5&#45;&#45;v6 -->
<g id="edge27" class="edge"><title>v5&#45;&#45;v6</title>
<path fill="none" stroke="black" d="M276.011,-225.772C230.67,-212.324 133.853,-183.607 88.6126,-170.188"/>
</g>
<!-- v5&#45;&#45;v7 -->
<g id="edge28" class="edge"><title>v5&#45;&#45;v7</title>
<path fill="none" stroke="black" d="M291.564,-216.765C285.425,-205.456 277.272,-190.437 271.144,-179.147"/>
</g>
<!-- v5&#45;&#45;v9 -->
<g id="edge30" class="edge"><title>v5&#45;&#45;v9</title>
<path fill="none" stroke="black" d="M310.224,-216.915C334.561,-177.159 397.327,-74.6246 421.596,-34.9795"/>
</g>
<!-- v6&#45;&#45;v8 -->
<g id="edge31" class="edge"><title>v6&#45;&#45;v8</title>
<path fill="none" stroke="black" d="M84.3006,-149.753C107.44,-136.691 145.386,-115.27 168.505,-102.219"/>
</g>
<!-- v7&#45;&#45;v8 -->
<g id="edge32" class="edge"><title>v7&#45;&#45;v8</title>
<path fill="none" stroke="black" d="M247.403,-146.834C234.564,-134.69 216.163,-117.283 203.331,-105.144"/>
</g>
</g>
</svg>
