<?xml version="1.0" encoding="UTF-8" standalone="no"?>
<!DOCTYPE svg PUBLIC "-//W3C//DTD SVG 1.1//EN"
 "http://www.w3.org/Graphics/SVG/1.1/DTD/svg11.dtd">
<!-- Generated by graphviz version 2.38.0 (20140413.2041)
 -->
<!-- Title: G Pages: 1 -->
<svg width="570pt" height="548pt"
 viewBox="0.00 0.00 570.00 548.00" xmlns="http://www.w3.org/2000/svg" xmlns:xlink="http://www.w3.org/1999/xlink">
<g id="graph0" class="graph" transform="scale(1 1) rotate(0) translate(4 544)">
<title>G</title>
<polygon fill="white" stroke="none" points="-4,4 -4,-544 566,-544 566,4 -4,4"/>
<!-- v3 -->
<g id="node1" class="node"><title>v3</title>
<ellipse fill="red" stroke="black" cx="169" cy="-306" rx="27" ry="18"/>
<text text-anchor="middle" x="169" y="-302.3" font-family="Times,serif" font-size="14.00">v3</text>
</g>
<!-- v8 -->
<g id="node4" class="node"><title>v8</title>
<ellipse fill="red" stroke="black" cx="262" cy="-90" rx="27" ry="18"/>
<text text-anchor="middle" x="262" y="-86.3" font-family="Times,serif" font-size="14.00">v8</text>
</g>
<!-- v3&#45;&#45;v8 -->
<g id="edge23" class="edge"><title>v3&#45;&#45;v8</title>
<path fill="none" stroke="black" d="M162.487,-288.523C156.279,-270.349 148.974,-240.441 157,-216 173.093,-166.993 219.374,-124.489 244.786,-104.011"/>
</g>
<!-- v4 -->
<g id="node6" class="node"><title>v4</title>
<ellipse fill="red" stroke="black" cx="207" cy="-234" rx="27" ry="18"/>
<text text-anchor="middle" x="207" y="-230.3" font-family="Times,serif" font-size="14.00">v4</text>
</g>
<!-- v3&#45;&#45;v4 -->
<g id="edge20" class="edge"><title>v3&#45;&#45;v4</title>
<path fill="none" stroke="black" d="M177.813,-288.765C183.952,-277.456 192.106,-262.437 198.234,-251.147"/>
</g>
<!-- v5 -->
<g id="node7" class="node"><title>v5</title>
<ellipse fill="red" stroke="black" cx="469" cy="-234" rx="27" ry="18"/>
<text text-anchor="middle" x="469" y="-230.3" font-family="Times,serif" font-size="14.00">v5</text>
</g>
<!-- v3&#45;&#45;v5 -->
<g id="edge21" class="edge"><title>v3&#45;&#45;v5</title>
<path fill="none" stroke="black" d="M194.062,-299.152C250.532,-285.976 387.196,-254.088 443.799,-240.88"/>
</g>
<!-- v7 -->
<g id="node9" class="node"><title>v7</title>
<ellipse fill="none" stroke="black" cx="262" cy="-162" rx="27" ry="18"/>
<text text-anchor="middle" x="262" y="-158.3" font-family="Times,serif" font-size="14.00">v7</text>
</g>
<!-- v3&#45;&#45;v7 -->
<g id="edge22" class="edge"><title>v3&#45;&#45;v7</title>
<path fill="none" stroke="black" d="M164.735,-287.928C160.994,-268.959 157.965,-238.098 171,-216 185.398,-191.592 215.721,-177.311 237.406,-169.842"/>
</g>
<!-- v0 -->
<g id="node2" class="node"><title>v0</title>
<ellipse fill="red" stroke="black" cx="273" cy="-522" rx="27" ry="18"/>
<text text-anchor="middle" x="273" y="-518.3" font-family="Times,serif" font-size="14.00">v0</text>
</g>
<!-- v1 -->
<g id="node3" class="node"><title>v1</title>
<ellipse fill="red" stroke="black" cx="169" cy="-450" rx="27" ry="18"/>
<text text-anchor="middle" x="169" y="-446.3" font-family="Times,serif" font-size="14.00">v1</text>
</g>
<!-- v0&#45;&#45;v1 -->
<g id="edge1" class="edge"><title>v0&#45;&#45;v1</title>
<path fill="none" stroke="black" d="M254.407,-508.485C235.477,-495.744 206.304,-476.108 187.432,-463.406"/>
</g>
<!-- v2 -->
<g id="node5" class="node"><title>v2</title>
<ellipse fill="red" stroke="black" cx="384" cy="-378" rx="27" ry="18"/>
<text text-anchor="middle" x="384" y="-374.3" font-family="Times,serif" font-size="14.00">v2</text>
</g>
<!-- v0&#45;&#45;v2 -->
<g id="edge2" class="edge"><title>v0&#45;&#45;v2</title>
<path fill="none" stroke="black" d="M284.879,-505.804C306.131,-478.616 350.437,-421.936 371.87,-394.518"/>
</g>
<!-- v0&#45;&#45;v5 -->
<g id="edge3" class="edge"><title>v0&#45;&#45;v5</title>
<path fill="none" stroke="black" d="M299.843,-519.787C361.062,-516.4 508.031,-504.556 538,-468 593.366,-400.465 514.081,-289.806 481.701,-249.918"/>
</g>
<!-- v6 -->
<g id="node8" class="node"><title>v6</title>
<ellipse fill="none" stroke="black" cx="414" cy="-162" rx="27" ry="18"/>
<text text-anchor="middle" x="414" y="-158.3" font-family="Times,serif" font-size="14.00">v6</text>
</g>
<!-- v0&#45;&#45;v6 -->
<g id="edge4" class="edge"><title>v0&#45;&#45;v6</title>
<path fill="none" stroke="black" d="M299.861,-518.446C364.613,-510.664 524,-481.136 524,-379 524,-379 524,-379 524,-305 524,-264.553 528.727,-248.757 505,-216 488.484,-193.198 458.908,-178.65 437.961,-170.677"/>
</g>
<!-- v0&#45;&#45;v7 -->
<g id="edge5" class="edge"><title>v0&#45;&#45;v7</title>
<path fill="none" stroke="black" d="M272.469,-503.733C270.607,-443.115 264.379,-240.44 262.525,-180.094"/>
</g>
<!-- v9 -->
<g id="node10" class="node"><title>v9</title>
<ellipse fill="none" stroke="black" cx="262" cy="-18" rx="27" ry="18"/>
<text text-anchor="middle" x="262" y="-14.3" font-family="Times,serif" font-size="14.00">v9</text>
</g>
<!-- v0&#45;&#45;v9 -->
<g id="edge6" class="edge"><title>v0&#45;&#45;v9</title>
<path fill="none" stroke="black" d="M245.826,-519.46C176.773,-513.938 0,-489.053 0,-379 0,-379 0,-379 0,-161 0,-114.962 16.1011,-99.5314 53,-72 108.204,-30.8105 192.022,-21.451 234.803,-19.4445"/>
</g>
<!-- v1&#45;&#45;v3 -->
<g id="edge8" class="edge"><title>v1&#45;&#45;v3</title>
<path fill="none" stroke="black" d="M169,-431.871C169,-404.578 169,-351.52 169,-324.189"/>
</g>
<!-- v1&#45;&#45;v8 -->
<g id="edge11" class="edge"><title>v1&#45;&#45;v8</title>
<path fill="none" stroke="black" d="M152.373,-435.624C125.623,-412.476 76,-362.108 76,-307 76,-307 76,-307 76,-233 76,-152.763 186.705,-111.812 237.301,-97.2867"/>
</g>
<!-- v1&#45;&#45;v2 -->
<g id="edge7" class="edge"><title>v1&#45;&#45;v2</title>
<path fill="none" stroke="black" d="M193.452,-442.364C227.349,-432.982 290.387,-414.87 343,-396 349.238,-393.763 355.912,-391.11 362.025,-388.574"/>
</g>
<!-- v1&#45;&#45;v4 -->
<g id="edge9" class="edge"><title>v1&#45;&#45;v4</title>
<path fill="none" stroke="black" d="M158.663,-433.015C140.684,-403.019 107.868,-336.913 133,-288 143.688,-267.198 166.751,-252.734 184.308,-244.233"/>
</g>
<!-- v1&#45;&#45;v6 -->
<g id="edge10" class="edge"><title>v1&#45;&#45;v6</title>
<path fill="none" stroke="black" d="M181.827,-434.026C224.066,-384.719 358.521,-227.763 401.004,-178.171"/>
</g>
<!-- v1&#45;&#45;v9 -->
<g id="edge12" class="edge"><title>v1&#45;&#45;v9</title>
<path fill="none" stroke="black" d="M147.953,-438.575C110.922,-418.577 38,-371.064 38,-307 38,-307 38,-307 38,-161 38,-68.2201 176.777,-33.5212 235.866,-22.9521"/>
</g>
<!-- v8&#45;&#45;v9 -->
<g id="edge33" class="edge"><title>v8&#45;&#45;v9</title>
<path fill="none" stroke="black" d="M262,-71.6966C262,-60.8463 262,-46.9167 262,-36.1043"/>
</g>
<!-- v2&#45;&#45;v3 -->
<g id="edge13" class="edge"><title>v2&#45;&#45;v3</title>
<path fill="none" stroke="black" d="M360.17,-369.241C318.842,-355.786 234.339,-328.273 192.937,-314.793"/>
</g>
<!-- v2&#45;&#45;v8 -->
<g id="edge18" class="edge"><title>v2&#45;&#45;v8</title>
<path fill="none" stroke="black" d="M379.555,-360.224C368.781,-320.946 339.102,-220.548 298,-144 290.949,-130.868 281.416,-116.962 273.931,-106.691"/>
</g>
<!-- v2&#45;&#45;v4 -->
<g id="edge14" class="edge"><title>v2&#45;&#45;v4</title>
<path fill="none" stroke="black" d="M361.646,-367.638C340.864,-358.326 309.646,-342.745 286,-324 258.315,-302.052 232.367,-269.715 218.188,-250.661"/>
</g>
<!-- v2&#45;&#45;v5 -->
<g id="edge15" class="edge"><title>v2&#45;&#45;v5</title>
<path fill="none" stroke="black" d="M397.819,-362.499C407.103,-352.273 419.202,-337.963 428,-324 442.965,-300.252 455.671,-270.144 462.814,-251.74"/>
</g>
<!-- v2&#45;&#45;v6 -->
<g id="edge16" class="edge"><title>v2&#45;&#45;v6</title>
<path fill="none" stroke="black" d="M386.404,-359.849C392.035,-319.68 406.025,-219.89 411.626,-179.935"/>
</g>
<!-- v2&#45;&#45;v7 -->
<g id="edge17" class="edge"><title>v2&#45;&#45;v7</title>
<path fill="none" stroke="black" d="M374.83,-360.915C352.165,-321.159 293.711,-218.625 271.11,-178.98"/>
</g>
<!-- v2&#45;&#45;v9 -->
<g id="edge19" class="edge"><title>v2&#45;&#45;v9</title>
<path fill="none" stroke="black" d="M408.377,-370.142C457.127,-354.772 562,-312.679 562,-235 562,-235 562,-235 562,-161 562,-40.8556 363,-22.2218 289.152,-19.4431"/>
</g>
<!-- v4&#45;&#45;v8 -->
<g id="edge26" class="edge"><title>v4&#45;&#45;v8</title>
<path fill="none" stroke="black" d="M208.656,-216.012C210.89,-197.654 215.826,-167.83 226,-144 231.852,-130.292 241.441,-116.413 249.252,-106.298"/>
</g>
<!-- v4&#45;&#45;v6 -->
<g id="edge24" class="edge"><title>v4&#45;&#45;v6</title>
<path fill="none" stroke="black" d="M230.746,-224.97C270.675,-211.467 350.788,-184.376 390.531,-170.936"/>
</g>
<!-- v4&#45;&#45;v7 -->
<g id="edge25" class="edge"><title>v4&#45;&#45;v7</title>
<path fill="none" stroke="black" d="M218.934,-217.811C228.16,-206.07 240.87,-189.893 250.089,-178.159"/>
</g>
<!-- v5&#45;&#45;v8 -->
<g id="edge29" class="edge"><title>v5&#45;&#45;v8</title>
<path fill="none" stroke="black" d="M470.236,-215.899C470.693,-196.027 468.262,-163.479 450,-144 407.672,-98.8513 330.15,-91.1395 289.125,-90.4329"/>
</g>
<!-- v5&#45;&#45;v6 -->
<g id="edge27" class="edge"><title>v5&#45;&#45;v6</title>
<path fill="none" stroke="black" d="M457.066,-217.811C447.84,-206.07 435.13,-189.893 425.911,-178.159"/>
</g>
<!-- v5&#45;&#45;v7 -->
<g id="edge28" class="edge"><title>v5&#45;&#45;v7</title>
<path fill="none" stroke="black" d="M445.254,-224.97C405.325,-211.467 325.212,-184.376 285.469,-170.936"/>
</g>
<!-- v5&#45;&#45;v9 -->
<g id="edge30" class="edge"><title>v5&#45;&#45;v9</title>
<path fill="none" stroke="black" d="M474.462,-216.347C479.596,-197.48 484.76,-166.445 472,-144 431.634,-72.9976 333.234,-38.097 286.902,-25.1516"/>
</g>
<!-- v6&#45;&#45;v8 -->
<g id="edge31" class="edge"><title>v6&#45;&#45;v8</title>
<path fill="none" stroke="black" d="M392.222,-150.971C363.327,-137.664 312.612,-114.308 283.737,-101.011"/>
</g>
<!-- v7&#45;&#45;v8 -->
<g id="edge32" class="edge"><title>v7&#45;&#45;v8</title>
<path fill="none" stroke="black" d="M262,-143.697C262,-132.846 262,-118.917 262,-108.104"/>
</g>
</g>
</svg>
