<?xml version="1.0" encoding="UTF-8" standalone="no"?>
<!DOCTYPE svg PUBLIC "-//W3C//DTD SVG 1.1//EN"
 "http://www.w3.org/Graphics/SVG/1.1/DTD/svg11.dtd">
<!-- Generated by graphviz version 2.38.0 (20140413.2041)
 -->
<!-- Title: G Pages: 1 -->
<svg width="574pt" height="548pt"
 viewBox="0.00 0.00 574.00 548.00" xmlns="http://www.w3.org/2000/svg" xmlns:xlink="http://www.w3.org/1999/xlink">
<g id="graph0" class="graph" transform="scale(1 1) rotate(0) translate(4 544)">
<title>G</title>
<polygon fill="white" stroke="none" points="-4,4 -4,-544 570,-544 570,4 -4,4"/>
<!-- v2 -->
<g id="node1" class="node"><title>v2</title>
<ellipse fill="red" stroke="black" cx="393" cy="-378" rx="27" ry="18"/>
<text text-anchor="middle" x="393" y="-374.3" font-family="Times,serif" font-size="14.00">v2</text>
</g>
<!-- v8 -->
<g id="node2" class="node"><title>v8</title>
<ellipse fill="red" stroke="black" cx="285" cy="-90" rx="27" ry="18"/>
<text text-anchor="middle" x="285" y="-86.3" font-family="Times,serif" font-size="14.00">v8</text>
</g>
<!-- v2&#45;&#45;v8 -->
<g id="edge18" class="edge"><title>v2&#45;&#45;v8</title>
<path fill="none" stroke="black" d="M402.067,-360.866C407.278,-350.65 413.308,-336.964 416,-324 432.374,-245.139 445.446,-206.788 395,-144 373.624,-117.394 335.627,-103.291 310.371,-96.4873"/>
</g>
<!-- v3 -->
<g id="node4" class="node"><title>v3</title>
<ellipse fill="red" stroke="black" cx="283" cy="-306" rx="27" ry="18"/>
<text text-anchor="middle" x="283" y="-302.3" font-family="Times,serif" font-size="14.00">v3</text>
</g>
<!-- v2&#45;&#45;v3 -->
<g id="edge13" class="edge"><title>v2&#45;&#45;v3</title>
<path fill="none" stroke="black" d="M373.839,-364.807C353.65,-351.959 322.048,-331.848 301.941,-319.053"/>
</g>
<!-- v4 -->
<g id="node6" class="node"><title>v4</title>
<ellipse fill="red" stroke="black" cx="211" cy="-234" rx="27" ry="18"/>
<text text-anchor="middle" x="211" y="-230.3" font-family="Times,serif" font-size="14.00">v4</text>
</g>
<!-- v2&#45;&#45;v4 -->
<g id="edge14" class="edge"><title>v2&#45;&#45;v4</title>
<path fill="none" stroke="black" d="M366.66,-373.982C334.499,-368.98 280.287,-356.105 247,-324 226.725,-304.445 217.531,-271.922 213.623,-252.075"/>
</g>
<!-- v5 -->
<g id="node7" class="node"><title>v5</title>
<ellipse fill="red" stroke="black" cx="359" cy="-234" rx="27" ry="18"/>
<text text-anchor="middle" x="359" y="-230.3" font-family="Times,serif" font-size="14.00">v5</text>
</g>
<!-- v2&#45;&#45;v5 -->
<g id="edge15" class="edge"><title>v2&#45;&#45;v5</title>
<path fill="none" stroke="black" d="M388.966,-360.153C382.423,-332.824 369.569,-279.14 363.029,-251.825"/>
</g>
<!-- v6 -->
<g id="node8" class="node"><title>v6</title>
<ellipse fill="none" stroke="black" cx="158" cy="-162" rx="27" ry="18"/>
<text text-anchor="middle" x="158" y="-158.3" font-family="Times,serif" font-size="14.00">v6</text>
</g>
<!-- v2&#45;&#45;v6 -->
<g id="edge16" class="edge"><title>v2&#45;&#45;v6</title>
<path fill="none" stroke="black" d="M366.343,-374.646C329.921,-370.233 264.103,-357.858 220,-324 173.671,-288.433 161.948,-213.635 158.992,-180.009"/>
</g>
<!-- v7 -->
<g id="node9" class="node"><title>v7</title>
<ellipse fill="none" stroke="black" cx="359" cy="-162" rx="27" ry="18"/>
<text text-anchor="middle" x="359" y="-158.3" font-family="Times,serif" font-size="14.00">v7</text>
</g>
<!-- v2&#45;&#45;v7 -->
<g id="edge17" class="edge"><title>v2&#45;&#45;v7</title>
<path fill="none" stroke="black" d="M396.53,-360.065C402.038,-330.187 410.529,-266.499 395,-216 390.619,-201.753 380.961,-187.9 372.75,-177.931"/>
</g>
<!-- v9 -->
<g id="node10" class="node"><title>v9</title>
<ellipse fill="none" stroke="black" cx="490" cy="-18" rx="27" ry="18"/>
<text text-anchor="middle" x="490" y="-14.3" font-family="Times,serif" font-size="14.00">v9</text>
</g>
<!-- v2&#45;&#45;v9 -->
<g id="edge19" class="edge"><title>v2&#45;&#45;v9</title>
<path fill="none" stroke="black" d="M406.955,-362.436C415.776,-352.405 426.67,-338.343 433,-324 478.241,-221.494 487.594,-84.2125 489.511,-36.3358"/>
</g>
<!-- v8&#45;&#45;v9 -->
<g id="edge33" class="edge"><title>v8&#45;&#45;v9</title>
<path fill="none" stroke="black" d="M308.516,-80.9701C347.955,-67.5033 426.977,-40.5199 466.443,-27.0438"/>
</g>
<!-- v0 -->
<g id="node3" class="node"><title>v0</title>
<ellipse fill="red" stroke="black" cx="361" cy="-522" rx="27" ry="18"/>
<text text-anchor="middle" x="361" y="-518.3" font-family="Times,serif" font-size="14.00">v0</text>
</g>
<!-- v0&#45;&#45;v2 -->
<g id="edge2" class="edge"><title>v0&#45;&#45;v2</title>
<path fill="none" stroke="black" d="M364.796,-504.153C370.955,-476.824 383.053,-423.14 389.208,-395.825"/>
</g>
<!-- v1 -->
<g id="node5" class="node"><title>v1</title>
<ellipse fill="red" stroke="black" cx="190" cy="-450" rx="27" ry="18"/>
<text text-anchor="middle" x="190" y="-446.3" font-family="Times,serif" font-size="14.00">v1</text>
</g>
<!-- v0&#45;&#45;v1 -->
<g id="edge1" class="edge"><title>v0&#45;&#45;v1</title>
<path fill="none" stroke="black" d="M338.645,-511.849C305.873,-498.433 245.136,-473.57 212.361,-460.154"/>
</g>
<!-- v0&#45;&#45;v5 -->
<g id="edge3" class="edge"><title>v0&#45;&#45;v5</title>
<path fill="none" stroke="black" d="M360.268,-503.614C359.292,-479.471 357.615,-434.426 357,-396 356.164,-343.734 357.616,-281.918 358.46,-252.393"/>
</g>
<!-- v0&#45;&#45;v6 -->
<g id="edge4" class="edge"><title>v0&#45;&#45;v6</title>
<path fill="none" stroke="black" d="M335.038,-516.607C252.264,-501.874 0,-451.062 0,-379 0,-379 0,-379 0,-305 0,-233.451 90.7362,-188.796 134.687,-171.363"/>
</g>
<!-- v0&#45;&#45;v7 -->
<g id="edge5" class="edge"><title>v0&#45;&#45;v7</title>
<path fill="none" stroke="black" d="M372.869,-505.527C389.358,-482.935 418.368,-438.924 429,-396 441.033,-347.42 435.924,-265.343 412,-216 404.052,-199.607 388.946,-185.293 376.889,-175.687"/>
</g>
<!-- v0&#45;&#45;v9 -->
<g id="edge6" class="edge"><title>v0&#45;&#45;v9</title>
<path fill="none" stroke="black" d="M386.549,-515.924C441.503,-503.363 566,-465.373 566,-379 566,-379 566,-379 566,-161 566,-109.271 526.31,-58.1496 504.295,-33.7722"/>
</g>
<!-- v3&#45;&#45;v8 -->
<g id="edge23" class="edge"><title>v3&#45;&#45;v8</title>
<path fill="none" stroke="black" d="M283.16,-287.849C283.535,-247.78 284.464,-148.383 284.839,-108.232"/>
</g>
<!-- v3&#45;&#45;v4 -->
<g id="edge20" class="edge"><title>v3&#45;&#45;v4</title>
<path fill="none" stroke="black" d="M268.43,-290.834C256.02,-278.77 238.269,-261.512 225.796,-249.385"/>
</g>
<!-- v3&#45;&#45;v5 -->
<g id="edge21" class="edge"><title>v3&#45;&#45;v5</title>
<path fill="none" stroke="black" d="M298.38,-290.834C311.565,-278.69 330.464,-261.283 343.643,-249.144"/>
</g>
<!-- v3&#45;&#45;v7 -->
<g id="edge22" class="edge"><title>v3&#45;&#45;v7</title>
<path fill="none" stroke="black" d="M289.402,-288.507C296.691,-270.32 309.366,-240.401 323,-216 330.379,-202.794 340.078,-188.661 347.549,-178.314"/>
</g>
<!-- v1&#45;&#45;v2 -->
<g id="edge7" class="edge"><title>v1&#45;&#45;v2</title>
<path fill="none" stroke="black" d="M213.684,-440.833C252.8,-427.345 330.45,-400.569 369.467,-387.115"/>
</g>
<!-- v1&#45;&#45;v8 -->
<g id="edge11" class="edge"><title>v1&#45;&#45;v8</title>
<path fill="none" stroke="black" d="M170.661,-437.19C138.137,-415.674 76,-366.751 76,-307 76,-307 76,-307 76,-233 76,-188.473 88.061,-172.823 122,-144 161.692,-110.291 223.288,-97.9016 258.292,-93.4361"/>
</g>
<!-- v1&#45;&#45;v3 -->
<g id="edge8" class="edge"><title>v1&#45;&#45;v3</title>
<path fill="none" stroke="black" d="M200.308,-433.261C218.184,-405.966 254.737,-350.154 272.646,-322.81"/>
</g>
<!-- v1&#45;&#45;v4 -->
<g id="edge9" class="edge"><title>v1&#45;&#45;v4</title>
<path fill="none" stroke="black" d="M191.683,-431.849C195.615,-391.78 205.369,-292.383 209.309,-252.232"/>
</g>
<!-- v1&#45;&#45;v6 -->
<g id="edge10" class="edge"><title>v1&#45;&#45;v6</title>
<path fill="none" stroke="black" d="M186.648,-431.961C180.12,-397.925 165.833,-319.035 160,-252 157.83,-227.057 157.605,-198.042 157.733,-180.097"/>
</g>
<!-- v1&#45;&#45;v9 -->
<g id="edge12" class="edge"><title>v1&#45;&#45;v9</title>
<path fill="none" stroke="black" d="M166.136,-441.128C143.776,-432.787 110.513,-417.79 88,-396 55.399,-364.446 38,-352.37 38,-307 38,-307 38,-307 38,-161 38,-71.2408 366.524,-31.3192 463.413,-21.4972"/>
</g>
<!-- v4&#45;&#45;v8 -->
<g id="edge26" class="edge"><title>v4&#45;&#45;v8</title>
<path fill="none" stroke="black" d="M217.951,-216.294C225.66,-198.178 238.764,-168.56 252,-144 258.891,-131.214 267.609,-117.292 274.354,-106.927"/>
</g>
<!-- v4&#45;&#45;v6 -->
<g id="edge24" class="edge"><title>v4&#45;&#45;v6</title>
<path fill="none" stroke="black" d="M199.238,-217.465C190.455,-205.865 178.505,-190.082 169.73,-178.492"/>
</g>
<!-- v4&#45;&#45;v7 -->
<g id="edge25" class="edge"><title>v4&#45;&#45;v7</title>
<path fill="none" stroke="black" d="M232.52,-222.821C260.58,-209.55 309.381,-186.468 337.454,-173.191"/>
</g>
<!-- v5&#45;&#45;v8 -->
<g id="edge29" class="edge"><title>v5&#45;&#45;v8</title>
<path fill="none" stroke="black" d="M347.134,-217.274C339.676,-206.988 330.147,-193.08 323,-180 309.788,-155.821 297.909,-126.096 291.077,-107.853"/>
</g>
<!-- v5&#45;&#45;v6 -->
<g id="edge27" class="edge"><title>v5&#45;&#45;v6</title>
<path fill="none" stroke="black" d="M335.549,-224.833C296.819,-211.345 219.934,-184.569 181.301,-171.115"/>
</g>
<!-- v5&#45;&#45;v7 -->
<g id="edge28" class="edge"><title>v5&#45;&#45;v7</title>
<path fill="none" stroke="black" d="M359,-215.697C359,-204.846 359,-190.917 359,-180.104"/>
</g>
<!-- v5&#45;&#45;v9 -->
<g id="edge30" class="edge"><title>v5&#45;&#45;v9</title>
<path fill="none" stroke="black" d="M369.977,-217.404C377.248,-206.937 386.902,-192.778 395,-180 428.009,-127.915 464.35,-64.4582 480.895,-35.2001"/>
</g>
<!-- v6&#45;&#45;v8 -->
<g id="edge31" class="edge"><title>v6&#45;&#45;v8</title>
<path fill="none" stroke="black" d="M178.124,-149.908C201.764,-136.878 240.769,-115.379 264.55,-102.272"/>
</g>
<!-- v7&#45;&#45;v8 -->
<g id="edge32" class="edge"><title>v7&#45;&#45;v8</title>
<path fill="none" stroke="black" d="M344.025,-146.834C331.186,-134.69 312.785,-117.283 299.953,-105.144"/>
</g>
</g>
</svg>
