<?xml version="1.0" encoding="UTF-8" standalone="no"?>
<!DOCTYPE svg PUBLIC "-//W3C//DTD SVG 1.1//EN"
 "http://www.w3.org/Graphics/SVG/1.1/DTD/svg11.dtd">
<!-- Generated by graphviz version 2.38.0 (20140413.2041)
 -->
<!-- Title: G Pages: 1 -->
<svg width="554pt" height="548pt"
 viewBox="0.00 0.00 554.04 548.00" xmlns="http://www.w3.org/2000/svg" xmlns:xlink="http://www.w3.org/1999/xlink">
<g id="graph0" class="graph" transform="scale(1 1) rotate(0) translate(4 544)">
<title>G</title>
<polygon fill="white" stroke="none" points="-4,4 -4,-544 550.037,-544 550.037,4 -4,4"/>
<!-- v0 -->
<g id="node1" class="node"><title>v0</title>
<ellipse fill="red" stroke="black" cx="198" cy="-522" rx="27" ry="18"/>
<text text-anchor="middle" x="198" y="-518.3" font-family="Times,serif" font-size="14.00">v0</text>
</g>
<!-- v1 -->
<g id="node5" class="node"><title>v1</title>
<ellipse fill="red" stroke="black" cx="355" cy="-450" rx="27" ry="18"/>
<text text-anchor="middle" x="355" y="-446.3" font-family="Times,serif" font-size="14.00">v1</text>
</g>
<!-- v0&#45;&#45;v1 -->
<g id="edge1" class="edge"><title>v0&#45;&#45;v1</title>
<path fill="none" stroke="black" d="M219.83,-511.267C249.741,-497.931 303.157,-474.115 333.103,-460.763"/>
</g>
<!-- v5 -->
<g id="node6" class="node"><title>v5</title>
<ellipse fill="red" stroke="black" cx="245" cy="-234" rx="27" ry="18"/>
<text text-anchor="middle" x="245" y="-230.3" font-family="Times,serif" font-size="14.00">v5</text>
</g>
<!-- v0&#45;&#45;v5 -->
<g id="edge3" class="edge"><title>v0&#45;&#45;v5</title>
<path fill="none" stroke="black" d="M178.025,-509.727C163.934,-500.532 146.17,-486.118 138,-468 131.423,-453.414 134.06,-447.507 138,-432 156.783,-358.064 209.526,-281.865 233.217,-250.208"/>
</g>
<!-- v2 -->
<g id="node7" class="node"><title>v2</title>
<ellipse fill="red" stroke="black" cx="300" cy="-378" rx="27" ry="18"/>
<text text-anchor="middle" x="300" y="-374.3" font-family="Times,serif" font-size="14.00">v2</text>
</g>
<!-- v0&#45;&#45;v2 -->
<g id="edge2" class="edge"><title>v0&#45;&#45;v2</title>
<path fill="none" stroke="black" d="M209.11,-505.533C228.731,-478.218 269.293,-421.749 288.904,-394.448"/>
</g>
<!-- v6 -->
<g id="node8" class="node"><title>v6</title>
<ellipse fill="none" stroke="black" cx="481" cy="-162" rx="27" ry="18"/>
<text text-anchor="middle" x="481" y="-158.3" font-family="Times,serif" font-size="14.00">v6</text>
</g>
<!-- v0&#45;&#45;v6 -->
<g id="edge4" class="edge"><title>v0&#45;&#45;v6</title>
<path fill="none" stroke="black" d="M225.026,-519.723C265.02,-516.579 340.652,-505.691 391,-468 477.082,-403.559 485.477,-358.546 500,-252 502.161,-236.147 502.74,-231.764 500,-216 497.79,-203.288 492.808,-189.594 488.499,-179.311"/>
</g>
<!-- v7 -->
<g id="node9" class="node"><title>v7</title>
<ellipse fill="none" stroke="black" cx="315" cy="-162" rx="27" ry="18"/>
<text text-anchor="middle" x="315" y="-158.3" font-family="Times,serif" font-size="14.00">v7</text>
</g>
<!-- v0&#45;&#45;v7 -->
<g id="edge5" class="edge"><title>v0&#45;&#45;v7</title>
<path fill="none" stroke="black" d="M189.131,-504.936C175.764,-479.178 152,-426.682 152,-379 152,-379 152,-379 152,-305 152,-232.002 246.091,-187.958 291.298,-171.009"/>
</g>
<!-- v9 -->
<g id="node10" class="node"><title>v9</title>
<ellipse fill="none" stroke="black" cx="114" cy="-18" rx="27" ry="18"/>
<text text-anchor="middle" x="114" y="-14.3" font-family="Times,serif" font-size="14.00">v9</text>
</g>
<!-- v0&#45;&#45;v9 -->
<g id="edge6" class="edge"><title>v0&#45;&#45;v9</title>
<path fill="none" stroke="black" d="M172.52,-515.435C119.044,-502.095 0,-462.968 0,-379 0,-379 0,-379 0,-161 0,-101.249 62.1367,-52.3256 94.6615,-30.8101"/>
</g>
<!-- v8 -->
<g id="node2" class="node"><title>v8</title>
<ellipse fill="red" stroke="black" cx="348" cy="-90" rx="27" ry="18"/>
<text text-anchor="middle" x="348" y="-86.3" font-family="Times,serif" font-size="14.00">v8</text>
</g>
<!-- v8&#45;&#45;v9 -->
<g id="edge33" class="edge"><title>v8&#45;&#45;v9</title>
<path fill="none" stroke="black" d="M323.839,-81.7724C278.999,-68.3588 183.385,-39.7561 138.38,-26.2931"/>
</g>
<!-- v4 -->
<g id="node3" class="node"><title>v4</title>
<ellipse fill="red" stroke="black" cx="431" cy="-234" rx="27" ry="18"/>
<text text-anchor="middle" x="431" y="-230.3" font-family="Times,serif" font-size="14.00">v4</text>
</g>
<!-- v4&#45;&#45;v8 -->
<g id="edge26" class="edge"><title>v4&#45;&#45;v8</title>
<path fill="none" stroke="black" d="M424.711,-216.324C417.478,-197.976 404.694,-167.917 390,-144 381.642,-130.396 370.311,-116.288 361.524,-106.051"/>
</g>
<!-- v4&#45;&#45;v6 -->
<g id="edge24" class="edge"><title>v4&#45;&#45;v6</title>
<path fill="none" stroke="black" d="M442.097,-217.465C450.382,-205.865 461.656,-190.082 469.934,-178.492"/>
</g>
<!-- v4&#45;&#45;v7 -->
<g id="edge25" class="edge"><title>v4&#45;&#45;v7</title>
<path fill="none" stroke="black" d="M411.584,-221.284C390.171,-208.362 355.917,-187.692 334.479,-174.755"/>
</g>
<!-- v3 -->
<g id="node4" class="node"><title>v3</title>
<ellipse fill="red" stroke="black" cx="355" cy="-306" rx="27" ry="18"/>
<text text-anchor="middle" x="355" y="-302.3" font-family="Times,serif" font-size="14.00">v3</text>
</g>
<!-- v3&#45;&#45;v8 -->
<g id="edge23" class="edge"><title>v3&#45;&#45;v8</title>
<path fill="none" stroke="black" d="M354.748,-287.602C354.281,-258.069 353.127,-196.242 351,-144 350.513,-132.029 349.747,-118.549 349.111,-108.179"/>
</g>
<!-- v3&#45;&#45;v4 -->
<g id="edge20" class="edge"><title>v3&#45;&#45;v4</title>
<path fill="none" stroke="black" d="M370.38,-290.834C383.565,-278.69 402.464,-261.283 415.643,-249.144"/>
</g>
<!-- v3&#45;&#45;v5 -->
<g id="edge21" class="edge"><title>v3&#45;&#45;v5</title>
<path fill="none" stroke="black" d="M335.839,-292.807C315.65,-279.959 284.048,-259.848 263.941,-247.053"/>
</g>
<!-- v3&#45;&#45;v7 -->
<g id="edge22" class="edge"><title>v3&#45;&#45;v7</title>
<path fill="none" stroke="black" d="M350.254,-288.153C342.556,-260.824 327.434,-207.14 319.739,-179.825"/>
</g>
<!-- v1&#45;&#45;v8 -->
<g id="edge11" class="edge"><title>v1&#45;&#45;v8</title>
<path fill="none" stroke="black" d="M375.849,-438.184C392.856,-428.662 416.795,-413.595 434,-396 516.442,-311.691 586.799,-239.041 517,-144 484.237,-99.3895 413.996,-91.3101 375.178,-90.4447"/>
</g>
<!-- v1&#45;&#45;v4 -->
<g id="edge9" class="edge"><title>v1&#45;&#45;v4</title>
<path fill="none" stroke="black" d="M364.652,-433.047C378.233,-409.872 402.794,-365.157 416,-324 423.803,-299.68 427.751,-270.249 429.589,-252.074"/>
</g>
<!-- v1&#45;&#45;v3 -->
<g id="edge8" class="edge"><title>v1&#45;&#45;v3</title>
<path fill="none" stroke="black" d="M355,-431.871C355,-404.578 355,-351.52 355,-324.189"/>
</g>
<!-- v1&#45;&#45;v2 -->
<g id="edge7" class="edge"><title>v1&#45;&#45;v2</title>
<path fill="none" stroke="black" d="M343.066,-433.811C333.84,-422.07 321.13,-405.893 311.911,-394.159"/>
</g>
<!-- v1&#45;&#45;v6 -->
<g id="edge10" class="edge"><title>v1&#45;&#45;v6</title>
<path fill="none" stroke="black" d="M370.75,-435.157C381.732,-425.007 396.278,-410.517 407,-396 450.242,-337.452 467.119,-322.555 485,-252 491.194,-227.561 487.878,-198.162 484.652,-180.027"/>
</g>
<!-- v1&#45;&#45;v9 -->
<g id="edge12" class="edge"><title>v1&#45;&#45;v9</title>
<path fill="none" stroke="black" d="M329.059,-444.475C253.35,-429.634 38,-375.107 38,-235 38,-235 38,-235 38,-161 38,-109.271 77.6896,-58.1496 99.705,-33.7722"/>
</g>
<!-- v5&#45;&#45;v8 -->
<g id="edge29" class="edge"><title>v5&#45;&#45;v8</title>
<path fill="none" stroke="black" d="M248.569,-215.898C253.169,-196.903 262.595,-166.017 279,-144 292.177,-126.316 312.766,-111.564 328.028,-102.152"/>
</g>
<!-- v5&#45;&#45;v6 -->
<g id="edge27" class="edge"><title>v5&#45;&#45;v6</title>
<path fill="none" stroke="black" d="M269.367,-225.772C314.708,-212.324 411.525,-183.607 456.765,-170.188"/>
</g>
<!-- v5&#45;&#45;v7 -->
<g id="edge28" class="edge"><title>v5&#45;&#45;v7</title>
<path fill="none" stroke="black" d="M259.504,-218.496C271.518,-206.482 288.506,-189.494 300.515,-177.485"/>
</g>
<!-- v5&#45;&#45;v9 -->
<g id="edge30" class="edge"><title>v5&#45;&#45;v9</title>
<path fill="none" stroke="black" d="M235.154,-216.915C210.817,-177.159 148.051,-74.6246 123.782,-34.9795"/>
</g>
<!-- v2&#45;&#45;v8 -->
<g id="edge18" class="edge"><title>v2&#45;&#45;v8</title>
<path fill="none" stroke="black" d="M283.447,-363.749C252.656,-337.377 191.239,-275.702 209,-216 219.897,-179.372 228.237,-170.259 256,-144 276.623,-124.494 305.727,-109.277 325.645,-100.247"/>
</g>
<!-- v2&#45;&#45;v4 -->
<g id="edge14" class="edge"><title>v2&#45;&#45;v4</title>
<path fill="none" stroke="black" d="M323.251,-368.262C343.436,-359.661 372.286,-344.79 391,-324 410.04,-302.848 421.317,-271.129 426.819,-251.821"/>
</g>
<!-- v2&#45;&#45;v3 -->
<g id="edge13" class="edge"><title>v2&#45;&#45;v3</title>
<path fill="none" stroke="black" d="M311.934,-361.811C321.16,-350.07 333.87,-333.893 343.089,-322.159"/>
</g>
<!-- v2&#45;&#45;v5 -->
<g id="edge15" class="edge"><title>v2&#45;&#45;v5</title>
<path fill="none" stroke="black" d="M293.583,-360.433C283.042,-333.217 262.172,-279.334 251.546,-251.902"/>
</g>
<!-- v2&#45;&#45;v6 -->
<g id="edge16" class="edge"><title>v2&#45;&#45;v6</title>
<path fill="none" stroke="black" d="M324.259,-370.063C349.258,-362.022 388.371,-346.874 416,-324 446.206,-298.992 452.23,-288.327 467,-252 476.661,-228.237 479.69,-198.395 480.619,-180.015"/>
</g>
<!-- v2&#45;&#45;v7 -->
<g id="edge17" class="edge"><title>v2&#45;&#45;v7</title>
<path fill="none" stroke="black" d="M301.202,-359.849C304.011,-319.78 310.978,-220.383 313.792,-180.232"/>
</g>
<!-- v2&#45;&#45;v9 -->
<g id="edge19" class="edge"><title>v2&#45;&#45;v9</title>
<path fill="none" stroke="black" d="M275.301,-370.713C224.705,-356.188 114,-315.237 114,-235 114,-235 114,-235 114,-161 114,-115.885 114,-62.7084 114,-36.0493"/>
</g>
<!-- v6&#45;&#45;v8 -->
<g id="edge31" class="edge"><title>v6&#45;&#45;v8</title>
<path fill="none" stroke="black" d="M460.51,-150.216C435.59,-137.1 393.762,-115.085 368.732,-101.912"/>
</g>
<!-- v7&#45;&#45;v8 -->
<g id="edge32" class="edge"><title>v7&#45;&#45;v8</title>
<path fill="none" stroke="black" d="M322.821,-144.411C328.081,-133.252 334.987,-118.604 340.236,-107.47"/>
</g>
</g>
</svg>
