<?xml version="1.0" encoding="UTF-8" standalone="no"?>
<!DOCTYPE svg PUBLIC "-//W3C//DTD SVG 1.1//EN"
 "http://www.w3.org/Graphics/SVG/1.1/DTD/svg11.dtd">
<!-- Generated by graphviz version 2.38.0 (20140413.2041)
 -->
<!-- Title: G Pages: 1 -->
<svg width="574pt" height="548pt"
 viewBox="0.00 0.00 574.00 548.00" xmlns="http://www.w3.org/2000/svg" xmlns:xlink="http://www.w3.org/1999/xlink">
<g id="graph0" class="graph" transform="scale(1 1) rotate(0) translate(4 544)">
<title>G</title>
<polygon fill="white" stroke="none" points="-4,4 -4,-544 570,-544 570,4 -4,4"/>
<!-- v8 -->
<g id="node1" class="node"><title>v8</title>
<ellipse fill="red" stroke="black" cx="272" cy="-90" rx="27" ry="18"/>
<text text-anchor="middle" x="272" y="-86.3" font-family="Times,serif" font-size="14.00">v8</text>
</g>
<!-- v9 -->
<g id="node9" class="node"><title>v9</title>
<ellipse fill="none" stroke="black" cx="338" cy="-18" rx="27" ry="18"/>
<text text-anchor="middle" x="338" y="-14.3" font-family="Times,serif" font-size="14.00">v9</text>
</g>
<!-- v8&#45;&#45;v9 -->
<g id="edge33" class="edge"><title>v8&#45;&#45;v9</title>
<path fill="none" stroke="black" d="M285.997,-74.1548C297.197,-62.2756 312.828,-45.6974 324.023,-33.8238"/>
</g>
<!-- v4 -->
<g id="node2" class="node"><title>v4</title>
<ellipse fill="red" stroke="black" cx="207" cy="-234" rx="27" ry="18"/>
<text text-anchor="middle" x="207" y="-230.3" font-family="Times,serif" font-size="14.00">v4</text>
</g>
<!-- v4&#45;&#45;v8 -->
<g id="edge26" class="edge"><title>v4&#45;&#45;v8</title>
<path fill="none" stroke="black" d="M214.584,-216.433C227.108,-189.071 251.972,-134.754 264.465,-107.462"/>
</g>
<!-- v7 -->
<g id="node4" class="node"><title>v7</title>
<ellipse fill="red" stroke="black" cx="393" cy="-162" rx="27" ry="18"/>
<text text-anchor="middle" x="393" y="-158.3" font-family="Times,serif" font-size="14.00">v7</text>
</g>
<!-- v4&#45;&#45;v7 -->
<g id="edge25" class="edge"><title>v4&#45;&#45;v7</title>
<path fill="none" stroke="black" d="M230.181,-224.276C266.018,-210.789 334.452,-185.034 370.111,-171.614"/>
</g>
<!-- v6 -->
<g id="node8" class="node"><title>v6</title>
<ellipse fill="none" stroke="black" cx="156" cy="-162" rx="27" ry="18"/>
<text text-anchor="middle" x="156" y="-158.3" font-family="Times,serif" font-size="14.00">v6</text>
</g>
<!-- v4&#45;&#45;v6 -->
<g id="edge24" class="edge"><title>v4&#45;&#45;v6</title>
<path fill="none" stroke="black" d="M195.681,-217.465C187.23,-205.865 175.731,-190.082 167.287,-178.492"/>
</g>
<!-- v0 -->
<g id="node3" class="node"><title>v0</title>
<ellipse fill="red" stroke="black" cx="357" cy="-522" rx="27" ry="18"/>
<text text-anchor="middle" x="357" y="-518.3" font-family="Times,serif" font-size="14.00">v0</text>
</g>
<!-- v0&#45;&#45;v7 -->
<g id="edge5" class="edge"><title>v0&#45;&#45;v7</title>
<path fill="none" stroke="black" d="M373.984,-507.702C401.309,-484.669 452,-434.466 452,-379 452,-379 452,-379 452,-305 452,-255.879 421.521,-204.012 404.376,-178.722"/>
</g>
<!-- v5 -->
<g id="node5" class="node"><title>v5</title>
<ellipse fill="red" stroke="black" cx="317" cy="-234" rx="27" ry="18"/>
<text text-anchor="middle" x="317" y="-230.3" font-family="Times,serif" font-size="14.00">v5</text>
</g>
<!-- v0&#45;&#45;v5 -->
<g id="edge3" class="edge"><title>v0&#45;&#45;v5</title>
<path fill="none" stroke="black" d="M360.576,-504.033C368.098,-464.765 382.828,-365.096 357,-288 352.02,-273.134 341.042,-259.105 331.845,-249.22"/>
</g>
<!-- v1 -->
<g id="node6" class="node"><title>v1</title>
<ellipse fill="red" stroke="black" cx="300" cy="-450" rx="27" ry="18"/>
<text text-anchor="middle" x="300" y="-446.3" font-family="Times,serif" font-size="14.00">v1</text>
</g>
<!-- v0&#45;&#45;v1 -->
<g id="edge1" class="edge"><title>v0&#45;&#45;v1</title>
<path fill="none" stroke="black" d="M344.632,-505.811C335.071,-494.07 321.899,-477.893 312.344,-466.159"/>
</g>
<!-- v2 -->
<g id="node7" class="node"><title>v2</title>
<ellipse fill="red" stroke="black" cx="182" cy="-378" rx="27" ry="18"/>
<text text-anchor="middle" x="182" y="-374.3" font-family="Times,serif" font-size="14.00">v2</text>
</g>
<!-- v0&#45;&#45;v2 -->
<g id="edge2" class="edge"><title>v0&#45;&#45;v2</title>
<path fill="none" stroke="black" d="M335.138,-510.95C315.5,-501.38 286.394,-485.82 264,-468 235.888,-445.63 208.745,-413.434 193.819,-394.521"/>
</g>
<!-- v0&#45;&#45;v6 -->
<g id="edge4" class="edge"><title>v0&#45;&#45;v6</title>
<path fill="none" stroke="black" d="M330.057,-519.82C259.725,-515.157 76,-492.146 76,-379 76,-379 76,-379 76,-305 76,-252.37 118.231,-201.257 141.327,-177.24"/>
</g>
<!-- v0&#45;&#45;v9 -->
<g id="edge6" class="edge"><title>v0&#45;&#45;v9</title>
<path fill="none" stroke="black" d="M382.628,-516.183C438.437,-504.054 566,-466.735 566,-379 566,-379 566,-379 566,-161 566,-66.8021 424.043,-32.8483 364.154,-22.7153"/>
</g>
<!-- v7&#45;&#45;v8 -->
<g id="edge32" class="edge"><title>v7&#45;&#45;v8</title>
<path fill="none" stroke="black" d="M373.29,-149.597C350.789,-136.581 314.199,-115.413 291.702,-102.398"/>
</g>
<!-- v5&#45;&#45;v8 -->
<g id="edge29" class="edge"><title>v5&#45;&#45;v8</title>
<path fill="none" stroke="black" d="M311.661,-216.153C303.001,-188.824 285.988,-135.14 277.332,-107.825"/>
</g>
<!-- v5&#45;&#45;v7 -->
<g id="edge28" class="edge"><title>v5&#45;&#45;v7</title>
<path fill="none" stroke="black" d="M332.38,-218.834C345.565,-206.69 364.464,-189.283 377.643,-177.144"/>
</g>
<!-- v5&#45;&#45;v6 -->
<g id="edge27" class="edge"><title>v5&#45;&#45;v6</title>
<path fill="none" stroke="black" d="M294.951,-223.414C264.206,-210.046 208.781,-185.948 178.04,-172.583"/>
</g>
<!-- v5&#45;&#45;v9 -->
<g id="edge30" class="edge"><title>v5&#45;&#45;v9</title>
<path fill="none" stroke="black" d="M318.683,-215.849C322.615,-175.78 332.369,-76.3826 336.309,-36.2325"/>
</g>
<!-- v1&#45;&#45;v8 -->
<g id="edge11" class="edge"><title>v1&#45;&#45;v8</title>
<path fill="none" stroke="black" d="M311.774,-433.548C328.82,-410.629 360.562,-365.82 381,-324 417.355,-249.613 477.283,-211.26 429,-144 399.306,-102.635 335.62,-93.1338 299.142,-91.209"/>
</g>
<!-- v1&#45;&#45;v4 -->
<g id="edge9" class="edge"><title>v1&#45;&#45;v4</title>
<path fill="none" stroke="black" d="M292.857,-432.563C275.546,-392.729 231.504,-291.385 214.167,-251.493"/>
</g>
<!-- v1&#45;&#45;v2 -->
<g id="edge7" class="edge"><title>v1&#45;&#45;v2</title>
<path fill="none" stroke="black" d="M280.515,-437.441C258.651,-424.471 223.39,-403.553 201.514,-390.576"/>
</g>
<!-- v1&#45;&#45;v6 -->
<g id="edge10" class="edge"><title>v1&#45;&#45;v6</title>
<path fill="none" stroke="black" d="M273.055,-448.595C237.205,-446.426 174.983,-436.627 146,-396 98.0306,-328.76 132.863,-220.727 148.992,-179.612"/>
</g>
<!-- v1&#45;&#45;v9 -->
<g id="edge12" class="edge"><title>v1&#45;&#45;v9</title>
<path fill="none" stroke="black" d="M323.117,-440.327C381.081,-416.912 528,-346.562 528,-235 528,-235 528,-235 528,-161 528,-79.6683 414.914,-39.3121 363.231,-25.1152"/>
</g>
<!-- v3 -->
<g id="node10" class="node"><title>v3</title>
<ellipse fill="none" stroke="black" cx="321" cy="-306" rx="27" ry="18"/>
<text text-anchor="middle" x="321" y="-302.3" font-family="Times,serif" font-size="14.00">v3</text>
</g>
<!-- v1&#45;&#45;v3 -->
<g id="edge8" class="edge"><title>v1&#45;&#45;v3</title>
<path fill="none" stroke="black" d="M302.533,-431.871C306.569,-404.578 314.416,-351.52 318.458,-324.189"/>
</g>
<!-- v2&#45;&#45;v8 -->
<g id="edge18" class="edge"><title>v2&#45;&#45;v8</title>
<path fill="none" stroke="black" d="M169.898,-361.563C140.298,-321.809 70.1841,-214.127 120,-144 148.485,-103.901 209.647,-93.8872 245.091,-91.5447"/>
</g>
<!-- v2&#45;&#45;v4 -->
<g id="edge14" class="edge"><title>v2&#45;&#45;v4</title>
<path fill="none" stroke="black" d="M185.016,-359.871C189.821,-332.578 199.162,-279.52 203.974,-252.189"/>
</g>
<!-- v2&#45;&#45;v7 -->
<g id="edge17" class="edge"><title>v2&#45;&#45;v7</title>
<path fill="none" stroke="black" d="M209.016,-376.686C247.48,-374.722 317.709,-365.269 357,-324 395.116,-283.965 396.222,-212.787 394.458,-180.179"/>
</g>
<!-- v2&#45;&#45;v5 -->
<g id="edge15" class="edge"><title>v2&#45;&#45;v5</title>
<path fill="none" stroke="black" d="M195.939,-362.338C221.808,-335.128 276.97,-277.105 302.935,-249.795"/>
</g>
<!-- v2&#45;&#45;v6 -->
<g id="edge16" class="edge"><title>v2&#45;&#45;v6</title>
<path fill="none" stroke="black" d="M179.916,-359.849C175.048,-319.78 162.972,-220.383 158.094,-180.232"/>
</g>
<!-- v2&#45;&#45;v9 -->
<g id="edge19" class="edge"><title>v2&#45;&#45;v9</title>
<path fill="none" stroke="black" d="M157.455,-370.43C107.776,-355.481 0,-313.951 0,-235 0,-235 0,-235 0,-161 0,-26.3828 230.705,-17.276 310.911,-18.1776"/>
</g>
<!-- v2&#45;&#45;v3 -->
<g id="edge13" class="edge"><title>v2&#45;&#45;v3</title>
<path fill="none" stroke="black" d="M202.81,-366.52C229.014,-353.324 273.777,-330.781 300.048,-317.551"/>
</g>
<!-- v6&#45;&#45;v8 -->
<g id="edge31" class="edge"><title>v6&#45;&#45;v8</title>
<path fill="none" stroke="black" d="M175.416,-149.284C196.829,-136.362 231.083,-115.692 252.521,-102.755"/>
</g>
<!-- v3&#45;&#45;v8 -->
<g id="edge23" class="edge"><title>v3&#45;&#45;v8</title>
<path fill="none" stroke="black" d="M306.428,-290.685C297.345,-280.759 286.393,-266.721 281,-252 262.799,-202.319 266.567,-138.24 269.787,-108.102"/>
</g>
<!-- v3&#45;&#45;v4 -->
<g id="edge20" class="edge"><title>v3&#45;&#45;v4</title>
<path fill="none" stroke="black" d="M301.661,-293.125C280.698,-280.253 247.434,-259.828 226.433,-246.933"/>
</g>
<!-- v3&#45;&#45;v7 -->
<g id="edge22" class="edge"><title>v3&#45;&#45;v7</title>
<path fill="none" stroke="black" d="M331.32,-289.054C337.859,-278.68 346.313,-264.757 353,-252 365.898,-227.393 378.686,-197.788 386.212,-179.688"/>
</g>
<!-- v3&#45;&#45;v5 -->
<g id="edge21" class="edge"><title>v3&#45;&#45;v5</title>
<path fill="none" stroke="black" d="M320.011,-287.697C319.391,-276.846 318.595,-262.917 317.977,-252.104"/>
</g>
</g>
</svg>
