<?xml version="1.0" encoding="UTF-8" standalone="no"?>
<!DOCTYPE svg PUBLIC "-//W3C//DTD SVG 1.1//EN"
 "http://www.w3.org/Graphics/SVG/1.1/DTD/svg11.dtd">
<!-- Generated by graphviz version 2.38.0 (20140413.2041)
 -->
<!-- Title: G Pages: 1 -->
<svg width="574pt" height="548pt"
 viewBox="0.00 0.00 574.00 548.00" xmlns="http://www.w3.org/2000/svg" xmlns:xlink="http://www.w3.org/1999/xlink">
<g id="graph0" class="graph" transform="scale(1 1) rotate(0) translate(4 544)">
<title>G</title>
<polygon fill="white" stroke="none" points="-4,4 -4,-544 570,-544 570,4 -4,4"/>
<!-- v7 -->
<g id="node1" class="node"><title>v7</title>
<ellipse fill="red" stroke="black" cx="357" cy="-162" rx="27" ry="18"/>
<text text-anchor="middle" x="357" y="-158.3" font-family="Times,serif" font-size="14.00">v7</text>
</g>
<!-- v8 -->
<g id="node6" class="node"><title>v8</title>
<ellipse fill="red" stroke="black" cx="283" cy="-90" rx="27" ry="18"/>
<text text-anchor="middle" x="283" y="-86.3" font-family="Times,serif" font-size="14.00">v8</text>
</g>
<!-- v7&#45;&#45;v8 -->
<g id="edge32" class="edge"><title>v7&#45;&#45;v8</title>
<path fill="none" stroke="black" d="M342.025,-146.834C329.186,-134.69 310.785,-117.283 297.953,-105.144"/>
</g>
<!-- v2 -->
<g id="node2" class="node"><title>v2</title>
<ellipse fill="red" stroke="black" cx="321" cy="-378" rx="27" ry="18"/>
<text text-anchor="middle" x="321" y="-374.3" font-family="Times,serif" font-size="14.00">v2</text>
</g>
<!-- v2&#45;&#45;v7 -->
<g id="edge17" class="edge"><title>v2&#45;&#45;v7</title>
<path fill="none" stroke="black" d="M333.571,-361.655C351.034,-339.218 381.755,-295.395 393,-252 397.013,-236.512 397.703,-231.293 393,-216 388.619,-201.753 378.961,-187.9 370.75,-177.931"/>
</g>
<!-- v5 -->
<g id="node3" class="node"><title>v5</title>
<ellipse fill="red" stroke="black" cx="357" cy="-234" rx="27" ry="18"/>
<text text-anchor="middle" x="357" y="-230.3" font-family="Times,serif" font-size="14.00">v5</text>
</g>
<!-- v2&#45;&#45;v5 -->
<g id="edge15" class="edge"><title>v2&#45;&#45;v5</title>
<path fill="none" stroke="black" d="M325.271,-360.153C332.2,-332.824 345.81,-279.14 352.735,-251.825"/>
</g>
<!-- v2&#45;&#45;v8 -->
<g id="edge18" class="edge"><title>v2&#45;&#45;v8</title>
<path fill="none" stroke="black" d="M340.276,-365.02C354.205,-355.465 372.517,-340.909 384,-324 411.625,-283.323 413.041,-264.912 408,-216 404.649,-183.485 413.134,-169.75 393,-144 371.978,-117.114 333.89,-103.082 308.517,-96.3714"/>
</g>
<!-- v4 -->
<g id="node7" class="node"><title>v4</title>
<ellipse fill="red" stroke="black" cx="209" cy="-234" rx="27" ry="18"/>
<text text-anchor="middle" x="209" y="-230.3" font-family="Times,serif" font-size="14.00">v4</text>
</g>
<!-- v2&#45;&#45;v4 -->
<g id="edge14" class="edge"><title>v2&#45;&#45;v4</title>
<path fill="none" stroke="black" d="M300.086,-366.209C283.783,-356.902 261.542,-342.115 247,-324 229.436,-302.12 218.617,-270.912 213.217,-251.858"/>
</g>
<!-- v6 -->
<g id="node8" class="node"><title>v6</title>
<ellipse fill="none" stroke="black" cx="159" cy="-162" rx="27" ry="18"/>
<text text-anchor="middle" x="159" y="-158.3" font-family="Times,serif" font-size="14.00">v6</text>
</g>
<!-- v2&#45;&#45;v6 -->
<g id="edge16" class="edge"><title>v2&#45;&#45;v6</title>
<path fill="none" stroke="black" d="M297.835,-368.365C276.43,-359.568 244.615,-344.336 222,-324 193.218,-298.118 187.242,-287.992 173,-252 163.619,-228.293 160.509,-198.694 159.486,-180.317"/>
</g>
<!-- v9 -->
<g id="node9" class="node"><title>v9</title>
<ellipse fill="none" stroke="black" cx="412" cy="-18" rx="27" ry="18"/>
<text text-anchor="middle" x="412" y="-14.3" font-family="Times,serif" font-size="14.00">v9</text>
</g>
<!-- v2&#45;&#45;v9 -->
<g id="edge19" class="edge"><title>v2&#45;&#45;v9</title>
<path fill="none" stroke="black" d="M344.394,-368.619C364.122,-360.331 391.542,-345.718 407,-324 471.644,-233.179 433.359,-85.4991 417.708,-35.8725"/>
</g>
<!-- v3 -->
<g id="node10" class="node"><title>v3</title>
<ellipse fill="none" stroke="black" cx="283" cy="-306" rx="27" ry="18"/>
<text text-anchor="middle" x="283" y="-302.3" font-family="Times,serif" font-size="14.00">v3</text>
</g>
<!-- v2&#45;&#45;v3 -->
<g id="edge13" class="edge"><title>v2&#45;&#45;v3</title>
<path fill="none" stroke="black" d="M312.187,-360.765C306.048,-349.456 297.894,-334.437 291.766,-323.147"/>
</g>
<!-- v5&#45;&#45;v7 -->
<g id="edge28" class="edge"><title>v5&#45;&#45;v7</title>
<path fill="none" stroke="black" d="M357,-215.697C357,-204.846 357,-190.917 357,-180.104"/>
</g>
<!-- v5&#45;&#45;v8 -->
<g id="edge29" class="edge"><title>v5&#45;&#45;v8</title>
<path fill="none" stroke="black" d="M345.134,-217.274C337.676,-206.988 328.147,-193.08 321,-180 307.788,-155.821 295.909,-126.096 289.077,-107.853"/>
</g>
<!-- v5&#45;&#45;v6 -->
<g id="edge27" class="edge"><title>v5&#45;&#45;v6</title>
<path fill="none" stroke="black" d="M333.509,-224.695C295.402,-211.223 220.547,-184.759 182.46,-171.294"/>
</g>
<!-- v5&#45;&#45;v9 -->
<g id="edge30" class="edge"><title>v5&#45;&#45;v9</title>
<path fill="none" stroke="black" d="M370.186,-217.877C378.171,-207.832 387.79,-193.965 393,-180 411.593,-130.16 413.088,-66.1576 412.598,-36.0699"/>
</g>
<!-- v1 -->
<g id="node4" class="node"><title>v1</title>
<ellipse fill="red" stroke="black" cx="190" cy="-450" rx="27" ry="18"/>
<text text-anchor="middle" x="190" y="-446.3" font-family="Times,serif" font-size="14.00">v1</text>
</g>
<!-- v1&#45;&#45;v2 -->
<g id="edge7" class="edge"><title>v1&#45;&#45;v2</title>
<path fill="none" stroke="black" d="M210.469,-438.062C235.079,-424.912 276.129,-402.977 300.675,-389.861"/>
</g>
<!-- v1&#45;&#45;v8 -->
<g id="edge11" class="edge"><title>v1&#45;&#45;v8</title>
<path fill="none" stroke="black" d="M170.661,-437.19C138.137,-415.674 76,-366.751 76,-307 76,-307 76,-307 76,-233 76,-188.268 88.8561,-172.9 123,-144 161.976,-111.011 222.158,-98.3697 256.527,-93.6642"/>
</g>
<!-- v1&#45;&#45;v4 -->
<g id="edge9" class="edge"><title>v1&#45;&#45;v4</title>
<path fill="none" stroke="black" d="M191.523,-431.849C195.08,-391.78 203.905,-292.383 207.47,-252.232"/>
</g>
<!-- v1&#45;&#45;v6 -->
<g id="edge10" class="edge"><title>v1&#45;&#45;v6</title>
<path fill="none" stroke="black" d="M186.582,-431.966C179.939,-397.941 165.456,-319.067 160,-252 157.97,-227.05 158.109,-198.037 158.484,-180.095"/>
</g>
<!-- v1&#45;&#45;v9 -->
<g id="edge12" class="edge"><title>v1&#45;&#45;v9</title>
<path fill="none" stroke="black" d="M166.413,-441.03C144.303,-432.619 111.388,-417.572 89,-396 56.1708,-364.367 38,-352.59 38,-307 38,-307 38,-307 38,-161 38,-86.4247 301.183,-37.0418 385.998,-23.0637"/>
</g>
<!-- v1&#45;&#45;v3 -->
<g id="edge8" class="edge"><title>v1&#45;&#45;v3</title>
<path fill="none" stroke="black" d="M200.308,-433.261C218.184,-405.966 254.737,-350.154 272.646,-322.81"/>
</g>
<!-- v0 -->
<g id="node5" class="node"><title>v0</title>
<ellipse fill="red" stroke="black" cx="352" cy="-522" rx="27" ry="18"/>
<text text-anchor="middle" x="352" y="-518.3" font-family="Times,serif" font-size="14.00">v0</text>
</g>
<!-- v0&#45;&#45;v7 -->
<g id="edge5" class="edge"><title>v0&#45;&#45;v7</title>
<path fill="none" stroke="black" d="M358.091,-503.979C361.623,-493.665 365.959,-480.188 369,-468 392.615,-373.349 399.299,-349.163 408,-252 409.427,-236.064 413.981,-230.84 408,-216 401.318,-199.418 386.692,-185.122 374.809,-175.571"/>
</g>
<!-- v0&#45;&#45;v2 -->
<g id="edge2" class="edge"><title>v0&#45;&#45;v2</title>
<path fill="none" stroke="black" d="M348.322,-504.153C342.388,-476.971 330.762,-423.717 324.77,-396.268"/>
</g>
<!-- v0&#45;&#45;v5 -->
<g id="edge3" class="edge"><title>v0&#45;&#45;v5</title>
<path fill="none" stroke="black" d="M352.915,-503.616C354.136,-479.477 356.232,-434.434 357,-396 358.045,-343.741 357.563,-281.922 357.228,-252.394"/>
</g>
<!-- v0&#45;&#45;v1 -->
<g id="edge1" class="edge"><title>v0&#45;&#45;v1</title>
<path fill="none" stroke="black" d="M329.814,-511.414C298.878,-498.046 243.109,-473.948 212.177,-460.583"/>
</g>
<!-- v0&#45;&#45;v6 -->
<g id="edge4" class="edge"><title>v0&#45;&#45;v6</title>
<path fill="none" stroke="black" d="M326.117,-516.375C244.827,-501.122 0,-449.344 0,-379 0,-379 0,-379 0,-305 0,-233.2 91.3105,-188.674 135.539,-171.318"/>
</g>
<!-- v0&#45;&#45;v9 -->
<g id="edge6" class="edge"><title>v0&#45;&#45;v9</title>
<path fill="none" stroke="black" d="M377.813,-516.477C434.731,-504.867 566,-468.399 566,-379 566,-379 566,-379 566,-161 566,-90.6293 478.016,-45.5114 435.055,-27.6756"/>
</g>
<!-- v8&#45;&#45;v9 -->
<g id="edge33" class="edge"><title>v8&#45;&#45;v9</title>
<path fill="none" stroke="black" d="M303.44,-77.9083C327.595,-64.801 367.542,-43.1245 391.655,-30.0398"/>
</g>
<!-- v4&#45;&#45;v7 -->
<g id="edge25" class="edge"><title>v4&#45;&#45;v7</title>
<path fill="none" stroke="black" d="M230.52,-222.821C258.58,-209.55 307.381,-186.468 335.454,-173.191"/>
</g>
<!-- v4&#45;&#45;v8 -->
<g id="edge26" class="edge"><title>v4&#45;&#45;v8</title>
<path fill="none" stroke="black" d="M215.951,-216.294C223.66,-198.178 236.764,-168.56 250,-144 256.891,-131.214 265.609,-117.292 272.354,-106.927"/>
</g>
<!-- v4&#45;&#45;v6 -->
<g id="edge24" class="edge"><title>v4&#45;&#45;v6</title>
<path fill="none" stroke="black" d="M197.903,-217.465C189.618,-205.865 178.344,-190.082 170.066,-178.492"/>
</g>
<!-- v6&#45;&#45;v8 -->
<g id="edge31" class="edge"><title>v6&#45;&#45;v8</title>
<path fill="none" stroke="black" d="M178.923,-149.753C202.062,-136.691 240.008,-115.27 263.127,-102.219"/>
</g>
<!-- v3&#45;&#45;v7 -->
<g id="edge22" class="edge"><title>v3&#45;&#45;v7</title>
<path fill="none" stroke="black" d="M289.077,-288.147C295.909,-269.904 307.788,-240.179 321,-216 328.147,-202.92 337.676,-189.012 345.134,-178.726"/>
</g>
<!-- v3&#45;&#45;v5 -->
<g id="edge21" class="edge"><title>v3&#45;&#45;v5</title>
<path fill="none" stroke="black" d="M297.975,-290.834C310.814,-278.69 329.215,-261.283 342.047,-249.144"/>
</g>
<!-- v3&#45;&#45;v8 -->
<g id="edge23" class="edge"><title>v3&#45;&#45;v8</title>
<path fill="none" stroke="black" d="M283,-287.849C283,-247.78 283,-148.383 283,-108.232"/>
</g>
<!-- v3&#45;&#45;v4 -->
<g id="edge20" class="edge"><title>v3&#45;&#45;v4</title>
<path fill="none" stroke="black" d="M268.025,-290.834C255.186,-278.69 236.785,-261.283 223.953,-249.144"/>
</g>
</g>
</svg>
