<?xml version="1.0" encoding="UTF-8" standalone="no"?>
<!DOCTYPE svg PUBLIC "-//W3C//DTD SVG 1.1//EN"
 "http://www.w3.org/Graphics/SVG/1.1/DTD/svg11.dtd">
<!-- Generated by graphviz version 2.38.0 (20140413.2041)
 -->
<!-- Title: G Pages: 1 -->
<svg width="515pt" height="548pt"
 viewBox="0.00 0.00 515.00 548.00" xmlns="http://www.w3.org/2000/svg" xmlns:xlink="http://www.w3.org/1999/xlink">
<g id="graph0" class="graph" transform="scale(1 1) rotate(0) translate(4 544)">
<title>G</title>
<polygon fill="white" stroke="none" points="-4,4 -4,-544 511,-544 511,4 -4,4"/>
<!-- v2 -->
<g id="node1" class="node"><title>v2</title>
<ellipse fill="red" stroke="black" cx="264" cy="-378" rx="27" ry="18"/>
<text text-anchor="middle" x="264" y="-374.3" font-family="Times,serif" font-size="14.00">v2</text>
</g>
<!-- v3 -->
<g id="node2" class="node"><title>v3</title>
<ellipse fill="red" stroke="black" cx="264" cy="-306" rx="27" ry="18"/>
<text text-anchor="middle" x="264" y="-302.3" font-family="Times,serif" font-size="14.00">v3</text>
</g>
<!-- v2&#45;&#45;v3 -->
<g id="edge13" class="edge"><title>v2&#45;&#45;v3</title>
<path fill="none" stroke="black" d="M264,-359.697C264,-348.846 264,-334.917 264,-324.104"/>
</g>
<!-- v4 -->
<g id="node4" class="node"><title>v4</title>
<ellipse fill="red" stroke="black" cx="321" cy="-234" rx="27" ry="18"/>
<text text-anchor="middle" x="321" y="-230.3" font-family="Times,serif" font-size="14.00">v4</text>
</g>
<!-- v2&#45;&#45;v4 -->
<g id="edge14" class="edge"><title>v2&#45;&#45;v4</title>
<path fill="none" stroke="black" d="M276.648,-361.659C284.419,-351.527 294.001,-337.645 300,-324 310.478,-300.165 316.15,-270.343 318.873,-251.987"/>
</g>
<!-- v5 -->
<g id="node6" class="node"><title>v5</title>
<ellipse fill="red" stroke="black" cx="393" cy="-234" rx="27" ry="18"/>
<text text-anchor="middle" x="393" y="-230.3" font-family="Times,serif" font-size="14.00">v5</text>
</g>
<!-- v2&#45;&#45;v5 -->
<g id="edge15" class="edge"><title>v2&#45;&#45;v5</title>
<path fill="none" stroke="black" d="M279.381,-363.036C290.661,-352.592 306.182,-337.793 319,-324 342.118,-299.123 366.963,-268.305 381.179,-250.231"/>
</g>
<!-- v8 -->
<g id="node7" class="node"><title>v8</title>
<ellipse fill="red" stroke="black" cx="262" cy="-90" rx="27" ry="18"/>
<text text-anchor="middle" x="262" y="-86.3" font-family="Times,serif" font-size="14.00">v8</text>
</g>
<!-- v2&#45;&#45;v8 -->
<g id="edge18" class="edge"><title>v2&#45;&#45;v8</title>
<path fill="none" stroke="black" d="M247.861,-363.54C237.47,-353.779 224.851,-339.596 219,-324 190.897,-249.093 189.418,-219.1 217,-144 222.743,-128.364 235.371,-114.184 245.792,-104.434"/>
</g>
<!-- v6 -->
<g id="node8" class="node"><title>v6</title>
<ellipse fill="none" stroke="black" cx="448" cy="-162" rx="27" ry="18"/>
<text text-anchor="middle" x="448" y="-158.3" font-family="Times,serif" font-size="14.00">v6</text>
</g>
<!-- v2&#45;&#45;v6 -->
<g id="edge16" class="edge"><title>v2&#45;&#45;v6</title>
<path fill="none" stroke="black" d="M286.129,-367.31C322.731,-350.006 395.186,-310.078 429,-252 442.117,-229.471 446.218,-199.011 447.477,-180.202"/>
</g>
<!-- v7 -->
<g id="node9" class="node"><title>v7</title>
<ellipse fill="none" stroke="black" cx="262" cy="-162" rx="27" ry="18"/>
<text text-anchor="middle" x="262" y="-158.3" font-family="Times,serif" font-size="14.00">v7</text>
</g>
<!-- v2&#45;&#45;v7 -->
<g id="edge17" class="edge"><title>v2&#45;&#45;v7</title>
<path fill="none" stroke="black" d="M250.25,-362.069C242.039,-352.1 232.381,-338.247 228,-324 212.046,-272.119 238.502,-208.563 253.204,-179.241"/>
</g>
<!-- v9 -->
<g id="node10" class="node"><title>v9</title>
<ellipse fill="none" stroke="black" cx="262" cy="-18" rx="27" ry="18"/>
<text text-anchor="middle" x="262" y="-14.3" font-family="Times,serif" font-size="14.00">v9</text>
</g>
<!-- v2&#45;&#45;v9 -->
<g id="edge19" class="edge"><title>v2&#45;&#45;v9</title>
<path fill="none" stroke="black" d="M244.425,-365.446C230.474,-356.108 212.561,-341.637 203,-324 187.604,-295.597 195.228,-284.23 193,-252 187.392,-170.86 189.497,-144.682 226,-72 232.69,-58.6802 242.24,-44.7833 249.823,-34.5629"/>
</g>
<!-- v3&#45;&#45;v4 -->
<g id="edge20" class="edge"><title>v3&#45;&#45;v4</title>
<path fill="none" stroke="black" d="M276.368,-289.811C285.929,-278.07 299.101,-261.893 308.656,-250.159"/>
</g>
<!-- v3&#45;&#45;v5 -->
<g id="edge21" class="edge"><title>v3&#45;&#45;v5</title>
<path fill="none" stroke="black" d="M284.44,-293.908C308.595,-280.801 348.542,-259.124 372.655,-246.04"/>
</g>
<!-- v3&#45;&#45;v8 -->
<g id="edge23" class="edge"><title>v3&#45;&#45;v8</title>
<path fill="none" stroke="black" d="M254.527,-288.814C238.662,-259.579 209.961,-196.157 226,-144 230.381,-129.753 240.039,-115.9 248.25,-105.931"/>
</g>
<!-- v3&#45;&#45;v7 -->
<g id="edge22" class="edge"><title>v3&#45;&#45;v7</title>
<path fill="none" stroke="black" d="M263.759,-287.871C263.374,-260.578 262.627,-207.52 262.242,-180.189"/>
</g>
<!-- v1 -->
<g id="node3" class="node"><title>v1</title>
<ellipse fill="red" stroke="black" cx="319" cy="-450" rx="27" ry="18"/>
<text text-anchor="middle" x="319" y="-446.3" font-family="Times,serif" font-size="14.00">v1</text>
</g>
<!-- v1&#45;&#45;v2 -->
<g id="edge7" class="edge"><title>v1&#45;&#45;v2</title>
<path fill="none" stroke="black" d="M307.066,-433.811C297.84,-422.07 285.13,-405.893 275.911,-394.159"/>
</g>
<!-- v1&#45;&#45;v3 -->
<g id="edge8" class="edge"><title>v1&#45;&#45;v3</title>
<path fill="none" stroke="black" d="M317.344,-432.012C315.11,-413.654 310.174,-383.83 300,-360 294.148,-346.292 284.559,-332.413 276.748,-322.298"/>
</g>
<!-- v1&#45;&#45;v4 -->
<g id="edge9" class="edge"><title>v1&#45;&#45;v4</title>
<path fill="none" stroke="black" d="M319.16,-431.849C319.535,-391.78 320.464,-292.383 320.839,-252.232"/>
</g>
<!-- v1&#45;&#45;v8 -->
<g id="edge11" class="edge"><title>v1&#45;&#45;v8</title>
<path fill="none" stroke="black" d="M292.057,-447.82C221.725,-443.157 38,-420.146 38,-307 38,-307 38,-307 38,-233 38,-140.22 176.777,-105.521 235.866,-94.9521"/>
</g>
<!-- v1&#45;&#45;v6 -->
<g id="edge10" class="edge"><title>v1&#45;&#45;v6</title>
<path fill="none" stroke="black" d="M333.27,-434.285C361.971,-403.536 425.907,-328.923 449,-252 456.242,-227.876 453.857,-198.391 451.167,-180.152"/>
</g>
<!-- v1&#45;&#45;v9 -->
<g id="edge12" class="edge"><title>v1&#45;&#45;v9</title>
<path fill="none" stroke="black" d="M338.806,-437.721C354.688,-428.032 376.906,-412.97 393,-396 474.941,-309.597 544.094,-246.803 484,-144 440.807,-70.1107 336.076,-36.5058 287.512,-24.5013"/>
</g>
<!-- v4&#45;&#45;v8 -->
<g id="edge26" class="edge"><title>v4&#45;&#45;v8</title>
<path fill="none" stroke="black" d="M318.403,-216.018C315.192,-197.666 308.786,-167.847 298,-144 291.857,-130.419 282.282,-116.535 274.55,-106.385"/>
</g>
<!-- v4&#45;&#45;v6 -->
<g id="edge24" class="edge"><title>v4&#45;&#45;v6</title>
<path fill="none" stroke="black" d="M341.124,-221.908C364.764,-208.878 403.769,-187.379 427.55,-174.272"/>
</g>
<!-- v4&#45;&#45;v7 -->
<g id="edge25" class="edge"><title>v4&#45;&#45;v7</title>
<path fill="none" stroke="black" d="M308.198,-217.811C298.302,-206.07 284.667,-189.893 274.777,-178.159"/>
</g>
<!-- v0 -->
<g id="node5" class="node"><title>v0</title>
<ellipse fill="red" stroke="black" cx="291" cy="-522" rx="27" ry="18"/>
<text text-anchor="middle" x="291" y="-518.3" font-family="Times,serif" font-size="14.00">v0</text>
</g>
<!-- v0&#45;&#45;v2 -->
<g id="edge2" class="edge"><title>v0&#45;&#45;v2</title>
<path fill="none" stroke="black" d="M287.743,-503.871C282.554,-476.578 272.465,-423.52 267.268,-396.189"/>
</g>
<!-- v0&#45;&#45;v1 -->
<g id="edge1" class="edge"><title>v0&#45;&#45;v1</title>
<path fill="none" stroke="black" d="M297.636,-504.411C302.099,-493.252 307.959,-478.604 312.412,-467.47"/>
</g>
<!-- v0&#45;&#45;v5 -->
<g id="edge3" class="edge"><title>v0&#45;&#45;v5</title>
<path fill="none" stroke="black" d="M311.1,-509.793C325.712,-500.541 344.671,-486.024 355,-468 396.166,-396.169 396.027,-292.626 394.136,-252.14"/>
</g>
<!-- v0&#45;&#45;v6 -->
<g id="edge4" class="edge"><title>v0&#45;&#45;v6</title>
<path fill="none" stroke="black" d="M313.419,-511.853C332.522,-503.075 359.572,-488.172 377,-468 444.769,-389.558 447.128,-354.109 465,-252 467.758,-236.24 467.473,-231.808 465,-216 463.058,-203.589 458.705,-190.116 454.89,-179.859"/>
</g>
<!-- v0&#45;&#45;v7 -->
<g id="edge5" class="edge"><title>v0&#45;&#45;v7</title>
<path fill="none" stroke="black" d="M280.769,-505.171C266.424,-482.147 240.672,-437.614 228,-396 204.686,-319.44 195.938,-291.317 223,-216 228.254,-201.378 238.932,-187.334 247.789,-177.381"/>
</g>
<!-- v0&#45;&#45;v9 -->
<g id="edge6" class="edge"><title>v0&#45;&#45;v9</title>
<path fill="none" stroke="black" d="M263.885,-520.214C191.644,-516.54 0,-495.786 0,-379 0,-379 0,-379 0,-161 0,-54.9386 168.008,-27.6836 234.948,-21.0335"/>
</g>
<!-- v5&#45;&#45;v8 -->
<g id="edge29" class="edge"><title>v5&#45;&#45;v8</title>
<path fill="none" stroke="black" d="M381.023,-217.754C366.618,-199.665 341.441,-168.832 318,-144 304.952,-130.177 289.149,-115.382 277.662,-104.946"/>
</g>
<!-- v5&#45;&#45;v6 -->
<g id="edge27" class="edge"><title>v5&#45;&#45;v6</title>
<path fill="none" stroke="black" d="M404.934,-217.811C414.16,-206.07 426.87,-189.893 436.089,-178.159"/>
</g>
<!-- v5&#45;&#45;v7 -->
<g id="edge28" class="edge"><title>v5&#45;&#45;v7</title>
<path fill="none" stroke="black" d="M372.531,-222.062C347.921,-208.912 306.871,-186.977 282.325,-173.861"/>
</g>
<!-- v5&#45;&#45;v9 -->
<g id="edge30" class="edge"><title>v5&#45;&#45;v9</title>
<path fill="none" stroke="black" d="M385.261,-216.605C376.549,-198.503 361.684,-168.658 347,-144 322.696,-103.188 290.269,-57.6 273.354,-34.3913"/>
</g>
<!-- v8&#45;&#45;v9 -->
<g id="edge33" class="edge"><title>v8&#45;&#45;v9</title>
<path fill="none" stroke="black" d="M262,-71.6966C262,-60.8463 262,-46.9167 262,-36.1043"/>
</g>
<!-- v6&#45;&#45;v8 -->
<g id="edge31" class="edge"><title>v6&#45;&#45;v8</title>
<path fill="none" stroke="black" d="M424.819,-152.276C388.982,-138.789 320.548,-113.034 284.889,-99.6141"/>
</g>
<!-- v7&#45;&#45;v8 -->
<g id="edge32" class="edge"><title>v7&#45;&#45;v8</title>
<path fill="none" stroke="black" d="M262,-143.697C262,-132.846 262,-118.917 262,-108.104"/>
</g>
</g>
</svg>
