<?xml version="1.0" encoding="UTF-8" standalone="no"?>
<!DOCTYPE svg PUBLIC "-//W3C//DTD SVG 1.1//EN"
 "http://www.w3.org/Graphics/SVG/1.1/DTD/svg11.dtd">
<!-- Generated by graphviz version 2.38.0 (20140413.2041)
 -->
<!-- Title: G Pages: 1 -->
<svg width="384pt" height="404pt"
 viewBox="0.00 0.00 384.00 404.00" xmlns="http://www.w3.org/2000/svg" xmlns:xlink="http://www.w3.org/1999/xlink">
<g id="graph0" class="graph" transform="scale(1 1) rotate(0) translate(4 400)">
<title>G</title>
<polygon fill="white" stroke="none" points="-4,4 -4,-400 380,-400 380,4 -4,4"/>
<!-- v6 -->
<g id="node1" class="node"><title>v6</title>
<ellipse fill="red" stroke="black" cx="114" cy="-18" rx="27" ry="18"/>
<text text-anchor="middle" x="114" y="-14.3" font-family="Times,serif" font-size="14.00">v6</text>
</g>
<!-- v5 -->
<g id="node2" class="node"><title>v5</title>
<ellipse fill="red" stroke="black" cx="220" cy="-90" rx="27" ry="18"/>
<text text-anchor="middle" x="220" y="-86.3" font-family="Times,serif" font-size="14.00">v5</text>
</g>
<!-- v5&#45;&#45;v6 -->
<g id="edge20" class="edge"><title>v5&#45;&#45;v6</title>
<path fill="none" stroke="black" d="M201.536,-76.8069C182.199,-64.0372 151.999,-44.0934 132.608,-31.2882"/>
</g>
<!-- v7 -->
<g id="node7" class="node"><title>v7</title>
<ellipse fill="none" stroke="black" cx="319" cy="-18" rx="27" ry="18"/>
<text text-anchor="middle" x="319" y="-14.3" font-family="Times,serif" font-size="14.00">v7</text>
</g>
<!-- v5&#45;&#45;v7 -->
<g id="edge21" class="edge"><title>v5&#45;&#45;v7</title>
<path fill="none" stroke="black" d="M238.158,-76.1609C256.021,-63.5307 283.134,-44.3597 300.957,-31.7577"/>
</g>
<!-- v1 -->
<g id="node3" class="node"><title>v1</title>
<ellipse fill="red" stroke="black" cx="118" cy="-306" rx="27" ry="18"/>
<text text-anchor="middle" x="118" y="-302.3" font-family="Times,serif" font-size="14.00">v1</text>
</g>
<!-- v1&#45;&#45;v6 -->
<g id="edge11" class="edge"><title>v1&#45;&#45;v6</title>
<path fill="none" stroke="black" d="M113.536,-287.953C111.065,-277.63 108.248,-264.153 107,-252 98.7327,-171.484 107.656,-74.5624 111.955,-36.0119"/>
</g>
<!-- v1&#45;&#45;v5 -->
<g id="edge10" class="edge"><title>v1&#45;&#45;v5</title>
<path fill="none" stroke="black" d="M114.545,-287.685C109.25,-256.076 102.675,-188.219 133,-144 148.305,-121.684 176.391,-107.111 196.515,-98.9974"/>
</g>
<!-- v3 -->
<g id="node4" class="node"><title>v3</title>
<ellipse fill="red" stroke="black" cx="241" cy="-234" rx="27" ry="18"/>
<text text-anchor="middle" x="241" y="-230.3" font-family="Times,serif" font-size="14.00">v3</text>
</g>
<!-- v1&#45;&#45;v3 -->
<g id="edge8" class="edge"><title>v1&#45;&#45;v3</title>
<path fill="none" stroke="black" d="M138.036,-293.597C160.908,-280.581 198.104,-259.413 220.973,-246.398"/>
</g>
<!-- v2 -->
<g id="node5" class="node"><title>v2</title>
<ellipse fill="red" stroke="black" cx="169" cy="-234" rx="27" ry="18"/>
<text text-anchor="middle" x="169" y="-230.3" font-family="Times,serif" font-size="14.00">v2</text>
</g>
<!-- v1&#45;&#45;v2 -->
<g id="edge7" class="edge"><title>v1&#45;&#45;v2</title>
<path fill="none" stroke="black" d="M129.319,-289.465C137.77,-277.865 149.269,-262.082 157.713,-250.492"/>
</g>
<!-- v4 -->
<g id="node8" class="node"><title>v4</title>
<ellipse fill="none" stroke="black" cx="169" cy="-162" rx="27" ry="18"/>
<text text-anchor="middle" x="169" y="-158.3" font-family="Times,serif" font-size="14.00">v4</text>
</g>
<!-- v1&#45;&#45;v4 -->
<g id="edge9" class="edge"><title>v1&#45;&#45;v4</title>
<path fill="none" stroke="black" d="M118.733,-287.681C120.004,-269.302 123.483,-239.702 133,-216 138.554,-202.168 148.157,-188.295 156.049,-178.214"/>
</g>
<!-- v3&#45;&#45;v7 -->
<g id="edge17" class="edge"><title>v3&#45;&#45;v7</title>
<path fill="none" stroke="black" d="M263.224,-223.598C280.45,-214.998 303.154,-200.485 314,-180 338.862,-133.042 329.574,-67.1018 323.132,-36.2224"/>
</g>
<!-- v3&#45;&#45;v4 -->
<g id="edge16" class="edge"><title>v3&#45;&#45;v4</title>
<path fill="none" stroke="black" d="M226.43,-218.834C214.02,-206.77 196.269,-189.512 183.796,-177.385"/>
</g>
<!-- v2&#45;&#45;v6 -->
<g id="edge14" class="edge"><title>v2&#45;&#45;v6</title>
<path fill="none" stroke="black" d="M155.814,-217.877C147.829,-207.832 138.21,-193.965 133,-180 114.407,-130.16 112.912,-66.1576 113.402,-36.0699"/>
</g>
<!-- v2&#45;&#45;v5 -->
<g id="edge13" class="edge"><title>v2&#45;&#45;v5</title>
<path fill="none" stroke="black" d="M181.951,-217.786C189.843,-207.705 199.446,-193.832 205,-180 214.517,-156.298 217.996,-126.698 219.267,-108.319"/>
</g>
<!-- v2&#45;&#45;v7 -->
<g id="edge15" class="edge"><title>v2&#45;&#45;v7</title>
<path fill="none" stroke="black" d="M185.556,-219.19C197.123,-209.054 212.493,-194.569 224,-180 262.421,-131.354 296.393,-65.6756 311.167,-35.4591"/>
</g>
<!-- v2&#45;&#45;v4 -->
<g id="edge12" class="edge"><title>v2&#45;&#45;v4</title>
<path fill="none" stroke="black" d="M169,-215.697C169,-204.846 169,-190.917 169,-180.104"/>
</g>
<!-- v0 -->
<g id="node6" class="node"><title>v0</title>
<ellipse fill="red" stroke="black" cx="211" cy="-378" rx="27" ry="18"/>
<text text-anchor="middle" x="211" y="-374.3" font-family="Times,serif" font-size="14.00">v0</text>
</g>
<!-- v0&#45;&#45;v6 -->
<g id="edge5" class="edge"><title>v0&#45;&#45;v6</title>
<path fill="none" stroke="black" d="M185.127,-372.265C128.784,-360.305 0,-323.31 0,-235 0,-235 0,-235 0,-161 0,-101.249 62.1367,-52.3256 94.6615,-30.8101"/>
</g>
<!-- v0&#45;&#45;v5 -->
<g id="edge4" class="edge"><title>v0&#45;&#45;v5</title>
<path fill="none" stroke="black" d="M222.518,-361.465C238.519,-338.798 266.671,-294.696 277,-252 290.316,-196.954 252.033,-134.425 231.733,-106.221"/>
</g>
<!-- v0&#45;&#45;v1 -->
<g id="edge1" class="edge"><title>v0&#45;&#45;v1</title>
<path fill="none" stroke="black" d="M193.507,-363.834C176.88,-351.319 152.015,-332.603 135.414,-320.107"/>
</g>
<!-- v0&#45;&#45;v3 -->
<g id="edge3" class="edge"><title>v0&#45;&#45;v3</title>
<path fill="none" stroke="black" d="M214.559,-360.153C220.302,-332.971 231.553,-279.717 237.352,-252.268"/>
</g>
<!-- v0&#45;&#45;v2 -->
<g id="edge2" class="edge"><title>v0&#45;&#45;v2</title>
<path fill="none" stroke="black" d="M206.017,-360.153C197.934,-332.824 182.055,-279.14 173.976,-251.825"/>
</g>
<!-- v0&#45;&#45;v7 -->
<g id="edge6" class="edge"><title>v0&#45;&#45;v7</title>
<path fill="none" stroke="black" d="M234.64,-369.208C280.264,-352.512 376,-308.697 376,-235 376,-235 376,-235 376,-161 376,-112.121 346.554,-60.148 329.99,-34.7798"/>
</g>
<!-- v4&#45;&#45;v6 -->
<g id="edge19" class="edge"><title>v4&#45;&#45;v6</title>
<path fill="none" stroke="black" d="M162.583,-144.433C152.042,-117.217 131.172,-63.3342 120.546,-35.9017"/>
</g>
<!-- v4&#45;&#45;v5 -->
<g id="edge18" class="edge"><title>v4&#45;&#45;v5</title>
<path fill="none" stroke="black" d="M180.319,-145.465C188.77,-133.865 200.269,-118.082 208.713,-106.492"/>
</g>
</g>
</svg>
