<?xml version="1.0" encoding="UTF-8" standalone="no"?>
<!DOCTYPE svg PUBLIC "-//W3C//DTD SVG 1.1//EN"
 "http://www.w3.org/Graphics/SVG/1.1/DTD/svg11.dtd">
<!-- Generated by graphviz version 2.38.0 (20140413.2041)
 -->
<!-- Title: G Pages: 1 -->
<svg width="574pt" height="548pt"
 viewBox="0.00 0.00 574.00 548.00" xmlns="http://www.w3.org/2000/svg" xmlns:xlink="http://www.w3.org/1999/xlink">
<g id="graph0" class="graph" transform="scale(1 1) rotate(0) translate(4 544)">
<title>G</title>
<polygon fill="white" stroke="none" points="-4,4 -4,-544 570,-544 570,4 -4,4"/>
<!-- v0 -->
<g id="node1" class="node"><title>v0</title>
<ellipse fill="red" stroke="black" cx="123" cy="-522" rx="27" ry="18"/>
<text text-anchor="middle" x="123" y="-518.3" font-family="Times,serif" font-size="14.00">v0</text>
</g>
<!-- v5 -->
<g id="node2" class="node"><title>v5</title>
<ellipse fill="red" stroke="black" cx="135" cy="-234" rx="27" ry="18"/>
<text text-anchor="middle" x="135" y="-230.3" font-family="Times,serif" font-size="14.00">v5</text>
</g>
<!-- v0&#45;&#45;v5 -->
<g id="edge3" class="edge"><title>v0&#45;&#45;v5</title>
<path fill="none" stroke="black" d="M123.715,-503.966C125.844,-453.218 132.13,-303.407 134.274,-252.306"/>
</g>
<!-- v7 -->
<g id="node4" class="node"><title>v7</title>
<ellipse fill="red" stroke="black" cx="211" cy="-162" rx="27" ry="18"/>
<text text-anchor="middle" x="211" y="-158.3" font-family="Times,serif" font-size="14.00">v7</text>
</g>
<!-- v0&#45;&#45;v7 -->
<g id="edge5" class="edge"><title>v0&#45;&#45;v7</title>
<path fill="none" stroke="black" d="M115.327,-504.473C93.9674,-455.797 39.193,-310.467 99,-216 117.756,-186.374 158.034,-172.988 184.822,-167.172"/>
</g>
<!-- v1 -->
<g id="node6" class="node"><title>v1</title>
<ellipse fill="red" stroke="black" cx="376" cy="-450" rx="27" ry="18"/>
<text text-anchor="middle" x="376" y="-446.3" font-family="Times,serif" font-size="14.00">v1</text>
</g>
<!-- v0&#45;&#45;v1 -->
<g id="edge1" class="edge"><title>v0&#45;&#45;v1</title>
<path fill="none" stroke="black" d="M147.719,-514.161C196.211,-500.744 303.281,-471.12 351.553,-457.764"/>
</g>
<!-- v2 -->
<g id="node7" class="node"><title>v2</title>
<ellipse fill="red" stroke="black" cx="228" cy="-378" rx="27" ry="18"/>
<text text-anchor="middle" x="228" y="-374.3" font-family="Times,serif" font-size="14.00">v2</text>
</g>
<!-- v0&#45;&#45;v2 -->
<g id="edge2" class="edge"><title>v0&#45;&#45;v2</title>
<path fill="none" stroke="black" d="M134.437,-505.533C154.634,-478.218 196.39,-421.749 216.577,-394.448"/>
</g>
<!-- v6 -->
<g id="node8" class="node"><title>v6</title>
<ellipse fill="none" stroke="black" cx="409" cy="-162" rx="27" ry="18"/>
<text text-anchor="middle" x="409" y="-158.3" font-family="Times,serif" font-size="14.00">v6</text>
</g>
<!-- v0&#45;&#45;v6 -->
<g id="edge4" class="edge"><title>v0&#45;&#45;v6</title>
<path fill="none" stroke="black" d="M150.114,-520.11C215.194,-517.363 377.412,-506.698 412,-468 486.812,-384.298 435.659,-230.061 415.865,-179.515"/>
</g>
<!-- v9 -->
<g id="node9" class="node"><title>v9</title>
<ellipse fill="none" stroke="black" cx="118" cy="-18" rx="27" ry="18"/>
<text text-anchor="middle" x="118" y="-14.3" font-family="Times,serif" font-size="14.00">v9</text>
</g>
<!-- v0&#45;&#45;v9 -->
<g id="edge6" class="edge"><title>v0&#45;&#45;v9</title>
<path fill="none" stroke="black" d="M102.689,-509.908C67.7536,-489.172 0,-440.969 0,-379 0,-379 0,-379 0,-161 0,-100.258 64.6577,-51.6343 98.2495,-30.4714"/>
</g>
<!-- v8 -->
<g id="node3" class="node"><title>v8</title>
<ellipse fill="red" stroke="black" cx="285" cy="-90" rx="27" ry="18"/>
<text text-anchor="middle" x="285" y="-86.3" font-family="Times,serif" font-size="14.00">v8</text>
</g>
<!-- v5&#45;&#45;v8 -->
<g id="edge29" class="edge"><title>v5&#45;&#45;v8</title>
<path fill="none" stroke="black" d="M138.892,-215.908C144.124,-196.347 155.146,-164.39 175,-144 198.662,-119.7 235.715,-105.072 260.178,-97.5179"/>
</g>
<!-- v5&#45;&#45;v7 -->
<g id="edge28" class="edge"><title>v5&#45;&#45;v7</title>
<path fill="none" stroke="black" d="M150.38,-218.834C163.565,-206.69 182.464,-189.283 195.643,-177.144"/>
</g>
<!-- v5&#45;&#45;v6 -->
<g id="edge27" class="edge"><title>v5&#45;&#45;v6</title>
<path fill="none" stroke="black" d="M159.799,-226.665C211.834,-213.371 331.902,-182.697 384.06,-169.372"/>
</g>
<!-- v5&#45;&#45;v9 -->
<g id="edge30" class="edge"><title>v5&#45;&#45;v9</title>
<path fill="none" stroke="black" d="M133.638,-215.849C130.454,-175.78 122.558,-76.3826 119.369,-36.2325"/>
</g>
<!-- v8&#45;&#45;v9 -->
<g id="edge33" class="edge"><title>v8&#45;&#45;v9</title>
<path fill="none" stroke="black" d="M262.824,-79.7045C230.883,-66.3161 172.26,-41.7437 140.268,-28.3339"/>
</g>
<!-- v7&#45;&#45;v8 -->
<g id="edge32" class="edge"><title>v7&#45;&#45;v8</title>
<path fill="none" stroke="black" d="M225.975,-146.834C238.814,-134.69 257.215,-117.283 270.047,-105.144"/>
</g>
<!-- v4 -->
<g id="node5" class="node"><title>v4</title>
<ellipse fill="red" stroke="black" cx="359" cy="-234" rx="27" ry="18"/>
<text text-anchor="middle" x="359" y="-230.3" font-family="Times,serif" font-size="14.00">v4</text>
</g>
<!-- v4&#45;&#45;v8 -->
<g id="edge26" class="edge"><title>v4&#45;&#45;v8</title>
<path fill="none" stroke="black" d="M352.049,-216.294C344.34,-198.178 331.236,-168.56 318,-144 311.109,-131.214 302.391,-117.292 295.646,-106.927"/>
</g>
<!-- v4&#45;&#45;v7 -->
<g id="edge25" class="edge"><title>v4&#45;&#45;v7</title>
<path fill="none" stroke="black" d="M337.48,-222.821C309.42,-209.55 260.619,-186.468 232.546,-173.191"/>
</g>
<!-- v4&#45;&#45;v6 -->
<g id="edge24" class="edge"><title>v4&#45;&#45;v6</title>
<path fill="none" stroke="black" d="M370.097,-217.465C378.382,-205.865 389.656,-190.082 397.934,-178.492"/>
</g>
<!-- v1&#45;&#45;v8 -->
<g id="edge11" class="edge"><title>v1&#45;&#45;v8</title>
<path fill="none" stroke="black" d="M398.756,-440.236C441.159,-422.248 528,-376.878 528,-307 528,-307 528,-307 528,-233 528,-133.565 374.448,-102.486 311.468,-93.921"/>
</g>
<!-- v1&#45;&#45;v4 -->
<g id="edge9" class="edge"><title>v1&#45;&#45;v4</title>
<path fill="none" stroke="black" d="M374.638,-431.849C371.454,-391.78 363.558,-292.383 360.369,-252.232"/>
</g>
<!-- v1&#45;&#45;v2 -->
<g id="edge7" class="edge"><title>v1&#45;&#45;v2</title>
<path fill="none" stroke="black" d="M354.48,-438.821C326.42,-425.55 277.619,-402.468 249.546,-389.191"/>
</g>
<!-- v1&#45;&#45;v6 -->
<g id="edge10" class="edge"><title>v1&#45;&#45;v6</title>
<path fill="none" stroke="black" d="M380.294,-432.023C388.628,-398.097 406.726,-319.393 413,-252 414.483,-236.069 413.602,-231.989 413,-216 412.548,-204.013 411.524,-190.533 410.625,-180.167"/>
</g>
<!-- v1&#45;&#45;v9 -->
<g id="edge12" class="edge"><title>v1&#45;&#45;v9</title>
<path fill="none" stroke="black" d="M401.231,-442.885C452.914,-428.688 566,-388.332 566,-307 566,-307 566,-307 566,-161 566,-72.0655 241.129,-31.625 144.683,-21.5788"/>
</g>
<!-- v3 -->
<g id="node10" class="node"><title>v3</title>
<ellipse fill="none" stroke="black" cx="283" cy="-306" rx="27" ry="18"/>
<text text-anchor="middle" x="283" y="-302.3" font-family="Times,serif" font-size="14.00">v3</text>
</g>
<!-- v1&#45;&#45;v3 -->
<g id="edge8" class="edge"><title>v1&#45;&#45;v3</title>
<path fill="none" stroke="black" d="M365.692,-433.261C347.816,-405.966 311.263,-350.154 293.354,-322.81"/>
</g>
<!-- v2&#45;&#45;v5 -->
<g id="edge15" class="edge"><title>v2&#45;&#45;v5</title>
<path fill="none" stroke="black" d="M211.957,-363.366C200.837,-353.314 186.246,-338.856 176,-324 159.966,-300.753 147.487,-270.232 140.694,-251.646"/>
</g>
<!-- v2&#45;&#45;v8 -->
<g id="edge18" class="edge"><title>v2&#45;&#45;v8</title>
<path fill="none" stroke="black" d="M231.395,-359.966C241.533,-309.098 271.508,-158.696 281.623,-107.945"/>
</g>
<!-- v2&#45;&#45;v7 -->
<g id="edge17" class="edge"><title>v2&#45;&#45;v7</title>
<path fill="none" stroke="black" d="M222.405,-360.026C219.291,-349.73 215.707,-336.254 214,-324 206.747,-271.945 208.529,-209.517 209.987,-180.026"/>
</g>
<!-- v2&#45;&#45;v4 -->
<g id="edge14" class="edge"><title>v2&#45;&#45;v4</title>
<path fill="none" stroke="black" d="M251.251,-368.262C271.436,-359.661 300.286,-344.79 319,-324 338.04,-302.848 349.317,-271.129 354.819,-251.821"/>
</g>
<!-- v2&#45;&#45;v6 -->
<g id="edge16" class="edge"><title>v2&#45;&#45;v6</title>
<path fill="none" stroke="black" d="M252.259,-370.063C277.258,-362.022 316.371,-346.874 344,-324 374.206,-298.992 380.23,-288.327 395,-252 404.661,-228.237 407.69,-198.395 408.619,-180.015"/>
</g>
<!-- v2&#45;&#45;v9 -->
<g id="edge19" class="edge"><title>v2&#45;&#45;v9</title>
<path fill="none" stroke="black" d="M207.633,-365.987C176.031,-347.462 116.95,-306.665 99,-252 73.4862,-174.302 99.908,-74.5644 112.314,-35.6196"/>
</g>
<!-- v2&#45;&#45;v3 -->
<g id="edge13" class="edge"><title>v2&#45;&#45;v3</title>
<path fill="none" stroke="black" d="M239.934,-361.811C249.16,-350.07 261.87,-333.893 271.089,-322.159"/>
</g>
<!-- v6&#45;&#45;v8 -->
<g id="edge31" class="edge"><title>v6&#45;&#45;v8</title>
<path fill="none" stroke="black" d="M389.077,-149.753C365.938,-136.691 327.992,-115.27 304.873,-102.219"/>
</g>
<!-- v3&#45;&#45;v5 -->
<g id="edge21" class="edge"><title>v3&#45;&#45;v5</title>
<path fill="none" stroke="black" d="M261.48,-294.821C233.42,-281.55 184.619,-258.468 156.546,-245.191"/>
</g>
<!-- v3&#45;&#45;v8 -->
<g id="edge23" class="edge"><title>v3&#45;&#45;v8</title>
<path fill="none" stroke="black" d="M283.16,-287.849C283.535,-247.78 284.464,-148.383 284.839,-108.232"/>
</g>
<!-- v3&#45;&#45;v7 -->
<g id="edge22" class="edge"><title>v3&#45;&#45;v7</title>
<path fill="none" stroke="black" d="M274.741,-288.711C260.926,-261.465 233.283,-206.946 219.385,-179.537"/>
</g>
<!-- v3&#45;&#45;v4 -->
<g id="edge20" class="edge"><title>v3&#45;&#45;v4</title>
<path fill="none" stroke="black" d="M298.38,-290.834C311.565,-278.69 330.464,-261.283 343.643,-249.144"/>
</g>
</g>
</svg>
