<?xml version="1.0" encoding="UTF-8" standalone="no"?>
<!DOCTYPE svg PUBLIC "-//W3C//DTD SVG 1.1//EN"
 "http://www.w3.org/Graphics/SVG/1.1/DTD/svg11.dtd">
<!-- Generated by graphviz version 2.38.0 (20140413.2041)
 -->
<!-- Title: G Pages: 1 -->
<svg width="501pt" height="548pt"
 viewBox="0.00 0.00 501.01 548.00" xmlns="http://www.w3.org/2000/svg" xmlns:xlink="http://www.w3.org/1999/xlink">
<g id="graph0" class="graph" transform="scale(1 1) rotate(0) translate(4 544)">
<title>G</title>
<polygon fill="white" stroke="none" points="-4,4 -4,-544 497.014,-544 497.014,4 -4,4"/>
<!-- v4 -->
<g id="node1" class="node"><title>v4</title>
<ellipse fill="red" stroke="black" cx="210.014" cy="-234" rx="27" ry="18"/>
<text text-anchor="middle" x="210.014" y="-230.3" font-family="Times,serif" font-size="14.00">v4</text>
</g>
<!-- v8 -->
<g id="node2" class="node"><title>v8</title>
<ellipse fill="red" stroke="black" cx="191.014" cy="-90" rx="27" ry="18"/>
<text text-anchor="middle" x="191.014" y="-86.3" font-family="Times,serif" font-size="14.00">v8</text>
</g>
<!-- v4&#45;&#45;v8 -->
<g id="edge26" class="edge"><title>v4&#45;&#45;v8</title>
<path fill="none" stroke="black" d="M207.722,-215.871C204.07,-188.578 196.971,-135.52 193.314,-108.189"/>
</g>
<!-- v6 -->
<g id="node8" class="node"><title>v6</title>
<ellipse fill="none" stroke="black" cx="41.0136" cy="-162" rx="27" ry="18"/>
<text text-anchor="middle" x="41.0136" y="-158.3" font-family="Times,serif" font-size="14.00">v6</text>
</g>
<!-- v4&#45;&#45;v6 -->
<g id="edge24" class="edge"><title>v4&#45;&#45;v6</title>
<path fill="none" stroke="black" d="M187.572,-223.705C155.158,-210.279 95.5937,-185.607 63.2791,-172.222"/>
</g>
<!-- v7 -->
<g id="node9" class="node"><title>v7</title>
<ellipse fill="none" stroke="black" cx="265.014" cy="-162" rx="27" ry="18"/>
<text text-anchor="middle" x="265.014" y="-158.3" font-family="Times,serif" font-size="14.00">v7</text>
</g>
<!-- v4&#45;&#45;v7 -->
<g id="edge25" class="edge"><title>v4&#45;&#45;v7</title>
<path fill="none" stroke="black" d="M221.948,-217.811C231.173,-206.07 243.883,-189.893 253.103,-178.159"/>
</g>
<!-- v9 -->
<g id="node10" class="node"><title>v9</title>
<ellipse fill="none" stroke="black" cx="379.014" cy="-18" rx="27" ry="18"/>
<text text-anchor="middle" x="379.014" y="-14.3" font-family="Times,serif" font-size="14.00">v9</text>
</g>
<!-- v8&#45;&#45;v9 -->
<g id="edge33" class="edge"><title>v8&#45;&#45;v9</title>
<path fill="none" stroke="black" d="M214.066,-80.4166C250.246,-66.9452 319.952,-40.991 356.067,-27.544"/>
</g>
<!-- v2 -->
<g id="node3" class="node"><title>v2</title>
<ellipse fill="red" stroke="black" cx="265.014" cy="-378" rx="27" ry="18"/>
<text text-anchor="middle" x="265.014" y="-374.3" font-family="Times,serif" font-size="14.00">v2</text>
</g>
<!-- v2&#45;&#45;v4 -->
<g id="edge14" class="edge"><title>v2&#45;&#45;v4</title>
<path fill="none" stroke="black" d="M258.597,-360.433C248.055,-333.217 227.185,-279.334 216.56,-251.902"/>
</g>
<!-- v2&#45;&#45;v8 -->
<g id="edge18" class="edge"><title>v2&#45;&#45;v8</title>
<path fill="none" stroke="black" d="M274.364,-360.817C296.198,-320.682 345.431,-214.706 301.014,-144 282.746,-114.921 243.548,-101.421 217.226,-95.4277"/>
</g>
<!-- v5 -->
<g id="node5" class="node"><title>v5</title>
<ellipse fill="red" stroke="black" cx="100.014" cy="-234" rx="27" ry="18"/>
<text text-anchor="middle" x="100.014" y="-230.3" font-family="Times,serif" font-size="14.00">v5</text>
</g>
<!-- v2&#45;&#45;v5 -->
<g id="edge15" class="edge"><title>v2&#45;&#45;v5</title>
<path fill="none" stroke="black" d="M238.298,-374.959C205.231,-370.948 149.561,-359.079 119.014,-324 101.582,-303.983 98.8469,-271.909 99.0261,-252.224"/>
</g>
<!-- v3 -->
<g id="node6" class="node"><title>v3</title>
<ellipse fill="red" stroke="black" cx="155.014" cy="-306" rx="27" ry="18"/>
<text text-anchor="middle" x="155.014" y="-302.3" font-family="Times,serif" font-size="14.00">v3</text>
</g>
<!-- v2&#45;&#45;v3 -->
<g id="edge13" class="edge"><title>v2&#45;&#45;v3</title>
<path fill="none" stroke="black" d="M245.853,-364.807C225.663,-351.959 194.061,-331.848 173.955,-319.053"/>
</g>
<!-- v2&#45;&#45;v6 -->
<g id="edge16" class="edge"><title>v2&#45;&#45;v6</title>
<path fill="none" stroke="black" d="M238.088,-375.031C202.136,-371.075 138.316,-359.239 98.0136,-324 54.7086,-286.136 44.3038,-213.201 41.804,-180.093"/>
</g>
<!-- v2&#45;&#45;v7 -->
<g id="edge17" class="edge"><title>v2&#45;&#45;v7</title>
<path fill="none" stroke="black" d="M265.586,-359.607C266.478,-330.081 267.999,-268.264 267.014,-216 266.788,-204.032 266.276,-190.552 265.826,-180.181"/>
</g>
<!-- v2&#45;&#45;v9 -->
<g id="edge19" class="edge"><title>v2&#45;&#45;v9</title>
<path fill="none" stroke="black" d="M284.352,-365.19C316.877,-343.674 379.014,-294.751 379.014,-235 379.014,-235 379.014,-235 379.014,-161 379.014,-115.885 379.014,-62.7084 379.014,-36.0493"/>
</g>
<!-- v0 -->
<g id="node4" class="node"><title>v0</title>
<ellipse fill="red" stroke="black" cx="237.014" cy="-522" rx="27" ry="18"/>
<text text-anchor="middle" x="237.014" y="-518.3" font-family="Times,serif" font-size="14.00">v0</text>
</g>
<!-- v0&#45;&#45;v2 -->
<g id="edge2" class="edge"><title>v0&#45;&#45;v2</title>
<path fill="none" stroke="black" d="M240.391,-503.871C245.773,-476.578 256.235,-423.52 261.624,-396.189"/>
</g>
<!-- v0&#45;&#45;v5 -->
<g id="edge3" class="edge"><title>v0&#45;&#45;v5</title>
<path fill="none" stroke="black" d="M218.807,-508.644C205.25,-498.79 186.932,-484.023 174.014,-468 128.594,-411.662 115.413,-394.244 98.0136,-324 91.9566,-299.547 94.4236,-270.152 97.0154,-252.021"/>
</g>
<!-- v1 -->
<g id="node7" class="node"><title>v1</title>
<ellipse fill="red" stroke="black" cx="210.014" cy="-450" rx="27" ry="18"/>
<text text-anchor="middle" x="210.014" y="-446.3" font-family="Times,serif" font-size="14.00">v1</text>
</g>
<!-- v0&#45;&#45;v1 -->
<g id="edge1" class="edge"><title>v0&#45;&#45;v1</title>
<path fill="none" stroke="black" d="M230.615,-504.411C226.373,-493.414 220.824,-479.027 216.554,-467.956"/>
</g>
<!-- v0&#45;&#45;v6 -->
<g id="edge4" class="edge"><title>v0&#45;&#45;v6</title>
<path fill="none" stroke="black" d="M213.573,-512.648C192.424,-504.137 161.567,-489.174 141.014,-468 118.887,-445.205 45.1161,-296.462 35.0136,-252 29.4206,-227.384 33.3824,-198.034 36.999,-179.957"/>
</g>
<!-- v0&#45;&#45;v7 -->
<g id="edge5" class="edge"><title>v0&#45;&#45;v7</title>
<path fill="none" stroke="black" d="M248.179,-505.405C263.692,-482.664 290.987,-438.474 301.014,-396 319.916,-315.929 286.943,-217.957 271.902,-179.555"/>
</g>
<!-- v0&#45;&#45;v9 -->
<g id="edge6" class="edge"><title>v0&#45;&#45;v9</title>
<path fill="none" stroke="black" d="M263.926,-518.691C329.653,-511.431 493.014,-482.935 493.014,-379 493.014,-379 493.014,-379 493.014,-161 493.014,-101.249 430.877,-52.3256 398.352,-30.8101"/>
</g>
<!-- v5&#45;&#45;v8 -->
<g id="edge29" class="edge"><title>v5&#45;&#45;v8</title>
<path fill="none" stroke="black" d="M110.1,-217.261C127.592,-189.966 163.359,-134.154 180.882,-106.81"/>
</g>
<!-- v5&#45;&#45;v6 -->
<g id="edge27" class="edge"><title>v5&#45;&#45;v6</title>
<path fill="none" stroke="black" d="M87.2114,-217.811C77.3152,-206.07 63.6807,-189.893 53.7907,-178.159"/>
</g>
<!-- v5&#45;&#45;v7 -->
<g id="edge28" class="edge"><title>v5&#45;&#45;v7</title>
<path fill="none" stroke="black" d="M122.266,-223.559C153.846,-210.162 211.32,-185.779 242.851,-172.402"/>
</g>
<!-- v5&#45;&#45;v9 -->
<g id="edge30" class="edge"><title>v5&#45;&#45;v9</title>
<path fill="none" stroke="black" d="M100.645,-216.002C102.828,-183.061 112.484,-110.404 155.014,-72 184.08,-45.7531 299.943,-28.6291 352.657,-22.0441"/>
</g>
<!-- v3&#45;&#45;v4 -->
<g id="edge20" class="edge"><title>v3&#45;&#45;v4</title>
<path fill="none" stroke="black" d="M166.948,-289.811C176.173,-278.07 188.883,-261.893 198.103,-250.159"/>
</g>
<!-- v3&#45;&#45;v8 -->
<g id="edge23" class="edge"><title>v3&#45;&#45;v8</title>
<path fill="none" stroke="black" d="M157.899,-287.849C164.656,-247.68 181.443,-147.89 188.165,-107.935"/>
</g>
<!-- v3&#45;&#45;v5 -->
<g id="edge21" class="edge"><title>v3&#45;&#45;v5</title>
<path fill="none" stroke="black" d="M143.079,-289.811C133.854,-278.07 121.144,-261.893 111.924,-250.159"/>
</g>
<!-- v3&#45;&#45;v7 -->
<g id="edge22" class="edge"><title>v3&#45;&#45;v7</title>
<path fill="none" stroke="black" d="M178.975,-297.323C199.921,-289.35 229.497,-274.802 246.014,-252 261.491,-230.631 264.861,-199.268 265.333,-180.043"/>
</g>
<!-- v1&#45;&#45;v4 -->
<g id="edge9" class="edge"><title>v1&#45;&#45;v4</title>
<path fill="none" stroke="black" d="M210.014,-431.849C210.014,-391.78 210.014,-292.383 210.014,-252.232"/>
</g>
<!-- v1&#45;&#45;v8 -->
<g id="edge11" class="edge"><title>v1&#45;&#45;v8</title>
<path fill="none" stroke="black" d="M185.319,-442.377C159.919,-434.593 120.32,-419.652 93.0136,-396 14.6584,-328.131 19.6735,-282.62 5.01357,-180 2.75083,-164.161 -4.6261,-156.77 5.01357,-144 24.3327,-118.407 118.362,-101.501 164.866,-94.5655"/>
</g>
<!-- v1&#45;&#45;v2 -->
<g id="edge7" class="edge"><title>v1&#45;&#45;v2</title>
<path fill="none" stroke="black" d="M221.948,-433.811C231.173,-422.07 243.883,-405.893 253.103,-394.159"/>
</g>
<!-- v1&#45;&#45;v3 -->
<g id="edge8" class="edge"><title>v1&#45;&#45;v3</title>
<path fill="none" stroke="black" d="M203.597,-432.433C193.055,-405.217 172.185,-351.334 161.56,-323.902"/>
</g>
<!-- v1&#45;&#45;v6 -->
<g id="edge10" class="edge"><title>v1&#45;&#45;v6</title>
<path fill="none" stroke="black" d="M190.914,-437.208C160.437,-417.45 100.806,-374.787 67.0136,-324 37.0564,-278.977 37.3279,-211.515 39.397,-180.16"/>
</g>
<!-- v1&#45;&#45;v9 -->
<g id="edge12" class="edge"><title>v1&#45;&#45;v9</title>
<path fill="none" stroke="black" d="M231.53,-439.036C250.831,-429.524 279.364,-414.001 301.014,-396 333.485,-369.001 341.052,-360.07 363.014,-324 421.67,-227.661 407.537,-183.852 393.014,-72 391.42,-59.7309 387.835,-46.2553 384.692,-35.9624"/>
</g>
<!-- v6&#45;&#45;v8 -->
<g id="edge31" class="edge"><title>v6&#45;&#45;v8</title>
<path fill="none" stroke="black" d="M62.5049,-150.971C91.0199,-137.664 141.067,-114.308 169.562,-101.011"/>
</g>
<!-- v7&#45;&#45;v8 -->
<g id="edge32" class="edge"><title>v7&#45;&#45;v8</title>
<path fill="none" stroke="black" d="M250.039,-146.834C237.2,-134.69 218.799,-117.283 205.966,-105.144"/>
</g>
</g>
</svg>
