<?xml version="1.0" encoding="UTF-8" standalone="no"?>
<!DOCTYPE svg PUBLIC "-//W3C//DTD SVG 1.1//EN"
 "http://www.w3.org/Graphics/SVG/1.1/DTD/svg11.dtd">
<!-- Generated by graphviz version 2.38.0 (20140413.2041)
 -->
<!-- Title: G Pages: 1 -->
<svg width="570pt" height="548pt"
 viewBox="0.00 0.00 570.00 548.00" xmlns="http://www.w3.org/2000/svg" xmlns:xlink="http://www.w3.org/1999/xlink">
<g id="graph0" class="graph" transform="scale(1 1) rotate(0) translate(4 544)">
<title>G</title>
<polygon fill="white" stroke="none" points="-4,4 -4,-544 566,-544 566,4 -4,4"/>
<!-- v8 -->
<g id="node1" class="node"><title>v8</title>
<ellipse fill="red" stroke="black" cx="281" cy="-90" rx="27" ry="18"/>
<text text-anchor="middle" x="281" y="-86.3" font-family="Times,serif" font-size="14.00">v8</text>
</g>
<!-- v9 -->
<g id="node10" class="node"><title>v9</title>
<ellipse fill="none" stroke="black" cx="114" cy="-18" rx="27" ry="18"/>
<text text-anchor="middle" x="114" y="-14.3" font-family="Times,serif" font-size="14.00">v9</text>
</g>
<!-- v8&#45;&#45;v9 -->
<g id="edge33" class="edge"><title>v8&#45;&#45;v9</title>
<path fill="none" stroke="black" d="M258.824,-79.7045C226.883,-66.3161 168.26,-41.7437 136.268,-28.3339"/>
</g>
<!-- v3 -->
<g id="node2" class="node"><title>v3</title>
<ellipse fill="red" stroke="black" cx="279" cy="-306" rx="27" ry="18"/>
<text text-anchor="middle" x="279" y="-302.3" font-family="Times,serif" font-size="14.00">v3</text>
</g>
<!-- v3&#45;&#45;v8 -->
<g id="edge23" class="edge"><title>v3&#45;&#45;v8</title>
<path fill="none" stroke="black" d="M279.16,-287.849C279.535,-247.78 280.464,-148.383 280.839,-108.232"/>
</g>
<!-- v4 -->
<g id="node3" class="node"><title>v4</title>
<ellipse fill="red" stroke="black" cx="355" cy="-234" rx="27" ry="18"/>
<text text-anchor="middle" x="355" y="-230.3" font-family="Times,serif" font-size="14.00">v4</text>
</g>
<!-- v3&#45;&#45;v4 -->
<g id="edge20" class="edge"><title>v3&#45;&#45;v4</title>
<path fill="none" stroke="black" d="M294.38,-290.834C307.565,-278.69 326.464,-261.283 339.643,-249.144"/>
</g>
<!-- v5 -->
<g id="node6" class="node"><title>v5</title>
<ellipse fill="red" stroke="black" cx="131" cy="-234" rx="27" ry="18"/>
<text text-anchor="middle" x="131" y="-230.3" font-family="Times,serif" font-size="14.00">v5</text>
</g>
<!-- v3&#45;&#45;v5 -->
<g id="edge21" class="edge"><title>v3&#45;&#45;v5</title>
<path fill="none" stroke="black" d="M257.48,-294.821C229.42,-281.55 180.619,-258.468 152.546,-245.191"/>
</g>
<!-- v7 -->
<g id="node9" class="node"><title>v7</title>
<ellipse fill="none" stroke="black" cx="207" cy="-162" rx="27" ry="18"/>
<text text-anchor="middle" x="207" y="-158.3" font-family="Times,serif" font-size="14.00">v7</text>
</g>
<!-- v3&#45;&#45;v7 -->
<g id="edge22" class="edge"><title>v3&#45;&#45;v7</title>
<path fill="none" stroke="black" d="M270.741,-288.711C256.926,-261.465 229.283,-206.946 215.385,-179.537"/>
</g>
<!-- v4&#45;&#45;v8 -->
<g id="edge26" class="edge"><title>v4&#45;&#45;v8</title>
<path fill="none" stroke="black" d="M348.049,-216.294C340.34,-198.178 327.236,-168.56 314,-144 307.109,-131.214 298.391,-117.292 291.646,-106.927"/>
</g>
<!-- v6 -->
<g id="node8" class="node"><title>v6</title>
<ellipse fill="none" stroke="black" cx="402" cy="-162" rx="27" ry="18"/>
<text text-anchor="middle" x="402" y="-158.3" font-family="Times,serif" font-size="14.00">v6</text>
</g>
<!-- v4&#45;&#45;v6 -->
<g id="edge24" class="edge"><title>v4&#45;&#45;v6</title>
<path fill="none" stroke="black" d="M365.665,-217.116C373.357,-205.66 383.695,-190.263 391.377,-178.821"/>
</g>
<!-- v4&#45;&#45;v7 -->
<g id="edge25" class="edge"><title>v4&#45;&#45;v7</title>
<path fill="none" stroke="black" d="M333.48,-222.821C305.42,-209.55 256.619,-186.468 228.546,-173.191"/>
</g>
<!-- v1 -->
<g id="node4" class="node"><title>v1</title>
<ellipse fill="red" stroke="black" cx="306" cy="-450" rx="27" ry="18"/>
<text text-anchor="middle" x="306" y="-446.3" font-family="Times,serif" font-size="14.00">v1</text>
</g>
<!-- v1&#45;&#45;v8 -->
<g id="edge11" class="edge"><title>v1&#45;&#45;v8</title>
<path fill="none" stroke="black" d="M324.285,-436.462C337.643,-426.621 355.527,-411.953 368,-396 439.597,-304.426 505.787,-238.429 438,-144 408.306,-102.635 344.62,-93.1338 308.142,-91.209"/>
</g>
<!-- v1&#45;&#45;v3 -->
<g id="edge8" class="edge"><title>v1&#45;&#45;v3</title>
<path fill="none" stroke="black" d="M302.743,-431.871C297.554,-404.578 287.465,-351.52 282.268,-324.189"/>
</g>
<!-- v1&#45;&#45;v4 -->
<g id="edge9" class="edge"><title>v1&#45;&#45;v4</title>
<path fill="none" stroke="black" d="M310.917,-432.122C317.781,-408.202 330.36,-363.006 339,-324 344.5,-299.169 349.447,-270.125 352.337,-252.143"/>
</g>
<!-- v2 -->
<g id="node7" class="node"><title>v2</title>
<ellipse fill="red" stroke="black" cx="251" cy="-378" rx="27" ry="18"/>
<text text-anchor="middle" x="251" y="-374.3" font-family="Times,serif" font-size="14.00">v2</text>
</g>
<!-- v1&#45;&#45;v2 -->
<g id="edge7" class="edge"><title>v1&#45;&#45;v2</title>
<path fill="none" stroke="black" d="M294.066,-433.811C284.84,-422.07 272.13,-405.893 262.911,-394.159"/>
</g>
<!-- v1&#45;&#45;v6 -->
<g id="edge10" class="edge"><title>v1&#45;&#45;v6</title>
<path fill="none" stroke="black" d="M317.882,-433.267C341.193,-401.254 392.119,-325.341 409,-252 414.667,-227.38 410.28,-198.031 406.344,-179.955"/>
</g>
<!-- v1&#45;&#45;v9 -->
<g id="edge12" class="edge"><title>v1&#45;&#45;v9</title>
<path fill="none" stroke="black" d="M278.845,-448.776C203.955,-446.591 0,-429.404 0,-307 0,-307 0,-307 0,-161 0,-101.249 62.1367,-52.3256 94.6615,-30.8101"/>
</g>
<!-- v0 -->
<g id="node5" class="node"><title>v0</title>
<ellipse fill="red" stroke="black" cx="278" cy="-522" rx="27" ry="18"/>
<text text-anchor="middle" x="278" y="-518.3" font-family="Times,serif" font-size="14.00">v0</text>
</g>
<!-- v0&#45;&#45;v1 -->
<g id="edge1" class="edge"><title>v0&#45;&#45;v1</title>
<path fill="none" stroke="black" d="M284.636,-504.411C289.099,-493.252 294.959,-478.604 299.412,-467.47"/>
</g>
<!-- v0&#45;&#45;v5 -->
<g id="edge3" class="edge"><title>v0&#45;&#45;v5</title>
<path fill="none" stroke="black" d="M250.934,-519.519C191.461,-515.642 52.4142,-502.955 24,-468 -34.5412,-395.983 73.2524,-286.718 115.269,-248.65"/>
</g>
<!-- v0&#45;&#45;v2 -->
<g id="edge2" class="edge"><title>v0&#45;&#45;v2</title>
<path fill="none" stroke="black" d="M274.743,-503.871C269.554,-476.578 259.465,-423.52 254.268,-396.189"/>
</g>
<!-- v0&#45;&#45;v6 -->
<g id="edge4" class="edge"><title>v0&#45;&#45;v6</title>
<path fill="none" stroke="black" d="M296.88,-508.991C310.853,-499.318 329.546,-484.627 342,-468 403.558,-385.812 410.131,-353.744 424,-252 426.161,-236.147 427.127,-231.691 424,-216 421.43,-203.103 415.661,-189.415 410.675,-179.181"/>
</g>
<!-- v0&#45;&#45;v7 -->
<g id="edge5" class="edge"><title>v0&#45;&#45;v7</title>
<path fill="none" stroke="black" d="M251.399,-517.898C188.912,-508.983 38,-477.279 38,-379 38,-379 38,-379 38,-305 38,-230.08 136.56,-186.775 183.145,-170.491"/>
</g>
<!-- v0&#45;&#45;v9 -->
<g id="edge6" class="edge"><title>v0&#45;&#45;v9</title>
<path fill="none" stroke="black" d="M304.974,-519.942C375.865,-515.579 562,-493.247 562,-379 562,-379 562,-379 562,-161 562,-72.0655 237.129,-31.625 140.683,-21.5788"/>
</g>
<!-- v5&#45;&#45;v8 -->
<g id="edge29" class="edge"><title>v5&#45;&#45;v8</title>
<path fill="none" stroke="black" d="M134.892,-215.908C140.124,-196.347 151.146,-164.39 171,-144 194.662,-119.7 231.715,-105.072 256.178,-97.5179"/>
</g>
<!-- v5&#45;&#45;v6 -->
<g id="edge27" class="edge"><title>v5&#45;&#45;v6</title>
<path fill="none" stroke="black" d="M156.009,-226.54C207.636,-213.205 325.476,-182.766 377.051,-169.444"/>
</g>
<!-- v5&#45;&#45;v7 -->
<g id="edge28" class="edge"><title>v5&#45;&#45;v7</title>
<path fill="none" stroke="black" d="M146.38,-218.834C159.565,-206.69 178.464,-189.283 191.643,-177.144"/>
</g>
<!-- v5&#45;&#45;v9 -->
<g id="edge30" class="edge"><title>v5&#45;&#45;v9</title>
<path fill="none" stroke="black" d="M129.638,-215.849C126.454,-175.78 118.558,-76.3826 115.369,-36.2325"/>
</g>
<!-- v2&#45;&#45;v8 -->
<g id="edge18" class="edge"><title>v2&#45;&#45;v8</title>
<path fill="none" stroke="black" d="M247.752,-359.888C245.954,-349.542 243.905,-336.063 243,-324 236.866,-242.258 263.51,-146.026 275.46,-107.836"/>
</g>
<!-- v2&#45;&#45;v3 -->
<g id="edge13" class="edge"><title>v2&#45;&#45;v3</title>
<path fill="none" stroke="black" d="M257.636,-360.411C262.099,-349.252 267.959,-334.604 272.412,-323.47"/>
</g>
<!-- v2&#45;&#45;v4 -->
<g id="edge14" class="edge"><title>v2&#45;&#45;v4</title>
<path fill="none" stroke="black" d="M269.805,-364.934C283.738,-355.232 302.415,-340.528 315,-324 332.035,-301.627 343.797,-270.847 349.961,-251.97"/>
</g>
<!-- v2&#45;&#45;v5 -->
<g id="edge15" class="edge"><title>v2&#45;&#45;v5</title>
<path fill="none" stroke="black" d="M229.499,-366.779C212.105,-357.611 187.962,-342.73 172,-324 153.572,-302.377 141.739,-271.091 135.739,-251.951"/>
</g>
<!-- v2&#45;&#45;v6 -->
<g id="edge16" class="edge"><title>v2&#45;&#45;v6</title>
<path fill="none" stroke="black" d="M272.892,-366.953C291.766,-357.596 319.049,-342.353 339,-324 368.051,-297.276 376.57,-288.741 391,-252 400.334,-228.234 402.223,-198.393 402.375,-180.013"/>
</g>
<!-- v2&#45;&#45;v7 -->
<g id="edge17" class="edge"><title>v2&#45;&#45;v7</title>
<path fill="none" stroke="black" d="M235.883,-362.818C226.497,-352.949 215.254,-338.923 210,-324 192.453,-274.162 199.18,-210.158 203.903,-180.07"/>
</g>
<!-- v2&#45;&#45;v9 -->
<g id="edge19" class="edge"><title>v2&#45;&#45;v9</title>
<path fill="none" stroke="black" d="M226.667,-369.893C178.582,-354.185 76,-311.686 76,-235 76,-235 76,-235 76,-161 76,-114.298 95.4181,-61.803 106.492,-35.662"/>
</g>
<!-- v6&#45;&#45;v8 -->
<g id="edge31" class="edge"><title>v6&#45;&#45;v8</title>
<path fill="none" stroke="black" d="M382.29,-149.597C359.789,-136.581 323.199,-115.413 300.702,-102.398"/>
</g>
<!-- v7&#45;&#45;v8 -->
<g id="edge32" class="edge"><title>v7&#45;&#45;v8</title>
<path fill="none" stroke="black" d="M221.975,-146.834C234.814,-134.69 253.215,-117.283 266.047,-105.144"/>
</g>
</g>
</svg>
