<?xml version="1.0" encoding="UTF-8" standalone="no"?>
<!DOCTYPE svg PUBLIC "-//W3C//DTD SVG 1.1//EN"
 "http://www.w3.org/Graphics/SVG/1.1/DTD/svg11.dtd">
<!-- Generated by graphviz version 2.38.0 (20140413.2041)
 -->
<!-- Title: G Pages: 1 -->
<svg width="384pt" height="404pt"
 viewBox="0.00 0.00 384.00 404.00" xmlns="http://www.w3.org/2000/svg" xmlns:xlink="http://www.w3.org/1999/xlink">
<g id="graph0" class="graph" transform="scale(1 1) rotate(0) translate(4 400)">
<title>G</title>
<polygon fill="white" stroke="none" points="-4,4 -4,-400 380,-400 380,4 -4,4"/>
<!-- v4 -->
<g id="node1" class="node"><title>v4</title>
<ellipse fill="red" stroke="black" cx="207" cy="-162" rx="27" ry="18"/>
<text text-anchor="middle" x="207" y="-158.3" font-family="Times,serif" font-size="14.00">v4</text>
</g>
<!-- v5 -->
<g id="node4" class="node"><title>v5</title>
<ellipse fill="red" stroke="black" cx="234" cy="-90" rx="27" ry="18"/>
<text text-anchor="middle" x="234" y="-86.3" font-family="Times,serif" font-size="14.00">v5</text>
</g>
<!-- v4&#45;&#45;v5 -->
<g id="edge18" class="edge"><title>v4&#45;&#45;v5</title>
<path fill="none" stroke="black" d="M213.399,-144.411C217.64,-133.414 223.189,-119.027 227.46,-107.956"/>
</g>
<!-- v6 -->
<g id="node7" class="node"><title>v6</title>
<ellipse fill="none" stroke="black" cx="76" cy="-18" rx="27" ry="18"/>
<text text-anchor="middle" x="76" y="-14.3" font-family="Times,serif" font-size="14.00">v6</text>
</g>
<!-- v4&#45;&#45;v6 -->
<g id="edge19" class="edge"><title>v4&#45;&#45;v6</title>
<path fill="none" stroke="black" d="M193.474,-146.338C168.371,-119.128 114.844,-61.1052 89.6486,-33.7946"/>
</g>
<!-- v0 -->
<g id="node2" class="node"><title>v0</title>
<ellipse fill="red" stroke="black" cx="225" cy="-378" rx="27" ry="18"/>
<text text-anchor="middle" x="225" y="-374.3" font-family="Times,serif" font-size="14.00">v0</text>
</g>
<!-- v1 -->
<g id="node3" class="node"><title>v1</title>
<ellipse fill="red" stroke="black" cx="188" cy="-306" rx="27" ry="18"/>
<text text-anchor="middle" x="188" y="-302.3" font-family="Times,serif" font-size="14.00">v1</text>
</g>
<!-- v0&#45;&#45;v1 -->
<g id="edge1" class="edge"><title>v0&#45;&#45;v1</title>
<path fill="none" stroke="black" d="M216.418,-360.765C210.441,-349.456 202.502,-334.437 196.535,-323.147"/>
</g>
<!-- v0&#45;&#45;v5 -->
<g id="edge4" class="edge"><title>v0&#45;&#45;v5</title>
<path fill="none" stroke="black" d="M239.125,-362.391C259.158,-340.522 294.85,-297.008 308,-252 324.564,-195.306 274.657,-133.091 248.668,-105.526"/>
</g>
<!-- v2 -->
<g id="node5" class="node"><title>v2</title>
<ellipse fill="red" stroke="black" cx="124" cy="-234" rx="27" ry="18"/>
<text text-anchor="middle" x="124" y="-230.3" font-family="Times,serif" font-size="14.00">v2</text>
</g>
<!-- v0&#45;&#45;v2 -->
<g id="edge2" class="edge"><title>v0&#45;&#45;v2</title>
<path fill="none" stroke="black" d="M203.881,-366.52C187.522,-357.388 165.448,-342.686 152,-324 136.293,-302.176 129.183,-271.233 126.125,-252.173"/>
</g>
<!-- v3 -->
<g id="node6" class="node"><title>v3</title>
<ellipse fill="red" stroke="black" cx="272" cy="-234" rx="27" ry="18"/>
<text text-anchor="middle" x="272" y="-230.3" font-family="Times,serif" font-size="14.00">v3</text>
</g>
<!-- v0&#45;&#45;v3 -->
<g id="edge3" class="edge"><title>v0&#45;&#45;v3</title>
<path fill="none" stroke="black" d="M230.576,-360.153C239.622,-332.824 257.39,-279.14 266.431,-251.825"/>
</g>
<!-- v0&#45;&#45;v6 -->
<g id="edge5" class="edge"><title>v0&#45;&#45;v6</title>
<path fill="none" stroke="black" d="M198.749,-373.088C139.397,-362.605 0,-328.076 0,-235 0,-235 0,-235 0,-161 0,-109.271 39.6896,-58.1496 61.705,-33.7722"/>
</g>
<!-- v7 -->
<g id="node8" class="node"><title>v7</title>
<ellipse fill="none" stroke="black" cx="299" cy="-18" rx="27" ry="18"/>
<text text-anchor="middle" x="299" y="-14.3" font-family="Times,serif" font-size="14.00">v7</text>
</g>
<!-- v0&#45;&#45;v7 -->
<g id="edge6" class="edge"><title>v0&#45;&#45;v7</title>
<path fill="none" stroke="black" d="M247.934,-368.052C290.175,-349.893 376,-304.453 376,-235 376,-235 376,-235 376,-161 376,-108.838 335.352,-57.5132 313.123,-33.3449"/>
</g>
<!-- v1&#45;&#45;v4 -->
<g id="edge9" class="edge"><title>v1&#45;&#45;v4</title>
<path fill="none" stroke="black" d="M190.292,-287.871C193.944,-260.578 201.043,-207.52 204.7,-180.189"/>
</g>
<!-- v1&#45;&#45;v5 -->
<g id="edge10" class="edge"><title>v1&#45;&#45;v5</title>
<path fill="none" stroke="black" d="M197.564,-289.149C210.857,-266.097 234.267,-221.531 243,-180 248.209,-155.228 243.136,-125.92 238.763,-107.895"/>
</g>
<!-- v1&#45;&#45;v2 -->
<g id="edge7" class="edge"><title>v1&#45;&#45;v2</title>
<path fill="none" stroke="black" d="M174.427,-290.155C163.566,-278.276 148.409,-261.697 137.553,-249.824"/>
</g>
<!-- v1&#45;&#45;v3 -->
<g id="edge8" class="edge"><title>v1&#45;&#45;v3</title>
<path fill="none" stroke="black" d="M204.196,-291.503C219.071,-279.108 240.995,-260.838 255.854,-248.455"/>
</g>
<!-- v1&#45;&#45;v6 -->
<g id="edge11" class="edge"><title>v1&#45;&#45;v6</title>
<path fill="none" stroke="black" d="M162.773,-299.038C139.183,-292.028 105.099,-277.912 88,-252 42.7126,-183.37 61.7026,-77.0728 71.5067,-36.0005"/>
</g>
<!-- v5&#45;&#45;v6 -->
<g id="edge20" class="edge"><title>v5&#45;&#45;v6</title>
<path fill="none" stroke="black" d="M212.031,-79.2668C181.844,-65.8931 127.871,-41.9806 97.7826,-28.6505"/>
</g>
<!-- v5&#45;&#45;v7 -->
<g id="edge21" class="edge"><title>v5&#45;&#45;v7</title>
<path fill="none" stroke="black" d="M247.785,-74.1548C258.816,-62.2756 274.21,-45.6974 285.235,-33.8238"/>
</g>
<!-- v2&#45;&#45;v4 -->
<g id="edge12" class="edge"><title>v2&#45;&#45;v4</title>
<path fill="none" stroke="black" d="M140.398,-219.17C155.044,-206.819 176.37,-188.832 190.918,-176.563"/>
</g>
<!-- v2&#45;&#45;v5 -->
<g id="edge13" class="edge"><title>v2&#45;&#45;v5</title>
<path fill="none" stroke="black" d="M130.45,-216.445C138.263,-197.668 152.682,-166.715 171,-144 183.92,-127.978 202.239,-113.211 215.794,-103.357"/>
</g>
<!-- v2&#45;&#45;v6 -->
<g id="edge14" class="edge"><title>v2&#45;&#45;v6</title>
<path fill="none" stroke="black" d="M115.215,-216.744C110.032,-206.481 103.769,-192.789 100,-180 84.9812,-129.038 79.0779,-66.0979 77.0014,-36.2569"/>
</g>
<!-- v2&#45;&#45;v7 -->
<g id="edge15" class="edge"><title>v2&#45;&#45;v7</title>
<path fill="none" stroke="black" d="M125.677,-215.916C127.971,-197.476 133.119,-167.583 144,-144 160.757,-107.679 167.543,-97.9297 198,-72 221.673,-51.8464 254.297,-36.4784 275.989,-27.6062"/>
</g>
<!-- v3&#45;&#45;v4 -->
<g id="edge16" class="edge"><title>v3&#45;&#45;v4</title>
<path fill="none" stroke="black" d="M258.215,-218.155C247.184,-206.276 231.79,-189.697 220.765,-177.824"/>
</g>
<!-- v3&#45;&#45;v7 -->
<g id="edge17" class="edge"><title>v3&#45;&#45;v7</title>
<path fill="none" stroke="black" d="M274.164,-215.849C279.219,-175.78 291.76,-76.3826 296.826,-36.2325"/>
</g>
</g>
</svg>
