<?xml version="1.0" encoding="UTF-8" standalone="no"?>
<!DOCTYPE svg PUBLIC "-//W3C//DTD SVG 1.1//EN"
 "http://www.w3.org/Graphics/SVG/1.1/DTD/svg11.dtd">
<!-- Generated by graphviz version 2.38.0 (20140413.2041)
 -->
<!-- Title: G Pages: 1 -->
<svg width="365pt" height="404pt"
 viewBox="0.00 0.00 365.28 404.00" xmlns="http://www.w3.org/2000/svg" xmlns:xlink="http://www.w3.org/1999/xlink">
<g id="graph0" class="graph" transform="scale(1 1) rotate(0) translate(4 400)">
<title>G</title>
<polygon fill="white" stroke="none" points="-4,4 -4,-400 361.28,-400 361.28,4 -4,4"/>
<!-- v7 -->
<g id="node1" class="node"><title>v7</title>
<ellipse fill="red" stroke="black" cx="289" cy="-18" rx="27" ry="18"/>
<text text-anchor="middle" x="289" y="-14.3" font-family="Times,serif" font-size="14.00">v7</text>
</g>
<!-- v3 -->
<g id="node2" class="node"><title>v3</title>
<ellipse fill="red" stroke="black" cx="131" cy="-162" rx="27" ry="18"/>
<text text-anchor="middle" x="131" y="-158.3" font-family="Times,serif" font-size="14.00">v3</text>
</g>
<!-- v6 -->
<g id="node3" class="node"><title>v6</title>
<ellipse fill="red" stroke="black" cx="95" cy="-18" rx="27" ry="18"/>
<text text-anchor="middle" x="95" y="-14.3" font-family="Times,serif" font-size="14.00">v6</text>
</g>
<!-- v3&#45;&#45;v6 -->
<g id="edge17" class="edge"><title>v3&#45;&#45;v6</title>
<path fill="none" stroke="black" d="M125.209,-144.417C121.701,-134.031 117.284,-120.325 114,-108 107.411,-83.2673 101.553,-54.1967 98.1388,-36.1827"/>
</g>
<!-- v4 -->
<g id="node6" class="node"><title>v4</title>
<ellipse fill="red" stroke="black" cx="150" cy="-90" rx="27" ry="18"/>
<text text-anchor="middle" x="150" y="-86.3" font-family="Times,serif" font-size="14.00">v4</text>
</g>
<!-- v3&#45;&#45;v4 -->
<g id="edge15" class="edge"><title>v3&#45;&#45;v4</title>
<path fill="none" stroke="black" d="M135.599,-144.055C138.587,-133.049 142.464,-118.764 145.443,-107.789"/>
</g>
<!-- v5 -->
<g id="node7" class="node"><title>v5</title>
<ellipse fill="red" stroke="black" cx="317" cy="-90" rx="27" ry="18"/>
<text text-anchor="middle" x="317" y="-86.3" font-family="Times,serif" font-size="14.00">v5</text>
</g>
<!-- v3&#45;&#45;v5 -->
<g id="edge16" class="edge"><title>v3&#45;&#45;v5</title>
<path fill="none" stroke="black" d="M154.181,-152.276C190.018,-138.789 258.452,-113.034 294.111,-99.6141"/>
</g>
<!-- v1 -->
<g id="node4" class="node"><title>v1</title>
<ellipse fill="red" stroke="black" cx="224" cy="-306" rx="27" ry="18"/>
<text text-anchor="middle" x="224" y="-302.3" font-family="Times,serif" font-size="14.00">v1</text>
</g>
<!-- v1&#45;&#45;v7 -->
<g id="edge9" class="edge"><title>v1&#45;&#45;v7</title>
<path fill="none" stroke="black" d="M242.082,-292.484C255.272,-282.655 272.886,-267.991 285,-252 327.739,-195.584 337.514,-177.062 353,-108 356.501,-92.3877 359.809,-86.479 353,-72 344.16,-53.2008 325.015,-38.7812 309.955,-29.7623"/>
</g>
<!-- v1&#45;&#45;v6 -->
<g id="edge8" class="edge"><title>v1&#45;&#45;v6</title>
<path fill="none" stroke="black" d="M204.437,-293.438C174.228,-274.297 117.375,-232.839 95,-180 74.2909,-131.096 84.3219,-66.0985 90.8706,-35.8344"/>
</g>
<!-- v1&#45;&#45;v5 -->
<g id="edge7" class="edge"><title>v1&#45;&#45;v5</title>
<path fill="none" stroke="black" d="M235.132,-289.5C242.469,-279.074 252.138,-264.924 260,-252 278.915,-220.909 286.59,-214.212 299,-180 307.762,-155.844 312.664,-126.368 315.069,-108.139"/>
</g>
<!-- v2 -->
<g id="node9" class="node"><title>v2</title>
<ellipse fill="none" stroke="black" cx="224" cy="-234" rx="27" ry="18"/>
<text text-anchor="middle" x="224" y="-230.3" font-family="Times,serif" font-size="14.00">v2</text>
</g>
<!-- v1&#45;&#45;v2 -->
<g id="edge6" class="edge"><title>v1&#45;&#45;v2</title>
<path fill="none" stroke="black" d="M224,-287.697C224,-276.846 224,-262.917 224,-252.104"/>
</g>
<!-- v8 -->
<g id="node5" class="node"><title>v8</title>
<ellipse fill="red" stroke="black" cx="186" cy="-378" rx="27" ry="18"/>
<text text-anchor="middle" x="186" y="-374.3" font-family="Times,serif" font-size="14.00">v8</text>
</g>
<!-- v4&#45;&#45;v7 -->
<g id="edge19" class="edge"><title>v4&#45;&#45;v7</title>
<path fill="none" stroke="black" d="M170.81,-78.5203C197.014,-65.3239 241.777,-42.7815 268.048,-29.5513"/>
</g>
<!-- v4&#45;&#45;v6 -->
<g id="edge18" class="edge"><title>v4&#45;&#45;v6</title>
<path fill="none" stroke="black" d="M138.066,-73.811C128.84,-62.0697 116.13,-45.8932 106.911,-34.1593"/>
</g>
<!-- v5&#45;&#45;v7 -->
<g id="edge20" class="edge"><title>v5&#45;&#45;v7</title>
<path fill="none" stroke="black" d="M310.364,-72.411C305.901,-61.2524 300.041,-46.6036 295.588,-35.4699"/>
</g>
<!-- v0 -->
<g id="node8" class="node"><title>v0</title>
<ellipse fill="none" stroke="black" cx="114" cy="-378" rx="27" ry="18"/>
<text text-anchor="middle" x="114" y="-374.3" font-family="Times,serif" font-size="14.00">v0</text>
</g>
<!-- v0&#45;&#45;v3 -->
<g id="edge2" class="edge"><title>v0&#45;&#45;v3</title>
<path fill="none" stroke="black" d="M115.362,-359.849C118.546,-319.78 126.442,-220.383 129.631,-180.232"/>
</g>
<!-- v0&#45;&#45;v6 -->
<g id="edge5" class="edge"><title>v0&#45;&#45;v6</title>
<path fill="none" stroke="black" d="M94.6615,-365.19C62.1367,-343.674 0,-294.751 0,-235 0,-235 0,-235 0,-161 0,-105.534 50.6905,-55.3312 78.0159,-32.2984"/>
</g>
<!-- v0&#45;&#45;v1 -->
<g id="edge1" class="edge"><title>v0&#45;&#45;v1</title>
<path fill="none" stroke="black" d="M133.161,-364.807C153.35,-351.959 184.952,-331.848 205.059,-319.053"/>
</g>
<!-- v0&#45;&#45;v4 -->
<g id="edge3" class="edge"><title>v0&#45;&#45;v4</title>
<path fill="none" stroke="black" d="M107.539,-360.343C93.2988,-320.9 62.9266,-219.449 95,-144 102.315,-126.793 118.257,-112.462 131.103,-103.06"/>
</g>
<!-- v0&#45;&#45;v5 -->
<g id="edge4" class="edge"><title>v0&#45;&#45;v5</title>
<path fill="none" stroke="black" d="M135.126,-366.486C139.964,-364.23 145.119,-361.942 150,-360 197.795,-340.98 222.54,-359.255 260,-324 322.168,-265.491 321.321,-151.276 318.517,-108.091"/>
</g>
<!-- v2&#45;&#45;v7 -->
<g id="edge14" class="edge"><title>v2&#45;&#45;v7</title>
<path fill="none" stroke="black" d="M229.1,-216.208C241.251,-176.204 271.796,-75.6394 283.923,-35.7142"/>
</g>
<!-- v2&#45;&#45;v3 -->
<g id="edge10" class="edge"><title>v2&#45;&#45;v3</title>
<path fill="none" stroke="black" d="M206.507,-219.834C189.88,-207.319 165.015,-188.603 148.414,-176.107"/>
</g>
<!-- v2&#45;&#45;v6 -->
<g id="edge13" class="edge"><title>v2&#45;&#45;v6</title>
<path fill="none" stroke="black" d="M224.213,-215.905C223.761,-184.36 218.738,-116.192 186,-72 169.24,-49.3762 139.714,-34.7921 118.845,-26.7621"/>
</g>
<!-- v2&#45;&#45;v4 -->
<g id="edge11" class="edge"><title>v2&#45;&#45;v4</title>
<path fill="none" stroke="black" d="M215.511,-216.711C201.313,-189.465 172.902,-134.946 158.618,-107.537"/>
</g>
<!-- v2&#45;&#45;v5 -->
<g id="edge12" class="edge"><title>v2&#45;&#45;v5</title>
<path fill="none" stroke="black" d="M240.043,-219.366C251.163,-209.314 265.754,-194.856 276,-180 292.034,-156.753 304.513,-126.232 311.306,-107.646"/>
</g>
</g>
</svg>
