<?xml version="1.0" encoding="UTF-8" standalone="no"?>
<!DOCTYPE svg PUBLIC "-//W3C//DTD SVG 1.1//EN"
 "http://www.w3.org/Graphics/SVG/1.1/DTD/svg11.dtd">
<!-- Generated by graphviz version 2.38.0 (20140413.2041)
 -->
<!-- Title: G Pages: 1 -->
<svg width="574pt" height="548pt"
 viewBox="0.00 0.00 574.00 548.00" xmlns="http://www.w3.org/2000/svg" xmlns:xlink="http://www.w3.org/1999/xlink">
<g id="graph0" class="graph" transform="scale(1 1) rotate(0) translate(4 544)">
<title>G</title>
<polygon fill="white" stroke="none" points="-4,4 -4,-544 570,-544 570,4 -4,4"/>
<!-- v1 -->
<g id="node1" class="node"><title>v1</title>
<ellipse fill="red" stroke="black" cx="397" cy="-450" rx="27" ry="18"/>
<text text-anchor="middle" x="397" y="-446.3" font-family="Times,serif" font-size="14.00">v1</text>
</g>
<!-- v4 -->
<g id="node3" class="node"><title>v4</title>
<ellipse fill="red" stroke="black" cx="355" cy="-234" rx="27" ry="18"/>
<text text-anchor="middle" x="355" y="-230.3" font-family="Times,serif" font-size="14.00">v4</text>
</g>
<!-- v1&#45;&#45;v4 -->
<g id="edge9" class="edge"><title>v1&#45;&#45;v4</title>
<path fill="none" stroke="black" d="M407.45,-432.956C425.617,-402.862 458.734,-336.599 433,-288 421.508,-266.297 396.704,-251.831 378.133,-243.572"/>
</g>
<!-- v2 -->
<g id="node5" class="node"><title>v2</title>
<ellipse fill="red" stroke="black" cx="228" cy="-378" rx="27" ry="18"/>
<text text-anchor="middle" x="228" y="-374.3" font-family="Times,serif" font-size="14.00">v2</text>
</g>
<!-- v1&#45;&#45;v2 -->
<g id="edge7" class="edge"><title>v1&#45;&#45;v2</title>
<path fill="none" stroke="black" d="M374.558,-439.705C342.145,-426.279 282.58,-401.607 250.266,-388.222"/>
</g>
<!-- v3 -->
<g id="node6" class="node"><title>v3</title>
<ellipse fill="red" stroke="black" cx="397" cy="-306" rx="27" ry="18"/>
<text text-anchor="middle" x="397" y="-302.3" font-family="Times,serif" font-size="14.00">v3</text>
</g>
<!-- v1&#45;&#45;v3 -->
<g id="edge8" class="edge"><title>v1&#45;&#45;v3</title>
<path fill="none" stroke="black" d="M397,-431.871C397,-404.578 397,-351.52 397,-324.189"/>
</g>
<!-- v8 -->
<g id="node7" class="node"><title>v8</title>
<ellipse fill="red" stroke="black" cx="319" cy="-90" rx="27" ry="18"/>
<text text-anchor="middle" x="319" y="-86.3" font-family="Times,serif" font-size="14.00">v8</text>
</g>
<!-- v1&#45;&#45;v8 -->
<g id="edge11" class="edge"><title>v1&#45;&#45;v8</title>
<path fill="none" stroke="black" d="M418.047,-438.575C455.078,-418.577 528,-371.064 528,-307 528,-307 528,-307 528,-233 528,-145.265 400.437,-107.946 344.628,-95.8173"/>
</g>
<!-- v6 -->
<g id="node8" class="node"><title>v6</title>
<ellipse fill="none" stroke="black" cx="190" cy="-162" rx="27" ry="18"/>
<text text-anchor="middle" x="190" y="-158.3" font-family="Times,serif" font-size="14.00">v6</text>
</g>
<!-- v1&#45;&#45;v6 -->
<g id="edge10" class="edge"><title>v1&#45;&#45;v6</title>
<path fill="none" stroke="black" d="M379.443,-436.206C341.729,-407.714 252.848,-334.969 209,-252 196.819,-228.951 192.447,-198.642 190.878,-180.005"/>
</g>
<!-- v9 -->
<g id="node10" class="node"><title>v9</title>
<ellipse fill="none" stroke="black" cx="245" cy="-18" rx="27" ry="18"/>
<text text-anchor="middle" x="245" y="-14.3" font-family="Times,serif" font-size="14.00">v9</text>
</g>
<!-- v1&#45;&#45;v9 -->
<g id="edge12" class="edge"><title>v1&#45;&#45;v9</title>
<path fill="none" stroke="black" d="M420.855,-441.509C467.44,-425.225 566,-381.92 566,-307 566,-307 566,-307 566,-161 566,-32.8768 349.48,-19.4247 272.092,-18.7086"/>
</g>
<!-- v0 -->
<g id="node2" class="node"><title>v0</title>
<ellipse fill="red" stroke="black" cx="274" cy="-522" rx="27" ry="18"/>
<text text-anchor="middle" x="274" y="-518.3" font-family="Times,serif" font-size="14.00">v0</text>
</g>
<!-- v0&#45;&#45;v1 -->
<g id="edge1" class="edge"><title>v0&#45;&#45;v1</title>
<path fill="none" stroke="black" d="M294.036,-509.597C316.908,-496.581 354.104,-475.413 376.973,-462.398"/>
</g>
<!-- v5 -->
<g id="node4" class="node"><title>v5</title>
<ellipse fill="red" stroke="black" cx="245" cy="-234" rx="27" ry="18"/>
<text text-anchor="middle" x="245" y="-230.3" font-family="Times,serif" font-size="14.00">v5</text>
</g>
<!-- v0&#45;&#45;v5 -->
<g id="edge3" class="edge"><title>v0&#45;&#45;v5</title>
<path fill="none" stroke="black" d="M273.425,-503.565C272.335,-473.978 269.564,-412.073 264,-360 259.849,-321.149 252.285,-275.893 248.061,-251.921"/>
</g>
<!-- v0&#45;&#45;v2 -->
<g id="edge2" class="edge"><title>v0&#45;&#45;v2</title>
<path fill="none" stroke="black" d="M268.543,-504.153C259.689,-476.824 242.299,-423.14 233.45,-395.825"/>
</g>
<!-- v0&#45;&#45;v6 -->
<g id="edge4" class="edge"><title>v0&#45;&#45;v6</title>
<path fill="none" stroke="black" d="M260.992,-506.039C242.381,-483.732 208.575,-439.678 192,-396 163.424,-320.697 157.206,-295.353 171,-216 173.21,-203.288 178.192,-189.594 182.501,-179.311"/>
</g>
<!-- v7 -->
<g id="node9" class="node"><title>v7</title>
<ellipse fill="none" stroke="black" cx="338" cy="-162" rx="27" ry="18"/>
<text text-anchor="middle" x="338" y="-158.3" font-family="Times,serif" font-size="14.00">v7</text>
</g>
<!-- v0&#45;&#45;v7 -->
<g id="edge5" class="edge"><title>v0&#45;&#45;v7</title>
<path fill="none" stroke="black" d="M300.484,-517.697C334.291,-512.331 393.163,-499.011 433,-468 470.066,-439.146 490,-425.973 490,-379 490,-379 490,-379 490,-305 490,-235.122 403.159,-189.752 360.756,-171.764"/>
</g>
<!-- v0&#45;&#45;v9 -->
<g id="edge6" class="edge"><title>v0&#45;&#45;v9</title>
<path fill="none" stroke="black" d="M247.229,-519.536C178.283,-514.181 0,-489.639 0,-379 0,-379 0,-379 0,-161 0,-114.266 18.5505,-99.9578 56,-72 105.291,-35.2023 179.032,-23.947 218.241,-20.5087"/>
</g>
<!-- v4&#45;&#45;v8 -->
<g id="edge26" class="edge"><title>v4&#45;&#45;v8</title>
<path fill="none" stroke="black" d="M364.035,-217.013C373.092,-198.758 384.322,-168.282 374,-144 366.685,-126.793 350.743,-112.462 337.897,-103.06"/>
</g>
<!-- v4&#45;&#45;v6 -->
<g id="edge24" class="edge"><title>v4&#45;&#45;v6</title>
<path fill="none" stroke="black" d="M332.747,-223.559C301.168,-210.162 243.693,-185.779 212.163,-172.402"/>
</g>
<!-- v4&#45;&#45;v7 -->
<g id="edge25" class="edge"><title>v4&#45;&#45;v7</title>
<path fill="none" stroke="black" d="M350.885,-216.055C348.251,-205.211 344.844,-191.183 342.195,-180.275"/>
</g>
<!-- v5&#45;&#45;v8 -->
<g id="edge29" class="edge"><title>v5&#45;&#45;v8</title>
<path fill="none" stroke="black" d="M253.489,-216.711C267.687,-189.465 296.098,-134.946 310.382,-107.537"/>
</g>
<!-- v5&#45;&#45;v6 -->
<g id="edge27" class="edge"><title>v5&#45;&#45;v6</title>
<path fill="none" stroke="black" d="M233.066,-217.811C223.84,-206.07 211.13,-189.893 201.911,-178.159"/>
</g>
<!-- v5&#45;&#45;v7 -->
<g id="edge28" class="edge"><title>v5&#45;&#45;v7</title>
<path fill="none" stroke="black" d="M262.493,-219.834C279.12,-207.319 303.985,-188.603 320.586,-176.107"/>
</g>
<!-- v5&#45;&#45;v9 -->
<g id="edge30" class="edge"><title>v5&#45;&#45;v9</title>
<path fill="none" stroke="black" d="M245,-215.849C245,-175.78 245,-76.3826 245,-36.2325"/>
</g>
<!-- v2&#45;&#45;v4 -->
<g id="edge14" class="edge"><title>v2&#45;&#45;v4</title>
<path fill="none" stroke="black" d="M241.351,-362.072C265.806,-334.728 317.506,-276.922 341.828,-249.728"/>
</g>
<!-- v2&#45;&#45;v5 -->
<g id="edge15" class="edge"><title>v2&#45;&#45;v5</title>
<path fill="none" stroke="black" d="M221.276,-360.371C214.923,-342.321 207.291,-312.759 214,-288 217.736,-274.213 226.054,-260.338 233.134,-250.245"/>
</g>
<!-- v2&#45;&#45;v3 -->
<g id="edge13" class="edge"><title>v2&#45;&#45;v3</title>
<path fill="none" stroke="black" d="M250.442,-367.705C282.855,-354.279 342.42,-329.607 374.734,-316.222"/>
</g>
<!-- v2&#45;&#45;v8 -->
<g id="edge18" class="edge"><title>v2&#45;&#45;v8</title>
<path fill="none" stroke="black" d="M212.326,-362.719C202.413,-352.807 190.16,-338.772 183,-324 147.656,-251.083 106.261,-209.476 154,-144 185.729,-100.482 253.757,-91.9094 291.809,-90.6892"/>
</g>
<!-- v2&#45;&#45;v6 -->
<g id="edge16" class="edge"><title>v2&#45;&#45;v6</title>
<path fill="none" stroke="black" d="M218.741,-360.685C206.133,-337.434 184.193,-293.027 176,-252 171.007,-226.998 178.048,-197.753 183.823,-179.804"/>
</g>
<!-- v2&#45;&#45;v7 -->
<g id="edge17" class="edge"><title>v2&#45;&#45;v7</title>
<path fill="none" stroke="black" d="M235.979,-360.531C244.696,-342.617 259.136,-313.171 272,-288 292.103,-248.666 316.565,-202.847 329.318,-179.109"/>
</g>
<!-- v2&#45;&#45;v9 -->
<g id="edge19" class="edge"><title>v2&#45;&#45;v9</title>
<path fill="none" stroke="black" d="M202.769,-370.885C151.086,-356.688 38,-316.332 38,-235 38,-235 38,-235 38,-161 38,-74.0568 163.712,-36.3856 219.202,-23.9923"/>
</g>
<!-- v3&#45;&#45;v4 -->
<g id="edge20" class="edge"><title>v3&#45;&#45;v4</title>
<path fill="none" stroke="black" d="M387.47,-289.116C380.693,-277.821 371.617,-262.696 364.784,-251.307"/>
</g>
<!-- v3&#45;&#45;v5 -->
<g id="edge21" class="edge"><title>v3&#45;&#45;v5</title>
<path fill="none" stroke="black" d="M375.222,-294.971C346.327,-281.664 295.612,-258.308 266.737,-245.011"/>
</g>
<!-- v3&#45;&#45;v8 -->
<g id="edge23" class="edge"><title>v3&#45;&#45;v8</title>
<path fill="none" stroke="black" d="M401.869,-287.979C404.564,-277.665 407.637,-264.189 409,-252 414.415,-203.565 417.268,-184.395 390,-144 377.435,-125.386 356.109,-110.765 340.101,-101.637"/>
</g>
<!-- v3&#45;&#45;v7 -->
<g id="edge22" class="edge"><title>v3&#45;&#45;v7</title>
<path fill="none" stroke="black" d="M399.302,-287.738C401.012,-269.146 401.503,-239.124 391,-216 383.466,-199.413 368.321,-185.117 356.144,-175.567"/>
</g>
<!-- v8&#45;&#45;v9 -->
<g id="edge33" class="edge"><title>v8&#45;&#45;v9</title>
<path fill="none" stroke="black" d="M304.025,-74.8345C291.186,-62.6898 272.785,-45.2831 259.953,-33.1445"/>
</g>
<!-- v6&#45;&#45;v8 -->
<g id="edge31" class="edge"><title>v6&#45;&#45;v8</title>
<path fill="none" stroke="black" d="M210.44,-149.908C234.595,-136.801 274.542,-115.124 298.655,-102.04"/>
</g>
<!-- v7&#45;&#45;v8 -->
<g id="edge32" class="edge"><title>v7&#45;&#45;v8</title>
<path fill="none" stroke="black" d="M333.401,-144.055C330.413,-133.049 326.536,-118.764 323.557,-107.789"/>
</g>
</g>
</svg>
