<?xml version="1.0" encoding="UTF-8" standalone="no"?>
<!DOCTYPE svg PUBLIC "-//W3C//DTD SVG 1.1//EN"
 "http://www.w3.org/Graphics/SVG/1.1/DTD/svg11.dtd">
<!-- Generated by graphviz version 2.38.0 (20140413.2041)
 -->
<!-- Title: G Pages: 1 -->
<svg width="501pt" height="548pt"
 viewBox="0.00 0.00 500.99 548.00" xmlns="http://www.w3.org/2000/svg" xmlns:xlink="http://www.w3.org/1999/xlink">
<g id="graph0" class="graph" transform="scale(1 1) rotate(0) translate(4 544)">
<title>G</title>
<polygon fill="white" stroke="none" points="-4,4 -4,-544 496.991,-544 496.991,4 -4,4"/>
<!-- v8 -->
<g id="node1" class="node"><title>v8</title>
<ellipse fill="red" stroke="black" cx="190.991" cy="-90" rx="27" ry="18"/>
<text text-anchor="middle" x="190.991" y="-86.3" font-family="Times,serif" font-size="14.00">v8</text>
</g>
<!-- v9 -->
<g id="node10" class="node"><title>v9</title>
<ellipse fill="none" stroke="black" cx="378.991" cy="-18" rx="27" ry="18"/>
<text text-anchor="middle" x="378.991" y="-14.3" font-family="Times,serif" font-size="14.00">v9</text>
</g>
<!-- v8&#45;&#45;v9 -->
<g id="edge33" class="edge"><title>v8&#45;&#45;v9</title>
<path fill="none" stroke="black" d="M214.044,-80.4166C250.224,-66.9452 319.93,-40.991 356.045,-27.544"/>
</g>
<!-- v3 -->
<g id="node2" class="node"><title>v3</title>
<ellipse fill="red" stroke="black" cx="154.991" cy="-306" rx="27" ry="18"/>
<text text-anchor="middle" x="154.991" y="-302.3" font-family="Times,serif" font-size="14.00">v3</text>
</g>
<!-- v3&#45;&#45;v8 -->
<g id="edge23" class="edge"><title>v3&#45;&#45;v8</title>
<path fill="none" stroke="black" d="M157.876,-287.849C164.634,-247.68 181.421,-147.89 188.142,-107.935"/>
</g>
<!-- v4 -->
<g id="node3" class="node"><title>v4</title>
<ellipse fill="red" stroke="black" cx="209.991" cy="-234" rx="27" ry="18"/>
<text text-anchor="middle" x="209.991" y="-230.3" font-family="Times,serif" font-size="14.00">v4</text>
</g>
<!-- v3&#45;&#45;v4 -->
<g id="edge20" class="edge"><title>v3&#45;&#45;v4</title>
<path fill="none" stroke="black" d="M166.925,-289.811C176.151,-278.07 188.861,-261.893 198.08,-250.159"/>
</g>
<!-- v5 -->
<g id="node5" class="node"><title>v5</title>
<ellipse fill="red" stroke="black" cx="99.9913" cy="-234" rx="27" ry="18"/>
<text text-anchor="middle" x="99.9913" y="-230.3" font-family="Times,serif" font-size="14.00">v5</text>
</g>
<!-- v3&#45;&#45;v5 -->
<g id="edge21" class="edge"><title>v3&#45;&#45;v5</title>
<path fill="none" stroke="black" d="M143.057,-289.811C133.832,-278.07 121.122,-261.893 111.902,-250.159"/>
</g>
<!-- v7 -->
<g id="node9" class="node"><title>v7</title>
<ellipse fill="none" stroke="black" cx="264.991" cy="-162" rx="27" ry="18"/>
<text text-anchor="middle" x="264.991" y="-158.3" font-family="Times,serif" font-size="14.00">v7</text>
</g>
<!-- v3&#45;&#45;v7 -->
<g id="edge22" class="edge"><title>v3&#45;&#45;v7</title>
<path fill="none" stroke="black" d="M178.953,-297.323C199.899,-289.35 229.475,-274.802 245.991,-252 261.469,-230.631 264.839,-199.268 265.311,-180.043"/>
</g>
<!-- v4&#45;&#45;v8 -->
<g id="edge26" class="edge"><title>v4&#45;&#45;v8</title>
<path fill="none" stroke="black" d="M207.699,-215.871C204.048,-188.578 196.948,-135.52 193.291,-108.189"/>
</g>
<!-- v6 -->
<g id="node8" class="node"><title>v6</title>
<ellipse fill="none" stroke="black" cx="40.9913" cy="-162" rx="27" ry="18"/>
<text text-anchor="middle" x="40.9913" y="-158.3" font-family="Times,serif" font-size="14.00">v6</text>
</g>
<!-- v4&#45;&#45;v6 -->
<g id="edge24" class="edge"><title>v4&#45;&#45;v6</title>
<path fill="none" stroke="black" d="M187.549,-223.705C155.136,-210.279 95.5714,-185.607 63.2568,-172.222"/>
</g>
<!-- v4&#45;&#45;v7 -->
<g id="edge25" class="edge"><title>v4&#45;&#45;v7</title>
<path fill="none" stroke="black" d="M221.925,-217.811C231.151,-206.07 243.861,-189.893 253.08,-178.159"/>
</g>
<!-- v2 -->
<g id="node4" class="node"><title>v2</title>
<ellipse fill="red" stroke="black" cx="264.991" cy="-378" rx="27" ry="18"/>
<text text-anchor="middle" x="264.991" y="-374.3" font-family="Times,serif" font-size="14.00">v2</text>
</g>
<!-- v2&#45;&#45;v8 -->
<g id="edge18" class="edge"><title>v2&#45;&#45;v8</title>
<path fill="none" stroke="black" d="M274.342,-360.817C296.176,-320.682 345.409,-214.706 300.991,-144 282.723,-114.921 243.526,-101.421 217.204,-95.4277"/>
</g>
<!-- v2&#45;&#45;v3 -->
<g id="edge13" class="edge"><title>v2&#45;&#45;v3</title>
<path fill="none" stroke="black" d="M245.831,-364.807C225.641,-351.959 194.039,-331.848 173.932,-319.053"/>
</g>
<!-- v2&#45;&#45;v4 -->
<g id="edge14" class="edge"><title>v2&#45;&#45;v4</title>
<path fill="none" stroke="black" d="M258.574,-360.433C248.033,-333.217 227.163,-279.334 216.538,-251.902"/>
</g>
<!-- v2&#45;&#45;v5 -->
<g id="edge15" class="edge"><title>v2&#45;&#45;v5</title>
<path fill="none" stroke="black" d="M238.276,-374.959C205.209,-370.948 149.539,-359.079 118.991,-324 101.56,-303.983 98.8247,-271.909 99.0039,-252.224"/>
</g>
<!-- v2&#45;&#45;v6 -->
<g id="edge16" class="edge"><title>v2&#45;&#45;v6</title>
<path fill="none" stroke="black" d="M238.066,-375.031C202.114,-371.075 138.294,-359.239 97.9913,-324 54.6864,-286.136 44.2815,-213.201 41.7817,-180.093"/>
</g>
<!-- v2&#45;&#45;v7 -->
<g id="edge17" class="edge"><title>v2&#45;&#45;v7</title>
<path fill="none" stroke="black" d="M265.564,-359.607C266.456,-330.081 267.977,-268.264 266.991,-216 266.766,-204.032 266.253,-190.552 265.804,-180.181"/>
</g>
<!-- v2&#45;&#45;v9 -->
<g id="edge19" class="edge"><title>v2&#45;&#45;v9</title>
<path fill="none" stroke="black" d="M284.33,-365.19C316.855,-343.674 378.991,-294.751 378.991,-235 378.991,-235 378.991,-235 378.991,-161 378.991,-115.885 378.991,-62.7084 378.991,-36.0493"/>
</g>
<!-- v5&#45;&#45;v8 -->
<g id="edge29" class="edge"><title>v5&#45;&#45;v8</title>
<path fill="none" stroke="black" d="M110.078,-217.261C127.57,-189.966 163.336,-134.154 180.86,-106.81"/>
</g>
<!-- v5&#45;&#45;v6 -->
<g id="edge27" class="edge"><title>v5&#45;&#45;v6</title>
<path fill="none" stroke="black" d="M87.1892,-217.811C77.2929,-206.07 63.6584,-189.893 53.7684,-178.159"/>
</g>
<!-- v5&#45;&#45;v7 -->
<g id="edge28" class="edge"><title>v5&#45;&#45;v7</title>
<path fill="none" stroke="black" d="M122.244,-223.559C153.823,-210.162 211.298,-185.779 242.828,-172.402"/>
</g>
<!-- v5&#45;&#45;v9 -->
<g id="edge30" class="edge"><title>v5&#45;&#45;v9</title>
<path fill="none" stroke="black" d="M100.623,-216.002C102.806,-183.061 112.462,-110.404 154.991,-72 184.058,-45.7531 299.921,-28.6291 352.635,-22.0441"/>
</g>
<!-- v0 -->
<g id="node6" class="node"><title>v0</title>
<ellipse fill="red" stroke="black" cx="236.991" cy="-522" rx="27" ry="18"/>
<text text-anchor="middle" x="236.991" y="-518.3" font-family="Times,serif" font-size="14.00">v0</text>
</g>
<!-- v0&#45;&#45;v2 -->
<g id="edge2" class="edge"><title>v0&#45;&#45;v2</title>
<path fill="none" stroke="black" d="M240.369,-503.871C245.75,-476.578 256.213,-423.52 261.602,-396.189"/>
</g>
<!-- v0&#45;&#45;v5 -->
<g id="edge3" class="edge"><title>v0&#45;&#45;v5</title>
<path fill="none" stroke="black" d="M218.785,-508.644C205.228,-498.79 186.909,-484.023 173.991,-468 128.572,-411.662 115.391,-394.244 97.9913,-324 91.9343,-299.547 94.4013,-270.152 96.9931,-252.021"/>
</g>
<!-- v1 -->
<g id="node7" class="node"><title>v1</title>
<ellipse fill="red" stroke="black" cx="209.991" cy="-450" rx="27" ry="18"/>
<text text-anchor="middle" x="209.991" y="-446.3" font-family="Times,serif" font-size="14.00">v1</text>
</g>
<!-- v0&#45;&#45;v1 -->
<g id="edge1" class="edge"><title>v0&#45;&#45;v1</title>
<path fill="none" stroke="black" d="M230.593,-504.411C226.351,-493.414 220.802,-479.027 216.532,-467.956"/>
</g>
<!-- v0&#45;&#45;v6 -->
<g id="edge4" class="edge"><title>v0&#45;&#45;v6</title>
<path fill="none" stroke="black" d="M213.551,-512.648C192.402,-504.137 161.545,-489.174 140.991,-468 119.805,-446.174 44.9338,-299.539 33.9913,-252 28.3244,-227.38 32.7118,-198.031 36.6474,-179.955"/>
</g>
<!-- v0&#45;&#45;v7 -->
<g id="edge5" class="edge"><title>v0&#45;&#45;v7</title>
<path fill="none" stroke="black" d="M248.157,-505.405C263.67,-482.664 290.965,-438.474 300.991,-396 319.894,-315.929 286.92,-217.957 271.88,-179.555"/>
</g>
<!-- v0&#45;&#45;v9 -->
<g id="edge6" class="edge"><title>v0&#45;&#45;v9</title>
<path fill="none" stroke="black" d="M263.904,-518.691C329.631,-511.431 492.991,-482.935 492.991,-379 492.991,-379 492.991,-379 492.991,-161 492.991,-101.249 430.855,-52.3256 398.33,-30.8101"/>
</g>
<!-- v1&#45;&#45;v8 -->
<g id="edge11" class="edge"><title>v1&#45;&#45;v8</title>
<path fill="none" stroke="black" d="M185.389,-442.269C160.065,-434.397 120.526,-419.385 92.9913,-396 13.9789,-328.898 18.9917,-282.712 4.9913,-180 2.83035,-164.147 -4.64836,-156.77 4.9913,-144 24.3104,-118.407 118.34,-101.501 164.844,-94.5655"/>
</g>
<!-- v1&#45;&#45;v3 -->
<g id="edge8" class="edge"><title>v1&#45;&#45;v3</title>
<path fill="none" stroke="black" d="M203.574,-432.433C193.033,-405.217 172.163,-351.334 161.538,-323.902"/>
</g>
<!-- v1&#45;&#45;v4 -->
<g id="edge9" class="edge"><title>v1&#45;&#45;v4</title>
<path fill="none" stroke="black" d="M209.991,-431.849C209.991,-391.78 209.991,-292.383 209.991,-252.232"/>
</g>
<!-- v1&#45;&#45;v2 -->
<g id="edge7" class="edge"><title>v1&#45;&#45;v2</title>
<path fill="none" stroke="black" d="M221.925,-433.811C231.151,-422.07 243.861,-405.893 253.08,-394.159"/>
</g>
<!-- v1&#45;&#45;v6 -->
<g id="edge10" class="edge"><title>v1&#45;&#45;v6</title>
<path fill="none" stroke="black" d="M190.755,-437.241C160.06,-417.529 100.006,-374.93 65.9913,-324 35.9853,-279.072 36.8375,-211.563 39.2047,-180.178"/>
</g>
<!-- v1&#45;&#45;v9 -->
<g id="edge12" class="edge"><title>v1&#45;&#45;v9</title>
<path fill="none" stroke="black" d="M231.508,-439.036C250.809,-429.524 279.342,-414.001 300.991,-396 333.462,-369.001 341.03,-360.07 362.991,-324 421.648,-227.661 407.515,-183.852 392.991,-72 391.398,-59.7309 387.813,-46.2553 384.669,-35.9624"/>
</g>
<!-- v6&#45;&#45;v8 -->
<g id="edge31" class="edge"><title>v6&#45;&#45;v8</title>
<path fill="none" stroke="black" d="M62.4826,-150.971C90.9976,-137.664 141.045,-114.308 169.54,-101.011"/>
</g>
<!-- v7&#45;&#45;v8 -->
<g id="edge32" class="edge"><title>v7&#45;&#45;v8</title>
<path fill="none" stroke="black" d="M250.016,-146.834C237.178,-134.69 218.776,-117.283 205.944,-105.144"/>
</g>
</g>
</svg>
