<?xml version="1.0" encoding="UTF-8" standalone="no"?>
<!DOCTYPE svg PUBLIC "-//W3C//DTD SVG 1.1//EN"
 "http://www.w3.org/Graphics/SVG/1.1/DTD/svg11.dtd">
<!-- Generated by graphviz version 2.38.0 (20140413.2041)
 -->
<!-- Title: G Pages: 1 -->
<svg width="574pt" height="548pt"
 viewBox="0.00 0.00 574.00 548.00" xmlns="http://www.w3.org/2000/svg" xmlns:xlink="http://www.w3.org/1999/xlink">
<g id="graph0" class="graph" transform="scale(1 1) rotate(0) translate(4 544)">
<title>G</title>
<polygon fill="white" stroke="none" points="-4,4 -4,-544 570,-544 570,4 -4,4"/>
<!-- v3 -->
<g id="node1" class="node"><title>v3</title>
<ellipse fill="red" stroke="black" cx="283" cy="-306" rx="27" ry="18"/>
<text text-anchor="middle" x="283" y="-302.3" font-family="Times,serif" font-size="14.00">v3</text>
</g>
<!-- v5 -->
<g id="node2" class="node"><title>v5</title>
<ellipse fill="red" stroke="black" cx="431" cy="-234" rx="27" ry="18"/>
<text text-anchor="middle" x="431" y="-230.3" font-family="Times,serif" font-size="14.00">v5</text>
</g>
<!-- v3&#45;&#45;v5 -->
<g id="edge21" class="edge"><title>v3&#45;&#45;v5</title>
<path fill="none" stroke="black" d="M304.52,-294.821C332.58,-281.55 381.381,-258.468 409.454,-245.191"/>
</g>
<!-- v8 -->
<g id="node3" class="node"><title>v8</title>
<ellipse fill="red" stroke="black" cx="281" cy="-90" rx="27" ry="18"/>
<text text-anchor="middle" x="281" y="-86.3" font-family="Times,serif" font-size="14.00">v8</text>
</g>
<!-- v3&#45;&#45;v8 -->
<g id="edge23" class="edge"><title>v3&#45;&#45;v8</title>
<path fill="none" stroke="black" d="M282.84,-287.849C282.465,-247.78 281.536,-148.383 281.161,-108.232"/>
</g>
<!-- v4 -->
<g id="node4" class="node"><title>v4</title>
<ellipse fill="red" stroke="black" cx="207" cy="-234" rx="27" ry="18"/>
<text text-anchor="middle" x="207" y="-230.3" font-family="Times,serif" font-size="14.00">v4</text>
</g>
<!-- v3&#45;&#45;v4 -->
<g id="edge20" class="edge"><title>v3&#45;&#45;v4</title>
<path fill="none" stroke="black" d="M267.62,-290.834C254.435,-278.69 235.536,-261.283 222.357,-249.144"/>
</g>
<!-- v7 -->
<g id="node9" class="node"><title>v7</title>
<ellipse fill="none" stroke="black" cx="355" cy="-162" rx="27" ry="18"/>
<text text-anchor="middle" x="355" y="-158.3" font-family="Times,serif" font-size="14.00">v7</text>
</g>
<!-- v3&#45;&#45;v7 -->
<g id="edge22" class="edge"><title>v3&#45;&#45;v7</title>
<path fill="none" stroke="black" d="M291.259,-288.711C305.074,-261.465 332.717,-206.946 346.615,-179.537"/>
</g>
<!-- v5&#45;&#45;v8 -->
<g id="edge29" class="edge"><title>v5&#45;&#45;v8</title>
<path fill="none" stroke="black" d="M427.108,-215.908C421.876,-196.347 410.854,-164.39 391,-144 367.338,-119.7 330.285,-105.072 305.822,-97.5179"/>
</g>
<!-- v6 -->
<g id="node8" class="node"><title>v6</title>
<ellipse fill="none" stroke="black" cx="157" cy="-162" rx="27" ry="18"/>
<text text-anchor="middle" x="157" y="-158.3" font-family="Times,serif" font-size="14.00">v6</text>
</g>
<!-- v5&#45;&#45;v6 -->
<g id="edge27" class="edge"><title>v5&#45;&#45;v6</title>
<path fill="none" stroke="black" d="M406.201,-226.665C354.166,-213.371 234.098,-182.697 181.94,-169.372"/>
</g>
<!-- v5&#45;&#45;v7 -->
<g id="edge28" class="edge"><title>v5&#45;&#45;v7</title>
<path fill="none" stroke="black" d="M415.62,-218.834C402.435,-206.69 383.536,-189.283 370.357,-177.144"/>
</g>
<!-- v9 -->
<g id="node10" class="node"><title>v9</title>
<ellipse fill="none" stroke="black" cx="448" cy="-18" rx="27" ry="18"/>
<text text-anchor="middle" x="448" y="-14.3" font-family="Times,serif" font-size="14.00">v9</text>
</g>
<!-- v5&#45;&#45;v9 -->
<g id="edge30" class="edge"><title>v5&#45;&#45;v9</title>
<path fill="none" stroke="black" d="M432.362,-215.849C435.546,-175.78 443.442,-76.3826 446.631,-36.2325"/>
</g>
<!-- v8&#45;&#45;v9 -->
<g id="edge33" class="edge"><title>v8&#45;&#45;v9</title>
<path fill="none" stroke="black" d="M303.176,-79.7045C335.117,-66.3161 393.74,-41.7437 425.732,-28.3339"/>
</g>
<!-- v4&#45;&#45;v8 -->
<g id="edge26" class="edge"><title>v4&#45;&#45;v8</title>
<path fill="none" stroke="black" d="M213.951,-216.294C221.66,-198.178 234.764,-168.56 248,-144 254.891,-131.214 263.609,-117.292 270.354,-106.927"/>
</g>
<!-- v4&#45;&#45;v6 -->
<g id="edge24" class="edge"><title>v4&#45;&#45;v6</title>
<path fill="none" stroke="black" d="M195.903,-217.465C187.618,-205.865 176.344,-190.082 168.066,-178.492"/>
</g>
<!-- v4&#45;&#45;v7 -->
<g id="edge25" class="edge"><title>v4&#45;&#45;v7</title>
<path fill="none" stroke="black" d="M228.52,-222.821C256.58,-209.55 305.381,-186.468 333.454,-173.191"/>
</g>
<!-- v1 -->
<g id="node5" class="node"><title>v1</title>
<ellipse fill="red" stroke="black" cx="190" cy="-450" rx="27" ry="18"/>
<text text-anchor="middle" x="190" y="-446.3" font-family="Times,serif" font-size="14.00">v1</text>
</g>
<!-- v1&#45;&#45;v3 -->
<g id="edge8" class="edge"><title>v1&#45;&#45;v3</title>
<path fill="none" stroke="black" d="M200.308,-433.261C218.184,-405.966 254.737,-350.154 272.646,-322.81"/>
</g>
<!-- v1&#45;&#45;v8 -->
<g id="edge11" class="edge"><title>v1&#45;&#45;v8</title>
<path fill="none" stroke="black" d="M178.614,-433.336C145.156,-385.24 53.6159,-237.306 121,-144 151.495,-101.774 216.937,-92.6451 253.984,-91.0023"/>
</g>
<!-- v1&#45;&#45;v4 -->
<g id="edge9" class="edge"><title>v1&#45;&#45;v4</title>
<path fill="none" stroke="black" d="M191.362,-431.849C194.546,-391.78 202.442,-292.383 205.631,-252.232"/>
</g>
<!-- v2 -->
<g id="node7" class="node"><title>v2</title>
<ellipse fill="red" stroke="black" cx="338" cy="-378" rx="27" ry="18"/>
<text text-anchor="middle" x="338" y="-374.3" font-family="Times,serif" font-size="14.00">v2</text>
</g>
<!-- v1&#45;&#45;v2 -->
<g id="edge7" class="edge"><title>v1&#45;&#45;v2</title>
<path fill="none" stroke="black" d="M211.52,-438.821C239.58,-425.55 288.381,-402.468 316.454,-389.191"/>
</g>
<!-- v1&#45;&#45;v6 -->
<g id="edge10" class="edge"><title>v1&#45;&#45;v6</title>
<path fill="none" stroke="black" d="M186.17,-431.992C178.735,-398.012 162.591,-319.216 157,-252 154.925,-227.055 155.476,-198.041 156.161,-180.097"/>
</g>
<!-- v1&#45;&#45;v9 -->
<g id="edge12" class="edge"><title>v1&#45;&#45;v9</title>
<path fill="none" stroke="black" d="M164.769,-442.885C113.086,-428.688 0,-388.332 0,-307 0,-307 0,-307 0,-161 0,-72.0655 324.871,-31.625 421.317,-21.5788"/>
</g>
<!-- v0 -->
<g id="node6" class="node"><title>v0</title>
<ellipse fill="red" stroke="black" cx="414" cy="-522" rx="27" ry="18"/>
<text text-anchor="middle" x="414" y="-518.3" font-family="Times,serif" font-size="14.00">v0</text>
</g>
<!-- v0&#45;&#45;v5 -->
<g id="edge3" class="edge"><title>v0&#45;&#45;v5</title>
<path fill="none" stroke="black" d="M415.013,-503.966C418.029,-453.218 426.934,-303.407 429.971,-252.306"/>
</g>
<!-- v0&#45;&#45;v1 -->
<g id="edge1" class="edge"><title>v0&#45;&#45;v1</title>
<path fill="none" stroke="black" d="M390.028,-513.509C347.027,-500.071 257.259,-472.018 214.138,-458.543"/>
</g>
<!-- v0&#45;&#45;v2 -->
<g id="edge2" class="edge"><title>v0&#45;&#45;v2</title>
<path fill="none" stroke="black" d="M405.282,-504.711C390.622,-477.319 361.208,-422.362 346.616,-395.099"/>
</g>
<!-- v0&#45;&#45;v6 -->
<g id="edge4" class="edge"><title>v0&#45;&#45;v6</title>
<path fill="none" stroke="black" d="M386.792,-519.622C326.26,-515.931 183.461,-503.565 154,-468 82.5543,-381.751 131.209,-229.834 150.283,-179.625"/>
</g>
<!-- v0&#45;&#45;v7 -->
<g id="edge5" class="edge"><title>v0&#45;&#45;v7</title>
<path fill="none" stroke="black" d="M428.295,-506.228C450.31,-481.85 490,-430.729 490,-379 490,-379 490,-379 490,-305 490,-264.145 493.033,-247.487 467,-216 444.932,-189.308 406.323,-175.226 380.706,-168.452"/>
</g>
<!-- v0&#45;&#45;v9 -->
<g id="edge6" class="edge"><title>v0&#45;&#45;v9</title>
<path fill="none" stroke="black" d="M436.756,-512.236C479.159,-494.248 566,-448.878 566,-379 566,-379 566,-379 566,-161 566,-100.258 501.342,-51.6343 467.751,-30.4714"/>
</g>
<!-- v2&#45;&#45;v3 -->
<g id="edge13" class="edge"><title>v2&#45;&#45;v3</title>
<path fill="none" stroke="black" d="M326.066,-361.811C316.84,-350.07 304.13,-333.893 294.911,-322.159"/>
</g>
<!-- v2&#45;&#45;v5 -->
<g id="edge15" class="edge"><title>v2&#45;&#45;v5</title>
<path fill="none" stroke="black" d="M354.043,-363.366C365.163,-353.314 379.754,-338.856 390,-324 406.034,-300.753 418.513,-270.232 425.306,-251.646"/>
</g>
<!-- v2&#45;&#45;v8 -->
<g id="edge18" class="edge"><title>v2&#45;&#45;v8</title>
<path fill="none" stroke="black" d="M334.605,-359.966C324.467,-309.098 294.492,-158.696 284.377,-107.945"/>
</g>
<!-- v2&#45;&#45;v4 -->
<g id="edge14" class="edge"><title>v2&#45;&#45;v4</title>
<path fill="none" stroke="black" d="M314.749,-368.262C294.564,-359.661 265.714,-344.79 247,-324 227.96,-302.848 216.683,-271.129 211.181,-251.821"/>
</g>
<!-- v2&#45;&#45;v6 -->
<g id="edge16" class="edge"><title>v2&#45;&#45;v6</title>
<path fill="none" stroke="black" d="M313.232,-370.264C287.728,-362.389 247.88,-347.373 220,-324 190.337,-299.132 185.242,-287.992 171,-252 161.619,-228.293 158.509,-198.694 157.486,-180.317"/>
</g>
<!-- v2&#45;&#45;v7 -->
<g id="edge17" class="edge"><title>v2&#45;&#45;v7</title>
<path fill="none" stroke="black" d="M343.595,-360.026C346.709,-349.73 350.293,-336.254 352,-324 359.253,-271.945 357.471,-209.517 356.013,-180.026"/>
</g>
<!-- v2&#45;&#45;v9 -->
<g id="edge19" class="edge"><title>v2&#45;&#45;v9</title>
<path fill="none" stroke="black" d="M363.231,-370.885C414.914,-356.688 528,-316.332 528,-235 528,-235 528,-235 528,-161 528,-108.37 485.769,-57.2569 462.673,-33.2398"/>
</g>
<!-- v6&#45;&#45;v8 -->
<g id="edge31" class="edge"><title>v6&#45;&#45;v8</title>
<path fill="none" stroke="black" d="M176.923,-149.753C200.062,-136.691 238.008,-115.27 261.127,-102.219"/>
</g>
<!-- v7&#45;&#45;v8 -->
<g id="edge32" class="edge"><title>v7&#45;&#45;v8</title>
<path fill="none" stroke="black" d="M340.025,-146.834C327.186,-134.69 308.785,-117.283 295.953,-105.144"/>
</g>
</g>
</svg>
