<?xml version="1.0" encoding="UTF-8" standalone="no"?>
<!DOCTYPE svg PUBLIC "-//W3C//DTD SVG 1.1//EN"
 "http://www.w3.org/Graphics/SVG/1.1/DTD/svg11.dtd">
<!-- Generated by graphviz version 2.38.0 (20140413.2041)
 -->
<!-- Title: G Pages: 1 -->
<svg width="608pt" height="548pt"
 viewBox="0.00 0.00 608.00 548.00" xmlns="http://www.w3.org/2000/svg" xmlns:xlink="http://www.w3.org/1999/xlink">
<g id="graph0" class="graph" transform="scale(1 1) rotate(0) translate(4 544)">
<title>G</title>
<polygon fill="white" stroke="none" points="-4,4 -4,-544 604,-544 604,4 -4,4"/>
<!-- v3 -->
<g id="node1" class="node"><title>v3</title>
<ellipse fill="red" stroke="black" cx="245" cy="-306" rx="27" ry="18"/>
<text text-anchor="middle" x="245" y="-302.3" font-family="Times,serif" font-size="14.00">v3</text>
</g>
<!-- v8 -->
<g id="node2" class="node"><title>v8</title>
<ellipse fill="red" stroke="black" cx="289" cy="-90" rx="27" ry="18"/>
<text text-anchor="middle" x="289" y="-86.3" font-family="Times,serif" font-size="14.00">v8</text>
</g>
<!-- v3&#45;&#45;v8 -->
<g id="edge23" class="edge"><title>v3&#45;&#45;v8</title>
<path fill="none" stroke="black" d="M248.526,-287.849C256.785,-247.68 277.303,-147.89 285.518,-107.935"/>
</g>
<!-- v4 -->
<g id="node4" class="node"><title>v4</title>
<ellipse fill="red" stroke="black" cx="169" cy="-234" rx="27" ry="18"/>
<text text-anchor="middle" x="169" y="-230.3" font-family="Times,serif" font-size="14.00">v4</text>
</g>
<!-- v3&#45;&#45;v4 -->
<g id="edge20" class="edge"><title>v3&#45;&#45;v4</title>
<path fill="none" stroke="black" d="M229.62,-290.834C216.435,-278.69 197.536,-261.283 184.357,-249.144"/>
</g>
<!-- v5 -->
<g id="node7" class="node"><title>v5</title>
<ellipse fill="red" stroke="black" cx="393" cy="-234" rx="27" ry="18"/>
<text text-anchor="middle" x="393" y="-230.3" font-family="Times,serif" font-size="14.00">v5</text>
</g>
<!-- v3&#45;&#45;v5 -->
<g id="edge21" class="edge"><title>v3&#45;&#45;v5</title>
<path fill="none" stroke="black" d="M266.52,-294.821C294.58,-281.55 343.381,-258.468 371.454,-245.191"/>
</g>
<!-- v7 -->
<g id="node9" class="node"><title>v7</title>
<ellipse fill="none" stroke="black" cx="207" cy="-162" rx="27" ry="18"/>
<text text-anchor="middle" x="207" y="-158.3" font-family="Times,serif" font-size="14.00">v7</text>
</g>
<!-- v3&#45;&#45;v7 -->
<g id="edge22" class="edge"><title>v3&#45;&#45;v7</title>
<path fill="none" stroke="black" d="M240.492,-288.153C233.178,-260.824 218.812,-207.14 211.502,-179.825"/>
</g>
<!-- v9 -->
<g id="node10" class="node"><title>v9</title>
<ellipse fill="none" stroke="black" cx="410" cy="-18" rx="27" ry="18"/>
<text text-anchor="middle" x="410" y="-14.3" font-family="Times,serif" font-size="14.00">v9</text>
</g>
<!-- v8&#45;&#45;v9 -->
<g id="edge33" class="edge"><title>v8&#45;&#45;v9</title>
<path fill="none" stroke="black" d="M308.71,-77.5975C331.211,-64.5806 367.801,-43.4125 390.298,-30.3976"/>
</g>
<!-- v2 -->
<g id="node3" class="node"><title>v2</title>
<ellipse fill="red" stroke="black" cx="144" cy="-378" rx="27" ry="18"/>
<text text-anchor="middle" x="144" y="-374.3" font-family="Times,serif" font-size="14.00">v2</text>
</g>
<!-- v2&#45;&#45;v3 -->
<g id="edge13" class="edge"><title>v2&#45;&#45;v3</title>
<path fill="none" stroke="black" d="M162.057,-364.485C180.327,-351.823 208.423,-332.351 226.759,-319.642"/>
</g>
<!-- v2&#45;&#45;v8 -->
<g id="edge18" class="edge"><title>v2&#45;&#45;v8</title>
<path fill="none" stroke="black" d="M133.762,-361.017C127.875,-350.858 121.058,-337.178 118,-324 114.712,-309.832 113.979,-235.684 119,-216 127.943,-180.939 130.122,-168.224 157,-144 187.635,-116.391 234.474,-102.249 263.339,-95.7525"/>
</g>
<!-- v2&#45;&#45;v4 -->
<g id="edge14" class="edge"><title>v2&#45;&#45;v4</title>
<path fill="none" stroke="black" d="M147.016,-359.871C151.821,-332.578 161.162,-279.52 165.974,-252.189"/>
</g>
<!-- v2&#45;&#45;v5 -->
<g id="edge15" class="edge"><title>v2&#45;&#45;v5</title>
<path fill="none" stroke="black" d="M170.338,-373.307C205.442,-367.423 268.426,-353.439 314,-324 344.023,-304.606 369.546,-270.78 382.94,-250.884"/>
</g>
<!-- v6 -->
<g id="node8" class="node"><title>v6</title>
<ellipse fill="none" stroke="black" cx="317" cy="-162" rx="27" ry="18"/>
<text text-anchor="middle" x="317" y="-158.3" font-family="Times,serif" font-size="14.00">v6</text>
</g>
<!-- v2&#45;&#45;v6 -->
<g id="edge16" class="edge"><title>v2&#45;&#45;v6</title>
<path fill="none" stroke="black" d="M170.418,-374.198C201.581,-369.446 252.713,-356.855 281,-324 316.88,-282.326 319.19,-212.6 318.103,-180.342"/>
</g>
<!-- v2&#45;&#45;v7 -->
<g id="edge17" class="edge"><title>v2&#45;&#45;v7</title>
<path fill="none" stroke="black" d="M137.503,-360.338C126.704,-329.792 108.544,-263.596 133,-216 143.688,-195.198 166.751,-180.734 184.308,-172.233"/>
</g>
<!-- v2&#45;&#45;v9 -->
<g id="edge19" class="edge"><title>v2&#45;&#45;v9</title>
<path fill="none" stroke="black" d="M121.816,-367.599C81.4224,-348.822 0,-302.588 0,-235 0,-235 0,-235 0,-161 0,-79.4566 293.238,-34.2758 383.729,-22.2747"/>
</g>
<!-- v4&#45;&#45;v8 -->
<g id="edge26" class="edge"><title>v4&#45;&#45;v8</title>
<path fill="none" stroke="black" d="M164.385,-216.008C160.231,-196.831 156.736,-165.51 171,-144 191.479,-113.118 234.579,-100.028 262.633,-94.6233"/>
</g>
<!-- v4&#45;&#45;v6 -->
<g id="edge24" class="edge"><title>v4&#45;&#45;v6</title>
<path fill="none" stroke="black" d="M190.52,-222.821C218.58,-209.55 267.381,-186.468 295.454,-173.191"/>
</g>
<!-- v4&#45;&#45;v7 -->
<g id="edge25" class="edge"><title>v4&#45;&#45;v7</title>
<path fill="none" stroke="black" d="M177.813,-216.765C183.952,-205.456 192.106,-190.437 198.234,-179.147"/>
</g>
<!-- v0 -->
<g id="node5" class="node"><title>v0</title>
<ellipse fill="red" stroke="black" cx="393" cy="-522" rx="27" ry="18"/>
<text text-anchor="middle" x="393" y="-518.3" font-family="Times,serif" font-size="14.00">v0</text>
</g>
<!-- v0&#45;&#45;v2 -->
<g id="edge2" class="edge"><title>v0&#45;&#45;v2</title>
<path fill="none" stroke="black" d="M373.044,-509.62C326.421,-483.031 210.768,-417.076 164.051,-390.435"/>
</g>
<!-- v1 -->
<g id="node6" class="node"><title>v1</title>
<ellipse fill="red" stroke="black" cx="338" cy="-450" rx="27" ry="18"/>
<text text-anchor="middle" x="338" y="-446.3" font-family="Times,serif" font-size="14.00">v1</text>
</g>
<!-- v0&#45;&#45;v1 -->
<g id="edge1" class="edge"><title>v0&#45;&#45;v1</title>
<path fill="none" stroke="black" d="M381.066,-505.811C371.84,-494.07 359.13,-477.893 349.911,-466.159"/>
</g>
<!-- v0&#45;&#45;v5 -->
<g id="edge3" class="edge"><title>v0&#45;&#45;v5</title>
<path fill="none" stroke="black" d="M414.871,-511.01C431.179,-502.238 452.251,-487.782 462,-468 500.046,-390.803 433.64,-288.681 405.093,-250.38"/>
</g>
<!-- v0&#45;&#45;v6 -->
<g id="edge4" class="edge"><title>v0&#45;&#45;v6</title>
<path fill="none" stroke="black" d="M403.605,-505.165C419.587,-479.72 448,-427.645 448,-379 448,-379 448,-379 448,-305 448,-264.553 454.103,-247.714 429,-216 407.371,-188.675 368.266,-174.709 342.464,-168.137"/>
</g>
<!-- v0&#45;&#45;v7 -->
<g id="edge5" class="edge"><title>v0&#45;&#45;v7</title>
<path fill="none" stroke="black" d="M367.183,-516.47C285.492,-501.413 38,-449.943 38,-379 38,-379 38,-379 38,-305 38,-230.08 136.56,-186.775 183.145,-170.491"/>
</g>
<!-- v0&#45;&#45;v9 -->
<g id="edge6" class="edge"><title>v0&#45;&#45;v9</title>
<path fill="none" stroke="black" d="M418.798,-516.008C474.288,-503.614 600,-465.943 600,-379 600,-379 600,-379 600,-161 600,-79.6683 486.914,-39.3121 435.231,-25.1152"/>
</g>
<!-- v1&#45;&#45;v3 -->
<g id="edge8" class="edge"><title>v1&#45;&#45;v3</title>
<path fill="none" stroke="black" d="M327.692,-433.261C309.816,-405.966 273.263,-350.154 255.354,-322.81"/>
</g>
<!-- v1&#45;&#45;v8 -->
<g id="edge11" class="edge"><title>v1&#45;&#45;v8</title>
<path fill="none" stroke="black" d="M360.478,-439.92C401.881,-421.534 486,-375.724 486,-307 486,-307 486,-307 486,-233 486,-149.312 367.558,-110.031 314.351,-96.6073"/>
</g>
<!-- v1&#45;&#45;v2 -->
<g id="edge7" class="edge"><title>v1&#45;&#45;v2</title>
<path fill="none" stroke="black" d="M314.253,-441.262C284.038,-431.304 230.327,-413.23 185,-396 178.806,-393.645 172.146,-390.954 166.033,-388.418"/>
</g>
<!-- v1&#45;&#45;v4 -->
<g id="edge9" class="edge"><title>v1&#45;&#45;v4</title>
<path fill="none" stroke="black" d="M320.255,-435.875C293.017,-414.927 240.733,-371.433 209,-324 193.458,-300.768 181.334,-270.511 174.678,-251.936"/>
</g>
<!-- v1&#45;&#45;v6 -->
<g id="edge10" class="edge"><title>v1&#45;&#45;v6</title>
<path fill="none" stroke="black" d="M337.384,-431.721C335.911,-393.025 331.722,-296.476 324,-216 322.848,-203.989 321.06,-190.51 319.58,-180.15"/>
</g>
<!-- v1&#45;&#45;v9 -->
<g id="edge12" class="edge"><title>v1&#45;&#45;v9</title>
<path fill="none" stroke="black" d="M362.699,-442.713C413.295,-428.188 524,-387.237 524,-307 524,-307 524,-307 524,-161 524,-101.249 461.863,-52.3256 429.339,-30.8101"/>
</g>
<!-- v5&#45;&#45;v8 -->
<g id="edge29" class="edge"><title>v5&#45;&#45;v8</title>
<path fill="none" stroke="black" d="M387.961,-216.03C381.797,-197.153 370.035,-166.373 353,-144 340.415,-127.472 321.738,-112.768 307.805,-103.066"/>
</g>
<!-- v5&#45;&#45;v6 -->
<g id="edge27" class="edge"><title>v5&#45;&#45;v6</title>
<path fill="none" stroke="black" d="M377.62,-218.834C364.435,-206.69 345.536,-189.283 332.357,-177.144"/>
</g>
<!-- v5&#45;&#45;v7 -->
<g id="edge28" class="edge"><title>v5&#45;&#45;v7</title>
<path fill="none" stroke="black" d="M369.819,-224.276C333.982,-210.789 265.548,-185.034 229.889,-171.614"/>
</g>
<!-- v5&#45;&#45;v9 -->
<g id="edge30" class="edge"><title>v5&#45;&#45;v9</title>
<path fill="none" stroke="black" d="M394.362,-215.849C397.546,-175.78 405.442,-76.3826 408.631,-36.2325"/>
</g>
<!-- v6&#45;&#45;v8 -->
<g id="edge31" class="edge"><title>v6&#45;&#45;v8</title>
<path fill="none" stroke="black" d="M310.364,-144.411C305.901,-133.252 300.041,-118.604 295.588,-107.47"/>
</g>
<!-- v7&#45;&#45;v8 -->
<g id="edge32" class="edge"><title>v7&#45;&#45;v8</title>
<path fill="none" stroke="black" d="M223.201,-147.17C237.67,-134.819 258.739,-116.832 273.112,-104.563"/>
</g>
</g>
</svg>
