<?xml version="1.0" encoding="UTF-8" standalone="no"?>
<!DOCTYPE svg PUBLIC "-//W3C//DTD SVG 1.1//EN"
 "http://www.w3.org/Graphics/SVG/1.1/DTD/svg11.dtd">
<!-- Generated by graphviz version 2.38.0 (20140413.2041)
 -->
<!-- Title: G Pages: 1 -->
<svg width="574pt" height="548pt"
 viewBox="0.00 0.00 574.00 548.00" xmlns="http://www.w3.org/2000/svg" xmlns:xlink="http://www.w3.org/1999/xlink">
<g id="graph0" class="graph" transform="scale(1 1) rotate(0) translate(4 544)">
<title>G</title>
<polygon fill="white" stroke="none" points="-4,4 -4,-544 570,-544 570,4 -4,4"/>
<!-- v4 -->
<g id="node1" class="node"><title>v4</title>
<ellipse fill="red" stroke="black" cx="355" cy="-234" rx="27" ry="18"/>
<text text-anchor="middle" x="355" y="-230.3" font-family="Times,serif" font-size="14.00">v4</text>
</g>
<!-- v7 -->
<g id="node2" class="node"><title>v7</title>
<ellipse fill="red" stroke="black" cx="207" cy="-162" rx="27" ry="18"/>
<text text-anchor="middle" x="207" y="-158.3" font-family="Times,serif" font-size="14.00">v7</text>
</g>
<!-- v4&#45;&#45;v7 -->
<g id="edge25" class="edge"><title>v4&#45;&#45;v7</title>
<path fill="none" stroke="black" d="M333.48,-222.821C305.42,-209.55 256.619,-186.468 228.546,-173.191"/>
</g>
<!-- v8 -->
<g id="node5" class="node"><title>v8</title>
<ellipse fill="red" stroke="black" cx="281" cy="-90" rx="27" ry="18"/>
<text text-anchor="middle" x="281" y="-86.3" font-family="Times,serif" font-size="14.00">v8</text>
</g>
<!-- v4&#45;&#45;v8 -->
<g id="edge26" class="edge"><title>v4&#45;&#45;v8</title>
<path fill="none" stroke="black" d="M348.049,-216.294C340.34,-198.178 327.236,-168.56 314,-144 307.109,-131.214 298.391,-117.292 291.646,-106.927"/>
</g>
<!-- v6 -->
<g id="node8" class="node"><title>v6</title>
<ellipse fill="none" stroke="black" cx="404" cy="-162" rx="27" ry="18"/>
<text text-anchor="middle" x="404" y="-158.3" font-family="Times,serif" font-size="14.00">v6</text>
</g>
<!-- v4&#45;&#45;v6 -->
<g id="edge24" class="edge"><title>v4&#45;&#45;v6</title>
<path fill="none" stroke="black" d="M365.875,-217.465C373.995,-205.865 385.043,-190.082 393.156,-178.492"/>
</g>
<!-- v7&#45;&#45;v8 -->
<g id="edge32" class="edge"><title>v7&#45;&#45;v8</title>
<path fill="none" stroke="black" d="M221.975,-146.834C234.814,-134.69 253.215,-117.283 266.047,-105.144"/>
</g>
<!-- v1 -->
<g id="node3" class="node"><title>v1</title>
<ellipse fill="red" stroke="black" cx="283" cy="-450" rx="27" ry="18"/>
<text text-anchor="middle" x="283" y="-446.3" font-family="Times,serif" font-size="14.00">v1</text>
</g>
<!-- v1&#45;&#45;v4 -->
<g id="edge9" class="edge"><title>v1&#45;&#45;v4</title>
<path fill="none" stroke="black" d="M292.898,-433.123C306.779,-410.041 331.703,-365.438 344,-324 351.22,-299.671 353.705,-270.242 354.558,-252.071"/>
</g>
<!-- v2 -->
<g id="node4" class="node"><title>v2</title>
<ellipse fill="red" stroke="black" cx="173" cy="-378" rx="27" ry="18"/>
<text text-anchor="middle" x="173" y="-374.3" font-family="Times,serif" font-size="14.00">v2</text>
</g>
<!-- v1&#45;&#45;v2 -->
<g id="edge7" class="edge"><title>v1&#45;&#45;v2</title>
<path fill="none" stroke="black" d="M263.839,-436.807C243.65,-423.959 212.048,-403.848 191.941,-391.053"/>
</g>
<!-- v1&#45;&#45;v8 -->
<g id="edge11" class="edge"><title>v1&#45;&#45;v8</title>
<path fill="none" stroke="black" d="M303.623,-438.174C320.436,-428.647 344.083,-413.576 361,-396 442.395,-311.433 508.63,-239.219 440,-144 409.801,-102.101 345.041,-92.8246 308.164,-91.0752"/>
</g>
<!-- v1&#45;&#45;v6 -->
<g id="edge10" class="edge"><title>v1&#45;&#45;v6</title>
<path fill="none" stroke="black" d="M298.75,-435.157C309.732,-425.007 324.278,-410.517 335,-396 377.749,-338.119 392.859,-322.122 409,-252 414.658,-227.417 411.084,-198.058 407.74,-179.97"/>
</g>
<!-- v9 -->
<g id="node9" class="node"><title>v9</title>
<ellipse fill="none" stroke="black" cx="114" cy="-18" rx="27" ry="18"/>
<text text-anchor="middle" x="114" y="-14.3" font-family="Times,serif" font-size="14.00">v9</text>
</g>
<!-- v1&#45;&#45;v9 -->
<g id="edge12" class="edge"><title>v1&#45;&#45;v9</title>
<path fill="none" stroke="black" d="M256.121,-447.907C185.479,-443.457 0,-420.925 0,-307 0,-307 0,-307 0,-161 0,-101.249 62.1367,-52.3256 94.6615,-30.8101"/>
</g>
<!-- v3 -->
<g id="node10" class="node"><title>v3</title>
<ellipse fill="none" stroke="black" cx="283" cy="-306" rx="27" ry="18"/>
<text text-anchor="middle" x="283" y="-302.3" font-family="Times,serif" font-size="14.00">v3</text>
</g>
<!-- v1&#45;&#45;v3 -->
<g id="edge8" class="edge"><title>v1&#45;&#45;v3</title>
<path fill="none" stroke="black" d="M283,-431.871C283,-404.578 283,-351.52 283,-324.189"/>
</g>
<!-- v2&#45;&#45;v4 -->
<g id="edge14" class="edge"><title>v2&#45;&#45;v4</title>
<path fill="none" stroke="black" d="M199.34,-373.982C231.501,-368.98 285.713,-356.105 319,-324 339.275,-304.445 348.469,-271.922 352.377,-252.075"/>
</g>
<!-- v2&#45;&#45;v7 -->
<g id="edge17" class="edge"><title>v2&#45;&#45;v7</title>
<path fill="none" stroke="black" d="M169.47,-360.065C163.962,-330.187 155.471,-266.499 171,-216 175.381,-201.753 185.039,-187.9 193.25,-177.931"/>
</g>
<!-- v2&#45;&#45;v8 -->
<g id="edge18" class="edge"><title>v2&#45;&#45;v8</title>
<path fill="none" stroke="black" d="M166.769,-360.319C152.521,-319.049 122.388,-210.686 171,-144 191.104,-116.421 229.429,-102.568 255.104,-96.0851"/>
</g>
<!-- v5 -->
<g id="node7" class="node"><title>v5</title>
<ellipse fill="red" stroke="black" cx="207" cy="-234" rx="27" ry="18"/>
<text text-anchor="middle" x="207" y="-230.3" font-family="Times,serif" font-size="14.00">v5</text>
</g>
<!-- v2&#45;&#45;v5 -->
<g id="edge15" class="edge"><title>v2&#45;&#45;v5</title>
<path fill="none" stroke="black" d="M177.034,-360.153C183.577,-332.824 196.431,-279.14 202.971,-251.825"/>
</g>
<!-- v2&#45;&#45;v6 -->
<g id="edge16" class="edge"><title>v2&#45;&#45;v6</title>
<path fill="none" stroke="black" d="M199.563,-374.402C235.52,-369.718 300.213,-357.046 344,-324 374.502,-300.979 377.478,-287.742 391,-252 400.007,-228.194 402.814,-198.622 403.665,-180.278"/>
</g>
<!-- v2&#45;&#45;v9 -->
<g id="edge19" class="edge"><title>v2&#45;&#45;v9</title>
<path fill="none" stroke="black" d="M155.658,-363.781C127.758,-340.865 76,-290.83 76,-235 76,-235 76,-235 76,-161 76,-114.298 95.4181,-61.803 106.492,-35.662"/>
</g>
<!-- v2&#45;&#45;v3 -->
<g id="edge13" class="edge"><title>v2&#45;&#45;v3</title>
<path fill="none" stroke="black" d="M192.161,-364.807C212.35,-351.959 243.952,-331.848 264.059,-319.053"/>
</g>
<!-- v8&#45;&#45;v9 -->
<g id="edge33" class="edge"><title>v8&#45;&#45;v9</title>
<path fill="none" stroke="black" d="M258.824,-79.7045C226.883,-66.3161 168.26,-41.7437 136.268,-28.3339"/>
</g>
<!-- v0 -->
<g id="node6" class="node"><title>v0</title>
<ellipse fill="red" stroke="black" cx="255" cy="-522" rx="27" ry="18"/>
<text text-anchor="middle" x="255" y="-518.3" font-family="Times,serif" font-size="14.00">v0</text>
</g>
<!-- v0&#45;&#45;v7 -->
<g id="edge5" class="edge"><title>v0&#45;&#45;v7</title>
<path fill="none" stroke="black" d="M228.825,-516.6C171.109,-505.245 38,-469.271 38,-379 38,-379 38,-379 38,-305 38,-230.08 136.56,-186.775 183.145,-170.491"/>
</g>
<!-- v0&#45;&#45;v1 -->
<g id="edge1" class="edge"><title>v0&#45;&#45;v1</title>
<path fill="none" stroke="black" d="M261.636,-504.411C266.099,-493.252 271.959,-478.604 276.412,-467.47"/>
</g>
<!-- v0&#45;&#45;v2 -->
<g id="edge2" class="edge"><title>v0&#45;&#45;v2</title>
<path fill="none" stroke="black" d="M241.827,-505.899C233.261,-495.641 222.203,-481.529 214,-468 199.447,-443.997 186.621,-413.963 179.342,-395.644"/>
</g>
<!-- v0&#45;&#45;v5 -->
<g id="edge3" class="edge"><title>v0&#45;&#45;v5</title>
<path fill="none" stroke="black" d="M252.141,-503.966C243.604,-453.098 218.362,-302.696 209.844,-251.945"/>
</g>
<!-- v0&#45;&#45;v6 -->
<g id="edge4" class="edge"><title>v0&#45;&#45;v6</title>
<path fill="none" stroke="black" d="M273.244,-508.479C286.883,-498.539 305.438,-483.737 319,-468 367.814,-411.358 377.28,-393.038 406,-324 424.691,-279.071 432.732,-263.872 424,-216 421.671,-203.229 416.426,-189.537 411.892,-179.269"/>
</g>
<!-- v0&#45;&#45;v9 -->
<g id="edge6" class="edge"><title>v0&#45;&#45;v9</title>
<path fill="none" stroke="black" d="M282.055,-520.955C357.72,-519.273 566,-503.349 566,-379 566,-379 566,-379 566,-161 566,-71.2408 237.476,-31.3192 140.587,-21.4972"/>
</g>
<!-- v5&#45;&#45;v7 -->
<g id="edge28" class="edge"><title>v5&#45;&#45;v7</title>
<path fill="none" stroke="black" d="M207,-215.697C207,-204.846 207,-190.917 207,-180.104"/>
</g>
<!-- v5&#45;&#45;v8 -->
<g id="edge29" class="edge"><title>v5&#45;&#45;v8</title>
<path fill="none" stroke="black" d="M218.866,-217.274C226.324,-206.988 235.853,-193.08 243,-180 256.212,-155.821 268.091,-126.096 274.923,-107.853"/>
</g>
<!-- v5&#45;&#45;v6 -->
<g id="edge27" class="edge"><title>v5&#45;&#45;v6</title>
<path fill="none" stroke="black" d="M230.372,-224.695C268.286,-211.223 342.763,-184.759 380.658,-171.294"/>
</g>
<!-- v5&#45;&#45;v9 -->
<g id="edge30" class="edge"><title>v5&#45;&#45;v9</title>
<path fill="none" stroke="black" d="M194.85,-217.423C187.278,-207.197 177.73,-193.299 171,-180 145.696,-129.996 126.687,-66.0718 118.47,-36.0362"/>
</g>
<!-- v6&#45;&#45;v8 -->
<g id="edge31" class="edge"><title>v6&#45;&#45;v8</title>
<path fill="none" stroke="black" d="M383.964,-149.597C361.092,-136.581 323.896,-115.413 301.027,-102.398"/>
</g>
<!-- v3&#45;&#45;v4 -->
<g id="edge20" class="edge"><title>v3&#45;&#45;v4</title>
<path fill="none" stroke="black" d="M297.57,-290.834C309.98,-278.77 327.731,-261.512 340.204,-249.385"/>
</g>
<!-- v3&#45;&#45;v7 -->
<g id="edge22" class="edge"><title>v3&#45;&#45;v7</title>
<path fill="none" stroke="black" d="M276.598,-288.507C269.309,-270.32 256.634,-240.401 243,-216 235.621,-202.794 225.922,-188.661 218.451,-178.314"/>
</g>
<!-- v3&#45;&#45;v8 -->
<g id="edge23" class="edge"><title>v3&#45;&#45;v8</title>
<path fill="none" stroke="black" d="M282.84,-287.849C282.465,-247.78 281.536,-148.383 281.161,-108.232"/>
</g>
<!-- v3&#45;&#45;v5 -->
<g id="edge21" class="edge"><title>v3&#45;&#45;v5</title>
<path fill="none" stroke="black" d="M267.62,-290.834C254.435,-278.69 235.536,-261.283 222.357,-249.144"/>
</g>
</g>
</svg>
