<?xml version="1.0" encoding="UTF-8" standalone="no"?>
<!DOCTYPE svg PUBLIC "-//W3C//DTD SVG 1.1//EN"
 "http://www.w3.org/Graphics/SVG/1.1/DTD/svg11.dtd">
<!-- Generated by graphviz version 2.38.0 (20140413.2041)
 -->
<!-- Title: G Pages: 1 -->
<svg width="574pt" height="548pt"
 viewBox="0.00 0.00 574.00 548.00" xmlns="http://www.w3.org/2000/svg" xmlns:xlink="http://www.w3.org/1999/xlink">
<g id="graph0" class="graph" transform="scale(1 1) rotate(0) translate(4 544)">
<title>G</title>
<polygon fill="white" stroke="none" points="-4,4 -4,-544 570,-544 570,4 -4,4"/>
<!-- v2 -->
<g id="node1" class="node"><title>v2</title>
<ellipse fill="red" stroke="black" cx="355" cy="-378" rx="27" ry="18"/>
<text text-anchor="middle" x="355" y="-374.3" font-family="Times,serif" font-size="14.00">v2</text>
</g>
<!-- v3 -->
<g id="node2" class="node"><title>v3</title>
<ellipse fill="red" stroke="black" cx="169" cy="-306" rx="27" ry="18"/>
<text text-anchor="middle" x="169" y="-302.3" font-family="Times,serif" font-size="14.00">v3</text>
</g>
<!-- v2&#45;&#45;v3 -->
<g id="edge13" class="edge"><title>v2&#45;&#45;v3</title>
<path fill="none" stroke="black" d="M331.529,-368.768C302.759,-358.598 252.577,-340.6 210,-324 203.969,-321.649 197.482,-319.01 191.487,-316.526"/>
</g>
<!-- v4 -->
<g id="node3" class="node"><title>v4</title>
<ellipse fill="red" stroke="black" cx="169" cy="-234" rx="27" ry="18"/>
<text text-anchor="middle" x="169" y="-230.3" font-family="Times,serif" font-size="14.00">v4</text>
</g>
<!-- v2&#45;&#45;v4 -->
<g id="edge14" class="edge"><title>v2&#45;&#45;v4</title>
<path fill="none" stroke="black" d="M331.837,-368.557C309.125,-359.609 274.192,-344.01 248,-324 219.926,-302.552 194.109,-270.047 180.059,-250.826"/>
</g>
<!-- v5 -->
<g id="node4" class="node"><title>v5</title>
<ellipse fill="red" stroke="black" cx="317" cy="-234" rx="27" ry="18"/>
<text text-anchor="middle" x="317" y="-230.3" font-family="Times,serif" font-size="14.00">v5</text>
</g>
<!-- v2&#45;&#45;v5 -->
<g id="edge15" class="edge"><title>v2&#45;&#45;v5</title>
<path fill="none" stroke="black" d="M350.492,-360.153C343.178,-332.824 328.812,-279.14 321.502,-251.825"/>
</g>
<!-- v8 -->
<g id="node5" class="node"><title>v8</title>
<ellipse fill="red" stroke="black" cx="236" cy="-90" rx="27" ry="18"/>
<text text-anchor="middle" x="236" y="-86.3" font-family="Times,serif" font-size="14.00">v8</text>
</g>
<!-- v2&#45;&#45;v8 -->
<g id="edge18" class="edge"><title>v2&#45;&#45;v8</title>
<path fill="none" stroke="black" d="M365.492,-361.369C391.053,-321.153 450.919,-212.466 401,-144 369.271,-100.482 301.243,-91.9094 263.191,-90.6892"/>
</g>
<!-- v6 -->
<g id="node8" class="node"><title>v6</title>
<ellipse fill="none" stroke="black" cx="365" cy="-162" rx="27" ry="18"/>
<text text-anchor="middle" x="365" y="-158.3" font-family="Times,serif" font-size="14.00">v6</text>
</g>
<!-- v2&#45;&#45;v6 -->
<g id="edge16" class="edge"><title>v2&#45;&#45;v6</title>
<path fill="none" stroke="black" d="M355.801,-359.849C357.674,-319.78 362.319,-220.383 364.195,-180.232"/>
</g>
<!-- v7 -->
<g id="node9" class="node"><title>v7</title>
<ellipse fill="none" stroke="black" cx="217" cy="-162" rx="27" ry="18"/>
<text text-anchor="middle" x="217" y="-158.3" font-family="Times,serif" font-size="14.00">v7</text>
</g>
<!-- v2&#45;&#45;v7 -->
<g id="edge17" class="edge"><title>v2&#45;&#45;v7</title>
<path fill="none" stroke="black" d="M344.853,-361.264C319.332,-321.689 252.699,-218.359 227.162,-178.759"/>
</g>
<!-- v9 -->
<g id="node10" class="node"><title>v9</title>
<ellipse fill="none" stroke="black" cx="310" cy="-18" rx="27" ry="18"/>
<text text-anchor="middle" x="310" y="-14.3" font-family="Times,serif" font-size="14.00">v9</text>
</g>
<!-- v2&#45;&#45;v9 -->
<g id="edge19" class="edge"><title>v2&#45;&#45;v9</title>
<path fill="none" stroke="black" d="M372.335,-363.899C384.201,-354.097 399.456,-339.72 409,-324 450.626,-255.438 455.253,-216.991 422,-144 400.014,-95.7405 352.681,-52.921 327.154,-32.1983"/>
</g>
<!-- v3&#45;&#45;v4 -->
<g id="edge20" class="edge"><title>v3&#45;&#45;v4</title>
<path fill="none" stroke="black" d="M169,-287.697C169,-276.846 169,-262.917 169,-252.104"/>
</g>
<!-- v3&#45;&#45;v5 -->
<g id="edge21" class="edge"><title>v3&#45;&#45;v5</title>
<path fill="none" stroke="black" d="M190.52,-294.821C218.58,-281.55 267.381,-258.468 295.454,-245.191"/>
</g>
<!-- v3&#45;&#45;v8 -->
<g id="edge23" class="edge"><title>v3&#45;&#45;v8</title>
<path fill="none" stroke="black" d="M155.25,-290.069C147.039,-280.1 137.381,-266.247 133,-252 128.297,-236.707 129.588,-231.632 133,-216 140.506,-181.609 143.969,-171.454 166,-144 179.929,-126.643 200.738,-111.845 216.049,-102.333"/>
</g>
<!-- v3&#45;&#45;v7 -->
<g id="edge22" class="edge"><title>v3&#45;&#45;v7</title>
<path fill="none" stroke="black" d="M182.107,-289.847C190.061,-279.79 199.675,-265.922 205,-252 214.08,-228.264 216.462,-198.672 216.994,-180.305"/>
</g>
<!-- v4&#45;&#45;v8 -->
<g id="edge26" class="edge"><title>v4&#45;&#45;v8</title>
<path fill="none" stroke="black" d="M168.063,-215.957C167.749,-197.287 169.373,-166.948 181,-144 189.451,-127.321 205.277,-112.937 217.791,-103.38"/>
</g>
<!-- v4&#45;&#45;v6 -->
<g id="edge24" class="edge"><title>v4&#45;&#45;v6</title>
<path fill="none" stroke="black" d="M192.253,-224.695C229.975,-211.223 304.074,-184.759 341.777,-171.294"/>
</g>
<!-- v4&#45;&#45;v7 -->
<g id="edge25" class="edge"><title>v4&#45;&#45;v7</title>
<path fill="none" stroke="black" d="M179.892,-217.116C187.747,-205.66 198.306,-190.263 206.151,-178.821"/>
</g>
<!-- v5&#45;&#45;v8 -->
<g id="edge29" class="edge"><title>v5&#45;&#45;v8</title>
<path fill="none" stroke="black" d="M307.866,-216.987C292.309,-189.715 260.844,-134.553 245.225,-107.173"/>
</g>
<!-- v5&#45;&#45;v6 -->
<g id="edge27" class="edge"><title>v5&#45;&#45;v6</title>
<path fill="none" stroke="black" d="M327.892,-217.116C335.747,-205.66 346.306,-190.263 354.151,-178.821"/>
</g>
<!-- v5&#45;&#45;v7 -->
<g id="edge28" class="edge"><title>v5&#45;&#45;v7</title>
<path fill="none" stroke="black" d="M299.122,-220.485C281.032,-207.823 253.215,-188.351 235.06,-175.642"/>
</g>
<!-- v5&#45;&#45;v9 -->
<g id="edge30" class="edge"><title>v5&#45;&#45;v9</title>
<path fill="none" stroke="black" d="M316.439,-215.849C315.128,-175.78 311.877,-76.3826 310.564,-36.2325"/>
</g>
<!-- v8&#45;&#45;v9 -->
<g id="edge33" class="edge"><title>v8&#45;&#45;v9</title>
<path fill="none" stroke="black" d="M250.975,-74.8345C263.814,-62.6898 282.215,-45.2831 295.047,-33.1445"/>
</g>
<!-- v1 -->
<g id="node6" class="node"><title>v1</title>
<ellipse fill="red" stroke="black" cx="169" cy="-450" rx="27" ry="18"/>
<text text-anchor="middle" x="169" y="-446.3" font-family="Times,serif" font-size="14.00">v1</text>
</g>
<!-- v1&#45;&#45;v2 -->
<g id="edge7" class="edge"><title>v1&#45;&#45;v2</title>
<path fill="none" stroke="black" d="M192.181,-440.276C228.018,-426.789 296.452,-401.034 332.111,-387.614"/>
</g>
<!-- v1&#45;&#45;v3 -->
<g id="edge8" class="edge"><title>v1&#45;&#45;v3</title>
<path fill="none" stroke="black" d="M169,-431.871C169,-404.578 169,-351.52 169,-324.189"/>
</g>
<!-- v1&#45;&#45;v4 -->
<g id="edge9" class="edge"><title>v1&#45;&#45;v4</title>
<path fill="none" stroke="black" d="M159.866,-432.786C144.583,-403.506 117.005,-340.015 133,-288 137.381,-273.753 147.039,-259.9 155.25,-249.931"/>
</g>
<!-- v1&#45;&#45;v8 -->
<g id="edge11" class="edge"><title>v1&#45;&#45;v8</title>
<path fill="none" stroke="black" d="M152.373,-435.624C125.623,-412.476 76,-362.108 76,-307 76,-307 76,-307 76,-233 76,-160.763 168.359,-116.324 212.735,-99.1411"/>
</g>
<!-- v1&#45;&#45;v6 -->
<g id="edge10" class="edge"><title>v1&#45;&#45;v6</title>
<path fill="none" stroke="black" d="M195.903,-446.654C249.589,-441.355 366.94,-426.48 391,-396 442.699,-330.506 394.926,-220.493 373.84,-179.259"/>
</g>
<!-- v1&#45;&#45;v9 -->
<g id="edge12" class="edge"><title>v1&#45;&#45;v9</title>
<path fill="none" stroke="black" d="M147.953,-438.575C110.922,-418.577 38,-371.064 38,-307 38,-307 38,-307 38,-161 38,-51.2637 214.126,-26.1861 282.925,-20.5763"/>
</g>
<!-- v0 -->
<g id="node7" class="node"><title>v0</title>
<ellipse fill="red" stroke="black" cx="323" cy="-522" rx="27" ry="18"/>
<text text-anchor="middle" x="323" y="-518.3" font-family="Times,serif" font-size="14.00">v0</text>
</g>
<!-- v0&#45;&#45;v2 -->
<g id="edge2" class="edge"><title>v0&#45;&#45;v2</title>
<path fill="none" stroke="black" d="M326.796,-504.153C332.955,-476.824 345.053,-423.14 351.208,-395.825"/>
</g>
<!-- v0&#45;&#45;v5 -->
<g id="edge3" class="edge"><title>v0&#45;&#45;v5</title>
<path fill="none" stroke="black" d="M322.336,-503.612C321.439,-479.469 319.853,-434.422 319,-396 317.839,-343.74 317.307,-281.921 317.105,-252.394"/>
</g>
<!-- v0&#45;&#45;v1 -->
<g id="edge1" class="edge"><title>v0&#45;&#45;v1</title>
<path fill="none" stroke="black" d="M301.262,-511.119C271.912,-497.778 219.921,-474.146 190.627,-460.831"/>
</g>
<!-- v0&#45;&#45;v6 -->
<g id="edge4" class="edge"><title>v0&#45;&#45;v6</title>
<path fill="none" stroke="black" d="M348.549,-515.924C403.503,-503.363 528,-465.373 528,-379 528,-379 528,-379 528,-305 528,-232.002 433.909,-187.958 388.702,-171.009"/>
</g>
<!-- v0&#45;&#45;v7 -->
<g id="edge5" class="edge"><title>v0&#45;&#45;v7</title>
<path fill="none" stroke="black" d="M296.017,-521.357C218.387,-520.845 0,-507.944 0,-379 0,-379 0,-379 0,-305 0,-214.729 133.109,-178.755 190.825,-167.4"/>
</g>
<!-- v0&#45;&#45;v9 -->
<g id="edge6" class="edge"><title>v0&#45;&#45;v9</title>
<path fill="none" stroke="black" d="M349.468,-518.079C412.448,-509.514 566,-478.435 566,-379 566,-379 566,-379 566,-161 566,-57.0651 402.64,-28.5685 336.913,-21.3093"/>
</g>
<!-- v6&#45;&#45;v8 -->
<g id="edge31" class="edge"><title>v6&#45;&#45;v8</title>
<path fill="none" stroke="black" d="M344.56,-149.908C320.405,-136.801 280.458,-115.124 256.345,-102.04"/>
</g>
<!-- v7&#45;&#45;v8 -->
<g id="edge32" class="edge"><title>v7&#45;&#45;v8</title>
<path fill="none" stroke="black" d="M221.599,-144.055C224.587,-133.049 228.464,-118.764 231.443,-107.789"/>
</g>
</g>
</svg>
