<?xml version="1.0" encoding="UTF-8" standalone="no"?>
<!DOCTYPE svg PUBLIC "-//W3C//DTD SVG 1.1//EN"
 "http://www.w3.org/Graphics/SVG/1.1/DTD/svg11.dtd">
<!-- Generated by graphviz version 2.38.0 (20140413.2041)
 -->
<!-- Title: G Pages: 1 -->
<svg width="518pt" height="548pt"
 viewBox="0.00 0.00 517.55 548.00" xmlns="http://www.w3.org/2000/svg" xmlns:xlink="http://www.w3.org/1999/xlink">
<g id="graph0" class="graph" transform="scale(1 1) rotate(0) translate(4 544)">
<title>G</title>
<polygon fill="white" stroke="none" points="-4,4 -4,-544 513.555,-544 513.555,4 -4,4"/>
<!-- v4 -->
<g id="node1" class="node"><title>v4</title>
<ellipse fill="red" stroke="black" cx="245" cy="-234" rx="27" ry="18"/>
<text text-anchor="middle" x="245" y="-230.3" font-family="Times,serif" font-size="14.00">v4</text>
</g>
<!-- v8 -->
<g id="node6" class="node"><title>v8</title>
<ellipse fill="red" stroke="black" cx="300" cy="-90" rx="27" ry="18"/>
<text text-anchor="middle" x="300" y="-86.3" font-family="Times,serif" font-size="14.00">v8</text>
</g>
<!-- v4&#45;&#45;v8 -->
<g id="edge26" class="edge"><title>v4&#45;&#45;v8</title>
<path fill="none" stroke="black" d="M251.417,-216.433C261.958,-189.217 282.828,-135.334 293.454,-107.902"/>
</g>
<!-- v6 -->
<g id="node8" class="node"><title>v6</title>
<ellipse fill="none" stroke="black" cx="195" cy="-162" rx="27" ry="18"/>
<text text-anchor="middle" x="195" y="-158.3" font-family="Times,serif" font-size="14.00">v6</text>
</g>
<!-- v4&#45;&#45;v6 -->
<g id="edge24" class="edge"><title>v4&#45;&#45;v6</title>
<path fill="none" stroke="black" d="M233.903,-217.465C225.618,-205.865 214.344,-190.082 206.066,-178.492"/>
</g>
<!-- v7 -->
<g id="node9" class="node"><title>v7</title>
<ellipse fill="none" stroke="black" cx="414" cy="-162" rx="27" ry="18"/>
<text text-anchor="middle" x="414" y="-158.3" font-family="Times,serif" font-size="14.00">v7</text>
</g>
<!-- v4&#45;&#45;v7 -->
<g id="edge25" class="edge"><title>v4&#45;&#45;v7</title>
<path fill="none" stroke="black" d="M267.442,-223.705C299.855,-210.279 359.42,-185.607 391.734,-172.222"/>
</g>
<!-- v3 -->
<g id="node2" class="node"><title>v3</title>
<ellipse fill="red" stroke="black" cx="321" cy="-306" rx="27" ry="18"/>
<text text-anchor="middle" x="321" y="-302.3" font-family="Times,serif" font-size="14.00">v3</text>
</g>
<!-- v3&#45;&#45;v4 -->
<g id="edge20" class="edge"><title>v3&#45;&#45;v4</title>
<path fill="none" stroke="black" d="M305.62,-290.834C292.435,-278.69 273.536,-261.283 260.357,-249.144"/>
</g>
<!-- v5 -->
<g id="node5" class="node"><title>v5</title>
<ellipse fill="red" stroke="black" cx="469" cy="-234" rx="27" ry="18"/>
<text text-anchor="middle" x="469" y="-230.3" font-family="Times,serif" font-size="14.00">v5</text>
</g>
<!-- v3&#45;&#45;v5 -->
<g id="edge21" class="edge"><title>v3&#45;&#45;v5</title>
<path fill="none" stroke="black" d="M342.52,-294.821C370.58,-281.55 419.381,-258.468 447.454,-245.191"/>
</g>
<!-- v3&#45;&#45;v8 -->
<g id="edge23" class="edge"><title>v3&#45;&#45;v8</title>
<path fill="none" stroke="black" d="M319.317,-287.849C315.385,-247.78 305.631,-148.383 301.691,-108.232"/>
</g>
<!-- v3&#45;&#45;v7 -->
<g id="edge22" class="edge"><title>v3&#45;&#45;v7</title>
<path fill="none" stroke="black" d="M331.308,-289.261C349.184,-261.966 385.737,-206.154 403.646,-178.81"/>
</g>
<!-- v1 -->
<g id="node3" class="node"><title>v1</title>
<ellipse fill="red" stroke="black" cx="228" cy="-450" rx="27" ry="18"/>
<text text-anchor="middle" x="228" y="-446.3" font-family="Times,serif" font-size="14.00">v1</text>
</g>
<!-- v1&#45;&#45;v4 -->
<g id="edge9" class="edge"><title>v1&#45;&#45;v4</title>
<path fill="none" stroke="black" d="M229.362,-431.849C232.546,-391.78 240.442,-292.383 243.631,-252.232"/>
</g>
<!-- v1&#45;&#45;v3 -->
<g id="edge8" class="edge"><title>v1&#45;&#45;v3</title>
<path fill="none" stroke="black" d="M237.963,-433.162C249.24,-415.299 268.228,-385.425 285,-360 293.33,-347.372 302.97,-333.204 310.176,-322.695"/>
</g>
<!-- v1&#45;&#45;v8 -->
<g id="edge11" class="edge"><title>v1&#45;&#45;v8</title>
<path fill="none" stroke="black" d="M216.779,-433.453C183.797,-385.693 93.48,-238.624 159,-144 184.681,-106.912 239.773,-95.7415 272.98,-92.4003"/>
</g>
<!-- v2 -->
<g id="node7" class="node"><title>v2</title>
<ellipse fill="red" stroke="black" cx="321" cy="-378" rx="27" ry="18"/>
<text text-anchor="middle" x="321" y="-374.3" font-family="Times,serif" font-size="14.00">v2</text>
</g>
<!-- v1&#45;&#45;v2 -->
<g id="edge7" class="edge"><title>v1&#45;&#45;v2</title>
<path fill="none" stroke="black" d="M245.493,-435.834C262.12,-423.319 286.985,-404.603 303.586,-392.107"/>
</g>
<!-- v1&#45;&#45;v6 -->
<g id="edge10" class="edge"><title>v1&#45;&#45;v6</title>
<path fill="none" stroke="black" d="M224.17,-431.992C216.735,-398.012 200.591,-319.216 195,-252 192.925,-227.055 193.476,-198.041 194.161,-180.097"/>
</g>
<!-- v9 -->
<g id="node10" class="node"><title>v9</title>
<ellipse fill="none" stroke="black" cx="300" cy="-18" rx="27" ry="18"/>
<text text-anchor="middle" x="300" y="-14.3" font-family="Times,serif" font-size="14.00">v9</text>
</g>
<!-- v1&#45;&#45;v9 -->
<g id="edge12" class="edge"><title>v1&#45;&#45;v9</title>
<path fill="none" stroke="black" d="M206.941,-438.249C157.472,-411.324 38,-335.857 38,-235 38,-235 38,-235 38,-161 38,-54.9386 206.008,-27.6836 272.948,-21.0335"/>
</g>
<!-- v0 -->
<g id="node4" class="node"><title>v0</title>
<ellipse fill="red" stroke="black" cx="265" cy="-522" rx="27" ry="18"/>
<text text-anchor="middle" x="265" y="-518.3" font-family="Times,serif" font-size="14.00">v0</text>
</g>
<!-- v0&#45;&#45;v1 -->
<g id="edge1" class="edge"><title>v0&#45;&#45;v1</title>
<path fill="none" stroke="black" d="M256.418,-504.765C250.441,-493.456 242.502,-478.437 236.535,-467.147"/>
</g>
<!-- v0&#45;&#45;v5 -->
<g id="edge3" class="edge"><title>v0&#45;&#45;v5</title>
<path fill="none" stroke="black" d="M282.761,-508.312C320.879,-480.028 410.504,-407.67 453,-324 464.659,-301.045 467.946,-270.975 468.803,-252.327"/>
</g>
<!-- v0&#45;&#45;v2 -->
<g id="edge2" class="edge"><title>v0&#45;&#45;v2</title>
<path fill="none" stroke="black" d="M271.534,-504.433C282.266,-477.217 303.516,-423.334 314.335,-395.902"/>
</g>
<!-- v0&#45;&#45;v6 -->
<g id="edge4" class="edge"><title>v0&#45;&#45;v6</title>
<path fill="none" stroke="black" d="M242.682,-511.647C225.401,-503.076 202.67,-488.577 192,-468 140.933,-369.514 175.458,-227.96 189.684,-179.785"/>
</g>
<!-- v0&#45;&#45;v7 -->
<g id="edge5" class="edge"><title>v0&#45;&#45;v7</title>
<path fill="none" stroke="black" d="M287.488,-511.553C308.415,-502.182 339.908,-486.561 364,-468 454.817,-398.033 480.554,-364.007 505,-252 508.412,-236.368 512.974,-229.872 505,-216 490.877,-191.431 460.496,-177.184 438.722,-169.767"/>
</g>
<!-- v0&#45;&#45;v9 -->
<g id="edge6" class="edge"><title>v0&#45;&#45;v9</title>
<path fill="none" stroke="black" d="M238.132,-519.125C170.761,-512.821 0,-486.262 0,-379 0,-379 0,-379 0,-161 2.79156e-15,-115.41 14.1645,-98.8619 51,-72 86.4429,-46.1536 216.628,-28.5241 273.322,-21.9085"/>
</g>
<!-- v5&#45;&#45;v8 -->
<g id="edge29" class="edge"><title>v5&#45;&#45;v8</title>
<path fill="none" stroke="black" d="M470.018,-215.75C470.226,-196.04 467.517,-163.942 450,-144 418.376,-107.997 360.719,-96.4508 326.841,-92.748"/>
</g>
<!-- v5&#45;&#45;v6 -->
<g id="edge27" class="edge"><title>v5&#45;&#45;v6</title>
<path fill="none" stroke="black" d="M444.201,-226.665C392.166,-213.371 272.098,-182.697 219.94,-169.372"/>
</g>
<!-- v5&#45;&#45;v7 -->
<g id="edge28" class="edge"><title>v5&#45;&#45;v7</title>
<path fill="none" stroke="black" d="M457.066,-217.811C447.84,-206.07 435.13,-189.893 425.911,-178.159"/>
</g>
<!-- v5&#45;&#45;v9 -->
<g id="edge30" class="edge"><title>v5&#45;&#45;v9</title>
<path fill="none" stroke="black" d="M474.171,-216.213C478.93,-197.501 483.65,-166.867 472,-144 440.414,-81.9993 362.089,-43.5319 322.98,-27.5569"/>
</g>
<!-- v8&#45;&#45;v9 -->
<g id="edge33" class="edge"><title>v8&#45;&#45;v9</title>
<path fill="none" stroke="black" d="M300,-71.6966C300,-60.8463 300,-46.9167 300,-36.1043"/>
</g>
<!-- v2&#45;&#45;v4 -->
<g id="edge14" class="edge"><title>v2&#45;&#45;v4</title>
<path fill="none" stroke="black" d="M309.549,-361.686C302.078,-351.339 292.379,-337.206 285,-324 271.366,-299.599 258.691,-269.68 251.402,-251.493"/>
</g>
<!-- v2&#45;&#45;v3 -->
<g id="edge13" class="edge"><title>v2&#45;&#45;v3</title>
<path fill="none" stroke="black" d="M321,-359.697C321,-348.846 321,-334.917 321,-324.104"/>
</g>
<!-- v2&#45;&#45;v5 -->
<g id="edge15" class="edge"><title>v2&#45;&#45;v5</title>
<path fill="none" stroke="black" d="M345.548,-370.118C369.312,-362.355 405.024,-347.634 428,-324 447.922,-303.508 459.354,-271.582 464.859,-252.055"/>
</g>
<!-- v2&#45;&#45;v8 -->
<g id="edge18" class="edge"><title>v2&#45;&#45;v8</title>
<path fill="none" stroke="black" d="M334.75,-362.069C342.961,-352.1 352.619,-338.247 357,-324 361.703,-308.707 358.955,-303.88 357,-288 348.94,-222.525 341.195,-206.803 321,-144 317.001,-131.563 311.542,-117.86 307.193,-107.504"/>
</g>
<!-- v2&#45;&#45;v6 -->
<g id="edge16" class="edge"><title>v2&#45;&#45;v6</title>
<path fill="none" stroke="black" d="M303.509,-363.95C277.541,-343.421 229.64,-300.85 209,-252 199.016,-228.371 196.079,-198.491 195.257,-180.066"/>
</g>
<!-- v2&#45;&#45;v7 -->
<g id="edge17" class="edge"><title>v2&#45;&#45;v7</title>
<path fill="none" stroke="black" d="M342.075,-366.581C357.945,-357.573 378.815,-343.007 390,-324 417.232,-277.723 417.262,-211.453 415.467,-180.358"/>
</g>
<!-- v2&#45;&#45;v9 -->
<g id="edge19" class="edge"><title>v2&#45;&#45;v9</title>
<path fill="none" stroke="black" d="M346.243,-371.382C374.514,-364.127 420.608,-349.325 453,-324 494.969,-291.187 510.813,-268.956 505,-216 497.338,-146.201 495.144,-115.47 440,-72 405.609,-44.8897 355.838,-30.5063 325.833,-23.8411"/>
</g>
<!-- v6&#45;&#45;v8 -->
<g id="edge31" class="edge"><title>v6&#45;&#45;v8</title>
<path fill="none" stroke="black" d="M213.772,-148.485C232.884,-135.744 262.337,-116.108 281.391,-103.406"/>
</g>
<!-- v7&#45;&#45;v8 -->
<g id="edge32" class="edge"><title>v7&#45;&#45;v8</title>
<path fill="none" stroke="black" d="M394.661,-149.125C373.698,-136.253 340.434,-115.828 319.433,-102.933"/>
</g>
</g>
</svg>
