<?xml version="1.0" encoding="UTF-8" standalone="no"?>
<!DOCTYPE svg PUBLIC "-//W3C//DTD SVG 1.1//EN"
 "http://www.w3.org/Graphics/SVG/1.1/DTD/svg11.dtd">
<!-- Generated by graphviz version 2.38.0 (20140413.2041)
 -->
<!-- Title: G Pages: 1 -->
<svg width="517pt" height="548pt"
 viewBox="0.00 0.00 516.68 548.00" xmlns="http://www.w3.org/2000/svg" xmlns:xlink="http://www.w3.org/1999/xlink">
<g id="graph0" class="graph" transform="scale(1 1) rotate(0) translate(4 544)">
<title>G</title>
<polygon fill="white" stroke="none" points="-4,4 -4,-544 512.684,-544 512.684,4 -4,4"/>
<!-- v0 -->
<g id="node1" class="node"><title>v0</title>
<ellipse fill="red" stroke="black" cx="346.684" cy="-522" rx="27" ry="18"/>
<text text-anchor="middle" x="346.684" y="-518.3" font-family="Times,serif" font-size="14.00">v0</text>
</g>
<!-- v1 -->
<g id="node5" class="node"><title>v1</title>
<ellipse fill="red" stroke="black" cx="187.684" cy="-450" rx="27" ry="18"/>
<text text-anchor="middle" x="187.684" y="-446.3" font-family="Times,serif" font-size="14.00">v1</text>
</g>
<!-- v0&#45;&#45;v1 -->
<g id="edge1" class="edge"><title>v0&#45;&#45;v1</title>
<path fill="none" stroke="black" d="M324.576,-511.267C294.199,-497.893 239.883,-473.981 209.605,-460.651"/>
</g>
<!-- v2 -->
<g id="node6" class="node"><title>v2</title>
<ellipse fill="red" stroke="black" cx="242.684" cy="-378" rx="27" ry="18"/>
<text text-anchor="middle" x="242.684" y="-374.3" font-family="Times,serif" font-size="14.00">v2</text>
</g>
<!-- v0&#45;&#45;v2 -->
<g id="edge2" class="edge"><title>v0&#45;&#45;v2</title>
<path fill="none" stroke="black" d="M335.357,-505.533C315.351,-478.218 273.994,-421.749 253.998,-394.448"/>
</g>
<!-- v5 -->
<g id="node7" class="node"><title>v5</title>
<ellipse fill="red" stroke="black" cx="301.684" cy="-234" rx="27" ry="18"/>
<text text-anchor="middle" x="301.684" y="-230.3" font-family="Times,serif" font-size="14.00">v5</text>
</g>
<!-- v0&#45;&#45;v5 -->
<g id="edge3" class="edge"><title>v0&#45;&#45;v5</title>
<path fill="none" stroke="black" d="M344.004,-503.966C336.001,-453.098 312.336,-302.696 304.351,-251.945"/>
</g>
<!-- v6 -->
<g id="node8" class="node"><title>v6</title>
<ellipse fill="none" stroke="black" cx="64.6845" cy="-162" rx="27" ry="18"/>
<text text-anchor="middle" x="64.6845" y="-158.3" font-family="Times,serif" font-size="14.00">v6</text>
</g>
<!-- v0&#45;&#45;v6 -->
<g id="edge4" class="edge"><title>v0&#45;&#45;v6</title>
<path fill="none" stroke="black" d="M319.741,-519.792C279.456,-516.737 202.803,-505.964 151.684,-468 67.4892,-405.471 67.436,-356.322 56.6845,-252 54.108,-227 57.996,-198.001 61.1986,-180.075"/>
</g>
<!-- v7 -->
<g id="node9" class="node"><title>v7</title>
<ellipse fill="none" stroke="black" cx="263.684" cy="-162" rx="27" ry="18"/>
<text text-anchor="middle" x="263.684" y="-158.3" font-family="Times,serif" font-size="14.00">v7</text>
</g>
<!-- v0&#45;&#45;v7 -->
<g id="edge5" class="edge"><title>v0&#45;&#45;v7</title>
<path fill="none" stroke="black" d="M352.628,-504.349C368.811,-455.941 408.883,-312.564 353.684,-216 339.736,-191.599 309.685,-177.317 288.144,-169.845"/>
</g>
<!-- v9 -->
<g id="node10" class="node"><title>v9</title>
<ellipse fill="none" stroke="black" cx="432.684" cy="-18" rx="27" ry="18"/>
<text text-anchor="middle" x="432.684" y="-14.3" font-family="Times,serif" font-size="14.00">v9</text>
</g>
<!-- v0&#45;&#45;v9 -->
<g id="edge6" class="edge"><title>v0&#45;&#45;v9</title>
<path fill="none" stroke="black" d="M370.241,-512.947C415.171,-495.92 508.684,-451.743 508.684,-379 508.684,-379 508.684,-379 508.684,-161 508.684,-109.271 468.995,-58.1496 446.979,-33.7722"/>
</g>
<!-- v3 -->
<g id="node2" class="node"><title>v3</title>
<ellipse fill="red" stroke="black" cx="187.684" cy="-306" rx="27" ry="18"/>
<text text-anchor="middle" x="187.684" y="-302.3" font-family="Times,serif" font-size="14.00">v3</text>
</g>
<!-- v8 -->
<g id="node3" class="node"><title>v8</title>
<ellipse fill="red" stroke="black" cx="189.684" cy="-90" rx="27" ry="18"/>
<text text-anchor="middle" x="189.684" y="-86.3" font-family="Times,serif" font-size="14.00">v8</text>
</g>
<!-- v3&#45;&#45;v8 -->
<g id="edge23" class="edge"><title>v3&#45;&#45;v8</title>
<path fill="none" stroke="black" d="M187.845,-287.849C188.219,-247.78 189.148,-148.383 189.523,-108.232"/>
</g>
<!-- v4 -->
<g id="node4" class="node"><title>v4</title>
<ellipse fill="red" stroke="black" cx="115.684" cy="-234" rx="27" ry="18"/>
<text text-anchor="middle" x="115.684" y="-230.3" font-family="Times,serif" font-size="14.00">v4</text>
</g>
<!-- v3&#45;&#45;v4 -->
<g id="edge20" class="edge"><title>v3&#45;&#45;v4</title>
<path fill="none" stroke="black" d="M173.114,-290.834C160.705,-278.77 142.954,-261.512 130.48,-249.385"/>
</g>
<!-- v3&#45;&#45;v5 -->
<g id="edge21" class="edge"><title>v3&#45;&#45;v5</title>
<path fill="none" stroke="black" d="M207.023,-293.125C227.986,-280.253 261.251,-259.828 282.251,-246.933"/>
</g>
<!-- v3&#45;&#45;v7 -->
<g id="edge22" class="edge"><title>v3&#45;&#45;v7</title>
<path fill="none" stroke="black" d="M196.403,-288.711C211.063,-261.319 240.476,-206.362 255.068,-179.099"/>
</g>
<!-- v8&#45;&#45;v9 -->
<g id="edge33" class="edge"><title>v8&#45;&#45;v9</title>
<path fill="none" stroke="black" d="M214.322,-81.9028C261.017,-68.4515 361.878,-39.3969 408.343,-26.0119"/>
</g>
<!-- v4&#45;&#45;v8 -->
<g id="edge26" class="edge"><title>v4&#45;&#45;v8</title>
<path fill="none" stroke="black" d="M122.636,-216.294C130.345,-198.178 143.448,-168.56 156.684,-144 163.575,-131.214 172.294,-117.292 179.039,-106.927"/>
</g>
<!-- v4&#45;&#45;v6 -->
<g id="edge24" class="edge"><title>v4&#45;&#45;v6</title>
<path fill="none" stroke="black" d="M104.366,-217.465C95.9144,-205.865 84.4153,-190.082 75.9714,-178.492"/>
</g>
<!-- v4&#45;&#45;v7 -->
<g id="edge25" class="edge"><title>v4&#45;&#45;v7</title>
<path fill="none" stroke="black" d="M137.205,-222.821C165.265,-209.55 214.065,-186.468 242.138,-173.191"/>
</g>
<!-- v1&#45;&#45;v3 -->
<g id="edge8" class="edge"><title>v1&#45;&#45;v3</title>
<path fill="none" stroke="black" d="M187.684,-431.871C187.684,-404.578 187.684,-351.52 187.684,-324.189"/>
</g>
<!-- v1&#45;&#45;v8 -->
<g id="edge11" class="edge"><title>v1&#45;&#45;v8</title>
<path fill="none" stroke="black" d="M166.091,-438.996C148.289,-429.864 123.343,-414.919 106.684,-396 29.2065,-308.006 -40.0457,-238.984 28.6845,-144 59.3908,-101.564 125.233,-92.5174 162.505,-90.9439"/>
</g>
<!-- v1&#45;&#45;v4 -->
<g id="edge9" class="edge"><title>v1&#45;&#45;v4</title>
<path fill="none" stroke="black" d="M177.553,-433.167C163.36,-410.137 137.924,-365.598 125.684,-324 118.53,-299.686 116.432,-270.253 115.852,-252.077"/>
</g>
<!-- v1&#45;&#45;v2 -->
<g id="edge7" class="edge"><title>v1&#45;&#45;v2</title>
<path fill="none" stroke="black" d="M199.619,-433.811C208.844,-422.07 221.554,-405.893 230.774,-394.159"/>
</g>
<!-- v1&#45;&#45;v6 -->
<g id="edge10" class="edge"><title>v1&#45;&#45;v6</title>
<path fill="none" stroke="black" d="M171.736,-435.3C160.661,-425.217 146.085,-410.749 135.684,-396 94.6755,-337.844 82.0361,-321.257 65.6845,-252 59.8968,-227.487 61.074,-198.108 62.6931,-179.998"/>
</g>
<!-- v1&#45;&#45;v9 -->
<g id="edge12" class="edge"><title>v1&#45;&#45;v9</title>
<path fill="none" stroke="black" d="M212.799,-443.027C282.06,-424.907 470.684,-363.739 470.684,-235 470.684,-235 470.684,-235 470.684,-161 470.684,-114.298 451.266,-61.803 440.192,-35.662"/>
</g>
<!-- v2&#45;&#45;v3 -->
<g id="edge13" class="edge"><title>v2&#45;&#45;v3</title>
<path fill="none" stroke="black" d="M230.75,-361.811C221.525,-350.07 208.815,-333.893 199.595,-322.159"/>
</g>
<!-- v2&#45;&#45;v8 -->
<g id="edge18" class="edge"><title>v2&#45;&#45;v8</title>
<path fill="none" stroke="black" d="M239.528,-359.966C230.101,-309.098 202.23,-158.696 192.825,-107.945"/>
</g>
<!-- v2&#45;&#45;v4 -->
<g id="edge14" class="edge"><title>v2&#45;&#45;v4</title>
<path fill="none" stroke="black" d="M219.637,-368.598C199.306,-360.137 170.12,-345.281 151.684,-324 133.459,-302.962 123.692,-271.498 119.104,-252.163"/>
</g>
<!-- v2&#45;&#45;v5 -->
<g id="edge15" class="edge"><title>v2&#45;&#45;v5</title>
<path fill="none" stroke="black" d="M249.568,-360.433C260.937,-333.071 283.505,-278.754 294.845,-251.462"/>
</g>
<!-- v2&#45;&#45;v6 -->
<g id="edge16" class="edge"><title>v2&#45;&#45;v6</title>
<path fill="none" stroke="black" d="M217.99,-370.377C192.59,-362.593 152.991,-347.652 125.684,-324 96.9813,-299.138 93.3364,-287.434 79.6845,-252 70.5021,-228.167 66.9318,-198.602 65.5495,-180.267"/>
</g>
<!-- v2&#45;&#45;v7 -->
<g id="edge17" class="edge"><title>v2&#45;&#45;v7</title>
<path fill="none" stroke="black" d="M258.46,-363.187C281.301,-341.992 322.505,-298.943 337.684,-252 342.607,-236.776 344.997,-230.231 337.684,-216 326.996,-195.198 303.933,-180.734 286.376,-172.233"/>
</g>
<!-- v2&#45;&#45;v9 -->
<g id="edge19" class="edge"><title>v2&#45;&#45;v9</title>
<path fill="none" stroke="black" d="M264.252,-366.835C281.685,-357.701 305.849,-342.837 321.684,-324 397.831,-233.422 423.743,-86.2101 430.596,-36.2305"/>
</g>
<!-- v5&#45;&#45;v8 -->
<g id="edge29" class="edge"><title>v5&#45;&#45;v8</title>
<path fill="none" stroke="black" d="M306.194,-216.077C310.252,-196.962 313.659,-165.7 299.684,-144 281.091,-115.128 241.98,-101.573 215.765,-95.5114"/>
</g>
<!-- v5&#45;&#45;v6 -->
<g id="edge27" class="edge"><title>v5&#45;&#45;v6</title>
<path fill="none" stroke="black" d="M277.214,-225.772C231.681,-212.324 134.454,-183.607 89.0219,-170.188"/>
</g>
<!-- v5&#45;&#45;v7 -->
<g id="edge28" class="edge"><title>v5&#45;&#45;v7</title>
<path fill="none" stroke="black" d="M292.871,-216.765C286.732,-205.456 278.579,-190.437 272.45,-179.147"/>
</g>
<!-- v5&#45;&#45;v9 -->
<g id="edge30" class="edge"><title>v5&#45;&#45;v9</title>
<path fill="none" stroke="black" d="M311.531,-216.915C335.868,-177.159 398.634,-74.6246 422.903,-34.9795"/>
</g>
<!-- v6&#45;&#45;v8 -->
<g id="edge31" class="edge"><title>v6&#45;&#45;v8</title>
<path fill="none" stroke="black" d="M84.7679,-149.753C108.094,-136.691 146.346,-115.27 169.651,-102.219"/>
</g>
<!-- v7&#45;&#45;v8 -->
<g id="edge32" class="edge"><title>v7&#45;&#45;v8</title>
<path fill="none" stroke="black" d="M248.709,-146.834C235.871,-134.69 217.469,-117.283 204.637,-105.144"/>
</g>
</g>
</svg>
