<?xml version="1.0" encoding="UTF-8" standalone="no"?>
<!DOCTYPE svg PUBLIC "-//W3C//DTD SVG 1.1//EN"
 "http://www.w3.org/Graphics/SVG/1.1/DTD/svg11.dtd">
<!-- Generated by graphviz version 2.38.0 (20140413.2041)
 -->
<!-- Title: G Pages: 1 -->
<svg width="1182pt" height="1124pt"
 viewBox="0.00 0.00 1182.00 1124.00" xmlns="http://www.w3.org/2000/svg" xmlns:xlink="http://www.w3.org/1999/xlink">
<g id="graph0" class="graph" transform="scale(1 1) rotate(0) translate(4 1120)">
<title>G</title>
<polygon fill="white" stroke="none" points="-4,4 -4,-1120 1178,-1120 1178,4 -4,4"/>
<!-- v0 -->
<g id="node1" class="node"><title>v0</title>
<ellipse fill="none" stroke="black" cx="851" cy="-1098" rx="27" ry="18"/>
<text text-anchor="middle" x="851" y="-1094.3" font-family="Times,serif" font-size="14.00">v0</text>
</g>
<!-- v1 -->
<g id="node2" class="node"><title>v1</title>
<ellipse fill="red" stroke="black" cx="718" cy="-1026" rx="27" ry="18"/>
<text text-anchor="middle" x="718" y="-1022.3" font-family="Times,serif" font-size="14.00">v1</text>
</g>
<!-- v0&#45;&#45;v1 -->
<g id="edge1" class="edge"><title>v0&#45;&#45;v1</title>
<path fill="none" stroke="black" d="M830.51,-1086.22C805.59,-1073.1 763.762,-1051.09 738.732,-1037.91"/>
</g>
<!-- v3 -->
<g id="node3" class="node"><title>v3</title>
<ellipse fill="red" stroke="black" cx="608" cy="-882" rx="27" ry="18"/>
<text text-anchor="middle" x="608" y="-878.3" font-family="Times,serif" font-size="14.00">v3</text>
</g>
<!-- v0&#45;&#45;v3 -->
<g id="edge2" class="edge"><title>v0&#45;&#45;v3</title>
<path fill="none" stroke="black" d="M824.487,-1093.76C789.221,-1088.38 726.196,-1074.97 682,-1044 649.021,-1020.89 643.835,-1008.58 627,-972 616.167,-948.462 611.416,-918.556 609.401,-900.102"/>
</g>
<!-- v4 -->
<g id="node4" class="node"><title>v4</title>
<ellipse fill="red" stroke="black" cx="270" cy="-810" rx="27" ry="18"/>
<text text-anchor="middle" x="270" y="-806.3" font-family="Times,serif" font-size="14.00">v4</text>
</g>
<!-- v0&#45;&#45;v4 -->
<g id="edge3" class="edge"><title>v0&#45;&#45;v4</title>
<path fill="none" stroke="black" d="M824.945,-1093.13C784.395,-1086.51 704.271,-1071.05 641,-1044 493.436,-980.914 337.088,-863.536 286.682,-824.219"/>
</g>
<!-- v6 -->
<g id="node5" class="node"><title>v6</title>
<ellipse fill="red" stroke="black" cx="494" cy="-666" rx="27" ry="18"/>
<text text-anchor="middle" x="494" y="-662.3" font-family="Times,serif" font-size="14.00">v6</text>
</g>
<!-- v0&#45;&#45;v6 -->
<g id="edge4" class="edge"><title>v0&#45;&#45;v6</title>
<path fill="none" stroke="black" d="M844.816,-1080.46C833.022,-1050.1 805.314,-984.213 770,-936 687.958,-823.993 557.586,-716.831 511.131,-680.246"/>
</g>
<!-- v8 -->
<g id="node6" class="node"><title>v8</title>
<ellipse fill="red" stroke="black" cx="646" cy="-522" rx="27" ry="18"/>
<text text-anchor="middle" x="646" y="-518.3" font-family="Times,serif" font-size="14.00">v8</text>
</g>
<!-- v0&#45;&#45;v8 -->
<g id="edge5" class="edge"><title>v0&#45;&#45;v8</title>
<path fill="none" stroke="black" d="M849.445,-1079.88C844.907,-1028.37 832,-870.327 832,-739 832,-739 832,-739 832,-665 832,-584.763 721.295,-543.812 670.699,-529.287"/>
</g>
<!-- v10 -->
<g id="node7" class="node"><title>v10</title>
<ellipse fill="red" stroke="black" cx="722" cy="-378" rx="27" ry="18"/>
<text text-anchor="middle" x="722" y="-374.3" font-family="Times,serif" font-size="14.00">v10</text>
</g>
<!-- v0&#45;&#45;v10 -->
<g id="edge6" class="edge"><title>v0&#45;&#45;v10</title>
<path fill="none" stroke="black" d="M861.99,-1081.22C878.554,-1055.85 908,-1003.88 908,-955 908,-955 908,-955 908,-881 908,-784.401 870,-763.599 870,-667 870,-667 870,-667 870,-521 870,-452.276 785.881,-406.466 744.478,-388.08"/>
</g>
<!-- v12 -->
<g id="node8" class="node"><title>v12</title>
<ellipse fill="red" stroke="black" cx="777" cy="-234" rx="27" ry="18"/>
<text text-anchor="middle" x="777" y="-230.3" font-family="Times,serif" font-size="14.00">v12</text>
</g>
<!-- v0&#45;&#45;v12 -->
<g id="edge7" class="edge"><title>v0&#45;&#45;v12</title>
<path fill="none" stroke="black" d="M867.984,-1083.7C895.309,-1060.67 946,-1010.47 946,-955 946,-955 946,-955 946,-377 946,-302.08 847.44,-258.775 800.855,-242.491"/>
</g>
<!-- v14 -->
<g id="node9" class="node"><title>v14</title>
<ellipse fill="red" stroke="black" cx="777" cy="-90" rx="27" ry="18"/>
<text text-anchor="middle" x="777" y="-86.3" font-family="Times,serif" font-size="14.00">v14</text>
</g>
<!-- v0&#45;&#45;v14 -->
<g id="edge8" class="edge"><title>v0&#45;&#45;v14</title>
<path fill="none" stroke="black" d="M872.369,-1086.66C909.965,-1066.81 984,-1019.52 984,-955 984,-955 984,-955 984,-377 984,-248.896 846.031,-139.337 795.37,-103.427"/>
</g>
<!-- v2 -->
<g id="node10" class="node"><title>v2</title>
<ellipse fill="none" stroke="black" cx="663" cy="-954" rx="27" ry="18"/>
<text text-anchor="middle" x="663" y="-950.3" font-family="Times,serif" font-size="14.00">v2</text>
</g>
<!-- v1&#45;&#45;v2 -->
<g id="edge9" class="edge"><title>v1&#45;&#45;v2</title>
<path fill="none" stroke="black" d="M706.066,-1009.81C696.84,-998.07 684.13,-981.893 674.911,-970.159"/>
</g>
<!-- v15 -->
<g id="node11" class="node"><title>v15</title>
<ellipse fill="none" stroke="black" cx="133" cy="-18" rx="27" ry="18"/>
<text text-anchor="middle" x="133" y="-14.3" font-family="Times,serif" font-size="14.00">v15</text>
</g>
<!-- v1&#45;&#45;v15 -->
<g id="edge10" class="edge"><title>v1&#45;&#45;v15</title>
<path fill="none" stroke="black" d="M690.89,-1024.02C580.254,-1019.85 166.446,-1002.32 117,-972 36.8571,-922.855 0,-718.854 0,-667 0,-667 0,-667 0,-161 0,-96.485 74.0352,-49.1933 111.631,-29.3372"/>
</g>
<!-- v16 -->
<g id="node12" class="node"><title>v16</title>
<ellipse fill="none" stroke="black" cx="665" cy="-18" rx="27" ry="18"/>
<text text-anchor="middle" x="665" y="-14.3" font-family="Times,serif" font-size="14.00">v16</text>
</g>
<!-- v1&#45;&#45;v16 -->
<g id="edge11" class="edge"><title>v1&#45;&#45;v16</title>
<path fill="none" stroke="black" d="M717.871,-1007.99C717.978,-969.031 720.551,-870.662 742,-792 751.26,-758.039 755.525,-749.323 775,-720 864.8,-584.794 1022,-613.31 1022,-451 1022,-451 1022,-451 1022,-377 1022,-212.672 951.513,-160.418 813,-72 773.777,-46.9622 721.151,-31.766 690.373,-24.4082"/>
</g>
<!-- v17 -->
<g id="node13" class="node"><title>v17</title>
<ellipse fill="none" stroke="black" cx="1003" cy="-18" rx="27" ry="18"/>
<text text-anchor="middle" x="1003" y="-14.3" font-family="Times,serif" font-size="14.00">v17</text>
</g>
<!-- v1&#45;&#45;v17 -->
<g id="edge12" class="edge"><title>v1&#45;&#45;v17</title>
<path fill="none" stroke="black" d="M722.914,-1007.88C731.933,-977.722 752.732,-913.61 780,-864 921.517,-606.53 1136,-600.799 1136,-307 1136,-307 1136,-307 1136,-161 1136,-96.485 1061.96,-49.1933 1024.37,-29.3372"/>
</g>
<!-- v18 -->
<g id="node14" class="node"><title>v18</title>
<ellipse fill="none" stroke="black" cx="380" cy="-18" rx="27" ry="18"/>
<text text-anchor="middle" x="380" y="-14.3" font-family="Times,serif" font-size="14.00">v18</text>
</g>
<!-- v1&#45;&#45;v18 -->
<g id="edge13" class="edge"><title>v1&#45;&#45;v18</title>
<path fill="none" stroke="black" d="M690.824,-1024.9C568.629,-1023.71 76,-1010.99 76,-883 76,-883 76,-883 76,-809 76,-620.848 131.786,-580.435 169,-396 191.502,-284.476 182.58,-253.347 214,-144 223.527,-110.843 218.439,-96.2254 243,-72 273.685,-41.7348 323.562,-28.3314 353.918,-22.7167"/>
</g>
<!-- v19 -->
<g id="node15" class="node"><title>v19</title>
<ellipse fill="none" stroke="black" cx="1134" cy="-18" rx="27" ry="18"/>
<text text-anchor="middle" x="1134" y="-14.3" font-family="Times,serif" font-size="14.00">v19</text>
</g>
<!-- v1&#45;&#45;v19 -->
<g id="edge14" class="edge"><title>v1&#45;&#45;v19</title>
<path fill="none" stroke="black" d="M736.157,-1012.66C820.968,-953.415 1174,-688.222 1174,-379 1174,-379 1174,-379 1174,-161 1174,-114.13 1153.56,-61.707 1141.9,-35.621"/>
</g>
<!-- v3&#45;&#45;v4 -->
<g id="edge16" class="edge"><title>v3&#45;&#45;v4</title>
<path fill="none" stroke="black" d="M582.595,-875.739C519.956,-862.766 358.647,-829.359 295.7,-816.322"/>
</g>
<!-- v3&#45;&#45;v15 -->
<g id="edge17" class="edge"><title>v3&#45;&#45;v15</title>
<path fill="none" stroke="black" d="M580.986,-881.642C517.755,-882.208 356.237,-878.197 234,-828 129.718,-785.177 38,-779.732 38,-667 38,-667 38,-667 38,-161 38,-105.534 88.6905,-55.3312 116.016,-32.2984"/>
</g>
<!-- v3&#45;&#45;v16 -->
<g id="edge18" class="edge"><title>v3&#45;&#45;v16</title>
<path fill="none" stroke="black" d="M604.89,-863.928C595.815,-812.566 570,-654.879 570,-523 570,-523 570,-523 570,-161 570,-105.534 620.691,-55.3312 648.016,-32.2984"/>
</g>
<!-- v3&#45;&#45;v17 -->
<g id="edge19" class="edge"><title>v3&#45;&#45;v17</title>
<path fill="none" stroke="black" d="M618.678,-865.27C644.841,-827.018 714.778,-726.51 780,-648 912.421,-488.599 1098,-514.23 1098,-307 1098,-307 1098,-307 1098,-161 1098,-105.534 1047.31,-55.3312 1019.98,-32.2984"/>
</g>
<!-- v3&#45;&#45;v18 -->
<g id="edge20" class="edge"><title>v3&#45;&#45;v18</title>
<path fill="none" stroke="black" d="M581.846,-877.285C521.957,-867.152 380,-833.198 380,-739 380,-739 380,-739 380,-377 380,-245.858 380,-87.6928 380,-36.1401"/>
</g>
<!-- v4&#45;&#45;v15 -->
<g id="edge22" class="edge"><title>v4&#45;&#45;v15</title>
<path fill="none" stroke="black" d="M248.869,-798.566C198.589,-772.083 76,-697.049 76,-595 76,-595 76,-595 76,-161 76,-112.121 105.446,-60.148 122.01,-34.7798"/>
</g>
<!-- v4&#45;&#45;v16 -->
<g id="edge23" class="edge"><title>v4&#45;&#45;v16</title>
<path fill="none" stroke="black" d="M272.714,-792.046C275.816,-773.972 281.456,-744.624 289,-720 346.999,-530.691 456,-504.994 456,-307 456,-307 456,-307 456,-161 456,-73.2654 583.563,-35.9462 639.372,-23.8173"/>
</g>
<!-- v4&#45;&#45;v17 -->
<g id="edge24" class="edge"><title>v4&#45;&#45;v17</title>
<path fill="none" stroke="black" d="M293.483,-800.484C359.217,-776.141 549.566,-702.176 692,-612 714.435,-597.796 1060,-333.554 1060,-307 1060,-307 1060,-307 1060,-161 1060,-112.121 1030.55,-60.148 1013.99,-34.7798"/>
</g>
<!-- v4&#45;&#45;v18 -->
<g id="edge25" class="edge"><title>v4&#45;&#45;v18</title>
<path fill="none" stroke="black" d="M261.702,-792.422C249.462,-766.393 228,-714.047 228,-667 228,-667 228,-667 228,-161 228,-91.1218 314.841,-45.7518 357.244,-27.7636"/>
</g>
<!-- v5 -->
<g id="node16" class="node"><title>v5</title>
<ellipse fill="none" stroke="black" cx="325" cy="-738" rx="27" ry="18"/>
<text text-anchor="middle" x="325" y="-734.3" font-family="Times,serif" font-size="14.00">v5</text>
</g>
<!-- v4&#45;&#45;v5 -->
<g id="edge21" class="edge"><title>v4&#45;&#45;v5</title>
<path fill="none" stroke="black" d="M281.934,-793.811C291.16,-782.07 303.87,-765.893 313.089,-754.159"/>
</g>
<!-- v6&#45;&#45;v15 -->
<g id="edge28" class="edge"><title>v6&#45;&#45;v15</title>
<path fill="none" stroke="black" d="M471.075,-656.175C405.446,-629.362 218.39,-541.666 169,-396 124.03,-263.371 128.971,-90.4569 131.9,-36.1105"/>
</g>
<!-- v6&#45;&#45;v16 -->
<g id="edge29" class="edge"><title>v6&#45;&#45;v16</title>
<path fill="none" stroke="black" d="M494,-647.951C494,-621.292 494,-568.115 494,-523 494,-523 494,-523 494,-377 494,-238.672 471.256,-181.33 556,-72 576.754,-45.224 614.516,-31.1645 639.684,-24.417"/>
</g>
<!-- v6&#45;&#45;v17 -->
<g id="edge30" class="edge"><title>v6&#45;&#45;v17</title>
<path fill="none" stroke="black" d="M520.486,-661.617C555.378,-656.104 617.412,-642.557 661,-612 709.966,-577.672 955.218,-233.468 982,-180 997.107,-149.841 1000.6,-141.295 1006,-108 1008.56,-92.2066 1006.45,-87.9936 1006,-72 1005.66,-60.0238 1004.89,-46.5437 1004.22,-36.1753"/>
</g>
<!-- v6&#45;&#45;v18 -->
<g id="edge31" class="edge"><title>v6&#45;&#45;v18</title>
<path fill="none" stroke="black" d="M481.552,-649.647C456.247,-617.722 398.461,-541.055 366,-468 322.488,-370.073 304,-342.159 304,-235 304,-235 304,-235 304,-161 304,-120.031 307.656,-107.561 328,-72 336.961,-56.3354 351.673,-41.9531 363.165,-32.1355"/>
</g>
<!-- v7 -->
<g id="node17" class="node"><title>v7</title>
<ellipse fill="none" stroke="black" cx="625" cy="-594" rx="27" ry="18"/>
<text text-anchor="middle" x="625" y="-590.3" font-family="Times,serif" font-size="14.00">v7</text>
</g>
<!-- v6&#45;&#45;v7 -->
<g id="edge27" class="edge"><title>v6&#45;&#45;v7</title>
<path fill="none" stroke="black" d="M514.469,-654.062C539.079,-640.912 580.129,-618.977 604.675,-605.861"/>
</g>
<!-- v8&#45;&#45;v15 -->
<g id="edge34" class="edge"><title>v8&#45;&#45;v15</title>
<path fill="none" stroke="black" d="M627.479,-508.863C559.367,-463.457 319.302,-296.518 176,-108 158.761,-85.3221 145.799,-54.6327 138.815,-35.8571"/>
</g>
<!-- v8&#45;&#45;v16 -->
<g id="edge35" class="edge"><title>v8&#45;&#45;v16</title>
<path fill="none" stroke="black" d="M646,-503.951C646,-477.292 646,-424.115 646,-379 646,-379 646,-379 646,-161 646,-115.483 655.709,-62.4791 661.246,-35.9512"/>
</g>
<!-- v8&#45;&#45;v17 -->
<g id="edge36" class="edge"><title>v8&#45;&#45;v17</title>
<path fill="none" stroke="black" d="M668.698,-511.735C688.52,-502.788 717.147,-487.706 737,-468 877.827,-328.217 972.374,-99.0038 996.762,-35.6668"/>
</g>
<!-- v8&#45;&#45;v18 -->
<g id="edge37" class="edge"><title>v8&#45;&#45;v18</title>
<path fill="none" stroke="black" d="M637.451,-504.866C597.434,-429.346 428.885,-111.256 388.651,-35.3261"/>
</g>
<!-- v9 -->
<g id="node18" class="node"><title>v9</title>
<ellipse fill="none" stroke="black" cx="701" cy="-450" rx="27" ry="18"/>
<text text-anchor="middle" x="701" y="-446.3" font-family="Times,serif" font-size="14.00">v9</text>
</g>
<!-- v8&#45;&#45;v9 -->
<g id="edge33" class="edge"><title>v8&#45;&#45;v9</title>
<path fill="none" stroke="black" d="M657.934,-505.811C667.16,-494.07 679.87,-477.893 689.089,-466.159"/>
</g>
<!-- v10&#45;&#45;v15 -->
<g id="edge40" class="edge"><title>v10&#45;&#45;v15</title>
<path fill="none" stroke="black" d="M702.738,-365.292C613.619,-311.125 241.849,-85.1594 152.413,-30.7992"/>
</g>
<!-- v10&#45;&#45;v16 -->
<g id="edge41" class="edge"><title>v10&#45;&#45;v16</title>
<path fill="none" stroke="black" d="M719.251,-359.733C709.599,-299.115 677.33,-96.4397 667.722,-36.0938"/>
</g>
<!-- v10&#45;&#45;v17 -->
<g id="edge42" class="edge"><title>v10&#45;&#45;v17</title>
<path fill="none" stroke="black" d="M743.064,-366.333C790.502,-341.113 905.786,-272.88 960,-180 987.71,-132.526 997.974,-66.8358 1001.42,-36.1195"/>
</g>
<!-- v10&#45;&#45;v18 -->
<g id="edge43" class="edge"><title>v10&#45;&#45;v18</title>
<path fill="none" stroke="black" d="M708.196,-362.32C666.662,-318.183 539.105,-182.891 432,-72 419.283,-58.8339 404.675,-43.967 394.186,-33.3371"/>
</g>
<!-- v11 -->
<g id="node19" class="node"><title>v11</title>
<ellipse fill="none" stroke="black" cx="777" cy="-306" rx="27" ry="18"/>
<text text-anchor="middle" x="777" y="-302.3" font-family="Times,serif" font-size="14.00">v11</text>
</g>
<!-- v10&#45;&#45;v11 -->
<g id="edge39" class="edge"><title>v10&#45;&#45;v11</title>
<path fill="none" stroke="black" d="M733.934,-361.811C743.16,-350.07 755.87,-333.893 765.089,-322.159"/>
</g>
<!-- v12&#45;&#45;v15 -->
<g id="edge46" class="edge"><title>v12&#45;&#45;v15</title>
<path fill="none" stroke="black" d="M753.316,-225.13C652.22,-191.536 257.411,-60.3416 156.559,-26.8285"/>
</g>
<!-- v12&#45;&#45;v16 -->
<g id="edge47" class="edge"><title>v12&#45;&#45;v16</title>
<path fill="none" stroke="black" d="M765.024,-217.333C757.522,-207.071 747.986,-193.167 741,-180 716.786,-134.361 721.302,-118.111 698,-72 691.449,-59.0366 682.715,-45.123 675.877,-34.8057"/>
</g>
<!-- v12&#45;&#45;v17 -->
<g id="edge48" class="edge"><title>v12&#45;&#45;v17</title>
<path fill="none" stroke="black" d="M789.938,-218.005C815.644,-188.577 875.55,-121.792 932,-72 948.957,-57.0425 969.851,-41.7873 984.569,-31.508"/>
</g>
<!-- v12&#45;&#45;v18 -->
<g id="edge49" class="edge"><title>v12&#45;&#45;v18</title>
<path fill="none" stroke="black" d="M758.62,-220.705C715.826,-192.371 605.736,-121.149 508,-72 472.33,-54.0624 429.099,-37.1027 403.111,-27.3949"/>
</g>
<!-- v13 -->
<g id="node20" class="node"><title>v13</title>
<ellipse fill="none" stroke="black" cx="777" cy="-162" rx="27" ry="18"/>
<text text-anchor="middle" x="777" y="-158.3" font-family="Times,serif" font-size="14.00">v13</text>
</g>
<!-- v12&#45;&#45;v13 -->
<g id="edge45" class="edge"><title>v12&#45;&#45;v13</title>
<path fill="none" stroke="black" d="M777,-215.697C777,-204.846 777,-190.917 777,-180.104"/>
</g>
<!-- v14&#45;&#45;v15 -->
<g id="edge51" class="edge"><title>v14&#45;&#45;v15</title>
<path fill="none" stroke="black" d="M750.554,-86.1254C646.293,-74.7927 264.318,-33.2737 159.667,-21.8985"/>
</g>
<!-- v14&#45;&#45;v16 -->
<g id="edge52" class="edge"><title>v14&#45;&#45;v16</title>
<path fill="none" stroke="black" d="M758.001,-77.1255C737.405,-64.2533 704.724,-43.8277 684.092,-30.9328"/>
</g>
<!-- v14&#45;&#45;v17 -->
<g id="edge53" class="edge"><title>v14&#45;&#45;v17</title>
<path fill="none" stroke="black" d="M798.951,-79.3574C805.064,-76.8207 811.744,-74.1852 818,-72 874.459,-52.2798 942.412,-34.225 978.181,-25.148"/>
</g>
<!-- v14&#45;&#45;v18 -->
<g id="edge54" class="edge"><title>v14&#45;&#45;v18</title>
<path fill="none" stroke="black" d="M751.258,-84.461C679.522,-71.8124 477.918,-36.2652 405.942,-23.5742"/>
</g>
<!-- v14&#45;&#45;v19 -->
<g id="edge55" class="edge"><title>v14&#45;&#45;v19</title>
<path fill="none" stroke="black" d="M802.675,-83.9658C868.384,-71.0816 1042.1,-37.0198 1108.08,-24.0827"/>
</g>
<!-- v2&#45;&#45;v3 -->
<g id="edge15" class="edge"><title>v2&#45;&#45;v3</title>
<path fill="none" stroke="black" d="M651.066,-937.811C641.84,-926.07 629.13,-909.893 619.911,-898.159"/>
</g>
<!-- v5&#45;&#45;v6 -->
<g id="edge26" class="edge"><title>v5&#45;&#45;v6</title>
<path fill="none" stroke="black" d="M347.442,-727.705C379.855,-714.279 439.42,-689.607 471.734,-676.222"/>
</g>
<!-- v7&#45;&#45;v8 -->
<g id="edge32" class="edge"><title>v7&#45;&#45;v8</title>
<path fill="none" stroke="black" d="M630.084,-576.055C633.385,-565.049 637.671,-550.764 640.963,-539.789"/>
</g>
<!-- v9&#45;&#45;v10 -->
<g id="edge38" class="edge"><title>v9&#45;&#45;v10</title>
<path fill="none" stroke="black" d="M706.084,-432.055C709.385,-421.049 713.671,-406.764 716.963,-395.789"/>
</g>
<!-- v11&#45;&#45;v12 -->
<g id="edge44" class="edge"><title>v11&#45;&#45;v12</title>
<path fill="none" stroke="black" d="M777,-287.697C777,-276.846 777,-262.917 777,-252.104"/>
</g>
<!-- v13&#45;&#45;v14 -->
<g id="edge50" class="edge"><title>v13&#45;&#45;v14</title>
<path fill="none" stroke="black" d="M777,-143.697C777,-132.846 777,-118.917 777,-108.104"/>
</g>
<!-- A8 -->
<g id="node21" class="node"><title>A8</title>
<ellipse fill="yellow" stroke="black" cx="923" cy="-1098" rx="27" ry="18"/>
<text text-anchor="middle" x="923" y="-1094.3" font-family="Times,serif" font-size="14.00">A8</text>
</g>
<!-- G13 -->
<g id="node22" class="node"><title>G13</title>
<ellipse fill="blue" stroke="black" cx="995" cy="-1098" rx="27" ry="18"/>
<text text-anchor="middle" x="995" y="-1094.3" font-family="Times,serif" font-size="14.00">G13</text>
</g>
</g>
</svg>
